<svg xmlns="http://www.w3.org/2000/svg" id="aleph-zero-logo-dark_svg__logotype_brandmark" data-name="logotype+brandmark" viewBox="0 0 1082 105">
  <defs>
    <style>
      .aleph-zero-logo-dark_svg__cls-1{fill:#fff}
    </style>
  </defs>
  <path d="M158.038 87.63V4.13a1.5 1.5 0 0 0-1.5-1.5h-12a1.5 1.5 0 0 0-1.5 1.5v97a1.5 1.5 0 0 0 1.5 1.5h62a1.5 1.5 0 0 0 1.5-1.5v-12a1.5 1.5 0 0 0-1.5-1.5Z" class="aleph-zero-logo-dark_svg__cls-1"/>
  <rect width="75" height="15" x="239.5" y="2.63" class="aleph-zero-logo-dark_svg__cls-1" rx="1.5"/>
  <rect width="75" height="15" x="239.5" y="87.63" class="aleph-zero-logo-dark_svg__cls-1" rx="1.5"/>
  <rect width="75" height="15" x="239.5" y="45.074" class="aleph-zero-logo-dark_svg__cls-1" rx="1.5"/>
  <rect width="75" height="15" x="767.41" y="2.63" class="aleph-zero-logo-dark_svg__cls-1" rx="1.5"/>
  <rect width="75" height="15" x="767.41" y="87.63" class="aleph-zero-logo-dark_svg__cls-1" rx="1.5"/>
  <rect width="75" height="15" x="767.41" y="45.075" class="aleph-zero-logo-dark_svg__cls-1" rx="1.5"/>
  <rect width="15" height="100" x="538" y="2.63" class="aleph-zero-logo-dark_svg__cls-1" rx="1.5"/>
  <path d="M521.5 45.145H483V4.13a1.5 1.5 0 0 0-1.5-1.5h-12a1.5 1.5 0 0 0-1.5 1.5v41.015h-13.5a1.5 1.5 0 0 0-1.5 1.5v12a1.5 1.5 0 0 0 1.5 1.5H468v40.985a1.5 1.5 0 0 0 1.5 1.5h12a1.5 1.5 0 0 0 1.5-1.5V60.145h38.5a1.5 1.5 0 0 0 1.5-1.5v-12a1.5 1.5 0 0 0-1.5-1.5ZM87.861 60.075H104.5a1.5 1.5 0 0 0 1.5-1.5v-12a1.5 1.5 0 0 0-1.5-1.5H81.183L62.813 3.816a2 2 0 0 0-1.827-1.186H46.014a2 2 0 0 0-1.827 1.186l-18.37 41.259H2.5a1.5 1.5 0 0 0-1.5 1.5v12a1.5 1.5 0 0 0 1.5 1.5h16.639L1.132 100.52a1.5 1.5 0 0 0 1.37 2.11h13.391a2 2 0 0 0 1.827-1.187L53.5 21.08l35.78 80.363a2 2 0 0 0 1.827 1.187h13.391a1.5 1.5 0 0 0 1.37-2.11ZM428.276 24.767A36.258 36.258 0 0 0 394.878 2.63h-42.25a1.5 1.5 0 0 0-1.5 1.5v12a1.5 1.5 0 0 0 1.5 1.5h42.25a21.243 21.243 0 0 1 21.25 21.25 21.243 21.243 0 0 1-21.25 21.25h-42.25a1.5 1.5 0 0 0-1.5 1.5v39.5a1.5 1.5 0 0 0 1.5 1.5h12a1.5 1.5 0 0 0 1.5-1.5v-26h28.75a36.242 36.242 0 0 0 36.25-36.25 36.168 36.168 0 0 0-2.852-14.113ZM952.887 59.153a36.125 36.125 0 0 0 6.195-20.273 36.242 36.242 0 0 0-36.25-36.25h-42.25a1.5 1.5 0 0 0-1.5 1.5v12a1.5 1.5 0 0 0 1.5 1.5h42.25a21.244 21.244 0 0 1 21.25 21.25 21.244 21.244 0 0 1-21.25 21.25h-42.25a1.5 1.5 0 0 0-1.5 1.5v39.5a1.5 1.5 0 0 0 1.5 1.5h12a1.5 1.5 0 0 0 1.5-1.5v-26h28.75a36.306 36.306 0 0 0 7.47-.776l12.193 27.386a1.5 1.5 0 0 0 1.37.89h13.716a1.5 1.5 0 0 0 1.37-2.11l-14.498-32.565a36.402 36.402 0 0 0 8.434-8.802ZM734.447 2.63h-72a1.5 1.5 0 0 0-1.5 1.5v12a1.5 1.5 0 0 0 1.5 1.5h51.208l-19.918 25.417a1.3 1.3 0 0 0 1.023 2.102h15.136a3 3 0 0 0 2.36-1.15l23.053-29.415a3 3 0 0 0 .638-1.85V4.13a1.5 1.5 0 0 0-1.5-1.5ZM734.447 87.63h-56.381l19.888-25.38a1.3 1.3 0 0 0-1.023-2.101h-15.136a3 3 0 0 0-2.362 1.15l-22.847 29.155a3 3 0 0 0-.639 1.85v8.826a1.5 1.5 0 0 0 1.5 1.5h77a1.5 1.5 0 0 0 1.5-1.5v-12a1.5 1.5 0 0 0-1.5-1.5ZM1067.327 60.038a1.507 1.507 0 0 0-1.476 1.248 40.284 40.284 0 0 1-1.879 6.87 32.027 32.027 0 0 1-11.73 15.384 31.568 31.568 0 0 1-18.104 5.46 32.563 32.563 0 0 1-12.665-2.484 30.415 30.415 0 0 1-14.134-12.16 37.502 37.502 0 0 1-4.902-13.071 1.505 1.505 0 0 0-1.473-1.247h-12.172a1.5 1.5 0 0 0-1.491 1.7 55.993 55.993 0 0 0 2.958 11.689A46.026 46.026 0 0 0 1034.138 104a47.576 47.576 0 0 0 18.475-3.655 45.459 45.459 0 0 0 21.064-18.073 53.128 53.128 0 0 0 7.301-20.533 1.501 1.501 0 0 0-1.491-1.701ZM1000.934 45.038a1.507 1.507 0 0 0 1.476-1.251 40.28 40.28 0 0 1 1.893-6.943 32.026 32.026 0 0 1 11.73-15.384 31.569 31.569 0 0 1 18.105-5.46 32.566 32.566 0 0 1 12.664 2.484 30.417 30.417 0 0 1 14.134 12.16 37.538 37.538 0 0 1 4.916 13.144 1.505 1.505 0 0 0 1.473 1.25h12.169a1.5 1.5 0 0 0 1.491-1.698 56.012 56.012 0 0 0-2.97-11.767A46.025 46.025 0 0 0 1034.139 1a47.572 47.572 0 0 0-18.476 3.655 45.457 45.457 0 0 0-21.064 18.073 53.153 53.153 0 0 0-7.312 20.61 1.501 1.501 0 0 0 1.492 1.7Z" class="aleph-zero-logo-dark_svg__cls-1"/>
</svg>
