<svg xmlns="http://www.w3.org/2000/svg" fill="none" viewBox="0 0 95 24">
  <g clip-path="url(#arbitrum-nova_svg__a)">
    <path fill="#213147" d="M30.808 6.18c.221 0 .413.044.565.138.153.093.305.27.452.536l2.914 5.291c.03.059.034.108.019.147-.015.04-.059.059-.128.059h-1.12c-.098 0-.167-.04-.201-.113l-.624-1.135h-4.142l-.61 1.135c-.039.079-.107.113-.201.113h-1.145c-.078 0-.122-.02-.137-.059-.015-.04-.01-.088.02-.147l2.893-5.296c.147-.265.29-.442.433-.536a.87.87 0 0 1 .491-.137h.52v.005h.002Zm-1.714 3.896h3.036l-1.4-2.584c-.025-.04-.055-.064-.098-.064h-.055c-.039 0-.073.02-.098.064l-1.385 2.584ZM41.155 6.18c.678 0 1.16.153 1.454.457.295.305.442.757.442 1.357v.5c0 .507-.103.904-.309 1.2-.206.294-.54.48-1.007.564l1.508 1.867c.03.03.04.073.025.132-.01.06-.059.089-.143.089H41.99a.369.369 0 0 1-.157-.025.37.37 0 0 1-.089-.088L40.35 10.4H37.5v1.754c0 .128-.064.192-.192.192h-.953c-.137 0-.2-.064-.2-.192V6.445c0-.177.087-.265.264-.265h4.737-.001Zm-3.65 3.145h3.375c.3 0 .511-.064.634-.192s.186-.324.186-.59v-.368c0-.265-.063-.462-.186-.59-.123-.127-.335-.191-.634-.191h-3.262c-.079 0-.113.034-.113.108v1.823ZM50.426 6.18c.604 0 1.037.123 1.292.364.256.24.384.604.384 1.09v.424c0 .49-.187.864-.565 1.12.403.235.61.613.61 1.134v.512c0 .235-.025.447-.08.633a1.18 1.18 0 0 1-.26.482c-.122.132-.28.236-.481.305a2.293 2.293 0 0 1-.742.108h-5.237c-.177 0-.266-.089-.266-.266v-5.64c0-.177.089-.265.266-.265h5.08-.001Zm-3.994 2.565h3.616c.295 0 .49-.044.599-.132.108-.089.157-.217.157-.388v-.3c0-.182-.049-.314-.152-.403-.103-.083-.27-.127-.496-.127H46.55c-.08 0-.113.039-.113.113v1.238h-.005Zm0 .958v1.312c0 .079.04.113.113.113h3.616c.235 0 .402-.044.5-.128.099-.083.153-.22.153-.408v-.334c0-.182-.054-.32-.162-.413-.108-.093-.31-.143-.604-.143h-3.616v.001ZM55.432 6.18c.128 0 .192.064.192.192v5.783c0 .128-.064.192-.192.192h-.953c-.137 0-.201-.064-.201-.192V6.372c0-.128.069-.192.201-.192h.953ZM64.668 6.18c.138 0 .202.064.202.192v.865c0 .137-.07.2-.202.2h-2.766v4.717c0 .128-.064.192-.192.192h-.963c-.127 0-.191-.064-.191-.192V7.438h-2.767c-.137 0-.2-.07-.2-.201v-.865c0-.128.068-.192.2-.192h6.879ZM71.64 6.18c.677 0 1.159.153 1.454.457.295.305.442.757.442 1.357v.5c0 .507-.103.904-.31 1.2-.206.294-.54.48-1.006.564l1.508 1.867c.03.03.039.073.024.132-.01.06-.059.089-.142.089h-1.135a.368.368 0 0 1-.158-.025.367.367 0 0 1-.088-.088L70.834 10.4h-2.85v1.754c0 .128-.063.192-.191.192h-.953c-.138 0-.202-.064-.202-.192V6.445c0-.177.089-.265.266-.265h4.736Zm-3.646 3.145h3.376c.3 0 .51-.064.633-.192s.187-.324.187-.59v-.368c0-.265-.064-.462-.187-.59-.122-.127-.334-.191-.633-.191h-3.262c-.08 0-.113.034-.113.108v1.823ZM76.597 6.18c.128 0 .192.064.192.192V9.89c0 .235.02.432.059.584.039.158.103.28.191.369a.682.682 0 0 0 .36.192c.151.04.338.059.57.059h2.44c.232 0 .418-.02.57-.06a.762.762 0 0 0 .36-.191.77.77 0 0 0 .186-.369c.034-.157.054-.348.054-.584V6.372c0-.128.064-.192.192-.192h.963c.128 0 .192.064.192.192v3.65c0 .423-.044.782-.133 1.081a1.612 1.612 0 0 1-.427.723 1.73 1.73 0 0 1-.766.402 4.505 4.505 0 0 1-1.14.123h-2.54c-.448 0-.826-.04-1.135-.123a1.744 1.744 0 0 1-.762-.402 1.667 1.667 0 0 1-.432-.723c-.094-.295-.138-.658-.138-1.08v-3.65c0-.129.07-.193.201-.193h.944ZM86.713 6.18c.127 0 .24.01.334.025.093.02.177.049.246.103.069.05.132.118.191.202.055.083.113.196.172.339l1.833 4.23a.123.123 0 0 0 .123.078h.107a.122.122 0 0 0 .123-.078l1.833-4.23a2.14 2.14 0 0 1 .171-.34.67.67 0 0 1 .432-.305c.095-.018.202-.024.33-.024h.943c.305 0 .511.07.62.207.107.137.157.373.157.707v5.06c0 .129-.07.193-.202.193h-.899c-.128 0-.192-.064-.192-.192V7.55c0-.058-.024-.088-.069-.088h-.078c-.06 0-.099.025-.113.07l-1.779 3.95c-.069.156-.142.294-.216.402a1.462 1.462 0 0 1-.236.27.78.78 0 0 1-.29.153c-.107.03-.235.044-.383.044h-.423c-.147 0-.275-.015-.383-.044a.72.72 0 0 1-.29-.153 1.163 1.163 0 0 1-.236-.27 2.343 2.343 0 0 1-.216-.403l-1.778-3.95c-.02-.049-.054-.069-.113-.069h-.079c-.049 0-.069.03-.069.088v4.604c0 .128-.064.192-.192.192h-.899c-.137 0-.201-.064-.201-.192v-5.06c0-.335.054-.57.157-.708.108-.138.314-.207.624-.207h.939ZM27.365 14.174c.083 0 .152.005.206.01a.37.37 0 0 1 .147.043c.04.025.084.055.118.094.04.04.084.094.128.158l1.936 2.54c.015.024.034.034.07.034h.048c.03 0 .04-.02.04-.054v-2.717c0-.08.039-.113.113-.113h.545c.079 0 .113.04.113.113v2.986c0 .212-.04.354-.113.428-.079.073-.196.113-.354.113h-.447c-.079 0-.147-.005-.201-.01a.391.391 0 0 1-.266-.133 1.954 1.954 0 0 1-.137-.162l-1.94-2.54a.085.085 0 0 0-.07-.034h-.049c-.03 0-.04.02-.04.054v2.717c0 .079-.039.113-.112.113h-.546c-.078 0-.118-.04-.118-.113v-2.987c0-.211.04-.354.113-.427.079-.074.197-.113.354-.113h.462ZM35.078 14.174c.265 0 .486.024.673.073.187.05.34.128.452.241a.89.89 0 0 1 .25.423c.055.172.08.383.08.634v.894c0 .25-.025.462-.08.638a.97.97 0 0 1-.25.428 1.047 1.047 0 0 1-.452.235c-.186.05-.412.074-.673.074h-1.611c-.265 0-.486-.024-.673-.074a1.07 1.07 0 0 1-.452-.235.931.931 0 0 1-.256-.428 2.195 2.195 0 0 1-.079-.638v-.894c0-.25.025-.462.08-.634a.946.946 0 0 1 .255-.423c.118-.108.265-.191.452-.24.182-.05.408-.074.673-.074h1.611Zm-2.27 2.21c0 .138.01.251.035.34a.467.467 0 0 0 .113.22.416.416 0 0 0 .21.113c.09.025.202.035.335.035h1.547c.138 0 .246-.01.335-.035a.456.456 0 0 0 .21-.112.471.471 0 0 0 .114-.221 1.36 1.36 0 0 0 .034-.34v-.78c0-.138-.01-.25-.034-.34a.466.466 0 0 0-.113-.22.416.416 0 0 0-.211-.113 1.293 1.293 0 0 0-.335-.034h-1.547c-.137 0-.246.01-.334.034a.455.455 0 0 0-.211.113.472.472 0 0 0-.113.22 1.365 1.365 0 0 0-.035.34v.78ZM37.864 14.174c.034 0 .058.005.073.015.015.01.03.03.044.054l1.528 2.8c.01.025.03.034.064.034h.024c.025 0 .044-.01.06-.034l1.503-2.8c.019-.044.058-.07.118-.07h.683c.04 0 .069.01.073.035.01.025.005.05-.014.083l-1.71 3.13c-.089.162-.172.265-.256.32a.523.523 0 0 1-.29.078h-.3a.623.623 0 0 1-.334-.079c-.088-.054-.177-.157-.265-.32l-1.724-3.129a.114.114 0 0 1-.015-.083c.01-.024.034-.034.079-.034h.658ZM44.309 14.174c.132 0 .24.024.334.079.089.054.177.157.266.314l1.724 3.13c.02.034.02.063.015.083-.01.024-.035.034-.074.034h-.663c-.059 0-.098-.024-.118-.069l-.369-.673h-2.446l-.359.673a.128.128 0 0 1-.118.069h-.678c-.044 0-.074-.01-.079-.034a.107.107 0 0 1 .015-.084l1.71-3.13c.089-.157.172-.26.256-.313a.523.523 0 0 1 .29-.08h.295-.001Zm-1.007 2.3h1.793l-.83-1.524a.064.064 0 0 0-.059-.034h-.03a.064.064 0 0 0-.058.034l-.816 1.523Z"/>
    <path fill="#F70" d="M10.636 1.489c.06 0 .113.014.168.044l8.818 5.09a.328.328 0 0 1 .167.284v10.18a.327.327 0 0 1-.167.284l-8.819 5.095a.344.344 0 0 1-.334 0l-8.813-5.09a.328.328 0 0 1-.167-.284V6.908c0-.118.063-.226.167-.285l8.813-5.09a.337.337 0 0 1 .167-.044m0-1.488c-.314 0-.628.083-.909.245L.91 5.336A1.82 1.82 0 0 0 0 6.907v10.18c0 .648.349 1.247.909 1.576l8.818 5.09a1.813 1.813 0 0 0 1.818 0l8.819-5.09c.565-.324.909-.924.909-1.577V6.907c0-.648-.349-1.247-.91-1.576L11.546.24A1.813 1.813 0 0 0 10.636 0Z"/>
    <path fill="#F70" d="M8.386 6.784h-1.15a.201.201 0 0 0-.191.138l-3.71 10.155a.102.102 0 0 0 .099.137h1.15a.201.201 0 0 0 .191-.137l3.704-10.16c.03-.064-.02-.133-.093-.133ZM9.88 10.725c-.034-.089-.162-.089-.192 0l-.6 1.64a.234.234 0 0 0 0 .143l1.671 4.575c.03.083.108.137.192.137h1.15a.102.102 0 0 0 .098-.137l-2.32-6.358ZM10.4 6.784H9.252a.201.201 0 0 0-.192.138L5.355 17.077a.102.102 0 0 0 .098.137h1.15a.201.201 0 0 0 .192-.137l3.704-10.16c.024-.064-.025-.133-.098-.133ZM10.887 7.959c-.034-.089-.162-.089-.192 0l-.599 1.64a.235.235 0 0 0 0 .143l2.678 7.335c.03.084.108.138.191.138h1.15a.102.102 0 0 0 .098-.138L10.888 7.96h-.001ZM17.838 6.784h-1.15a.201.201 0 0 0-.191.138l-2.682 7.335a.235.235 0 0 0 0 .143l.6 1.64c.034.089.162.089.191 0l3.326-9.117a.101.101 0 0 0-.094-.138ZM13.407 13.274c.034.089.162.089.192 0l2.318-6.352a.102.102 0 0 0-.098-.138h-1.15a.201.201 0 0 0-.191.138l-1.67 4.574a.233.233 0 0 0 0 .143l.598 1.636Z"/>
  </g>
  <defs>
    <clipPath id="arbitrum-nova_svg__a">
      <path fill="#fff" d="M0 0h95v24H0z"/>
    </clipPath>
  </defs>
</svg>
