<svg xmlns="http://www.w3.org/2000/svg" fill="none" viewBox="0 0 95 24">
  <g clip-path="url(#arbitrum-sepolia_svg__a)">
    <path fill="#213147" d="M.805 7.295v9.41c0 .599.32 1.154.84 1.453l8.149 4.703c.52.3 1.158.3 1.678 0l8.15-4.703c.52-.3.839-.854.839-1.453v-9.41c0-.6-.32-1.154-.84-1.453l-8.148-4.703a1.68 1.68 0 0 0-1.68 0L1.646 5.842c-.516.3-.84.854-.84 1.453Z"/>
    <path fill="#12AAFF" d="m12.415 13.824-1.164 3.185a.382.382 0 0 0 0 .275l1.998 5.484 2.313-1.336-2.774-7.608a.197.197 0 0 0-.373 0ZM14.741 8.463a.197.197 0 0 0-.373 0l-1.163 3.186a.382.382 0 0 0 0 .275l3.274 8.978 2.312-1.335-4.05-11.104Z"/>
    <path fill="#9DCCED" d="M10.633 1.487c.06 0 .113.015.167.045l8.816 5.09c.103.06.167.167.167.285v10.18a.329.329 0 0 1-.167.286L10.8 22.468a.337.337 0 0 1-.333 0l-8.813-5.09a.328.328 0 0 1-.166-.285V6.907c0-.118.063-.226.166-.285l8.817-5.09a.32.32 0 0 1 .162-.045Zm0-1.487c-.314 0-.628.084-.908.246L.908 5.336C.348 5.66 0 6.26 0 6.906v10.182c0 .648.349 1.252.908 1.576l8.817 5.09c.28.162.594.246.908.246.315 0 .629-.084.908-.246l8.817-5.09a1.81 1.81 0 0 0 .908-1.576V6.907c0-.648-.348-1.252-.908-1.576L11.546.246A1.847 1.847 0 0 0 10.633 0Z"/>
    <path fill="#213147" d="m4.806 20.913.81-2.22 1.63 1.355-1.522 1.395-.918-.53Z"/>
    <path fill="#fff" d="M9.892 6.18H7.658a.393.393 0 0 0-.373.26L2.494 19.577l2.312 1.335 5.277-14.467a.2.2 0 0 0-.191-.265ZM13.804 6.18h-2.233a.393.393 0 0 0-.373.26L5.725 21.442l2.312 1.335L13.991 6.45a.2.2 0 0 0-.187-.27Z"/>
    <path fill="#213147" d="M30.784 8.914c.22 0 .412.045.565.138.152.093.304.27.451.535l2.916 5.292c.03.06.034.108.02.147-.015.04-.06.06-.127.06h-1.12c-.098 0-.166-.04-.2-.114l-.624-1.134h-4.139l-.608 1.134c-.04.079-.108.114-.202.114h-1.143c-.079 0-.123-.02-.138-.06-.015-.039-.01-.088.02-.147l2.891-5.292c.148-.265.29-.442.433-.535a.87.87 0 0 1 .49-.138h.516-.001Zm-1.713 3.893h3.033l-1.399-2.582c-.024-.039-.054-.063-.098-.063h-.054c-.04 0-.074.02-.099.063l-1.384 2.582ZM41.123 8.914c.677 0 1.158.153 1.453.457.294.304.441.756.441 1.355v.5c0 .506-.102.903-.309 1.198-.206.295-.54.481-1.006.565l1.507 1.865c.03.03.039.073.024.133-.01.059-.06.088-.142.088h-1.134a.366.366 0 0 1-.157-.025.37.37 0 0 1-.088-.088l-1.394-1.831H37.47v1.753c0 .127-.064.191-.192.191h-.952c-.138 0-.202-.063-.202-.191V9.179c0-.176.089-.265.265-.265h4.733Zm-3.648 3.147h3.373c.3 0 .51-.064.633-.191.123-.128.187-.325.187-.59v-.368c0-.265-.064-.46-.187-.589-.122-.127-.333-.191-.633-.191h-3.26c-.078 0-.113.034-.113.107V12.061ZM50.386 8.914c.604 0 1.035.123 1.29.364.256.24.383.604.383 1.09v.421c0 .491-.186.864-.564 1.12.402.235.608.613.608 1.134v.51c0 .236-.024.447-.078.634a1.178 1.178 0 0 1-.26.481c-.123.133-.28.236-.481.304a2.292 2.292 0 0 1-.741.108H45.31c-.177 0-.266-.088-.266-.265V9.18c0-.177.089-.265.266-.265h5.075Zm-3.992 2.563h3.614c.294 0 .49-.044.598-.133.108-.088.157-.216.157-.387v-.3c0-.181-.049-.314-.152-.403-.103-.083-.27-.127-.496-.127h-3.603c-.079 0-.114.04-.114.113v1.237h-.005.002Zm0 .962v1.311c0 .079.04.113.114.113h3.613c.235 0 .402-.044.5-.127.098-.083.153-.22.153-.407v-.334c0-.181-.054-.32-.163-.412-.107-.094-.309-.143-.603-.143h-3.614ZM55.388 8.914c.127 0 .192.064.192.192v5.778c0 .128-.064.192-.192.192h-.953c-.137 0-.2-.064-.2-.192V9.111c0-.127.068-.191.2-.191l.953-.006ZM64.617 8.914c.138 0 .201.064.201.192v.864c0 .138-.068.201-.2.201h-2.765v4.713c0 .128-.064.192-.192.192H60.7c-.127 0-.191-.064-.191-.192v-4.713h-2.764c-.138 0-.202-.069-.202-.201v-.864c0-.127.07-.192.202-.192h6.873ZM71.583 8.914c.677 0 1.158.153 1.453.457.294.304.442.756.442 1.355v.5c0 .506-.103.903-.31 1.198-.206.295-.54.481-1.007.565l1.508 1.865c.03.03.039.073.024.133-.01.059-.06.088-.142.088h-1.134a.366.366 0 0 1-.157-.025.368.368 0 0 1-.088-.088l-1.394-1.831H67.93v1.753c0 .127-.064.191-.192.191h-.952c-.138 0-.202-.063-.202-.191V9.179c0-.176.089-.265.265-.265h4.733Zm-3.643 3.147h3.372c.3 0 .511-.064.634-.191.123-.128.186-.325.186-.59v-.368c0-.265-.063-.46-.186-.589-.123-.127-.334-.191-.634-.191h-3.26c-.078 0-.113.034-.113.107v1.821l.001.001ZM76.536 8.914c.127 0 .192.064.192.192v3.515c0 .235.02.432.059.584.039.157.103.28.191.368a.687.687 0 0 0 .359.191c.152.04.339.06.569.06h2.44c.23 0 .417-.02.569-.06a.755.755 0 0 0 .358-.191.772.772 0 0 0 .187-.368c.034-.157.054-.349.054-.584V9.106c0-.127.064-.192.192-.192h.962c.127 0 .191.064.191.192v3.647c0 .422-.044.78-.132 1.08-.088.295-.231.535-.427.722a1.732 1.732 0 0 1-.766.402c-.314.084-.692.123-1.14.123h-2.538c-.446 0-.824-.039-1.133-.123a1.74 1.74 0 0 1-.761-.402 1.665 1.665 0 0 1-.433-.722c-.093-.294-.137-.658-.137-1.08V9.106c0-.127.069-.192.201-.192h.943ZM86.644 8.914c.127 0 .24.01.333.025.094.02.177.049.246.103a.838.838 0 0 1 .192.201c.054.084.113.196.171.34l1.832 4.226c.024.054.063.078.123.078h.108c.059 0 .098-.024.123-.078l1.83-4.227c.06-.142.118-.255.172-.339a.678.678 0 0 1 .433-.304c.093-.02.201-.025.328-.025h.943c.304 0 .51.07.619.207.108.138.157.373.157.707v5.056c0 .128-.07.192-.202.192h-.898c-.128 0-.192-.064-.192-.192v-4.6c0-.059-.025-.088-.069-.088h-.078c-.06 0-.099.025-.114.07l-1.777 3.946a2.514 2.514 0 0 1-.216.403 1.44 1.44 0 0 1-.235.27.781.781 0 0 1-.29.152c-.108.03-.235.044-.383.044h-.421c-.148 0-.275-.014-.383-.044a.71.71 0 0 1-.29-.152 1.162 1.162 0 0 1-.235-.27 2.351 2.351 0 0 1-.216-.403l-1.777-3.947c-.02-.049-.054-.069-.114-.069h-.078c-.049 0-.069.03-.069.088v4.6c0 .128-.064.192-.192.192h-.898c-.138 0-.201-.064-.201-.192V9.828c0-.334.054-.57.156-.707.109-.138.314-.207.624-.207h.938Z"/>
  </g>
  <defs>
    <clipPath id="arbitrum-sepolia_svg__a">
      <path fill="#fff" d="M0 0h95v24H0z"/>
    </clipPath>
  </defs>
</svg>
