<svg xmlns="http://www.w3.org/2000/svg" fill="none" viewBox="0 0 95 24">
  <g clip-path="url(#arbitrum-nova-dark_svg__a)">
    <path fill="#fff" d="M30.808 6.18c.221 0 .413.045.565.138.153.094.305.27.452.536l2.914 5.292c.03.058.034.107.019.147-.015.039-.059.058-.128.058h-1.12c-.098 0-.167-.039-.201-.113l-.624-1.134h-4.142l-.61 1.135c-.039.078-.107.112-.201.112h-1.145c-.078 0-.122-.019-.137-.058-.015-.04-.01-.089.02-.147l2.893-5.296c.147-.266.29-.443.433-.536a.87.87 0 0 1 .491-.138h.52v.005h.002Zm-1.714 3.897h3.036l-1.4-2.584c-.025-.04-.055-.064-.098-.064h-.055c-.039 0-.073.02-.098.064l-1.385 2.584ZM41.155 6.181c.678 0 1.16.152 1.454.457.295.305.442.757.442 1.356v.501c0 .506-.103.904-.309 1.199-.206.295-.54.481-1.007.565l1.508 1.867c.03.03.04.073.025.132-.01.059-.059.089-.143.089H41.99a.367.367 0 0 1-.157-.025.37.37 0 0 1-.089-.088L40.35 10.4H37.5v1.754c0 .128-.064.192-.192.192h-.953c-.137 0-.2-.064-.2-.192v-5.71c0-.176.087-.265.264-.265h4.737l-.001.001Zm-3.65 3.144h3.375c.3 0 .511-.064.634-.191.123-.128.186-.324.186-.59v-.368c0-.266-.063-.462-.186-.59-.123-.128-.335-.191-.634-.191h-3.262c-.079 0-.113.034-.113.107v1.823ZM50.426 6.18c.604 0 1.037.124 1.292.364.256.241.384.605.384 1.091v.423c0 .491-.187.864-.565 1.12.403.236.61.614.61 1.135v.511c0 .236-.025.447-.08.634a1.18 1.18 0 0 1-.26.482c-.122.132-.28.235-.481.304a2.29 2.29 0 0 1-.742.108h-5.237c-.177 0-.266-.088-.266-.265v-5.64c0-.177.089-.266.266-.266h5.08-.001Zm-3.994 2.566h3.616c.295 0 .49-.044.599-.133.108-.088.157-.216.157-.388v-.3c0-.181-.049-.314-.152-.402-.103-.083-.27-.128-.496-.128H46.55c-.08 0-.113.04-.113.113v1.238h-.005Zm0 .958v1.311c0 .079.04.113.113.113h3.616c.235 0 .402-.044.5-.128.099-.083.153-.22.153-.408v-.334c0-.182-.054-.32-.162-.412-.108-.094-.31-.143-.604-.143h-3.616ZM55.432 6.18c.128 0 .192.065.192.193v5.782c0 .128-.064.192-.192.192h-.953c-.137 0-.201-.064-.201-.192V6.373c0-.128.069-.192.201-.192h.953ZM64.668 6.18c.138 0 .202.065.202.193v.864c0 .138-.07.201-.202.201h-2.766v4.717c0 .128-.064.191-.192.191h-.963c-.127 0-.191-.063-.191-.191V7.438h-2.767c-.137 0-.2-.069-.2-.201v-.864c0-.128.068-.192.2-.192h6.879ZM71.64 6.181c.678 0 1.16.152 1.454.457.295.305.442.757.442 1.356v.501c0 .506-.103.904-.309 1.199-.206.295-.54.481-1.007.565l1.508 1.867c.03.03.04.073.025.132-.01.059-.06.089-.143.089h-1.135a.366.366 0 0 1-.157-.025.367.367 0 0 1-.089-.088L70.834 10.4h-2.85v1.754c0 .128-.063.192-.19.192h-.954c-.137 0-.201-.064-.201-.192v-5.71c0-.176.088-.265.265-.265h4.736v.001Zm-3.645 3.144h3.375c.3 0 .511-.064.634-.191.122-.128.186-.324.186-.59v-.368c0-.266-.064-.462-.186-.59-.123-.128-.335-.191-.634-.191h-3.262c-.079 0-.113.034-.113.107v1.823ZM76.597 6.18c.128 0 .192.065.192.193V9.89c0 .236.02.433.059.585.039.157.103.28.191.369a.682.682 0 0 0 .36.191c.151.04.338.059.57.059h2.44c.232 0 .418-.02.57-.059a.762.762 0 0 0 .36-.191.77.77 0 0 0 .186-.37c.034-.156.054-.348.054-.584V6.373c0-.128.064-.192.192-.192h.963c.128 0 .192.064.192.192v3.65c0 .423-.044.781-.133 1.08a1.613 1.613 0 0 1-.427.723 1.73 1.73 0 0 1-.766.403 4.505 4.505 0 0 1-1.14.123h-2.54c-.448 0-.826-.04-1.135-.123a1.744 1.744 0 0 1-.762-.403 1.668 1.668 0 0 1-.432-.722c-.094-.295-.138-.659-.138-1.08V6.372c0-.128.07-.192.201-.192h.944ZM86.713 6.18c.127 0 .24.01.334.025.093.02.177.05.246.104.069.049.132.118.191.201.055.083.113.196.172.339l1.833 4.23a.122.122 0 0 0 .123.079h.107a.122.122 0 0 0 .123-.079l1.833-4.23a2.14 2.14 0 0 1 .171-.339.671.671 0 0 1 .432-.305c.095-.019.202-.024.33-.024h.943c.305 0 .511.069.62.206.107.138.157.374.157.708v5.06c0 .128-.07.192-.202.192h-.899c-.128 0-.192-.064-.192-.192V7.552c0-.059-.024-.088-.069-.088h-.078c-.06 0-.099.024-.113.069l-1.779 3.95c-.069.157-.142.294-.216.402a1.462 1.462 0 0 1-.236.27.78.78 0 0 1-.29.153c-.107.03-.235.044-.383.044h-.423c-.147 0-.275-.015-.383-.044a.719.719 0 0 1-.29-.152 1.163 1.163 0 0 1-.236-.27 2.34 2.34 0 0 1-.216-.403l-1.778-3.95c-.02-.05-.054-.07-.113-.07h-.079c-.049 0-.069.03-.069.089v4.603c0 .128-.064.192-.192.192h-.899c-.137 0-.201-.064-.201-.192v-5.06c0-.334.054-.57.157-.708.108-.137.315-.206.624-.206h.939Z"/>
    <path fill="#F70" d="M27.365 14.174c.083 0 .152.006.206.01a.37.37 0 0 1 .147.044c.04.024.084.054.118.094.04.039.084.093.128.157l1.936 2.54c.015.025.034.034.07.034h.048c.03 0 .04-.019.04-.054v-2.717c0-.079.039-.113.113-.113h.545c.079 0 .113.04.113.113v2.987c0 .211-.04.354-.113.427-.079.074-.196.113-.354.113h-.447c-.079 0-.147-.005-.201-.01a.391.391 0 0 1-.266-.132 1.988 1.988 0 0 1-.137-.162l-1.94-2.54a.085.085 0 0 0-.07-.035h-.049c-.03 0-.04.02-.04.055V17.7c0 .08-.039.113-.112.113h-.546c-.078 0-.118-.039-.118-.113v-2.986c0-.211.04-.354.113-.428.079-.073.197-.113.354-.113h.462ZM35.078 14.174c.265 0 .486.025.673.074.187.049.34.128.452.24a.89.89 0 0 1 .25.424c.055.171.08.383.08.633v.894c0 .25-.025.462-.08.639a.969.969 0 0 1-.25.427 1.046 1.046 0 0 1-.452.236c-.186.049-.412.073-.673.073h-1.611c-.265 0-.486-.024-.673-.073a1.07 1.07 0 0 1-.452-.236.93.93 0 0 1-.256-.427 2.195 2.195 0 0 1-.079-.639v-.894c0-.25.025-.461.08-.633a.946.946 0 0 1 .255-.423c.118-.108.265-.192.452-.241.182-.05.408-.074.673-.074h1.611Zm-2.27 2.211c0 .138.01.25.035.34a.467.467 0 0 0 .113.22.416.416 0 0 0 .21.113c.09.024.202.034.335.034h1.547c.138 0 .246-.01.335-.034a.456.456 0 0 0 .21-.113.472.472 0 0 0 .114-.22c.024-.094.034-.207.034-.34v-.78c0-.138-.01-.251-.034-.34a.466.466 0 0 0-.113-.22.416.416 0 0 0-.211-.114 1.298 1.298 0 0 0-.335-.034h-1.547c-.137 0-.246.01-.334.034a.456.456 0 0 0-.211.113.472.472 0 0 0-.113.221 1.365 1.365 0 0 0-.035.34v.78ZM37.864 14.174c.034 0 .058.006.073.015.015.01.03.03.044.054l1.528 2.8c.01.025.03.035.064.035h.024c.025 0 .044-.01.06-.034l1.503-2.8c.019-.045.058-.07.118-.07h.683c.04 0 .069.01.073.035.01.024.005.049-.014.083l-1.71 3.13c-.089.161-.172.265-.256.319a.523.523 0 0 1-.29.079h-.3a.623.623 0 0 1-.334-.08c-.088-.053-.177-.157-.265-.319l-1.724-3.13a.115.115 0 0 1-.015-.082c.01-.025.034-.035.079-.035h.658ZM44.309 14.174c.132 0 .24.025.334.08.089.053.177.157.266.313l1.724 3.13c.02.034.02.064.015.083-.01.025-.035.034-.074.034h-.663c-.059 0-.098-.024-.118-.069l-.369-.673h-2.446l-.359.673a.128.128 0 0 1-.118.07h-.678c-.044 0-.074-.01-.079-.035a.107.107 0 0 1 .015-.083l1.71-3.13c.089-.157.172-.26.256-.314a.523.523 0 0 1 .29-.079h.295-.001Zm-1.007 2.3h1.793l-.83-1.523a.064.064 0 0 0-.059-.034h-.03a.064.064 0 0 0-.058.034l-.816 1.523ZM10.636 1.49c.06 0 .113.014.168.043l8.818 5.09a.328.328 0 0 1 .167.285v10.18a.327.327 0 0 1-.167.284l-8.819 5.094a.344.344 0 0 1-.334 0l-8.814-5.09a.328.328 0 0 1-.167-.284V6.907c0-.118.064-.226.167-.285l8.814-5.09a.337.337 0 0 1 .167-.043m0-1.489c-.314 0-.628.083-.909.246L.91 5.336A1.82 1.82 0 0 0 0 6.908v10.18c0 .648.349 1.247.909 1.576l8.818 5.09a1.813 1.813 0 0 0 1.818 0l8.819-5.09c.565-.324.909-.924.909-1.577V6.907c0-.648-.349-1.247-.91-1.576L11.546.24A1.813 1.813 0 0 0 10.636 0Z"/>
    <path fill="#F70" d="M8.386 6.785h-1.15a.201.201 0 0 0-.191.138l-3.71 10.154a.102.102 0 0 0 .099.138h1.15a.201.201 0 0 0 .191-.137l3.704-10.16c.03-.064-.02-.133-.093-.133ZM9.88 10.725c-.034-.088-.162-.088-.192 0l-.6 1.641a.234.234 0 0 0 0 .143l1.671 4.574c.03.083.108.138.192.138h1.15a.102.102 0 0 0 .098-.138l-2.32-6.357ZM10.4 6.785H9.252a.201.201 0 0 0-.192.138L5.355 17.077a.102.102 0 0 0 .098.138h1.15a.201.201 0 0 0 .192-.137l3.704-10.16c.024-.064-.025-.133-.098-.133ZM10.887 7.96c-.034-.089-.162-.089-.192 0l-.599 1.64a.235.235 0 0 0 0 .143l2.678 7.335c.03.083.108.138.191.138h1.15c.074 0 .123-.07.098-.138L10.888 7.96h-.001ZM17.838 6.785h-1.15a.201.201 0 0 0-.191.138l-2.682 7.335a.234.234 0 0 0 0 .142l.6 1.641c.034.089.162.089.191 0l3.326-9.118a.101.101 0 0 0-.094-.137ZM13.407 13.275c.034.089.162.089.192 0l2.318-6.352a.102.102 0 0 0-.098-.138h-1.15a.201.201 0 0 0-.191.138l-1.67 4.574a.233.233 0 0 0 0 .143l.598 1.635Z"/>
  </g>
  <defs>
    <clipPath id="arbitrum-nova-dark_svg__a">
      <path fill="#fff" d="M0 0h95v24H0z"/>
    </clipPath>
  </defs>
</svg>
