<svg xmlns="http://www.w3.org/2000/svg" fill="none" viewBox="0 0 95 24">
  <g fill="#fff" clip-path="url(#arbitrum-one-logo-dark_svg__a)">
    <path d="M30.833 6.176c.221 0 .413.044.566.137.152.094.305.271.452.537l2.916 5.295c.03.059.034.108.019.148-.015.039-.059.058-.128.058h-1.12c-.1 0-.168-.04-.202-.113l-.625-1.136h-4.145l-.61 1.136c-.04.079-.108.113-.202.113H26.61c-.079 0-.123-.02-.138-.059-.015-.039-.01-.088.02-.147l2.896-5.3c.147-.266.29-.443.433-.536a.87.87 0 0 1 .491-.138h.522v.005Zm-1.716 3.899h3.039l-1.401-2.587c-.025-.039-.055-.063-.099-.063h-.054c-.04 0-.074.019-.098.063l-1.387 2.587ZM41.188 6.176c.679 0 1.16.152 1.456.457.295.305.442.757.442 1.357v.502c0 .506-.103.904-.31 1.2-.205.295-.54.481-1.007.565l1.51 1.868c.029.03.039.074.024.133-.01.058-.06.088-.143.088h-1.136a.367.367 0 0 1-.157-.024.37.37 0 0 1-.089-.089l-1.396-1.834H37.53v1.755c0 .128-.064.192-.192.192h-.953c-.138 0-.202-.064-.202-.192V6.441c0-.177.089-.266.266-.266h4.74Zm-3.653 3.147h3.378c.3 0 .512-.064.634-.192.123-.128.187-.325.187-.59v-.37c0-.265-.064-.461-.187-.589-.122-.128-.334-.192-.634-.192h-3.264c-.08 0-.114.034-.114.108v1.825ZM50.467 6.176c.605 0 1.037.122 1.293.363s.384.605.384 1.092v.423c0 .492-.187.865-.565 1.121.403.236.61.615.61 1.136v.511c0 .236-.025.448-.08.635a1.18 1.18 0 0 1-.26.482c-.122.132-.28.236-.482.305-.201.069-.447.108-.742.108h-5.241c-.177 0-.266-.089-.266-.266V6.442c0-.177.089-.266.266-.266h5.083ZM46.47 8.742h3.618c.295 0 .492-.044.6-.132.108-.089.157-.217.157-.388v-.3c0-.182-.049-.315-.152-.403-.103-.084-.27-.128-.497-.128h-3.609c-.079 0-.113.04-.113.113v1.239h-.005Zm0 .959v1.313c0 .079.039.113.113.113H50.2c.236 0 .403-.044.502-.128.098-.083.152-.221.152-.408v-.335c0-.182-.054-.32-.162-.413-.108-.093-.31-.143-.605-.143H46.47v.001ZM55.477 6.176c.128 0 .192.063.192.191v5.788c0 .128-.064.192-.192.192h-.954c-.137 0-.201-.064-.201-.192V6.367c0-.128.069-.191.201-.191h.954ZM64.72 6.176c.138 0 .202.063.202.191v.865c0 .138-.069.202-.201.202h-2.769v4.72c0 .128-.064.192-.192.192h-.963c-.128 0-.192-.064-.192-.192v-4.72h-2.769c-.137 0-.201-.069-.201-.202v-.865c0-.128.069-.191.201-.191h6.884ZM71.697 6.176c.679 0 1.16.152 1.456.457.295.305.442.757.442 1.357v.502c0 .506-.103.904-.31 1.2-.206.295-.54.481-1.007.565l1.51 1.868c.029.03.039.074.024.133-.01.058-.06.088-.143.088h-1.136a.367.367 0 0 1-.157-.024.37.37 0 0 1-.089-.089l-1.396-1.834h-2.852v1.755c0 .128-.064.192-.192.192h-.953c-.138 0-.202-.064-.202-.192V6.441c0-.177.089-.266.266-.266h4.74ZM68.05 9.323h3.378c.3 0 .512-.064.635-.192.122-.128.186-.325.186-.59v-.37c0-.265-.064-.461-.186-.589-.123-.128-.335-.192-.635-.192h-3.264c-.08 0-.113.034-.113.108v1.825h-.001ZM76.659 6.176c.128 0 .192.063.192.191v3.52c0 .237.02.434.059.586.039.158.103.28.192.369a.683.683 0 0 0 .359.192c.152.04.339.059.57.059h2.444c.23 0 .418-.02.57-.06a.764.764 0 0 0 .36-.191.771.771 0 0 0 .186-.369c.034-.158.054-.349.054-.585v-3.52c0-.129.064-.192.192-.192h.964c.128 0 .192.063.192.191v3.654c0 .423-.044.781-.133 1.081a1.613 1.613 0 0 1-.427.723c-.197.187-.453.32-.767.403a4.511 4.511 0 0 1-1.141.123h-2.542c-.448 0-.827-.04-1.136-.123a1.746 1.746 0 0 1-.762-.403 1.669 1.669 0 0 1-.433-.723c-.094-.295-.138-.659-.138-1.081V6.367c0-.128.07-.191.202-.191h.944-.001ZM86.782 6.176c.128 0 .242.01.335.024.094.02.177.05.246.103.07.05.133.119.192.202.054.083.113.196.172.34l1.834 4.233a.123.123 0 0 0 .123.079h.108a.123.123 0 0 0 .123-.08l1.834-4.233a2.15 2.15 0 0 1 .172-.339.672.672 0 0 1 .433-.305c.093-.02.2-.024.329-.024h.944c.305 0 .511.069.62.206.107.138.157.374.157.708v5.065c0 .128-.07.192-.202.192h-.9c-.128 0-.191-.064-.191-.192V7.548c0-.06-.025-.089-.07-.089h-.078c-.06 0-.099.025-.113.07l-1.78 3.953c-.07.157-.143.295-.217.403a1.469 1.469 0 0 1-.235.27.782.782 0 0 1-.29.153c-.109.03-.236.044-.384.044h-.424c-.147 0-.275-.015-.383-.044a.722.722 0 0 1-.29-.153 1.165 1.165 0 0 1-.236-.27 2.35 2.35 0 0 1-.217-.403l-1.78-3.954c-.019-.049-.054-.069-.112-.069h-.08c-.048 0-.068.03-.068.089v4.607c0 .128-.064.192-.192.192h-.9c-.138 0-.202-.064-.202-.192V7.09c0-.334.055-.57.158-.708.108-.137.314-.206.625-.206h.939ZM29.53 14.175c.266 0 .487.025.675.074.186.049.339.132.452.24a.89.89 0 0 1 .25.424c.055.172.08.383.08.634v.895c0 .25-.025.462-.08.639a.97.97 0 0 1-.25.428 1.048 1.048 0 0 1-.452.235c-.187.05-.413.074-.674.074h-1.613c-.265 0-.486-.024-.674-.074a1.071 1.071 0 0 1-.452-.235.933.933 0 0 1-.256-.428 2.199 2.199 0 0 1-.078-.639v-.895c0-.25.024-.462.078-.634a.947.947 0 0 1 .256-.423c.118-.109.266-.192.452-.241.183-.05.409-.074.674-.074h1.613Zm-2.27 2.217c0 .138.01.251.034.34a.466.466 0 0 0 .113.22.417.417 0 0 0 .211.114c.088.019.202.034.335.034H29.5c.138 0 .246-.01.335-.034a.457.457 0 0 0 .211-.113.472.472 0 0 0 .113-.221c.025-.094.034-.207.034-.34v-.781c0-.138-.01-.251-.034-.34a.467.467 0 0 0-.113-.22.417.417 0 0 0-.211-.114 1.294 1.294 0 0 0-.335-.034h-1.548c-.138 0-.247.01-.335.034a.456.456 0 0 0-.211.113.472.472 0 0 0-.113.221 1.367 1.367 0 0 0-.035.34v.781ZM33.09 14.175c.084 0 .153.005.207.01a.37.37 0 0 1 .148.044.53.53 0 0 1 .118.093c.04.04.083.094.132.158l1.942 2.547c.015.024.035.034.07.034h.049c.03 0 .039-.02.039-.054v-2.724c0-.079.04-.113.113-.113h.546c.079 0 .113.04.113.113v2.994c0 .212-.04.354-.113.433-.079.074-.197.113-.354.113h-.452c-.08 0-.148-.005-.202-.01a.391.391 0 0 1-.265-.132 1.977 1.977 0 0 1-.138-.163l-1.947-2.546a.085.085 0 0 0-.07-.035h-.048c-.03 0-.04.02-.04.055v2.723c0 .08-.04.113-.113.113h-.546c-.079 0-.118-.039-.118-.113v-2.994c0-.211.04-.354.113-.433.079-.074.197-.113.354-.113h.462ZM41.493 14.175c.079 0 .118.04.118.113v.497c0 .079-.039.113-.118.113h-2.276c-.138 0-.247.01-.335.034a.434.434 0 0 0-.211.113.43.43 0 0 0-.113.221c-.02.094-.03.207-.03.34v.054h2.945c.079 0 .113.04.113.113v.413c0 .079-.04.113-.113.113h-2.945v.088c0 .138.01.25.03.34.019.093.058.167.113.22a.416.416 0 0 0 .21.114c.09.019.203.034.336.034h2.276c.079 0 .118.04.118.113v.497c0 .078-.039.113-.118.113h-2.296c-.265 0-.486-.025-.674-.074a1.071 1.071 0 0 1-.452-.236.931.931 0 0 1-.256-.427 2.195 2.195 0 0 1-.078-.64v-.894c0-.251.024-.462.078-.635a.946.946 0 0 1 .256-.423c.118-.108.266-.192.452-.24.182-.05.409-.074.674-.074h2.296ZM10.684 1.49c.06 0 .113.015.168.044l8.8 5.118a.314.314 0 0 1 .163.285l-.034 10.183a.328.328 0 0 1-.168.285l-8.83 5.06a.344.344 0 0 1-.335 0l-8.8-5.119a.314.314 0 0 1-.163-.285L1.52 6.88c0-.119.064-.227.168-.285l8.835-5.065a.375.375 0 0 1 .162-.04ZM10.69 0c-.315 0-.63.079-.91.241L.949 5.301a1.817 1.817 0 0 0-.915 1.573L0 17.057c0 .65.344 1.249.904 1.578l8.802 5.119a1.82 1.82 0 0 0 1.819.005l8.83-5.06c.566-.324.915-.924.915-1.572l.035-10.183c0-.65-.345-1.25-.905-1.579L11.6.246A1.82 1.82 0 0 0 10.69 0Z"/>
    <path d="M12.474 5.55h-1.288a.227.227 0 0 0-.217.153L6.82 17.076c-.029.073.03.152.109.152h1.288a.227.227 0 0 0 .216-.152l4.15-11.373c.03-.073-.03-.152-.108-.152Zm-2.257 0H8.93a.227.227 0 0 0-.216.153L4.568 17.071c-.03.074.03.153.108.153h1.288a.227.227 0 0 0 .216-.153l4.145-11.368c.03-.073-.024-.152-.108-.152Zm1.672 4.406c-.034-.103-.182-.103-.216 0l-.669 1.839a.22.22 0 0 0 0 .158l1.869 5.118a.234.234 0 0 0 .216.153h1.288c.079 0 .138-.08.108-.153L11.89 9.956Zm4.848 7.115L13.015 6.864c-.034-.104-.182-.104-.216 0l-.669 1.838a.22.22 0 0 0 0 .158l2.995 8.211a.234.234 0 0 0 .216.153h1.288a.11.11 0 0 0 .108-.153Z"/>
  </g>
  <defs>
    <clipPath id="arbitrum-one-logo-dark_svg__a">
      <path fill="#fff" d="M0 0h95v24H0z"/>
    </clipPath>
  </defs>
</svg>
