<svg xmlns="http://www.w3.org/2000/svg" fill="none" viewBox="0 0 960 192">
  <path fill="url(#astar-zkevm-logo-dark_svg__a)" d="M187.247 89.382c-3.514-51.657-48.225-90.673-99.867-87.16-25.733 1.75-48.32 13.733-64.091 31.684l-.048-.032c-.113.145-.209.29-.305.433C7.278 52.371-1.529 76.371.219 102.103c.16 2.455.45 4.861.803 7.252 0 .112.032.208.048.32.24 1.573.513 3.145.818 4.685 0 .032 0 .064.016.08.289 1.396.593 2.791.946 4.171 10.83 43.171 51.273 73.748 97.252 70.619 51.642-3.513 90.674-48.224 87.161-99.88l-.016.032Zm-20.407 1.395a72.893 72.893 0 0 1-1.107 18.578c0-.033-.032-.065-.032-.097-6.802-16.604-20.246-28.604-32.054-35.23 2.391-28.138-7.155-40.01-17.967-41.934a8.43 8.43 0 0 0-.883-.145c-8.583-1.107-16.428 4.957-17.519 13.54-1.107 8.583 4.958 16.428 13.541 17.519.754.096 1.492.128 2.213.112.049.946.081 1.957.081 3.016-9.995-2.47-19.332-2.968-27.85-2.198-3.193.209-6.37.61-9.546 1.203 1.059-9.497 4.636-20.181 11.55-27.978 6.69-7.556 16.637-11.871 27.482-10.764 2.054.208 4.251.721 6.225 1.38.096.031.192.063.272.08 25.123 10.235 43.621 34.09 45.578 62.918h.016Zm-65.342 14.31s0 .016-.016.032c-2.23 3.225-4.893 6.401-8.022 9.481-4.684-4.973-8.438-10.347-11.294-15.898-.144-.305-.305-.577-.45-.882v-.032c-1.668-3.546-3.095-7.444-4.202-11.695 6.657-1.572 13.187-2.15 19.428-1.845l.994.048h.032c3.915.32 7.99 1.043 12.209 2.198-1.973 6.545-4.733 12.497-8.118 17.743-.176.273-.353.545-.545.834l-.016.016ZM69.476 26.591s-.032.048-.048.064c-10.99 14.182-14.647 31.813-14.487 45.352-25.572 12-31.058 26.198-27.337 36.529.097.289.209.562.321.835 3.337 7.973 12.514 11.743 20.487 8.406 7.973-3.337 11.743-12.513 8.407-20.487a16.318 16.318 0 0 0-1.011-1.973 57.815 57.815 0 0 1 2.599-1.604c2.855 9.898 7.075 18.256 12 25.251a82.71 82.71 0 0 0 5.807 7.652c-8.76 3.834-19.797 6.08-30.016 3.995-9.882-2.021-18.593-8.471-23.07-18.417-.85-1.893-1.508-4.043-1.925-6.08a74.34 74.34 0 0 1-.593-5.406c-2.278-33.577 18.545-63.465 48.866-74.117Zm29.23 142.249c-19.941 1.364-38.583-5.438-52.668-17.534 17.775 2.422 34.877-3.225 46.524-10.139 23.182 16.155 38.23 13.812 45.321 5.422.192-.224.385-.465.561-.706 5.246-6.882 3.915-16.7-2.968-21.946-6.882-5.246-16.7-3.914-21.946 2.968-.449.594-.85 1.235-1.203 1.877a55.847 55.847 0 0 1-2.664-1.444c7.156-7.427 12.241-15.272 15.835-23.037a81.415 81.415 0 0 0 3.722-8.871c7.7 5.679 15.176 14.101 18.481 23.999 3.193 9.562 1.973 20.342-4.412 29.182-1.203 1.668-2.743 3.32-4.299 4.7l-.064.064c-11.166 8.776-24.995 14.422-40.204 15.449l-.016.016Z"/>
  <path fill="url(#astar-zkevm-logo-dark_svg__b)" d="M115.68 32.078a8.454 8.454 0 0 0-.882-.145 15.221 15.221 0 0 0-4.444.08c8.968 4.877 15.497 18.465 12.064 45.289-1.139 8.887-3.786 17.325-7.588 25.09-3.097 6.674-7.3 13.396-12.947 19.861a73.737 73.737 0 0 0 7.781 5.117c7.155-7.427 12.241-15.272 15.834-23.037 3.818-7.748 6.449-16.203 7.588-25.09 4.091-31.925-5.951-45.112-17.406-47.15v-.015Z" opacity=".9" style="mix-blend-mode:overlay"/>
  <path fill="#fff" d="M122.418 77.285c3.433-26.807-3.096-40.41-12.064-45.288-.353.049-.69.129-1.043.209 8.775 5.053 15.096 18.625 11.711 45.08-1.139 8.887-3.786 17.325-7.588 25.09-2.984 6.449-7.027 12.946-12.401 19.219.288.225.561.433.85.642 5.647-6.465 9.85-13.203 12.947-19.861 3.818-7.749 6.449-16.203 7.588-25.09Z" opacity=".8" style="mix-blend-mode:overlay"/>
  <path fill="url(#astar-zkevm-logo-dark_svg__c)" d="M88.327 138.103c-.85-.642-1.653-1.316-2.47-1.989-13.236 5.518-31.573 8.983-49.798 4.748 2.984 3.802 6.305 7.315 9.963 10.444 17.775 2.422 34.877-3.225 46.524-10.139a139.098 139.098 0 0 1-4.235-3.08l.016.016Z" opacity=".5" style="mix-blend-mode:overlay"/>
  <path fill="url(#astar-zkevm-logo-dark_svg__d)" d="M85.872 136.113c-.401-.336-.819-.673-1.204-1.01-13.331 5.326-31.764 8.518-49.94 3.978.448.594.898 1.204 1.347 1.781 18.208 4.235 36.561.77 49.797-4.749Z" opacity=".6" style="mix-blend-mode:overlay"/>
  <path fill="url(#astar-zkevm-logo-dark_svg__e)" d="M27.62 108.552a15.5 15.5 0 0 0 2.615 4.653c-.256-10.203 8.246-22.668 33.177-33.096 8.262-3.45 16.893-5.39 25.524-5.968 7.315-.658 15.257-.385 23.679 1.284.401-3.37.562-6.514.53-9.289-9.995-2.487-19.348-2.968-27.867-2.198-8.615.578-17.262 2.519-25.524 5.968C30.06 82.323 23.658 97.611 27.62 108.568v-.016Z" opacity=".9" style="mix-blend-mode:overlay"/>
  <path fill="#fff" d="M63.412 80.125c-24.93 10.428-33.433 22.893-33.176 33.096.224.273.465.529.706.786-.016-10.123 8.583-22.38 33.176-32.679 8.262-3.449 16.893-5.39 25.524-5.968 7.075-.641 14.728-.385 22.845 1.123.048-.353.096-.706.129-1.058-8.423-1.653-16.364-1.942-23.68-1.284-8.615.578-17.262 2.519-25.524 5.968v.016Z" opacity=".8" style="mix-blend-mode:overlay"/>
  <path fill="url(#astar-zkevm-logo-dark_svg__f)" d="M133.118 79.227c-.128 1.058-.305 2.085-.481 3.128 11.39 8.695 23.566 22.861 29.021 40.748 1.797-4.492 3.177-9.128 4.059-13.861-6.786-16.604-20.23-28.588-32.038-35.213-.144 1.684-.32 3.4-.545 5.198h-.016Z" opacity=".4" style="mix-blend-mode:overlay"/>
  <path fill="url(#astar-zkevm-logo-dark_svg__g)" d="M132.637 82.355c-.096.513-.177 1.043-.273 1.556 11.278 8.888 23.262 23.246 28.412 41.261.305-.689.594-1.379.866-2.069-5.454-17.887-17.615-32.037-29.021-40.748h.016Z" opacity=".5" style="mix-blend-mode:overlay"/>
  <path fill="url(#astar-zkevm-logo-dark_svg__h)" d="M137.882 146.573c.193-.224.385-.465.562-.706a16.056 16.056 0 0 0 2.166-3.882c-8.712 5.326-23.744 4.187-45.257-12.192-7.123-5.423-13.123-11.936-17.936-19.123-4.235-6.016-7.957-13.01-10.733-21.144a74.355 74.355 0 0 0-8.326 4.187c2.856 9.898 7.107 18.24 12.032 25.235 4.813 7.187 10.813 13.684 17.936 19.123 25.604 19.507 42.048 17.406 49.54 8.502h.016Z" opacity=".9" style="mix-blend-mode:overlay"/>
  <path fill="#fff" d="M95.37 129.793c21.497 16.379 36.545 17.518 45.256 12.192.128-.337.241-.674.337-.995-8.76 5.086-23.679 3.754-44.888-12.4-7.123-5.423-13.123-11.936-17.936-19.123-4.09-5.808-7.7-12.561-10.444-20.342-.337.144-.657.273-.978.417 2.775 8.134 6.497 15.128 10.732 21.144 4.813 7.187 10.813 13.684 17.936 19.123l-.016-.016Z" opacity=".8" style="mix-blend-mode:overlay"/>
  <path fill="url(#astar-zkevm-logo-dark_svg__i)" d="M59.739 69.874c.978-.401 1.957-.77 2.952-1.14 1.828-14.213 8.005-31.844 20.775-45.496a75.27 75.27 0 0 0-14.038 3.401C58.44 40.821 54.781 58.452 54.942 71.992a103.791 103.791 0 0 1 4.78-2.118h.017Z" opacity=".3" style="mix-blend-mode:overlay"/>
  <path fill="url(#astar-zkevm-logo-dark_svg__j)" d="M62.69 68.735c.497-.177.978-.37 1.476-.546 2.053-14.213 8.502-31.764 21.513-45.24-.738.08-1.476.177-2.214.273C70.695 36.89 64.52 54.505 62.69 68.72v.016Z" opacity=".4" style="mix-blend-mode:overlay"/>
  <path fill="url(#astar-zkevm-logo-dark_svg__k)" d="M87.38 2.223C61.648 3.97 39.06 15.955 23.29 33.907l-.354.4c3.065 3.049 13.107 9.049 17.166 11.551 7.99-8.582 18.016-15.288 29.39-19.267a55.093 55.093 0 0 1 2.487-3.016C82.567 11.623 97.022 5.32 113.803 5.32c1.861 0 5.663.305 5.743.305A93.095 93.095 0 0 0 87.38 2.223Z" opacity=".4" style="mix-blend-mode:multiply"/>
  <path fill="url(#astar-zkevm-logo-dark_svg__l)" d="M98.706 168.856c-19.941 1.364-38.583-5.438-52.668-17.534a56.367 56.367 0 0 1-3.947-.658c-15.642-3.192-28.348-12.561-36.722-27.08a54.937 54.937 0 0 1-2.519-4.941c10.83 43.171 51.273 73.748 97.236 70.619.208-4.732-1.187-15.721-1.396-20.406h.016Z" opacity=".4" style="mix-blend-mode:multiply"/>
  <path fill="url(#astar-zkevm-logo-dark_svg__m)" d="M187.247 89.382c-2.888-.29-16.941.818-20.407 1.395a72.893 72.893 0 0 1-1.107 18.578 64.86 64.86 0 0 1 1.364 3.641c5.053 15.144 3.289 30.818-5.086 45.352a55.659 55.659 0 0 1-2.951 4.573c-.017.032-.049.064-.065.08 0 0 .048-.032.065-.064 19.042-18.53 30.128-44.968 28.187-73.54v-.015Z" opacity=".4" style="mix-blend-mode:multiply"/>
  <path fill="url(#astar-zkevm-logo-dark_svg__n)" d="M114.765 26.383c2.054.208 4.252.722 6.225 1.38.096.031.192.063.273.08 8.085 3.288 15.481 8.005 21.866 13.828 0 0 .032.016.048.032 3.08-3.513 9-7.38 9-7.38s-9.064-9.272-22.941-12.16c-9.706-2.021-31.604-3.962-45.417 19.54l.128-.128c1.027-1.54 2.102-3.048 3.337-4.428 6.69-7.556 16.636-11.871 27.481-10.764Z" opacity=".5" style="mix-blend-mode:multiply"/>
  <path fill="url(#astar-zkevm-logo-dark_svg__o)" d="M143.289 148.627c-1.203 1.668-2.743 3.32-4.299 4.7-.064.064-.145.128-.209.193-6.898 5.358-14.679 9.401-22.909 12.016-.016 0-.032 0-.048.016 1.508 4.427 1.893 11.486 1.893 11.486s12.561-3.208 21.995-13.781c6.593-7.395 19.235-25.395 5.791-49.106 0 0 .016.08.048.177.834 1.652 1.588 3.353 2.166 5.101 3.193 9.562 1.973 20.342-4.412 29.182l-.016.016Z" opacity=".5" style="mix-blend-mode:multiply"/>
  <path fill="url(#astar-zkevm-logo-dark_svg__p)" d="M23.16 112.226c-.85-1.893-1.507-4.043-1.924-6.08-.016-.096-.048-.192-.064-.289a73.973 73.973 0 0 1 1.042-25.844v-.048c-4.588-.899-10.893-4.107-10.893-4.107s-3.497 12.497.947 25.941c3.112 9.416 12.369 29.357 39.626 29.566 0 0-.08-.016-.177-.048-1.845-.113-3.69-.305-5.503-.674-9.882-2.021-18.593-8.47-23.07-18.417h.017Z" opacity=".5" style="mix-blend-mode:multiply"/>
  <path fill="url(#astar-zkevm-logo-dark_svg__q)" d="M110.819 62.992c.754.096 1.492.128 2.214.112 0 0-.498-9.738-1.685-14.743-1.203-4.99-2.968-8.31-4.893-10.187-1.396-1.348-5.775-3.016-9.176 7.283-1.107 8.583 4.957 16.428 13.54 17.519v.016Z" opacity=".6" style="mix-blend-mode:multiply"/>
  <path fill="url(#astar-zkevm-logo-dark_svg__r)" d="M56.834 97.323a16.283 16.283 0 0 0-1.01-1.974s-8.198 5.294-11.92 8.824c-3.722 3.529-5.712 6.722-6.37 9.337-.465 1.877.273 6.497 10.894 4.299 7.973-3.337 11.743-12.513 8.406-20.486Z" opacity=".5" style="mix-blend-mode:multiply"/>
  <path fill="url(#astar-zkevm-logo-dark_svg__s)" d="M113.546 126.889a15.422 15.422 0 0 0-1.203 1.877s8.679 4.444 13.604 5.904c4.925 1.46 8.679 1.588 11.262.85 1.861-.529 5.487-3.497-1.717-11.583-6.882-5.246-16.7-3.914-21.946 2.968v-.016Z" opacity=".6" style="mix-blend-mode:multiply"/>
  <path fill="url(#astar-zkevm-logo-dark_svg__t)" d="M110.177 86.51c-1.973 6.545-4.733 12.497-8.118 17.743-.176.273-.353.545-.545.834 0 0 0 .016-.016.032-2.23 3.225-4.893 6.401-8.022 9.481 2.15 2.278 4.46 4.492 7.011 6.594a73.374 73.374 0 0 0 9.177 6.16c7.155-7.427 12.24-15.272 15.834-23.037a81.413 81.413 0 0 0 3.722-8.871c-3.305-2.423-6.642-4.364-9.722-5.68a71.314 71.314 0 0 0-9.337-3.256h.016Z" opacity=".3" style="mix-blend-mode:multiply"/>
  <path fill="url(#astar-zkevm-logo-dark_svg__u)" d="M46.038 151.322c17.775 2.422 34.877-3.225 46.524-10.139a138.85 138.85 0 0 1-4.235-3.08 79.944 79.944 0 0 1-12.129-11.471c-8.76 3.835-19.797 6.08-30.016 3.995-9.882-2.021-18.594-8.471-23.07-18.417-.85-1.893-1.507-4.043-1.925-6.08 2.583 18.128 11.728 33.946 24.835 45.192h.016Z" opacity=".3" style="mix-blend-mode:multiply"/>
  <path fill="url(#astar-zkevm-logo-dark_svg__v)" d="M93.476 114.6c-4.684-4.973-8.439-10.347-11.294-15.898-.145-.305-.305-.577-.45-.882v-.032c-1.668-3.545-3.096-7.444-4.203-11.695a75.874 75.874 0 0 0-9.192 2.775 74.356 74.356 0 0 0-9.915 4.845c2.856 9.898 7.075 18.257 12 25.251a82.71 82.71 0 0 0 5.808 7.652c3.754-1.636 7.107-3.577 9.786-5.582a73.173 73.173 0 0 0 7.476-6.45l-.016.016Z" opacity=".3" style="mix-blend-mode:multiply"/>
  <path fill="url(#astar-zkevm-logo-dark_svg__w)" d="M69.428 26.655C58.44 40.837 54.781 58.468 54.942 72.007a125.303 125.303 0 0 1 4.797-2.133 78.928 78.928 0 0 1 15.978-4.765c1.06-9.497 4.637-20.181 11.551-27.978 6.69-7.556 16.636-11.871 27.481-10.765 2.054.21 4.252.722 6.225 1.38.096.032.193.064.273.08a72.69 72.69 0 0 0-32.503-5.213A72.948 72.948 0 0 0 69.46 26.59c-.015.016-.031.048-.048.064h.016Z" opacity=".3" style="mix-blend-mode:multiply"/>
  <path fill="url(#astar-zkevm-logo-dark_svg__x)" d="M165.717 109.226c-6.802-16.604-20.246-28.604-32.053-35.23a112.797 112.797 0 0 1-.562 5.23 79.43 79.43 0 0 1-3.866 16.22c7.701 5.679 15.176 14.101 18.481 23.999 3.193 9.562 1.974 20.342-4.411 29.182-1.204 1.668-2.744 3.321-4.3 4.7l-.064.064c13.765-10.812 23.503-26.406 26.839-44.052 0-.033-.032-.065-.032-.097l-.032-.016Z" opacity=".3" style="mix-blend-mode:multiply"/>
  <path fill="url(#astar-zkevm-logo-dark_svg__y)" d="M75.669 76.403a72.08 72.08 0 0 0 1.845 9.69c6.658-1.572 13.187-2.15 19.428-1.845l.994.048h.032c3.915.32 7.99 1.043 12.209 2.198.898-3 1.652-6.112 2.198-9.353.593-4.043.77-7.78.754-11.037-9.995-2.47-19.332-2.968-27.85-2.198-3.193.209-6.37.61-9.546 1.203-.45 4.075-.465 7.941-.048 11.278l-.016.016Z" opacity=".3" style="mix-blend-mode:multiply"/>
  <path fill="#fff" d="m468.897 68.644-12.142 33.823h.094l12.118-33.619-.07-.204ZM256.335 77.094l9.109 25.374h-18.259l-4.607 12.788h27.525l7.803 21.676h17.454l-31.823-79.817-7.202 19.98ZM241.167 102.467l12.135-33.823.047.128 5.126-14.217h-13.407l-32.739 82.377h16.446l12.427-34.465h-.035ZM348.252 94.496c-3.977-2.344-9.249-4.531-15.827-6.555-3.755-1.224-6.7-2.361-8.835-3.417-2.134-1.044-3.615-2.24-4.443-3.575-.834-1.335-1.248-2.91-1.248-4.717 0-3.184 1.23-5.64 3.685-7.372 2.455-1.737 5.89-2.6 10.299-2.6 3.616 0 7.389.542 11.325 1.627 3.936 1.084 7.424 2.566 10.462 4.443L355.944 59c-3.108-1.879-6.881-3.377-11.325-4.497-4.444-1.12-8.87-1.68-13.278-1.68-6.001 0-11.203.974-15.612 2.928-4.408 1.954-7.82 4.735-10.24 8.345-2.42 3.616-3.633 7.879-3.633 12.789 0 4.193.816 7.82 2.438 10.893 1.627 3.073 4.28 5.727 7.966 7.966 3.685 2.24 8.525 4.263 14.526 6.071 4.339 1.3 7.698 2.531 10.083 3.685 2.385 1.155 4.047 2.438 4.986 3.849.939 1.411 1.411 3.091 1.411 5.039 0 3.4-1.394 6.053-4.175 7.966-2.782 1.912-6.631 2.869-11.547 2.869-4.263 0-8.724-.665-13.383-2.006-4.66-1.336-8.724-3.05-12.194-5.15l-1.516 13.763c2.023 1.376 4.554 2.566 7.587 3.575 3.038 1.015 6.303 1.808 9.808 2.385 3.505.577 6.992.869 10.462.869 9.756 0 17.413-2.222 22.977-6.666 5.563-4.443 8.345-10.602 8.345-18.48 0-4.193-.904-7.82-2.712-10.893-1.808-3.074-4.7-5.78-8.672-8.13l.006.006ZM434.752 54.555h-69.693V67.99h69.693V54.555ZM408.195 73.62H391.61v63.313h16.585V73.619Z"/>
  <path fill="#fff" d="m456.755 102.467 12.141-33.823.07.204 5.155-14.293h-13.465l-32.732 82.377h16.474l7.802-21.676h.036l4.612-12.789h-.093ZM471.952 77.164l9.086 25.303h-18.206l-4.613 12.789h27.478l7.803 21.676h17.454L479.16 57.185l-7.208 19.979ZM564.605 103.546a28.175 28.175 0 0 0 9.756-9.05c2.531-3.791 3.796-8.217 3.796-13.279 0-5.493-1.23-10.223-3.685-14.2-2.461-3.971-5.96-7.044-10.515-9.214-4.554-2.17-9.972-3.254-16.258-3.254h-5.762v12.468h3.593c10.986 0 16.474 4.695 16.474 14.09 0 9.394-5.674 14.088-17.017 14.088h-3.05v12.462h8.468l17.343 29.263h18.533l-21.682-33.386.006.012ZM536.31 54.555H520.6v82.377h15.71V54.555ZM627.247 126.102l32.106-41.89v-8.75h-47.264v10.433h32.304v.564l-33.381 42.414v8.227h49.47v-10.433h-33.224v-.565h-.011Zm97.048-50.64h-14.364l-24.557 26.083h-1.046V54.918h-12.001v82.172h12.001v-21.871l5.959-5.959 20.961 27.83h14.731l-26.638-35.179 24.954-26.45Zm22.017 25.801h36.434V90.63h-36.434V65.593h39.121V54.918h-51.519v82.172h52v-10.674h-39.602v-25.153Zm84.451 20.584h-.92l-22.874-66.929h-13.403l29.576 82.172h14.322l29.576-82.172h-13.403l-22.874 66.929Zm114.183-66.929-26.157 63.877h-.962L891.67 54.918h-15.044v82.172h11.793V77.583h.763l24.233 59.381h9.796l24.233-59.35h.764v59.465H960V54.908h-15.044l-.01.01Z"/>
  <defs>
    <linearGradient id="astar-zkevm-logo-dark_svg__a" x1="29.77" x2="149.287" y1="159.712" y2="40.177" gradientUnits="userSpaceOnUse">
      <stop stop-color="#E6007A"/>
      <stop offset=".21" stop-color="#703AC2"/>
      <stop offset=".46" stop-color="#0070EB"/>
      <stop offset=".77" stop-color="#0297FB"/>
      <stop offset="1" stop-color="#0AE2FF"/>
    </linearGradient>
    <linearGradient id="astar-zkevm-logo-dark_svg__d" x1="36.652" x2="56.642" y1="139.37" y2="139.097" gradientUnits="userSpaceOnUse">
      <stop stop-color="#fff" stop-opacity="0"/>
      <stop offset="1" stop-color="#fff"/>
    </linearGradient>
    <linearGradient id="astar-zkevm-logo-dark_svg__g" x1="160.072" x2="149.841" y1="123.338" y2="106.164" gradientUnits="userSpaceOnUse">
      <stop stop-color="#fff" stop-opacity="0"/>
      <stop offset="1" stop-color="#fff"/>
    </linearGradient>
    <linearGradient id="astar-zkevm-logo-dark_svg__j" x1="84.472" x2="74.728" y1="24.477" y2="41.932" gradientUnits="userSpaceOnUse">
      <stop stop-color="#fff" stop-opacity="0"/>
      <stop offset="1" stop-color="#fff"/>
    </linearGradient>
    <linearGradient id="astar-zkevm-logo-dark_svg__k" x1="88.824" x2="58.279" y1="15.602" y2="24.49" gradientUnits="userSpaceOnUse">
      <stop stop-color="#231F20"/>
      <stop offset="1" stop-color="#fff"/>
    </linearGradient>
    <linearGradient id="astar-zkevm-logo-dark_svg__l" x1="31.118" x2="56.657" y1="132.071" y2="158.734" gradientUnits="userSpaceOnUse">
      <stop stop-color="#231F20"/>
      <stop offset="1" stop-color="#fff"/>
    </linearGradient>
    <linearGradient id="astar-zkevm-logo-dark_svg__m" x1="168.188" x2="177.075" y1="128.06" y2="101.044" gradientUnits="userSpaceOnUse">
      <stop stop-color="#231F20"/>
      <stop offset="1" stop-color="#fff"/>
    </linearGradient>
    <linearGradient id="astar-zkevm-logo-dark_svg__n" x1="102.733" x2="143.674" y1="31.067" y2="40.436" gradientUnits="userSpaceOnUse">
      <stop stop-color="#231F20"/>
      <stop offset="1" stop-color="#fff"/>
    </linearGradient>
    <linearGradient id="astar-zkevm-logo-dark_svg__o" x1="145.257" x2="116.651" y1="135.862" y2="166.64" gradientUnits="userSpaceOnUse">
      <stop stop-color="#231F20"/>
      <stop offset="1" stop-color="#fff"/>
    </linearGradient>
    <linearGradient id="astar-zkevm-logo-dark_svg__p" x1="33.223" x2="20.88" y1="120.304" y2="80.156" gradientUnits="userSpaceOnUse">
      <stop stop-color="#231F20"/>
      <stop offset="1" stop-color="#fff"/>
    </linearGradient>
    <linearGradient id="astar-zkevm-logo-dark_svg__q" x1="111.685" x2="98.739" y1="46.163" y2="59.126" gradientUnits="userSpaceOnUse">
      <stop stop-color="#231F20"/>
      <stop offset="1" stop-color="#fff"/>
    </linearGradient>
    <linearGradient id="astar-zkevm-logo-dark_svg__r" x1="41.834" x2="59.528" y1="104.963" y2="109.716" gradientUnits="userSpaceOnUse">
      <stop stop-color="#231F20"/>
      <stop offset="1" stop-color="#fff"/>
    </linearGradient>
    <linearGradient id="astar-zkevm-logo-dark_svg__s" x1="127.678" x2="122.939" y1="136.059" y2="118.374" gradientUnits="userSpaceOnUse">
      <stop stop-color="#231F20"/>
      <stop offset="1" stop-color="#fff"/>
    </linearGradient>
    <linearGradient id="astar-zkevm-logo-dark_svg__t" x1="100.744" x2="108.524" y1="120.328" y2="109.595" gradientUnits="userSpaceOnUse">
      <stop stop-color="#231F20"/>
      <stop offset="1" stop-color="#fff"/>
    </linearGradient>
    <linearGradient id="astar-zkevm-logo-dark_svg__u" x1="73.984" x2="58.439" y1="115.675" y2="123.087" gradientUnits="userSpaceOnUse">
      <stop stop-color="#231F20"/>
      <stop offset="1" stop-color="#fff"/>
    </linearGradient>
    <linearGradient id="astar-zkevm-logo-dark_svg__v" x1="68.337" x2="73.15" y1="89.799" y2="99.793" gradientUnits="userSpaceOnUse">
      <stop stop-color="#231F20"/>
      <stop offset="1" stop-color="#fff"/>
    </linearGradient>
    <linearGradient id="astar-zkevm-logo-dark_svg__w" x1="90.717" x2="87.397" y1="58.933" y2="47.462" gradientUnits="userSpaceOnUse">
      <stop stop-color="#231F20"/>
      <stop offset="1" stop-color="#fff"/>
    </linearGradient>
    <linearGradient id="astar-zkevm-logo-dark_svg__x" x1="126.621" x2="136.247" y1="111.472" y2="113.686" gradientUnits="userSpaceOnUse">
      <stop stop-color="#231F20"/>
      <stop offset="1" stop-color="#fff"/>
    </linearGradient>
    <linearGradient id="astar-zkevm-logo-dark_svg__y" x1="111.525" x2="99.316" y1="78.954" y2="76.74" gradientUnits="userSpaceOnUse">
      <stop stop-color="#231F20"/>
      <stop offset="1" stop-color="#fff"/>
    </linearGradient>
    <radialGradient id="astar-zkevm-logo-dark_svg__b" cx="0" cy="0" r="1" gradientTransform="matrix(35.6471 0 0 35.6465 120.461 76.756)" gradientUnits="userSpaceOnUse">
      <stop stop-color="#fff"/>
      <stop offset="1" stop-color="#fff" stop-opacity="0"/>
    </radialGradient>
    <radialGradient id="astar-zkevm-logo-dark_svg__c" cx="0" cy="0" r="1" gradientTransform="matrix(20.7434 0 0 20.743 67.776 142.883)" gradientUnits="userSpaceOnUse">
      <stop stop-color="#fff"/>
      <stop offset="1" stop-color="#fff" stop-opacity="0"/>
    </radialGradient>
    <radialGradient id="astar-zkevm-logo-dark_svg__e" cx="0" cy="0" r="1" gradientTransform="matrix(-17.82335 -30.87095 30.8712 -17.8235 63.95 82.08)" gradientUnits="userSpaceOnUse">
      <stop stop-color="#fff"/>
      <stop offset="1" stop-color="#fff" stop-opacity="0"/>
    </radialGradient>
    <radialGradient id="astar-zkevm-logo-dark_svg__f" cx="0" cy="0" r="1" gradientTransform="rotate(-120 101.101 4.724) scale(20.7431 20.7433)" gradientUnits="userSpaceOnUse">
      <stop stop-color="#fff"/>
      <stop offset="1" stop-color="#fff" stop-opacity="0"/>
    </radialGradient>
    <radialGradient id="astar-zkevm-logo-dark_svg__h" cx="0" cy="0" r="1" gradientTransform="matrix(-17.82335 30.87095 -30.8712 -17.8235 95.118 126.709)" gradientUnits="userSpaceOnUse">
      <stop stop-color="#fff"/>
      <stop offset="1" stop-color="#fff" stop-opacity="0"/>
    </radialGradient>
    <radialGradient id="astar-zkevm-logo-dark_svg__i" cx="0" cy="0" r="1" gradientTransform="rotate(120 18.6 43.86) scale(20.7431 20.7433)" gradientUnits="userSpaceOnUse">
      <stop stop-color="#fff"/>
      <stop offset="1" stop-color="#fff" stop-opacity="0"/>
    </radialGradient>
  </defs>
</svg>
