<svg xmlns="http://www.w3.org/2000/svg" fill="none" viewBox="0 0 960 192">
  <path fill="url(#astar-zkyoto-logo-dark_svg__a)" d="M189.4 89.537C185.846 37.285 140.621-2.18 88.385 1.374c-26.029 1.769-48.877 13.89-64.828 32.048l-.049-.032c-.113.146-.21.292-.308.438C7.362 52.101-1.547 76.376.222 102.405c.162 2.482.454 4.916.811 7.334 0 .114.033.211.049.325.243 1.59.52 3.18.828 4.738 0 .032 0 .065.016.081.292 1.412.6 2.824.957 4.219 10.954 43.667 51.863 74.596 98.37 71.432 52.236-3.554 91.717-48.779 88.163-101.03l-.016.032Zm-20.641 1.411a73.73 73.73 0 0 1-1.12 18.791c0-.032-.032-.065-.032-.097-6.881-16.795-20.479-28.933-32.422-35.635 2.417-28.462-7.238-40.47-18.175-42.417a8.473 8.473 0 0 0-.893-.146c-8.681-1.12-16.616 5.014-17.72 13.695-1.12 8.682 5.014 16.617 13.696 17.72.763.098 1.509.13 2.239.114.049.957.082 1.98.082 3.05-10.11-2.498-19.554-3.001-28.171-2.223-3.23.211-6.442.617-9.655 1.218 1.07-9.607 4.69-20.414 11.683-28.3 6.767-7.643 16.828-12.009 27.798-10.889 2.077.211 4.3.73 6.296 1.396.097.032.195.065.276.08 25.412 10.354 44.122 34.483 46.102 63.643h.016Zm-66.094 14.475s0 .016-.016.032c-2.256 3.262-4.95 6.475-8.114 9.59-4.738-5.03-8.535-10.466-11.424-16.08-.146-.309-.308-.585-.454-.893v-.032c-1.688-3.587-3.132-7.53-4.252-11.83 6.734-1.59 13.339-2.174 19.651-1.866l1.007.049h.032c3.959.324 8.081 1.054 12.349 2.223-1.996 6.62-4.787 12.64-8.211 17.947-.179.276-.357.551-.552.844l-.016.016Zm-32.39-79.4s-.032.05-.048.066C59.11 40.434 55.41 58.267 55.573 71.963 29.707 84.1 24.157 98.46 27.922 108.912c.097.292.21.568.325.843 3.375 8.065 12.657 11.879 20.722 8.503 8.065-3.375 11.878-12.657 8.503-20.722a16.497 16.497 0 0 0-1.022-1.996 58.446 58.446 0 0 1 2.628-1.622c2.889 10.012 7.157 18.466 12.138 25.541a83.536 83.536 0 0 0 5.875 7.74c-8.86 3.879-20.025 6.151-30.362 4.041-9.996-2.045-18.807-8.568-23.334-18.629-.86-1.914-1.526-4.089-1.948-6.15a75.032 75.032 0 0 1-.6-5.468c-2.304-33.963 18.759-64.194 49.428-74.97ZM99.841 169.91c-20.17 1.379-39.026-5.501-53.274-17.736 17.98 2.45 35.278-3.262 47.06-10.256 23.448 16.341 38.669 13.972 45.842 5.485.194-.227.389-.47.568-.714 5.306-6.961 3.959-16.892-3.003-22.198-6.961-5.307-16.892-3.96-22.198 3.002-.455.6-.861 1.249-1.218 1.898a57.584 57.584 0 0 1-2.693-1.46c7.237-7.513 12.381-15.448 16.016-23.302a82.413 82.413 0 0 0 3.765-8.974c7.789 5.744 15.351 14.264 18.694 24.276 3.229 9.671 1.996 20.576-4.463 29.517-1.217 1.687-2.775 3.359-4.349 4.754l-.065.065c-11.294 8.876-25.282 14.588-40.665 15.627l-.017.016Z"/>
  <path fill="url(#astar-zkyoto-logo-dark_svg__b)" d="M117.01 31.574a8.523 8.523 0 0 0-.892-.147 15.398 15.398 0 0 0-4.495.082c9.071 4.933 15.676 18.677 12.203 45.809-1.152 8.99-3.83 17.525-7.676 25.379-3.131 6.75-7.383 13.549-13.095 20.089a74.587 74.587 0 0 0 7.87 5.176c7.238-7.513 12.382-15.448 16.017-23.302 3.862-7.837 6.523-16.39 7.675-25.379 4.138-32.292-6.02-45.63-17.607-47.691v-.016Z" opacity=".9" style="mix-blend-mode:overlay"/>
  <path fill="#fff" d="M123.826 77.301c3.472-27.115-3.132-40.876-12.203-45.809-.357.05-.698.13-1.055.211 8.876 5.112 15.27 18.84 11.846 45.598-1.152 8.99-3.83 17.526-7.676 25.379-3.018 6.524-7.107 13.096-12.543 19.44.292.228.568.439.86.65 5.712-6.54 9.963-13.355 13.095-20.09 3.862-7.837 6.524-16.389 7.676-25.379Z" opacity=".8" style="mix-blend-mode:overlay"/>
  <path fill="url(#astar-zkyoto-logo-dark_svg__c)" d="M89.343 138.818c-.86-.649-1.672-1.331-2.5-2.012-13.387 5.582-31.935 9.087-50.37 4.803 3.02 3.846 6.378 7.4 10.078 10.564 17.98 2.45 35.278-3.262 47.06-10.256a139.72 139.72 0 0 1-4.285-3.115l.017.016Z" opacity=".5" style="mix-blend-mode:overlay"/>
  <path fill="url(#astar-zkyoto-logo-dark_svg__d)" d="M86.86 136.806c-.406-.341-.828-.682-1.218-1.022-13.485 5.387-32.13 8.616-50.515 4.024.454.6.908 1.217 1.363 1.801 18.418 4.284 36.982.779 50.37-4.803Z" opacity=".6" style="mix-blend-mode:overlay"/>
  <path fill="url(#astar-zkyoto-logo-dark_svg__e)" d="M27.938 108.928a15.661 15.661 0 0 0 2.645 4.706c-.26-10.321 8.341-22.93 33.558-33.477 8.357-3.489 17.088-5.452 25.818-6.036 7.4-.665 15.432-.39 23.951 1.298.406-3.408.568-6.588.536-9.395-10.11-2.516-19.57-3.002-28.187-2.224-8.714.585-17.46 2.548-25.818 6.037-30.036 12.56-36.511 28.024-32.503 39.107v-.016Z" opacity=".9" style="mix-blend-mode:overlay"/>
  <path fill="#fff" d="M64.142 80.174C38.924 90.72 30.324 103.33 30.584 113.65c.227.276.47.535.713.795-.016-10.239 8.682-22.637 33.559-33.054 8.357-3.49 17.087-5.453 25.817-6.037 7.156-.649 14.897-.39 23.108 1.136.049-.357.097-.714.13-1.071-8.52-1.671-16.552-1.963-23.952-1.298-8.714.584-17.46 2.547-25.817 6.036v.017Z" opacity=".8" style="mix-blend-mode:overlay"/>
  <path fill="url(#astar-zkyoto-logo-dark_svg__f)" d="M134.649 79.265c-.13 1.07-.308 2.11-.487 3.164 11.521 8.795 23.838 23.124 29.355 41.217 1.818-4.544 3.213-9.233 4.106-14.02-6.864-16.795-20.463-28.917-32.406-35.619-.146 1.704-.325 3.44-.552 5.258h-.016Z" opacity=".4" style="mix-blend-mode:overlay"/>
  <path fill="url(#astar-zkyoto-logo-dark_svg__g)" d="M134.162 82.43c-.097.518-.178 1.054-.276 1.573 11.408 8.99 23.53 23.513 28.739 41.736.308-.698.6-1.395.876-2.093-5.517-18.093-17.817-32.406-29.355-41.217h.016Z" opacity=".5" style="mix-blend-mode:overlay"/>
  <path fill="url(#astar-zkyoto-logo-dark_svg__h)" d="M139.468 147.386c.195-.227.39-.471.568-.714a16.239 16.239 0 0 0 2.191-3.927c-8.812 5.387-24.017 4.235-45.778-12.332-7.204-5.485-13.273-12.073-18.142-19.343-4.284-6.085-8.049-13.16-10.856-21.387a75.232 75.232 0 0 0-8.422 4.235c2.889 10.012 7.189 18.45 12.17 25.525 4.869 7.27 10.938 13.842 18.143 19.343 25.899 19.732 42.532 17.606 50.11 8.6h.016Z" opacity=".9" style="mix-blend-mode:overlay"/>
  <path fill="#fff" d="M96.466 130.413c21.745 16.567 36.966 17.719 45.777 12.332.13-.341.244-.681.341-1.006-8.86 5.144-23.951 3.797-45.404-12.544-7.205-5.484-13.274-12.072-18.142-19.342-4.138-5.874-7.79-12.706-10.564-20.576-.34.146-.665.276-.99.422 2.807 8.227 6.572 15.302 10.856 21.387 4.868 7.27 10.937 13.842 18.142 19.343l-.016-.016Z" opacity=".8" style="mix-blend-mode:overlay"/>
  <path fill="url(#astar-zkyoto-logo-dark_svg__i)" d="M60.426 69.805c.99-.406 1.98-.78 2.985-1.153 1.85-14.377 8.098-32.21 21.015-46.02a76.141 76.141 0 0 0-14.199 3.44C59.111 40.418 55.411 58.252 55.574 71.947c1.541-.73 3.148-1.444 4.835-2.141h.017Z" opacity=".3" style="mix-blend-mode:overlay"/>
  <path fill="url(#astar-zkyoto-logo-dark_svg__j)" d="M63.41 68.652c.504-.178.99-.373 1.494-.551 2.077-14.377 8.6-32.13 21.76-45.76-.746.08-1.492.178-2.239.275-12.917 13.826-19.164 31.643-21.014 46.02v.016Z" opacity=".4" style="mix-blend-mode:overlay"/>
  <path fill="url(#astar-zkyoto-logo-dark_svg__k)" d="M88.385 1.375C62.357 3.144 39.51 15.265 23.557 33.423l-.357.406c3.1 3.083 13.258 9.152 17.363 11.684 8.082-8.682 18.224-15.465 29.729-19.49a55.717 55.717 0 0 1 2.515-3.05c10.71-12.089 25.331-18.466 42.305-18.466 1.882 0 5.728.308 5.809.308a94.166 94.166 0 0 0-32.536-3.44Z" opacity=".4" style="mix-blend-mode:multiply"/>
  <path fill="url(#astar-zkyoto-logo-dark_svg__l)" d="M99.841 169.925c-20.17 1.38-39.026-5.501-53.274-17.736a56.5 56.5 0 0 1-3.992-.665c-15.822-3.229-28.674-12.706-37.144-27.391a55.669 55.669 0 0 1-2.548-4.998c10.953 43.667 51.863 74.595 98.354 71.431.211-4.787-1.201-15.902-1.412-20.641h.016Z" opacity=".4" style="mix-blend-mode:multiply"/>
  <path fill="url(#astar-zkyoto-logo-dark_svg__m)" d="M189.4 89.537c-2.921-.293-17.136.827-20.641 1.411a73.684 73.684 0 0 1-1.12 18.791 66.102 66.102 0 0 1 1.38 3.684c5.111 15.318 3.326 31.172-5.144 45.874a56.223 56.223 0 0 1-2.986 4.624c-.016.033-.049.065-.065.081 0 0 .049-.032.065-.064 19.262-18.743 30.475-45.485 28.511-74.385v-.016Z" opacity=".4" style="mix-blend-mode:multiply"/>
  <path fill="url(#astar-zkyoto-logo-dark_svg__n)" d="M116.085 25.813c2.077.21 4.3.73 6.296 1.396.098.032.195.064.276.08 8.179 3.327 15.66 8.098 22.118 13.988 0 0 .033.017.049.033 3.115-3.554 9.103-7.465 9.103-7.465s-9.168-9.379-23.205-12.3c-9.817-2.044-31.968-4.008-45.94 19.765l.13-.13c1.039-1.558 2.126-3.083 3.376-4.479 6.767-7.643 16.827-12.008 27.797-10.888Z" opacity=".5" style="mix-blend-mode:multiply"/>
  <path fill="url(#astar-zkyoto-logo-dark_svg__o)" d="M144.937 149.463c-1.217 1.688-2.775 3.359-4.349 4.755-.065.064-.146.129-.211.194-6.977 5.42-14.848 9.509-23.172 12.154-.017 0-.033 0-.049.017 1.525 4.478 1.915 11.618 1.915 11.618s12.706-3.245 22.247-13.939c6.67-7.481 19.457-25.687 5.859-49.671 0 0 .016.081.048.179.844 1.671 1.607 3.391 2.191 5.16 3.229 9.671 1.996 20.576-4.463 29.517l-.016.016Z" opacity=".5" style="mix-blend-mode:multiply"/>
  <path fill="url(#astar-zkyoto-logo-dark_svg__p)" d="M23.427 112.644c-.86-1.915-1.525-4.089-1.947-6.15-.016-.098-.049-.195-.065-.292A74.826 74.826 0 0 1 22.47 80.06v-.049c-4.641-.908-11.018-4.154-11.018-4.154s-3.538 12.641.957 26.239c3.148 9.526 12.511 29.696 40.081 29.907 0 0-.08-.016-.178-.049-1.866-.114-3.732-.308-5.566-.681-9.996-2.045-18.808-8.568-23.335-18.629h.016Z" opacity=".5" style="mix-blend-mode:multiply"/>
  <path fill="url(#astar-zkyoto-logo-dark_svg__q)" d="M112.093 62.843c.763.097 1.51.13 2.24.114 0 0-.503-9.85-1.704-14.913-1.217-5.047-3.002-8.406-4.949-10.304-1.412-1.363-5.842-3.05-9.282 7.367-1.12 8.681 5.014 16.616 13.695 17.72v.016Z" opacity=".6" style="mix-blend-mode:multiply"/>
  <path fill="url(#astar-zkyoto-logo-dark_svg__r)" d="M57.488 97.569a16.482 16.482 0 0 0-1.022-1.996s-8.293 5.355-12.057 8.925c-3.765 3.57-5.777 6.799-6.442 9.444-.471 1.899.275 6.572 11.018 4.349 8.065-3.375 11.878-12.657 8.503-20.722Z" opacity=".5" style="mix-blend-mode:multiply"/>
  <path fill="url(#astar-zkyoto-logo-dark_svg__s)" d="M114.852 127.475c-.455.601-.86 1.25-1.217 1.899 0 0 8.779 4.495 13.76 5.972 4.982 1.476 8.779 1.606 11.392.86 1.882-.536 5.55-3.538-1.736-11.716-6.962-5.307-16.893-3.96-22.199 3.002v-.017Z" opacity=".6" style="mix-blend-mode:multiply"/>
  <path fill="url(#astar-zkyoto-logo-dark_svg__t)" d="M111.444 86.632c-1.996 6.62-4.787 12.64-8.211 17.947-.179.276-.357.552-.552.844 0 0 0 .016-.016.032-2.256 3.262-4.95 6.475-8.114 9.59 2.175 2.305 4.512 4.544 7.092 6.67a74.294 74.294 0 0 0 9.282 6.231c7.237-7.513 12.381-15.448 16.016-23.302a82.416 82.416 0 0 0 3.765-8.974c-3.343-2.45-6.718-4.413-9.834-5.744a72.103 72.103 0 0 0-9.444-3.294h.016Z" opacity=".3" style="mix-blend-mode:multiply"/>
  <path fill="url(#astar-zkyoto-logo-dark_svg__u)" d="M46.567 152.189c17.98 2.45 35.278-3.261 47.06-10.255a139.547 139.547 0 0 1-4.285-3.116 80.839 80.839 0 0 1-12.267-11.602c-8.86 3.878-20.025 6.15-30.362 4.04-9.996-2.044-18.807-8.568-23.335-18.628-.86-1.915-1.525-4.09-1.947-6.15 2.613 18.336 11.862 34.336 25.12 45.711h.016Z" opacity=".3" style="mix-blend-mode:multiply"/>
  <path fill="url(#astar-zkyoto-logo-dark_svg__v)" d="M94.551 115.046c-4.738-5.031-8.535-10.467-11.424-16.082-.146-.308-.308-.584-.454-.892v-.032c-1.688-3.587-3.132-7.53-4.252-11.83a76.78 76.78 0 0 0-9.298 2.807 75.212 75.212 0 0 0-10.029 4.9c2.889 10.013 7.157 18.467 12.139 25.542a83.683 83.683 0 0 0 5.874 7.741c3.797-1.656 7.189-3.619 9.898-5.647a73.97 73.97 0 0 0 7.562-6.524l-.016.017Z" opacity=".3" style="mix-blend-mode:multiply"/>
  <path fill="url(#astar-zkyoto-logo-dark_svg__w)" d="M70.227 26.089C59.111 40.434 55.411 58.267 55.574 71.963c1.541-.73 3.164-1.444 4.852-2.158a79.84 79.84 0 0 1 16.162-4.82c1.071-9.606 4.69-20.413 11.684-28.3 6.766-7.643 16.827-12.008 27.797-10.888 2.077.21 4.3.73 6.296 1.395.098.033.195.065.276.081A73.525 73.525 0 0 0 89.765 22a73.786 73.786 0 0 0-19.506 4.024c-.016.016-.032.049-.048.065h.016Z" opacity=".3" style="mix-blend-mode:multiply"/>
  <path fill="url(#astar-zkyoto-logo-dark_svg__x)" d="M167.623 109.609c-6.88-16.794-20.479-28.932-32.422-35.634a114.234 114.234 0 0 1-.568 5.29 80.327 80.327 0 0 1-3.911 16.405c7.789 5.745 15.351 14.264 18.694 24.276 3.229 9.671 1.996 20.576-4.462 29.517-1.217 1.688-2.775 3.359-4.349 4.755l-.065.065c13.923-10.938 23.773-26.71 27.148-44.56 0-.032-.032-.065-.032-.097l-.033-.017Z" opacity=".3" style="mix-blend-mode:multiply"/>
  <path fill="url(#astar-zkyoto-logo-dark_svg__y)" d="M76.54 76.409a72.911 72.911 0 0 0 1.865 9.801c6.735-1.59 13.34-2.174 19.651-1.866l1.007.049h.032c3.96.324 8.081 1.054 12.349 2.223a78.138 78.138 0 0 0 2.223-9.46c.601-4.09.779-7.87.763-11.165-10.11-2.499-19.554-3.002-28.17-2.223-3.23.211-6.443.617-9.656 1.217-.454 4.122-.47 8.032-.049 11.408l-.016.016Z" opacity=".3" style="mix-blend-mode:multiply"/>
  <path fill="#fff" d="m474.289 68.56-12.281 34.213h.095l12.257-34.006-.071-.206ZM259.283 77.108l9.213 25.665h-18.468l-4.66 12.936h27.842l7.892 21.925h17.655l-32.189-80.735-7.285 20.209ZM243.94 102.773l12.275-34.213.048.13 5.185-14.38h-13.561l-33.116 83.324h16.635l12.57-34.861h-.036ZM352.257 94.71c-4.022-2.371-9.355-4.583-16.008-6.63-3.799-1.239-6.778-2.39-8.937-3.457-2.159-1.056-3.657-2.265-4.495-3.616-.843-1.35-1.262-2.943-1.262-4.772 0-3.22 1.245-5.704 3.728-7.456 2.483-1.757 5.958-2.63 10.417-2.63 3.657 0 7.474.548 11.455 1.645 3.982 1.097 7.509 2.596 10.582 4.495l2.301-13.484c-3.144-1.9-6.961-3.416-11.455-4.548-4.495-1.133-8.972-1.699-13.432-1.699-6.069 0-11.331.985-15.79 2.961-4.46 1.976-7.91 4.79-10.358 8.441-2.448 3.657-3.675 7.97-3.675 12.936 0 4.241.826 7.91 2.465 11.019 1.646 3.108 4.33 5.792 8.058 8.057 3.728 2.265 8.624 4.312 14.693 6.141 4.389 1.315 7.787 2.56 10.199 3.728 2.413 1.168 4.094 2.465 5.044 3.893.949 1.427 1.427 3.126 1.427 5.096 0 3.439-1.41 6.123-4.223 8.058-2.814 1.935-6.707 2.902-11.68 2.902-4.312 0-8.824-.672-13.537-2.029-4.713-1.351-8.825-3.085-12.334-5.209l-1.534 13.921c2.047 1.392 4.607 2.596 7.674 3.616 3.074 1.026 6.377 1.829 9.922 2.413 3.545.584 7.072.879 10.582.879 9.869 0 17.613-2.248 23.241-6.743 5.627-4.494 8.441-10.723 8.441-18.693 0-4.241-.914-7.91-2.743-11.018-1.829-3.109-4.754-5.846-8.771-8.223l.005.006ZM439.752 54.31h-70.495V67.9h70.495V54.31ZM412.89 73.593h-16.776v64.042h16.776V73.593Z"/>
  <path fill="#fff" d="m462.008 102.773 12.281-34.213.071.207 5.214-14.458h-13.62l-33.109 83.325h16.664l7.892-21.926h.036l4.666-12.935h-.095ZM477.38 77.178l9.19 25.595h-18.415l-4.666 12.935h27.794l7.893 21.926h17.655l-32.16-80.665-7.291 20.21ZM571.098 103.864a28.502 28.502 0 0 0 9.869-9.155c2.56-3.834 3.84-8.31 3.84-13.431 0-5.556-1.245-10.34-3.728-14.363-2.489-4.017-6.028-7.126-10.635-9.32s-10.087-3.292-16.446-3.292h-5.828v12.612h3.634c11.113 0 16.664 4.748 16.664 14.251s-5.74 14.251-17.213 14.251h-3.085v12.606h8.565l17.543 29.599h18.746l-21.931-33.77.005.012ZM542.478 54.31h-15.891v83.324h15.891V54.309ZM617.309 138.483v-8.35l33.888-43.052v-.57h-32.789V75.92h47.981V84.8l-32.584 42.523v.57h33.725v10.59h-50.221ZM678.287 138.483V55.066h12.586v39.835h1.018l34.988-39.835h15.844L709.08 92.62l33.766 45.863h-15.152l-26.964-37.269-9.857 11.324v25.945h-12.586Z"/>
  <path fill="#fff" d="M751.994 161.944c-1.819 0-3.475-.149-4.969-.448-1.493-.271-2.607-.57-3.34-.896l2.933-9.979c2.226.597 4.209.855 5.946.774 1.738-.082 3.273-.733 4.603-1.955 1.358-1.222 2.553-3.218 3.584-5.988l1.507-4.154-22.89-63.377h13.034l15.844 48.551h.652l15.844-48.551h13.074l-25.782 70.912c-1.195 3.258-2.716 6.015-4.562 8.268-1.846 2.281-4.046 3.992-6.598 5.132-2.553 1.141-5.513 1.711-8.88 1.711ZM828.899 139.746c-5.866 0-10.984-1.344-15.356-4.033-4.372-2.688-7.766-6.449-10.183-11.282-2.416-4.833-3.625-10.481-3.625-16.944 0-6.49 1.209-12.165 3.625-17.026 2.417-4.86 5.811-8.635 10.183-11.323 4.372-2.688 9.49-4.032 15.356-4.032 5.865 0 10.983 1.344 15.355 4.032 4.372 2.688 7.766 6.463 10.183 11.323 2.417 4.861 3.625 10.536 3.625 17.026 0 6.463-1.208 12.111-3.625 16.944-2.417 4.833-5.811 8.594-10.183 11.282-4.372 2.689-9.49 4.033-15.355 4.033Zm.04-10.224c3.802 0 6.952-1.004 9.45-3.014 2.498-2.009 4.345-4.684 5.539-8.024 1.222-3.34 1.833-7.019 1.833-11.038 0-3.991-.611-7.657-1.833-10.997-1.194-3.367-3.041-6.07-5.539-8.106-2.498-2.036-5.648-3.054-9.45-3.054-3.828 0-7.005 1.018-9.531 3.054-2.498 2.037-4.358 4.739-5.58 8.106-1.195 3.34-1.792 7.006-1.792 10.997 0 4.019.597 7.698 1.792 11.038 1.222 3.34 3.082 6.015 5.58 8.024 2.526 2.01 5.703 3.014 9.531 3.014ZM896.272 75.92v9.776h-34.173V75.92h34.173Zm-25.009-14.989h12.179v59.183c0 2.362.353 4.14 1.059 5.335.706 1.168 1.615 1.969 2.729 2.403 1.14.408 2.376.611 3.706.611.978 0 1.833-.068 2.566-.203.733-.136 1.304-.245 1.711-.326l2.199 10.06c-.706.272-1.71.543-3.014.815-1.303.299-2.932.462-4.887.489-3.204.054-6.191-.516-8.961-1.711-2.77-1.195-5.01-3.041-6.721-5.539-1.71-2.499-2.566-5.635-2.566-9.409V60.932ZM930.837 139.746c-5.866 0-10.984-1.344-15.356-4.033-4.372-2.688-7.766-6.449-10.183-11.282-2.416-4.833-3.625-10.481-3.625-16.944 0-6.49 1.209-12.165 3.625-17.026 2.417-4.86 5.811-8.635 10.183-11.323 4.372-2.688 9.49-4.032 15.356-4.032 5.865 0 10.983 1.344 15.355 4.032 4.372 2.688 7.766 6.463 10.183 11.323 2.417 4.861 3.625 10.536 3.625 17.026 0 6.463-1.208 12.111-3.625 16.944-2.417 4.833-5.811 8.594-10.183 11.282-4.372 2.689-9.49 4.033-15.355 4.033Zm.04-10.224c3.802 0 6.952-1.004 9.45-3.014 2.498-2.009 4.345-4.684 5.539-8.024 1.222-3.34 1.833-7.019 1.833-11.038 0-3.991-.611-7.657-1.833-10.997-1.194-3.367-3.041-6.07-5.539-8.106-2.498-2.036-5.648-3.054-9.45-3.054-3.828 0-7.005 1.018-9.531 3.054-2.498 2.037-4.358 4.739-5.58 8.106-1.195 3.34-1.792 7.006-1.792 10.997 0 4.019.597 7.698 1.792 11.038 1.222 3.34 3.082 6.015 5.58 8.024 2.526 2.01 5.703 3.014 9.531 3.014Z"/>
  <defs>
    <linearGradient id="astar-zkyoto-logo-dark_svg__a" x1="30.113" x2="151.004" y1="160.676" y2="39.766" gradientUnits="userSpaceOnUse">
      <stop stop-color="#E6007A"/>
      <stop offset=".21" stop-color="#703AC2"/>
      <stop offset=".46" stop-color="#0070EB"/>
      <stop offset=".77" stop-color="#0297FB"/>
      <stop offset="1" stop-color="#0AE2FF"/>
    </linearGradient>
    <linearGradient id="astar-zkyoto-logo-dark_svg__d" x1="37.074" x2="57.293" y1="140.1" y2="139.824" gradientUnits="userSpaceOnUse">
      <stop stop-color="#fff" stop-opacity="0"/>
      <stop offset="1" stop-color="#fff"/>
    </linearGradient>
    <linearGradient id="astar-zkyoto-logo-dark_svg__g" x1="161.913" x2="151.565" y1="123.884" y2="106.512" gradientUnits="userSpaceOnUse">
      <stop stop-color="#fff" stop-opacity="0"/>
      <stop offset="1" stop-color="#fff"/>
    </linearGradient>
    <linearGradient id="astar-zkyoto-logo-dark_svg__j" x1="85.444" x2="75.587" y1="23.885" y2="41.542" gradientUnits="userSpaceOnUse">
      <stop stop-color="#fff" stop-opacity="0"/>
      <stop offset="1" stop-color="#fff"/>
    </linearGradient>
    <linearGradient id="astar-zkyoto-logo-dark_svg__k" x1="89.846" x2="58.949" y1="14.908" y2="23.898" gradientUnits="userSpaceOnUse">
      <stop stop-color="#231F20"/>
      <stop offset="1" stop-color="#fff"/>
    </linearGradient>
    <linearGradient id="astar-zkyoto-logo-dark_svg__l" x1="31.476" x2="57.309" y1="132.717" y2="159.687" gradientUnits="userSpaceOnUse">
      <stop stop-color="#231F20"/>
      <stop offset="1" stop-color="#fff"/>
    </linearGradient>
    <linearGradient id="astar-zkyoto-logo-dark_svg__m" x1="170.122" x2="179.112" y1="128.66" y2="101.334" gradientUnits="userSpaceOnUse">
      <stop stop-color="#231F20"/>
      <stop offset="1" stop-color="#fff"/>
    </linearGradient>
    <linearGradient id="astar-zkyoto-logo-dark_svg__n" x1="103.915" x2="145.327" y1="30.551" y2="40.028" gradientUnits="userSpaceOnUse">
      <stop stop-color="#231F20"/>
      <stop offset="1" stop-color="#fff"/>
    </linearGradient>
    <linearGradient id="astar-zkyoto-logo-dark_svg__o" x1="146.928" x2="117.993" y1="136.552" y2="167.683" gradientUnits="userSpaceOnUse">
      <stop stop-color="#231F20"/>
      <stop offset="1" stop-color="#fff"/>
    </linearGradient>
    <linearGradient id="astar-zkyoto-logo-dark_svg__p" x1="33.605" x2="21.12" y1="120.815" y2="80.205" gradientUnits="userSpaceOnUse">
      <stop stop-color="#231F20"/>
      <stop offset="1" stop-color="#fff"/>
    </linearGradient>
    <linearGradient id="astar-zkyoto-logo-dark_svg__q" x1="112.97" x2="99.874" y1="45.821" y2="58.933" gradientUnits="userSpaceOnUse">
      <stop stop-color="#231F20"/>
      <stop offset="1" stop-color="#fff"/>
    </linearGradient>
    <linearGradient id="astar-zkyoto-logo-dark_svg__r" x1="42.316" x2="60.212" y1="105.297" y2="110.105" gradientUnits="userSpaceOnUse">
      <stop stop-color="#231F20"/>
      <stop offset="1" stop-color="#fff"/>
    </linearGradient>
    <linearGradient id="astar-zkyoto-logo-dark_svg__s" x1="129.146" x2="124.353" y1="136.751" y2="118.863" gradientUnits="userSpaceOnUse">
      <stop stop-color="#231F20"/>
      <stop offset="1" stop-color="#fff"/>
    </linearGradient>
    <linearGradient id="astar-zkyoto-logo-dark_svg__t" x1="101.902" x2="109.772" y1="120.839" y2="109.983" gradientUnits="userSpaceOnUse">
      <stop stop-color="#231F20"/>
      <stop offset="1" stop-color="#fff"/>
    </linearGradient>
    <linearGradient id="astar-zkyoto-logo-dark_svg__u" x1="74.835" x2="59.111" y1="116.133" y2="123.63" gradientUnits="userSpaceOnUse">
      <stop stop-color="#231F20"/>
      <stop offset="1" stop-color="#fff"/>
    </linearGradient>
    <linearGradient id="astar-zkyoto-logo-dark_svg__v" x1="69.123" x2="73.991" y1="89.959" y2="100.068" gradientUnits="userSpaceOnUse">
      <stop stop-color="#231F20"/>
      <stop offset="1" stop-color="#fff"/>
    </linearGradient>
    <linearGradient id="astar-zkyoto-logo-dark_svg__w" x1="91.761" x2="88.402" y1="58.738" y2="47.135" gradientUnits="userSpaceOnUse">
      <stop stop-color="#231F20"/>
      <stop offset="1" stop-color="#fff"/>
    </linearGradient>
    <linearGradient id="astar-zkyoto-logo-dark_svg__x" x1="128.077" x2="137.814" y1="111.881" y2="114.121" gradientUnits="userSpaceOnUse">
      <stop stop-color="#231F20"/>
      <stop offset="1" stop-color="#fff"/>
    </linearGradient>
    <linearGradient id="astar-zkyoto-logo-dark_svg__y" x1="112.807" x2="100.458" y1="78.989" y2="76.75" gradientUnits="userSpaceOnUse">
      <stop stop-color="#231F20"/>
      <stop offset="1" stop-color="#fff"/>
    </linearGradient>
    <radialGradient id="astar-zkyoto-logo-dark_svg__b" cx="0" cy="0" r="1" gradientTransform="matrix(36.0571 0 0 36.0565 121.846 76.766)" gradientUnits="userSpaceOnUse">
      <stop stop-color="#fff"/>
      <stop offset="1" stop-color="#fff" stop-opacity="0"/>
    </radialGradient>
    <radialGradient id="astar-zkyoto-logo-dark_svg__c" cx="0" cy="0" r="1" gradientTransform="matrix(20.9819 0 0 20.9816 68.555 143.654)" gradientUnits="userSpaceOnUse">
      <stop stop-color="#fff"/>
      <stop offset="1" stop-color="#fff" stop-opacity="0"/>
    </radialGradient>
    <radialGradient id="astar-zkyoto-logo-dark_svg__e" cx="0" cy="0" r="1" gradientTransform="rotate(-120 56.058 22.403) scale(36.0566 36.057)" gradientUnits="userSpaceOnUse">
      <stop stop-color="#fff"/>
      <stop offset="1" stop-color="#fff" stop-opacity="0"/>
    </radialGradient>
    <radialGradient id="astar-zkyoto-logo-dark_svg__f" cx="0" cy="0" r="1" gradientTransform="rotate(-120 102.012 4.342) scale(20.9817 20.9818)" gradientUnits="userSpaceOnUse">
      <stop stop-color="#fff"/>
      <stop offset="1" stop-color="#fff" stop-opacity="0"/>
    </radialGradient>
    <radialGradient id="astar-zkyoto-logo-dark_svg__h" cx="0" cy="0" r="1" gradientTransform="rotate(120 11.36 91.42) scale(36.0566 36.057)" gradientUnits="userSpaceOnUse">
      <stop stop-color="#fff"/>
      <stop offset="1" stop-color="#fff" stop-opacity="0"/>
    </radialGradient>
    <radialGradient id="astar-zkyoto-logo-dark_svg__i" cx="0" cy="0" r="1" gradientTransform="rotate(120 19.066 43.927) scale(20.9817 20.9818)" gradientUnits="userSpaceOnUse">
      <stop stop-color="#fff"/>
      <stop offset="1" stop-color="#fff" stop-opacity="0"/>
    </radialGradient>
  </defs>
</svg>
