<svg xmlns="http://www.w3.org/2000/svg" fill="none" viewBox="0 0 960 192">
  <path fill="url(#astar-zkatana-logo-light_svg__a)" d="M178.092 89.91C174.75 40.777 132.225 3.67 83.108 7.011 58.633 8.675 37.149 20.072 22.15 37.147l-.045-.03a6.793 6.793 0 0 0-.29.411C6.922 54.708-1.455 77.535.209 102.01c.152 2.335.427 4.623.763 6.897 0 .107.03.198.045.305.23 1.495.489 2.991.779 4.455 0 .031 0 .062.015.077a87.78 87.78 0 0 0 .9 3.967c10.3 41.06 48.766 70.142 92.497 67.166 49.117-3.341 86.241-45.866 82.899-94.997l-.015.03Zm-19.409 1.327a69.288 69.288 0 0 1-1.053 17.669c0-.031-.03-.061-.03-.092-6.47-15.792-19.257-27.205-30.487-33.507 2.274-26.763-6.805-38.053-17.089-39.885a8.026 8.026 0 0 0-.839-.137C101.021 34.232 93.56 40 92.522 48.163c-1.053 8.163 4.715 15.625 12.878 16.662.718.092 1.42.122 2.106.107.046.9.076 1.861.076 2.868-9.506-2.35-18.386-2.822-26.488-2.09-3.037.198-6.058.58-9.079 1.144 1.007-9.032 4.41-19.194 10.986-26.61 6.363-7.187 15.823-11.291 26.138-10.238 1.953.198 4.043.686 5.92 1.312.092.03.183.061.259.076 23.895 9.735 41.488 32.424 43.35 59.843h.015Zm-62.148 13.61s0 .016-.015.031c-2.12 3.067-4.654 6.088-7.63 9.017-4.455-4.73-8.025-9.841-10.741-15.12-.137-.29-.29-.55-.427-.84v-.03c-1.587-3.372-2.945-7.08-3.998-11.123 6.332-1.496 12.542-2.045 18.478-1.755l.946.046h.03c3.724.305 7.599.991 11.612 2.09-1.877 6.225-4.501 11.886-7.72 16.876-.168.259-.336.518-.52.793l-.015.015ZM66.08 30.189s-.03.046-.045.061C55.582 43.738 52.103 60.507 52.255 73.385c-24.322 11.413-29.54 24.916-26 34.743.091.274.198.534.305.793 3.174 7.584 11.902 11.169 19.485 7.995 7.584-3.173 11.17-11.901 7.995-19.484a15.487 15.487 0 0 0-.96-1.877 55.05 55.05 0 0 1 2.471-1.526c2.716 9.414 6.73 17.364 11.413 24.017a78.863 78.863 0 0 0 5.524 7.278c-8.331 3.646-18.829 5.783-28.549 3.799-9.399-1.922-17.684-8.056-21.941-17.516-.809-1.801-1.434-3.845-1.831-5.783a70.655 70.655 0 0 1-.565-5.142C17.436 68.746 37.241 40.32 66.08 30.189ZM93.88 165.483c-18.966 1.297-36.696-5.172-50.093-16.677 16.906 2.304 33.172-3.067 44.25-9.643 22.048 15.365 36.36 13.137 43.105 5.157a11.3 11.3 0 0 0 .534-.671c4.989-6.546 3.723-15.884-2.823-20.873-6.546-4.99-15.884-3.723-20.874 2.822a14.68 14.68 0 0 0-1.144 1.786 53.429 53.429 0 0 1-2.533-1.374c6.805-7.064 11.642-14.525 15.06-21.91a77.46 77.46 0 0 0 3.54-8.438c7.324 5.401 14.434 13.412 17.578 22.826 3.036 9.094 1.876 19.347-4.196 27.755-1.145 1.587-2.61 3.158-4.09 4.47a1.754 1.754 0 0 1-.061.061c-10.62 8.347-23.772 13.718-38.237 14.694l-.016.015Z"/>
  <path fill="url(#astar-zkatana-logo-light_svg__b)" d="M110.024 35.407a7.967 7.967 0 0 0-.839-.137 14.48 14.48 0 0 0-4.227.076c8.53 4.639 14.74 17.562 11.475 43.074-1.084 8.453-3.601 16.479-7.217 23.864-2.945 6.347-6.943 12.74-12.314 18.889a70.204 70.204 0 0 0 7.4 4.868c6.806-7.065 11.643-14.526 15.06-21.911a75.784 75.784 0 0 0 7.218-23.864c3.891-30.364-5.661-42.906-16.556-44.844v-.015Z" opacity=".9" style="mix-blend-mode:overlay"/>
  <path fill="#fff" d="M116.433 78.405c3.265-25.497-2.945-38.436-11.475-43.074-.335.046-.656.122-.991.198 8.346 4.806 14.358 17.715 11.138 42.876-1.083 8.453-3.601 16.478-7.217 23.863-2.838 6.134-6.683 12.314-11.795 18.28.275.213.534.412.809.61 5.371-6.149 9.369-12.557 12.313-18.89a75.778 75.778 0 0 0 7.218-23.863Z" opacity=".8" style="mix-blend-mode:overlay"/>
  <path fill="url(#astar-zkatana-logo-light_svg__c)" d="M84.008 136.249c-.808-.611-1.571-1.252-2.35-1.892-12.588 5.248-30.028 8.544-47.362 4.516 2.838 3.616 5.997 6.958 9.476 9.933 16.906 2.304 33.172-3.067 44.25-9.643a131.706 131.706 0 0 1-4.029-2.93l.015.016Z" opacity=".5" style="mix-blend-mode:overlay"/>
  <path fill="url(#astar-zkatana-logo-light_svg__d)" d="M81.673 134.356c-.381-.32-.778-.64-1.144-.961-12.68 5.066-30.212 8.102-47.5 3.784.427.565.855 1.145 1.282 1.694 17.318 4.028 34.774.732 47.362-4.517Z" opacity=".6" style="mix-blend-mode:overlay"/>
  <path fill="url(#astar-zkatana-logo-light_svg__e)" d="M26.27 108.143a14.741 14.741 0 0 0 2.487 4.425c-.244-9.704 7.843-21.56 31.555-31.478 7.858-3.28 16.067-5.127 24.276-5.676 6.958-.626 14.51-.366 22.521 1.22.382-3.204.534-6.194.504-8.834-9.506-2.365-18.402-2.822-26.504-2.09-8.194.55-16.418 2.395-24.276 5.676-28.244 11.81-34.332 26.35-30.563 36.772v-.015Z" opacity=".9" style="mix-blend-mode:overlay"/>
  <path fill="#fff" d="M60.312 81.105C36.6 91.023 28.513 102.88 28.758 112.583c.213.259.442.504.67.748-.014-9.628 8.164-21.285 31.555-31.081 7.858-3.28 16.068-5.127 24.277-5.676 6.729-.61 14.007-.367 21.728 1.068.045-.336.091-.672.122-1.007-8.011-1.572-15.564-1.847-22.522-1.22-8.194.548-16.418 2.395-24.276 5.675v.015Z" opacity=".8" style="mix-blend-mode:overlay"/>
  <path fill="url(#astar-zkatana-logo-light_svg__f)" d="M126.61 80.251c-.122 1.007-.29 1.983-.458 2.975 10.833 8.27 22.415 21.743 27.602 38.756 1.709-4.272 3.022-8.682 3.861-13.183-6.455-15.792-19.241-27.19-30.471-33.492a129.828 129.828 0 0 1-.519 4.944h-.015Z" opacity=".4" style="mix-blend-mode:overlay"/>
  <path fill="url(#astar-zkatana-logo-light_svg__g)" d="M126.152 83.226c-.091.489-.168.992-.259 1.48 10.726 8.453 22.124 22.109 27.022 39.244.29-.656.565-1.312.824-1.968-5.187-17.013-16.753-30.47-27.602-38.756h.015Z" opacity=".5" style="mix-blend-mode:overlay"/>
  <path fill="url(#astar-zkatana-logo-light_svg__h)" d="M131.141 144.305c.183-.214.366-.443.534-.672a15.245 15.245 0 0 0 2.06-3.692c-8.285 5.066-22.583 3.982-43.044-11.596-6.775-5.157-12.481-11.352-17.06-18.188-4.027-5.722-7.567-12.374-10.207-20.11a70.755 70.755 0 0 0-7.92 3.982c2.717 9.414 6.76 17.349 11.445 24.001 4.577 6.836 10.284 13.015 17.059 18.188 24.352 18.554 39.992 16.555 47.118 8.087h.015Z" opacity=".9" style="mix-blend-mode:overlay"/>
  <path fill="#fff" d="M90.706 128.345c20.447 15.578 34.759 16.662 43.045 11.596.122-.32.228-.641.32-.946-8.331 4.837-22.522 3.57-42.693-11.795-6.775-5.157-12.482-11.352-17.06-18.187-3.89-5.524-7.323-11.948-9.932-19.348-.32.138-.626.26-.931.397 2.64 7.736 6.18 14.388 10.208 20.11 4.577 6.836 10.284 13.015 17.059 18.188l-.016-.015Z" opacity=".8" style="mix-blend-mode:overlay"/>
  <path fill="url(#astar-zkatana-logo-light_svg__i)" d="M56.818 71.355c.93-.381 1.861-.732 2.808-1.083C61.364 56.753 67.239 39.985 79.386 27a71.593 71.593 0 0 0-13.352 3.235C55.582 43.723 52.103 60.492 52.256 73.37a98.838 98.838 0 0 1 4.547-2.015h.015Z" opacity=".3" style="mix-blend-mode:overlay"/>
  <path fill="url(#astar-zkatana-logo-light_svg__j)" d="M59.625 70.272c.473-.168.93-.35 1.404-.519 1.953-13.518 8.087-30.21 20.461-43.028-.702.076-1.403.168-2.105.26-12.146 13-18.02 29.753-19.76 43.272v.015Z" opacity=".4" style="mix-blend-mode:overlay"/>
  <path fill="url(#astar-zkatana-logo-light_svg__k)" d="M83.108 7.012C58.634 8.675 37.15 20.072 22.151 37.147c-.107.122-.23.259-.336.381 2.914 2.9 12.466 8.606 16.327 10.986 7.598-8.163 17.135-14.541 27.953-18.325a52.369 52.369 0 0 1 2.365-2.869C78.53 15.953 92.28 9.956 108.24 9.956c1.77 0 5.386.29 5.462.29a88.54 88.54 0 0 0-30.593-3.234Z" opacity=".4" style="mix-blend-mode:multiply"/>
  <path fill="url(#astar-zkatana-logo-light_svg__l)" d="M93.88 165.498c-18.966 1.297-36.696-5.172-50.093-16.677a53.787 53.787 0 0 1-3.754-.625c-14.877-3.037-26.962-11.947-34.926-25.756a52.366 52.366 0 0 1-2.396-4.7c10.3 41.06 48.766 70.142 92.481 67.167.199-4.501-1.129-14.953-1.327-19.409h.015Z" opacity=".4" style="mix-blend-mode:multiply"/>
  <path fill="url(#astar-zkatana-logo-light_svg__m)" d="M178.092 89.91c-2.746-.275-16.113.778-19.409 1.327a69.289 69.289 0 0 1-1.053 17.669 61.74 61.74 0 0 1 1.297 3.463c4.807 14.404 3.128 29.311-4.836 43.135a52.991 52.991 0 0 1-2.808 4.349c-.015.03-.046.061-.061.076 0 0 .046-.03.061-.061 18.112-17.623 28.655-42.769 26.809-69.943v-.016Z" opacity=".4" style="mix-blend-mode:multiply"/>
  <path fill="url(#astar-zkatana-logo-light_svg__n)" d="M109.154 29.99c1.953.199 4.044.687 5.921 1.313.091.03.183.06.259.076 7.69 3.128 14.724 7.614 20.797 13.152 0 0 .031.016.046.031 2.93-3.341 8.56-7.019 8.56-7.019s-8.621-8.819-21.82-11.565c-9.231-1.923-30.059-3.77-43.196 18.584l.122-.122c.976-1.465 1.999-2.9 3.173-4.211 6.363-7.187 15.824-11.291 26.138-10.238Z" opacity=".5" style="mix-blend-mode:multiply"/>
  <path fill="url(#astar-zkatana-logo-light_svg__o)" d="M136.284 146.258c-1.145 1.587-2.61 3.158-4.09 4.471-.061.061-.137.122-.198.183a70.149 70.149 0 0 1-21.789 11.428c-.015 0-.031 0-.046.015 1.434 4.212 1.801 10.925 1.801 10.925s11.947-3.051 20.919-13.107c6.271-7.034 18.295-24.153 5.508-46.705 0 0 .016.076.046.168.794 1.571 1.511 3.189 2.06 4.852 3.036 9.094 1.877 19.347-4.196 27.755l-.015.015Z" opacity=".5" style="mix-blend-mode:multiply"/>
  <path fill="url(#astar-zkatana-logo-light_svg__p)" d="M22.029 111.637c-.81-1.8-1.435-3.845-1.831-5.783-.016-.091-.046-.183-.062-.274a70.359 70.359 0 0 1 .992-24.581v-.046c-4.364-.855-10.36-3.906-10.36-3.906s-3.327 11.886.9 24.672c2.96 8.957 11.764 27.923 37.688 28.121 0 0-.076-.015-.167-.046-1.755-.107-3.51-.29-5.234-.641-9.4-1.922-17.685-8.056-21.942-17.516h.015Z" opacity=".5" style="mix-blend-mode:multiply"/>
  <path fill="url(#astar-zkatana-logo-light_svg__q)" d="M105.401 64.81c.717.091 1.419.122 2.105.106 0 0-.473-9.261-1.602-14.022-1.144-4.745-2.822-7.904-4.653-9.689-1.328-1.282-5.494-2.868-8.728 6.927-1.053 8.164 4.715 15.625 12.878 16.662v.016Z" opacity=".6" style="mix-blend-mode:multiply"/>
  <path fill="url(#astar-zkatana-logo-light_svg__r)" d="M54.056 97.462a15.487 15.487 0 0 0-.962-1.877s-7.797 5.036-11.337 8.392c-3.54 3.357-5.432 6.394-6.057 8.881-.443 1.785.26 6.179 10.36 4.089 7.584-3.174 11.17-11.901 7.996-19.485Z" opacity=".5" style="mix-blend-mode:multiply"/>
  <path fill="url(#astar-zkatana-logo-light_svg__s)" d="M107.994 125.583a14.869 14.869 0 0 0-1.144 1.785s8.255 4.227 12.939 5.615c4.685 1.389 8.255 1.511 10.712.809 1.77-.504 5.218-3.326-1.633-11.016-6.546-4.99-15.884-3.723-20.874 2.822v-.015Z" opacity=".6" style="mix-blend-mode:multiply"/>
  <path fill="url(#astar-zkatana-logo-light_svg__t)" d="M104.79 87.178c-1.877 6.225-4.501 11.886-7.72 16.876-.168.259-.336.519-.52.793 0 0 0 .015-.015.031-2.12 3.067-4.653 6.088-7.629 9.017 2.045 2.167 4.242 4.273 6.668 6.271a69.813 69.813 0 0 0 8.728 5.86c6.805-7.065 11.642-14.526 15.06-21.911a77.382 77.382 0 0 0 3.54-8.438c-3.143-2.304-6.317-4.15-9.247-5.401a67.774 67.774 0 0 0-8.88-3.098h.015Z" opacity=".3" style="mix-blend-mode:multiply"/>
  <path fill="url(#astar-zkatana-logo-light_svg__u)" d="M43.787 148.821c16.906 2.304 33.172-3.067 44.25-9.643a131.635 131.635 0 0 1-4.029-2.929 76.094 76.094 0 0 1-11.535-10.91c-8.331 3.647-18.83 5.783-28.549 3.799-9.399-1.922-17.684-8.056-21.941-17.516-.81-1.801-1.435-3.845-1.832-5.783 2.457 17.242 11.154 32.286 23.62 42.982h.016Z" opacity=".3" style="mix-blend-mode:multiply"/>
  <path fill="url(#astar-zkatana-logo-light_svg__v)" d="M88.906 113.895c-4.456-4.73-8.026-9.841-10.742-15.12-.137-.29-.29-.55-.427-.84v-.03c-1.587-3.372-2.945-7.08-3.998-11.124a72.165 72.165 0 0 0-8.743 2.64 70.721 70.721 0 0 0-9.43 4.608c2.716 9.414 6.73 17.364 11.413 24.017a78.863 78.863 0 0 0 5.524 7.278c3.57-1.557 6.76-3.403 9.308-5.31a69.463 69.463 0 0 0 7.11-6.134l-.015.015Z" opacity=".3" style="mix-blend-mode:multiply"/>
  <path fill="url(#astar-zkatana-logo-light_svg__w)" d="M66.034 30.25C55.582 43.738 52.103 60.507 52.256 73.385c1.45-.687 2.975-1.358 4.562-2.03a75.072 75.072 0 0 1 15.197-4.531c1.007-9.033 4.41-19.195 10.986-26.61 6.363-7.187 15.823-11.292 26.138-10.239 1.953.199 4.044.687 5.92 1.312.092.031.184.062.26.077a69.137 69.137 0 0 0-30.914-4.96 69.384 69.384 0 0 0-18.34 3.785c-.016.015-.031.046-.046.06h.015Z" opacity=".3" style="mix-blend-mode:multiply"/>
  <path fill="url(#astar-zkatana-logo-light_svg__x)" d="M157.615 108.784c-6.469-15.793-19.256-27.206-30.486-33.507-.138 1.602-.305 3.25-.534 4.974a75.542 75.542 0 0 1-3.678 15.426c7.325 5.401 14.435 13.412 17.578 22.826 3.037 9.094 1.877 19.348-4.196 27.755-1.144 1.587-2.609 3.158-4.089 4.471l-.061.061c13.092-10.284 22.353-25.115 25.527-41.899 0-.031-.03-.061-.03-.092l-.031-.015Z" opacity=".3" style="mix-blend-mode:multiply"/>
  <path fill="url(#astar-zkatana-logo-light_svg__y)" d="M71.97 77.566a68.551 68.551 0 0 0 1.754 9.215c6.332-1.495 12.542-2.044 18.478-1.754l.946.046h.03c3.724.305 7.599.991 11.612 2.09a73.416 73.416 0 0 0 2.091-8.896c.564-3.845.732-7.4.717-10.497-9.506-2.35-18.387-2.823-26.489-2.09-3.036.198-6.057.58-9.079 1.144-.427 3.875-.442 7.552-.046 10.726l-.015.016Z" opacity=".3" style="mix-blend-mode:multiply"/>
  <path fill="#020617" d="m445.972 70.186-11.548 32.169h.089l11.525-31.975-.066-.194ZM243.802 78.223l8.664 24.133H235.1l-4.382 12.163h26.179l7.421 20.616h16.601l-30.267-75.914-6.85 19.002ZM229.376 102.355l11.542-32.17.044.123 4.876-13.523h-12.752l-31.138 78.35h15.641l11.82-32.78h-.033ZM331.226 94.774c-3.783-2.23-8.797-4.31-15.053-6.234-3.572-1.165-6.373-2.247-8.403-3.25-2.03-.994-3.439-2.13-4.227-3.4-.793-1.27-1.187-2.768-1.187-4.488 0-3.028 1.171-5.363 3.506-7.01 2.335-1.653 5.602-2.474 9.795-2.474 3.439 0 7.027.516 10.771 1.547 3.744 1.032 7.061 2.44 9.95 4.227l2.164-12.68c-2.957-1.786-6.545-3.211-10.772-4.276-4.226-1.065-8.436-1.597-12.629-1.597-5.707 0-10.655.926-14.848 2.784-4.193 1.858-7.438 4.504-9.74 7.937-2.301 3.439-3.455 7.493-3.455 12.163 0 3.988.776 7.438 2.318 10.361 1.548 2.923 4.071 5.447 7.577 7.577 3.505 2.13 8.109 4.054 13.816 5.774 4.127 1.237 7.322 2.407 9.59 3.505 2.269 1.098 3.849 2.318 4.742 3.661.893 1.342 1.343 2.939 1.343 4.792 0 3.233-1.326 5.757-3.972 7.576-2.645 1.82-6.306 2.729-10.982 2.729-4.054 0-8.297-.632-12.729-1.908-4.432-1.27-8.298-2.901-11.598-4.897l-1.442 13.089c1.925 1.309 4.332 2.441 7.216 3.4 2.89.966 5.996 1.72 9.329 2.269a61.16 61.16 0 0 0 9.951.826c9.279 0 16.562-2.113 21.853-6.339 5.291-4.227 7.937-10.084 7.937-17.577 0-3.988-.86-7.438-2.579-10.361-1.72-2.923-4.471-5.496-8.248-7.732l.006.006ZM413.497 56.785h-66.286v12.78h66.286v-12.78ZM388.238 74.918h-15.774v60.218h15.774V74.918Z"/>
  <path fill="#020617" d="m434.424 102.355 11.548-32.17.066.195 4.903-13.595h-12.807l-31.132 78.35h15.669l7.421-20.616h.033l4.388-12.164h-.089ZM448.878 78.289l8.641 24.066h-17.316l-4.387 12.164h26.135l7.421 20.616h16.601l-30.24-75.848-6.855 19.002ZM537.001 103.381a26.795 26.795 0 0 0 9.279-8.608c2.407-3.605 3.611-7.815 3.611-12.63 0-5.224-1.171-9.722-3.506-13.505-2.34-3.777-5.668-6.7-10-8.763-4.332-2.063-9.485-3.095-15.464-3.095h-5.48v11.858h3.417c10.45 0 15.669 4.465 15.669 13.4 0 8.936-5.397 13.4-16.185 13.4h-2.901v11.854h8.054l16.495 27.832h17.627l-20.622-31.754.006.011ZM510.089 56.785h-14.942v78.35h14.942v-78.35ZM579.991 136.151v-7.852l31.865-40.482v-.536h-30.831v-9.958h45.116v8.35l-30.639 39.984v.536h31.712v9.958h-47.223ZM637.329 136.151V57.714h11.834v37.457h.958l32.899-37.457h14.898l-31.635 35.312 31.75 43.125h-14.247l-25.354-35.044-9.269 10.647v24.397h-11.834ZM720.834 137.453c-3.727 0-7.098-.689-10.11-2.068-3.013-1.404-5.401-3.434-7.162-6.09-1.737-2.655-2.605-5.911-2.605-9.766 0-3.319.639-6.051 1.915-8.196 1.277-2.145 3-3.843 5.171-5.094 2.17-1.251 4.595-2.196 7.276-2.834a72.437 72.437 0 0 1 8.196-1.455l8.579-.996c2.196-.281 3.792-.728 4.788-1.34.996-.613 1.493-1.609 1.493-2.988v-.268c0-3.345-.944-5.936-2.834-7.775-1.864-1.838-4.647-2.757-8.349-2.757-3.855 0-6.894.855-9.115 2.566-2.196 1.685-3.715 3.562-4.558 5.63l-10.762-2.451c1.277-3.575 3.141-6.46 5.592-8.656a22.684 22.684 0 0 1 8.541-4.826c3.217-1.02 6.6-1.531 10.149-1.531 2.349 0 4.838.28 7.468.842a21.856 21.856 0 0 1 7.43 2.987c2.324 1.456 4.226 3.537 5.707 6.243 1.481 2.681 2.221 6.166 2.221 10.456v39.065h-11.183v-8.043h-.46c-.74 1.481-1.851 2.936-3.332 4.366-1.481 1.43-3.383 2.617-5.706 3.562-2.324.945-5.107 1.417-8.35 1.417Zm2.49-9.192c3.166 0 5.872-.625 8.119-1.876 2.273-1.252 3.996-2.886 5.171-4.903 1.2-2.042 1.8-4.225 1.8-6.549v-7.583c-.409.408-1.2.791-2.375 1.149a37.075 37.075 0 0 1-3.945.881c-1.481.23-2.923.447-4.327.651-1.405.179-2.579.332-3.524.459-2.221.281-4.251.754-6.089 1.418-1.813.663-3.269 1.621-4.367 2.872-1.072 1.225-1.608 2.86-1.608 4.902 0 2.834 1.047 4.979 3.14 6.434 2.094 1.43 4.762 2.145 8.005 2.145ZM788.264 77.323v9.192h-32.133v-9.192h32.133ZM764.748 63.23H776.2v55.649c0 2.221.332 3.894.996 5.017.664 1.098 1.519 1.851 2.566 2.26 1.072.383 2.234.574 3.485.574.919 0 1.723-.064 2.413-.191.689-.128 1.225-.23 1.608-.307l2.068 9.46c-.663.256-1.608.511-2.834.766-1.225.281-2.757.434-4.596.46-3.012.051-5.821-.485-8.425-1.609-2.605-1.123-4.711-2.859-6.32-5.208-1.608-2.349-2.413-5.299-2.413-8.848V63.229ZM813.737 137.453c-3.728 0-7.098-.689-10.111-2.068-3.013-1.404-5.4-3.434-7.162-6.09-1.736-2.655-2.604-5.911-2.604-9.766 0-3.319.638-6.051 1.915-8.196 1.277-2.145 3-3.843 5.17-5.094 2.171-1.251 4.596-2.196 7.277-2.834a72.437 72.437 0 0 1 8.196-1.455l8.579-.996c2.196-.281 3.792-.728 4.787-1.34.996-.613 1.494-1.609 1.494-2.988v-.268c0-3.345-.945-5.936-2.834-7.775-1.864-1.838-4.647-2.757-8.349-2.757-3.856 0-6.894.855-9.115 2.566-2.196 1.685-3.715 3.562-4.558 5.63L795.66 91.57c1.277-3.575 3.141-6.46 5.592-8.656a22.672 22.672 0 0 1 8.54-4.826c3.217-1.02 6.601-1.531 10.15-1.531 2.349 0 4.838.28 7.468.842a21.864 21.864 0 0 1 7.43 2.987c2.323 1.456 4.226 3.537 5.706 6.243 1.481 2.681 2.222 6.166 2.222 10.456v39.065h-11.183v-8.043h-.46c-.741 1.481-1.851 2.936-3.332 4.366-1.481 1.43-3.383 2.617-5.707 3.562-2.323.945-5.106 1.417-8.349 1.417Zm2.49-9.192c3.166 0 5.872-.625 8.119-1.876 2.272-1.252 3.996-2.886 5.17-4.903 1.2-2.042 1.8-4.225 1.8-6.549v-7.583c-.408.408-1.2.791-2.374 1.149a37.075 37.075 0 0 1-3.945.881c-1.481.23-2.923.447-4.328.651a529.82 529.82 0 0 0-3.523.459c-2.222.281-4.251.754-6.09 1.418-1.813.663-3.268 1.621-4.366 2.872-1.072 1.225-1.608 2.86-1.608 4.902 0 2.834 1.046 4.979 3.14 6.434 2.094 1.43 4.762 2.145 8.005 2.145ZM865.158 101.222v34.929h-11.452V77.323h10.992v9.575h.728c1.353-3.115 3.472-5.617 6.358-7.506 2.91-1.89 6.574-2.834 10.991-2.834 4.009 0 7.52.842 10.533 2.527 3.012 1.66 5.349 4.137 7.008 7.43 1.66 3.294 2.49 7.366 2.49 12.218v37.418h-11.452v-36.04c0-4.264-1.11-7.596-3.332-9.996-2.221-2.425-5.272-3.638-9.153-3.638-2.656 0-5.017.574-7.085 1.723-2.043 1.15-3.664 2.834-4.864 5.056-1.175 2.196-1.762 4.851-1.762 7.966ZM930.969 137.453c-3.727 0-7.098-.689-10.111-2.068-3.012-1.404-5.4-3.434-7.162-6.09-1.736-2.655-2.604-5.911-2.604-9.766 0-3.319.638-6.051 1.915-8.196 1.277-2.145 3-3.843 5.17-5.094 2.171-1.251 4.596-2.196 7.277-2.834a72.437 72.437 0 0 1 8.196-1.455l8.579-.996c2.196-.281 3.792-.728 4.788-1.34.995-.613 1.493-1.609 1.493-2.988v-.268c0-3.345-.944-5.936-2.834-7.775-1.864-1.838-4.647-2.757-8.349-2.757-3.855 0-6.894.855-9.115 2.566-2.196 1.685-3.715 3.562-4.558 5.63l-10.762-2.451c1.277-3.575 3.141-6.46 5.592-8.656a22.676 22.676 0 0 1 8.541-4.826c3.217-1.02 6.6-1.531 10.149-1.531 2.349 0 4.838.28 7.468.842a21.864 21.864 0 0 1 7.43 2.987c2.324 1.456 4.226 3.537 5.707 6.243C959.26 89.311 960 92.796 960 97.086v39.065h-11.183v-8.043h-.46c-.74 1.481-1.851 2.936-3.332 4.366-1.481 1.43-3.383 2.617-5.707 3.562-2.323.945-5.106 1.417-8.349 1.417Zm2.49-9.192c3.166 0 5.872-.625 8.119-1.876 2.273-1.252 3.996-2.886 5.171-4.903 1.2-2.042 1.8-4.225 1.8-6.549v-7.583c-.409.408-1.2.791-2.375 1.149a37.075 37.075 0 0 1-3.945.881c-1.481.23-2.923.447-4.328.651a538.69 538.69 0 0 0-3.523.459c-2.221.281-4.251.754-6.09 1.418-1.812.663-3.268 1.621-4.366 2.872-1.072 1.225-1.608 2.86-1.608 4.902 0 2.834 1.047 4.979 3.14 6.434 2.094 1.43 4.762 2.145 8.005 2.145Z"/>
  <defs>
    <linearGradient id="astar-zkatana-logo-light_svg__a" x1="28.315" x2="141.988" y1="156.801" y2="43.111" gradientUnits="userSpaceOnUse">
      <stop stop-color="#E6007A"/>
      <stop offset=".21" stop-color="#703AC2"/>
      <stop offset=".46" stop-color="#0070EB"/>
      <stop offset=".77" stop-color="#0297FB"/>
      <stop offset="1" stop-color="#0AE2FF"/>
    </linearGradient>
    <linearGradient id="astar-zkatana-logo-light_svg__d" x1="34.86" x2="53.872" y1="137.454" y2="137.195" gradientUnits="userSpaceOnUse">
      <stop stop-color="#fff" stop-opacity="0"/>
      <stop offset="1" stop-color="#fff"/>
    </linearGradient>
    <linearGradient id="astar-zkatana-logo-light_svg__g" x1="152.246" x2="142.515" y1="122.206" y2="105.871" gradientUnits="userSpaceOnUse">
      <stop stop-color="#fff" stop-opacity="0"/>
      <stop offset="1" stop-color="#fff"/>
    </linearGradient>
    <linearGradient id="astar-zkatana-logo-light_svg__j" x1="80.342" x2="71.075" y1="28.178" y2="44.78" gradientUnits="userSpaceOnUse">
      <stop stop-color="#fff" stop-opacity="0"/>
      <stop offset="1" stop-color="#fff"/>
    </linearGradient>
    <linearGradient id="astar-zkatana-logo-light_svg__k" x1="84.481" x2="55.429" y1="19.737" y2="28.19" gradientUnits="userSpaceOnUse">
      <stop stop-color="#231F20"/>
      <stop offset="1" stop-color="#fff"/>
    </linearGradient>
    <linearGradient id="astar-zkatana-logo-light_svg__l" x1="29.596" x2="53.887" y1="130.511" y2="155.871" gradientUnits="userSpaceOnUse">
      <stop stop-color="#231F20"/>
      <stop offset="1" stop-color="#fff"/>
    </linearGradient>
    <linearGradient id="astar-zkatana-logo-light_svg__m" x1="159.965" x2="168.418" y1="126.697" y2="101.002" gradientUnits="userSpaceOnUse">
      <stop stop-color="#231F20"/>
      <stop offset="1" stop-color="#fff"/>
    </linearGradient>
    <linearGradient id="astar-zkatana-logo-light_svg__n" x1="97.71" x2="136.65" y1="34.446" y2="43.357" gradientUnits="userSpaceOnUse">
      <stop stop-color="#231F20"/>
      <stop offset="1" stop-color="#fff"/>
    </linearGradient>
    <linearGradient id="astar-zkatana-logo-light_svg__o" x1="138.155" x2="110.948" y1="134.117" y2="163.39" gradientUnits="userSpaceOnUse">
      <stop stop-color="#231F20"/>
      <stop offset="1" stop-color="#fff"/>
    </linearGradient>
    <linearGradient id="astar-zkatana-logo-light_svg__p" x1="31.599" x2="19.859" y1="119.32" y2="81.135" gradientUnits="userSpaceOnUse">
      <stop stop-color="#231F20"/>
      <stop offset="1" stop-color="#fff"/>
    </linearGradient>
    <linearGradient id="astar-zkatana-logo-light_svg__q" x1="106.225" x2="93.911" y1="48.804" y2="61.133" gradientUnits="userSpaceOnUse">
      <stop stop-color="#231F20"/>
      <stop offset="1" stop-color="#fff"/>
    </linearGradient>
    <linearGradient id="astar-zkatana-logo-light_svg__r" x1="39.789" x2="56.617" y1="104.729" y2="109.25" gradientUnits="userSpaceOnUse">
      <stop stop-color="#231F20"/>
      <stop offset="1" stop-color="#fff"/>
    </linearGradient>
    <linearGradient id="astar-zkatana-logo-light_svg__s" x1="121.435" x2="116.928" y1="134.305" y2="117.484" gradientUnits="userSpaceOnUse">
      <stop stop-color="#231F20"/>
      <stop offset="1" stop-color="#fff"/>
    </linearGradient>
    <linearGradient id="astar-zkatana-logo-light_svg__t" x1="95.818" x2="103.218" y1="119.342" y2="109.135" gradientUnits="userSpaceOnUse">
      <stop stop-color="#231F20"/>
      <stop offset="1" stop-color="#fff"/>
    </linearGradient>
    <linearGradient id="astar-zkatana-logo-light_svg__u" x1="70.367" x2="55.582" y1="114.918" y2="121.967" gradientUnits="userSpaceOnUse">
      <stop stop-color="#231F20"/>
      <stop offset="1" stop-color="#fff"/>
    </linearGradient>
    <linearGradient id="astar-zkatana-logo-light_svg__v" x1="64.996" x2="69.573" y1="90.306" y2="99.812" gradientUnits="userSpaceOnUse">
      <stop stop-color="#231F20"/>
      <stop offset="1" stop-color="#fff"/>
    </linearGradient>
    <linearGradient id="astar-zkatana-logo-light_svg__w" x1="86.282" x2="83.124" y1="60.949" y2="50.04" gradientUnits="userSpaceOnUse">
      <stop stop-color="#231F20"/>
      <stop offset="1" stop-color="#fff"/>
    </linearGradient>
    <linearGradient id="astar-zkatana-logo-light_svg__x" x1="120.43" x2="129.585" y1="110.92" y2="113.026" gradientUnits="userSpaceOnUse">
      <stop stop-color="#231F20"/>
      <stop offset="1" stop-color="#fff"/>
    </linearGradient>
    <linearGradient id="astar-zkatana-logo-light_svg__y" x1="106.072" x2="94.46" y1="79.992" y2="77.886" gradientUnits="userSpaceOnUse">
      <stop stop-color="#231F20"/>
      <stop offset="1" stop-color="#fff"/>
    </linearGradient>
    <radialGradient id="astar-zkatana-logo-light_svg__b" cx="0" cy="0" r="1" gradientTransform="matrix(33.9043 0 0 33.9037 114.571 77.901)" gradientUnits="userSpaceOnUse">
      <stop stop-color="#fff"/>
      <stop offset="1" stop-color="#fff" stop-opacity="0"/>
    </radialGradient>
    <radialGradient id="astar-zkatana-logo-light_svg__c" cx="0" cy="0" r="1" gradientTransform="matrix(19.7292 0 0 19.7288 64.462 140.795)" gradientUnits="userSpaceOnUse">
      <stop stop-color="#fff"/>
      <stop offset="1" stop-color="#fff" stop-opacity="0"/>
    </radialGradient>
    <radialGradient id="astar-zkatana-logo-light_svg__e" cx="0" cy="0" r="1" gradientTransform="rotate(-120 54.362 23.925) scale(33.9038 33.9041)" gradientUnits="userSpaceOnUse">
      <stop stop-color="#fff"/>
      <stop offset="1" stop-color="#fff" stop-opacity="0"/>
    </radialGradient>
    <radialGradient id="astar-zkatana-logo-light_svg__f" cx="0" cy="0" r="1" gradientTransform="rotate(-120 97.572 6.942) scale(19.7289 19.7291)" gradientUnits="userSpaceOnUse">
      <stop stop-color="#fff"/>
      <stop offset="1" stop-color="#fff" stop-opacity="0"/>
    </radialGradient>
    <radialGradient id="astar-zkatana-logo-light_svg__h" cx="0" cy="0" r="1" gradientTransform="rotate(120 9.03 88.822) scale(33.9039 33.9041)" gradientUnits="userSpaceOnUse">
      <stop stop-color="#fff"/>
      <stop offset="1" stop-color="#fff" stop-opacity="0"/>
    </radialGradient>
    <radialGradient id="astar-zkatana-logo-light_svg__i" cx="0" cy="0" r="1" gradientTransform="rotate(120 16.276 44.164) scale(19.7289 19.7291)" gradientUnits="userSpaceOnUse">
      <stop stop-color="#fff"/>
      <stop offset="1" stop-color="#fff" stop-opacity="0"/>
    </radialGradient>
  </defs>
</svg>
