<svg xmlns="http://www.w3.org/2000/svg" fill="none" viewBox="0 0 84 24">
  <g clip-path="url(#blackfort_svg__a)">
    <path fill="url(#blackfort_svg__b)" d="M.388 10.813h1.576a.4.4 0 0 1 .4.4v1.575c0 .21-.18.388-.4.388H.388A.395.395 0 0 1 0 12.787v-1.575c0-.22.179-.399.388-.399Zm3.298 2.279h1.365c.19 0 .336.147.336.336v1.375a.332.332 0 0 1-.336.336H3.686a.34.34 0 0 1-.346-.336v-1.375a.34.34 0 0 1 .346-.336Zm3.54.997H8.39a.3.3 0 0 1 .294.294v1.165a.292.292 0 0 1-.294.284H7.226a.282.282 0 0 1-.284-.284v-1.165c0-.157.126-.294.284-.294ZM4.62 2.96c.378.367.745.735 1.113 1.102a.387.387 0 0 1 0 .557 56.28 56.28 0 0 1-1.113 1.113.387.387 0 0 1-.557 0L2.951 4.62a.406.406 0 0 1 0-.557c.378-.367.745-.735 1.113-1.102a.386.386 0 0 1 .557 0Zm.725 3.926c.325.325.65.64.966.966a.336.336 0 0 1 0 .483c-.315.325-.64.65-.966.966a.336.336 0 0 1-.483 0c-.326-.316-.641-.641-.967-.966a.336.336 0 0 1 0-.483l.967-.966a.337.337 0 0 1 .483 0ZM7.14 10.1l.83.83a.286.286 0 0 1 0 .409c-.273.273-.546.546-.83.818-.104.116-.294.116-.41 0l-.818-.818a.286.286 0 0 1 0-.41c.273-.273.546-.546.819-.83.115-.104.305-.104.41 0Zm6.04-9.712v1.575c0 .22-.18.4-.39.4h-1.575a.4.4 0 0 1-.399-.4V.388c0-.21.179-.388.4-.388h1.575c.21 0 .388.178.388.388Zm-2.269 3.297v1.364a.34.34 0 0 1-.346.336H9.2a.34.34 0 0 1-.346-.336V3.685a.35.35 0 0 1 .346-.347h1.366a.35.35 0 0 1 .346.347ZM9.904 7.223v1.165a.292.292 0 0 1-.284.294H8.454a.3.3 0 0 1-.294-.294V7.223c0-.157.137-.283.294-.283H9.62c.157 0 .284.125.284.283Zm11.143-2.604c-.368.378-.746.746-1.114 1.113a.387.387 0 0 1-.556 0c-.368-.367-.746-.735-1.114-1.113a.406.406 0 0 1 0-.556c.368-.368.746-.735 1.114-1.103a.387.387 0 0 1 .556 0c.368.368.746.735 1.114 1.103a.387.387 0 0 1 0 .556Zm-3.928.725c-.326.325-.651.65-.977.966a.336.336 0 0 1-.483 0l-.966-.966a.336.336 0 0 1 0-.483c.325-.325.65-.64.966-.966a.336.336 0 0 1 .483 0c.326.325.651.64.977.966a.355.355 0 0 1 0 .483Zm-3.225 1.795c-.273.283-.546.556-.819.83a.299.299 0 0 1-.42 0c-.273-.274-.546-.547-.819-.83-.115-.105-.115-.294 0-.41l.82-.818a.299.299 0 0 1 .42 0l.818.818c.116.116.116.305 0 .41Zm9.715 6.037h-1.565c-.22 0-.4-.179-.4-.389v-1.575a.4.4 0 0 1 .4-.399h1.565a.4.4 0 0 1 .4.4v1.575c0 .21-.18.388-.4.388Zm-3.287-2.268h-1.366a.35.35 0 0 1-.346-.346V9.197a.35.35 0 0 1 .346-.347h1.366a.35.35 0 0 1 .346.347v1.365a.349.349 0 0 1-.346.346ZM16.772 9.9h-1.165a.283.283 0 0 1-.284-.283V8.45c0-.157.126-.294.284-.294h1.165a.3.3 0 0 1 .294.294v1.166a.292.292 0 0 1-.294.283Zm2.605 11.139-1.114-1.113a.406.406 0 0 1 0-.557l1.114-1.113a.407.407 0 0 1 .556 0l1.114 1.113a.387.387 0 0 1 0 .557l-1.114 1.113a.387.387 0 0 1-.556 0Zm-.725-3.926c-.315-.326-.64-.651-.966-.977a.355.355 0 0 1 0-.482c.325-.316.651-.641.966-.966a.349.349 0 0 1 .494 0c.315.325.64.65.966.966a.355.355 0 0 1 0 .482c-.325.326-.65.651-.966.977a.37.37 0 0 1-.494 0Zm-1.796-3.223-.819-.82a.286.286 0 0 1 0-.409c.273-.283.546-.556.819-.83a.286.286 0 0 1 .41 0c.273.274.556.547.83.83.104.105.104.294 0 .41-.274.273-.557.546-.83.819a.286.286 0 0 1-.41 0Zm-6.039 9.71v-1.563a.4.4 0 0 1 .4-.4h1.575c.21 0 .389.18.389.4V23.6c0 .22-.179.399-.389.399h-1.575a.399.399 0 0 1-.4-.4Zm2.28-3.285V18.95a.34.34 0 0 1 .335-.346h1.376a.34.34 0 0 1 .336.346v1.365a.34.34 0 0 1-.336.346h-1.376a.34.34 0 0 1-.336-.346Zm.997-3.549v-1.165c0-.158.136-.284.294-.284h1.166c.157 0 .283.126.283.284v1.165a.292.292 0 0 1-.283.294h-1.166a.3.3 0 0 1-.294-.294ZM2.95 19.37c.378-.368.746-.745 1.114-1.113a.407.407 0 0 1 .556 0c.378.367.746.745 1.114 1.113a.387.387 0 0 1 0 .556c-.368.368-.736.746-1.114 1.114a.387.387 0 0 1-.556 0c-.368-.368-.736-.746-1.114-1.113a.406.406 0 0 1 0-.557Zm3.939-.725c.325-.315.64-.64.966-.966a.355.355 0 0 1 .483 0l.966.966a.349.349 0 0 1 0 .494l-.966.966a.355.355 0 0 1-.483 0c-.326-.326-.64-.65-.966-.966a.349.349 0 0 1 0-.494Zm3.213-1.795c.284-.273.557-.546.83-.819a.286.286 0 0 1 .41 0l.819.82a.286.286 0 0 1 0 .409c-.274.273-.547.556-.82.83a.306.306 0 0 1-.41 0c-.272-.274-.546-.557-.829-.83-.105-.105-.105-.295 0-.41Z"/>
    <path fill="url(#blackfort_svg__c)" fill-rule="evenodd" d="M30.727 9.178c.36-.187.534-.494.534-.895 0-.36-.146-.642-.414-.869-.28-.227-.642-.334-1.096-.334H27.6v4.408h2.272c.48 0 .855-.107 1.122-.334.281-.214.415-.521.415-.921 0-.48-.228-.828-.682-1.055Zm-.976-1.202c.147 0 .254.04.348.12.08.08.133.187.133.32 0 .12-.053.227-.133.32a.51.51 0 0 1-.348.134H28.63v-.882l1.122-.012Zm.12 2.618H28.63v-.908h1.243c.16 0 .28.04.374.12.08.08.133.2.133.334s-.053.24-.147.334c-.08.08-.2.12-.36.12Zm4.851-.067V7.081H33.68v4.408h3.127v-.962h-2.085Zm7.524.962h1.082l-1.63-4.408H40.32l-1.63 4.408h1.083l.307-.842h1.857l.308.842Zm-1.83-1.75.587-1.657.602 1.657h-1.19Zm6.934 1.843c.575 0 1.056-.147 1.43-.44.374-.294.615-.642.709-1.016l-1.016-.267c-.067.2-.2.374-.4.522-.201.146-.456.214-.736.214-.374 0-.668-.12-.908-.388a1.338 1.338 0 0 1-.348-.92c0-.375.12-.682.348-.922.227-.254.534-.387.895-.387.294 0 .535.08.749.227.2.146.334.32.387.52l1.029-.24c-.094-.4-.335-.734-.722-1.041-.374-.294-.869-.44-1.443-.44-.668 0-1.216.213-1.657.654-.44.44-.655.989-.655 1.63 0 .654.214 1.202.668 1.643.44.427.99.654 1.657.654h.013v-.003Zm7.203-.093h1.27L54.006 8.99l1.683-1.91h-1.323l-1.59 1.923V7.081h-1.042v4.408h1.042v-1.11l.548-.613 1.23 1.723Zm6.668-3.46v-.948h-3.287v4.408h1.042V9.846h1.91V8.91h-1.91v-.88h2.245Zm4.277 3.553c.667 0 1.215-.227 1.67-.655.44-.44.655-.988.655-1.643 0-.654-.214-1.189-.655-1.63-.455-.44-1.003-.654-1.67-.654-.669 0-1.23.214-1.67.655-.442.44-.669.988-.669 1.643s.227 1.189.668 1.63c.442.44 1.002.654 1.67.654Zm0-.962c-.388 0-.696-.133-.922-.373a1.333 1.333 0 0 1-.361-.949c0-.387.12-.708.36-.962.228-.24.535-.374.922-.374.374 0 .682.134.922.374.228.254.348.575.348.962 0 .374-.12.695-.348.948-.24.24-.547.374-.921.374Zm7.349.869h1.203l-1.056-1.576c.28-.12.508-.307.654-.548.161-.24.241-.508.241-.8 0-.388-.147-.735-.427-1.03-.294-.306-.669-.454-1.136-.454H70.12v4.409h1.029v-1.443h.761l.936 1.442ZM71.15 8.015h1.136c.16 0 .307.054.414.16a.5.5 0 0 1 .174.388c0 .16-.067.294-.174.4a.65.65 0 0 1-.454.161H71.15V8.015Zm8.673-.934h-3.85v.948h1.404v3.46h1.042v-3.46h1.404v-.948ZM29.384 14.26v-.335H27.6v2.418h1.775v-.335H27.98v-.736h1.22v-.315h-1.22v-.697h1.404Zm3.579 2.082-.917-1.213.898-1.204h-.459l-.692.927-.693-.927h-.458l.887 1.204-.917 1.213h.469l.711-.936.712.936h.459Zm2.35.048c.292 0 .546-.067.75-.22.205-.143.351-.315.42-.525l-.37-.095a.792.792 0 0 1-.294.353.9.9 0 0 1-.507.143.868.868 0 0 1-.653-.267.915.915 0 0 1-.244-.65.87.87 0 0 1 .244-.63c.166-.173.38-.259.653-.259.195 0 .36.039.507.134.137.095.234.22.293.363l.37-.095a1.065 1.065 0 0 0-.419-.535 1.297 1.297 0 0 0-.76-.22c-.37 0-.672.115-.916.353a1.22 1.22 0 0 0-.371.899c0 .353.127.659.37.898.254.239.556.363.927.363v-.01Zm4.231-2.465v1.013h-1.287v-1.013h-.39v2.418h.39v-1.06h1.287v1.06h.38v-2.418h-.38Zm3.706 2.417h.4l-.976-2.417h-.487l-.985 2.417h.4l.244-.583h1.17l.234.583Zm-1.278-.917.459-1.146.459 1.146h-.918Zm4.661-1.5v1.758l-1.375-1.758h-.321v2.418h.39v-1.749l1.365 1.749h.321v-2.418h-.38Zm4.32 1.109h-1.258v.325l.868-.01a.73.73 0 0 1-.254.507c-.146.124-.341.181-.575.181-.283 0-.517-.086-.683-.267a.87.87 0 0 1-.263-.64c0-.249.088-.46.254-.64a.876.876 0 0 1 .653-.259c.195 0 .36.039.507.125.137.086.234.2.302.344l.361-.096a1.138 1.138 0 0 0-.439-.525 1.308 1.308 0 0 0-.731-.201c-.37 0-.673.124-.917.363-.253.24-.37.536-.37.889s.117.66.37.898c.244.24.556.364.937.364.36 0 .653-.105.887-.316.234-.21.35-.497.35-.85v-.192Zm3.169-.774v-.335h-1.775v2.418h1.775v-.335h-1.404v-.736h1.228v-.315h-1.228v-.697h1.404Zm4.017-.335v1.758l-1.365-1.758h-.322v2.418h.38v-1.749l1.376 1.749h.322v-2.418h-.391Zm3.667.335v-.335H60.03v2.418h1.775v-.335h-1.404v-.736h1.228v-.315h-1.228v-.697h1.404Zm3.364-.335h-2.126v.335h.868v2.083h.39V14.26h.867v-.335Zm4.134 0-.575 1.892-.576-1.892h-.34l-.576 1.902-.566-1.902h-.41l.771 2.418h.4l.556-1.796.546 1.796h.41l.76-2.418h-.4Zm2.779 2.465c.37 0 .672-.115.916-.363.244-.24.371-.536.371-.898 0-.354-.127-.65-.37-.89-.245-.238-.547-.353-.917-.353-.371 0-.673.115-.917.354s-.37.535-.37.898c0 .354.126.65.37.889.244.249.556.363.917.363Zm0-.344a.828.828 0 0 1-.644-.267.869.869 0 0 1-.253-.65c0-.248.078-.468.253-.64a.854.854 0 0 1 .644-.258c.263 0 .478.086.653.258a.917.917 0 0 1 .254.64.946.946 0 0 1-.254.66c-.166.171-.38.257-.653.257Zm4.29.296h.439l-.634-.927a.71.71 0 0 0 .419-.276.702.702 0 0 0 .156-.45c0-.2-.078-.382-.224-.535-.146-.153-.341-.23-.585-.23h-1.18v2.418h.38v-.898h.625l.604.898Zm-1.229-2.082h.79c.137 0 .244.038.322.124.087.086.126.19.126.306 0 .115-.039.21-.126.296a.454.454 0 0 1-.342.124h-.77v-.85Zm4.72 2.082h.468l-1.083-1.347.995-1.07h-.487l-1.18 1.29v-1.29h-.38v2.417h.38v-.63l.42-.45.867 1.08ZM81.133 7h1.147v.159h-.468v.987h-.21V7.16h-.469V7Zm1.261 0h.21v.002h.02l.271.388.124.176.123-.176.272-.388h.012V7H83.637v1.146h-.21v-.885l-.104.149-.1.142-.159.228h-.089l-.159-.227-.1-.143-.11-.159v.895h-.21V7Z" clip-rule="evenodd"/>
  </g>
  <defs>
    <linearGradient id="blackfort_svg__b" x1="0" x2="24.008" y1="12" y2="12" gradientUnits="userSpaceOnUse">
      <stop stop-color="#0194FE"/>
      <stop offset="1" stop-color="#2ADFF3"/>
    </linearGradient>
    <linearGradient id="blackfort_svg__c" x1="38.226" x2="87.435" y1="13.13" y2="12.053" gradientUnits="userSpaceOnUse">
      <stop stop-color="#0194FE"/>
      <stop offset="1" stop-color="#2ADFF3"/>
    </linearGradient>
    <clipPath id="blackfort_svg__a">
      <path fill="#fff" d="M0 0h84v24H0z"/>
    </clipPath>
  </defs>
</svg>
