<svg xmlns="http://www.w3.org/2000/svg" fill="none" viewBox="0 0 120 24">
  <path fill="#FCFC54" fill-rule="evenodd" d="m31.254 3 3.087 2.21-4.315 12.97h14.101l-1.175 3.53H29.097l-3.28-2.364.438-1.32L31.254 3Zm-4.315 7.162-4.507 2.176-.017.051 3.051 2.194-1.63 4.917-4.543 2.21H1.877L6.542 7.37l3.122 2.278-2.806 8.533H20.45l-1.118 3.41 2.679-8.088h-9.716l.947-2.827h9.716l1.28-3.907H0l4.77-3.46h20.626l3.087 2.21-1.544 4.643Zm27.677-6.854L49.863 6.77h17.924l1.135-3.393-4.758 14.322-6.006-4.452h-5.507l10.997 8.464h2.999L72.031 5.52l-3.086-2.21h-14.33ZM120 6.77l-4.735-3.46H97.743l-1.14 3.46h9.243l-4.963 14.941h3.823l4.946-14.94H120ZM44.899 21.71l4.963-14.94 3.087 2.21-4.227 12.73H44.9Zm31.412-10.948.614-1.8-3.07-2.193-1.753 5.243 3.051 2.176v.018h13.68l-1.315 3.975H70.102l-1.157 3.53h17.398l4.56-2.21 2.245-6.752-2.824-2.022-14.013.035Zm-2.456-3.993 4.736-3.46h17.276l-1.158 3.46H73.856Z" clip-rule="evenodd"/>
</svg>
