<svg xmlns="http://www.w3.org/2000/svg" fill="none" viewBox="0 0 1648 420">
  <path fill="#fff" d="M488.704 415h-47.022c-14.977 0-25.439-14.898-20.403-29.059L551.524 19.444C554.6 10.784 562.774 5 571.927 5h56.634c9.167 0 17.348 5.791 20.417 14.464L778.73 385.961c5.015 14.162-5.447 29.032-20.417 29.032h-48.618c-9.324 0-17.608-5.991-20.554-14.87l-18.821-56.688c-2.946-8.879-11.229-14.87-20.554-14.87h-100.77c-9.277 0-17.526 5.936-20.513 14.753l-19.266 56.922c-2.988 8.817-11.237 14.753-20.513 14.753V415Zm99.961-249.318-29.255 87.542h80.579l-29.248-87.542a1523.515 1523.515 0 0 1-6.626-21.61c-2.206-7.38-3.679-13.481-4.412-18.282-.74 4.808-2.124 10.805-4.138 18.007a380.79 380.79 0 0 1-6.9 21.885ZM902.947 415h-43.204C847.734 415 838 405.234 838 393.184V26.824c0-12.05 9.734-21.817 21.743-21.817h50.21c8.897 0 16.903 5.44 20.193 13.742l113.294 285.223c.99 2.476 4.48 2.482 5.47 0l113.82-285.264c3.3-8.281 11.3-13.708 20.19-13.708h51.34c12.01 0 21.74 9.767 21.74 21.816v366.361c0 12.05-9.73 21.816-21.74 21.816h-43.21c-12.01 0-21.75-9.766-21.75-21.816V274.266c0-14.402.18-26.404.55-36.012.36-9.601.83-18.006 1.38-25.207.26-3.391-4.46-4.471-5.68-1.293l-73.15 189.318c-3.24 8.398-11.29 13.928-20.27 13.928h-51.9c-8.99 0-17.05-5.557-20.29-13.976l-71.932-187.379c-1.227-3.198-5.991-2.084-5.676 1.328.747 8.012 1.254 16.328 1.529 24.952.555 17.724.829 37.863.829 60.387v92.872c0 12.05-9.733 21.816-21.743 21.816ZM1630.54 70.1c-11.64-20.503-27.91-36.474-48.79-47.926C1560.87 10.73 1536.38 5 1508.3 5h-144.47c-12.06 0-21.83 9.767-21.83 21.817v366.366c0 12.05 9.77 21.817 21.83 21.817h46.14c12.06 0 21.83-9.767 21.83-21.817v-92.666c0-12.05 9.77-21.817 21.83-21.817h54.67c28.08 0 52.57-5.722 73.45-17.181 20.87-11.445 37.14-27.429 48.79-47.925 11.63-20.503 17.46-44.411 17.46-71.751 0-27.34-5.82-51.247-17.46-71.75v.007Zm-93.41 114.689c-10.72 9.423-26.98 14.127-48.78 14.127h-34.71c-12.05 0-21.82-9.766-21.82-21.817v-70.498c0-12.05 9.77-21.817 21.82-21.817h34.71c21.81 0 38.06 4.704 48.78 14.127 10.72 9.423 16.08 23.736 16.08 42.939s-5.36 33.516-16.08 42.939ZM386.03 296.547l-45.351-35.367c-7.615-5.938-18.697-3.477-23.179 5.086-11.131 21.237-28.574 38.734-48.559 50.672l-47.531-47.662a13.619 13.619 0 0 0-9.643-4.006 13.619 13.619 0 0 0-9.643 4.006l-50.567 50.707C112.237 299.097 85.384 257.641 85.384 210c0-68.582 55.645-124.38 124.039-124.38 41.362 0 80.991 18.06 107.186 61.468 4.694 7.78 15.023 9.848 22.336 4.474l44.008-32.343c6.531-4.797 8.265-13.848 3.961-20.727C348.739 37.387 281.984 0 209.423 0 93.944 0 0 94.203 0 210s93.944 210 209.423 210c39.477 0 77.941-11.086 111.243-32.047a210.436 210.436 0 0 0 69.175-71.262c3.961-6.722 2.344-15.354-3.804-20.144h-.007ZM179.445 330.69l32.315-32.404L242.389 329c-10.911 3.505-22.069 5.381-32.966 5.381a123.572 123.572 0 0 1-29.978-3.684v-.007Zm29.032-152.888c-.048 1.024-.055 14.632 33.954 37.875 25.372 17.346 13.488 51.902 8.293 63.262a101.193 101.193 0 0 0-13.79-26.741 101.23 101.23 0 0 0-25.181-24.46c-7.114 4.371-18.786 12.88-28.148 27.505a87.423 87.423 0 0 0-10.569 23.696l-.02-.034c-10.349-27.903-6.683-41.841-1.337-49.414 4.195-5.945 11.816-14.158 11.816-14.158 6.655-6.639 13.68-13.099 20.438-26.233 4.153-8.075 4.517-10.886 4.544-11.305v.007Z"/>
  <path fill="#FF6D01" d="M183.393 215.477s-7.639 8.207-11.853 14.147c-5.363 7.568-9.035 21.495 1.34 49.376-59.144-51.711 1.761-104.486.544-100.469-4.525 14.937 9.962 36.946 9.962 36.946h.007Zm14.425-16.255a84.08 84.08 0 0 0 6.051-9.992c4.552-8.81 4.565-11.358 4.565-11.358s-1.437 13.748 34.055 37.914c25.454 17.333 13.532 51.862 8.32 63.214 0 0 30.04-19.132 25.777-51.45-5.123-38.876-26.183-35.367-41.832-64.161-14.597-26.858 10.334-48.374 10.334-48.374s-33.374-1.792-48.652 33.252c-16.102 36.925 1.375 50.962 1.375 50.962l.007-.007Z"/>
</svg>
