<svg xmlns="http://www.w3.org/2000/svg" fill="none" viewBox="0 0 106 24">
  <g fill="#000" clip-path="url(#celo-logo-light_svg__a)">
    <path d="M94.297 20.857c4.879 0 8.791-3.945 8.791-8.824a8.761 8.761 0 0 0-8.791-8.791 8.782 8.782 0 0 0-8.792 8.79c.011 4.836 3.957 8.825 8.792 8.825ZM82.319.044h24v24h-24v-24Z"/>
    <path fill-rule="evenodd" d="M47.285 15.67c-1.406 3.055-4.461 5.187-8.032 5.187-4.737 0-8.616-3.78-8.792-8.483h20.803V.043h-23.99v24h24V15.67h-3.989ZM30.846 9.417h16.758c-1.23-4.087-4.527-6.175-8.34-6.175-3.814 0-7.363 2.23-8.418 6.175Z" clip-rule="evenodd"/>
    <path d="M24.044.044h-24v24h24V15.67h-3.978c-1.374 3.055-4.462 5.187-8 5.187-4.88 0-8.824-3.978-8.824-8.824s3.945-8.791 8.824-8.791c3.604 0 6.692 2.197 8.066 5.318h3.912V.044ZM79.318 15.67H75.34c-1.197 3.154-4.428 5.154-8.099 5.154-4.736 0-8.725-3.429-8.725-8.791V.043h-4.055v24h24.857V15.67Z"/>
  </g>
  <defs>
    <clipPath id="celo-logo-light_svg__a">
      <path fill="#fff" d="M0 0h106v24H0z"/>
    </clipPath>
  </defs>
</svg>
