<svg xmlns="http://www.w3.org/2000/svg" fill="none" viewBox="0 0 106 24">
  <g clip-path="url(#creditcoin-logo-dark_svg__a)">
    <path fill="#fff" fill-rule="evenodd" d="M20.308 16.835c-1.67 2.857-4.77 4.791-8.308 4.791-5.297 0-9.604-4.307-9.604-9.604 0-5.297 4.307-9.605 9.604-9.605 3.56 0 6.66 1.935 8.308 4.792L22.396 6A11.997 11.997 0 0 0 12 0C5.363 0 0 5.363 0 12s5.363 12 12 12c4.44 0 8.308-2.418 10.396-5.978l-2.088-1.187Zm43.41.813a2.884 2.884 0 0 0 1.143-1.033v-.043h.044v1.164h1.428V5.934h-1.472v5.517h-.022a3.626 3.626 0 0 0-1.055-.923 3.362 3.362 0 0 0-1.582-.374c-.55 0-1.055.11-1.517.308a3.516 3.516 0 0 0-1.187.835c-.307.373-.571.769-.747 1.253a4.224 4.224 0 0 0-.264 1.516c0 .55.088 1.055.264 1.538.176.484.418.902.747 1.253a3.23 3.23 0 0 0 1.165.835c.44.198.967.308 1.539.308.527 0 1.033-.11 1.516-.352Zm-3.582-2.593a2.917 2.917 0 0 1-.154-.99c0-.329.066-.658.154-1.032.087-.33.263-.615.461-.857.22-.242.462-.44.77-.594.285-.153.659-.22 1.054-.22.374 0 .726.067 1.033.22.308.154.572.352.791.594.22.242.396.527.506.857.11.33.176.66.176 1.011 0 .352-.066.681-.176 1.011-.11.33-.286.615-.506.857-.22.264-.483.44-.79.594-.308.153-.66.22-1.034.22-.395 0-.747-.067-1.055-.22a2.33 2.33 0 0 1-.769-.594 2.679 2.679 0 0 1-.461-.857ZM41.44 17.516a5.166 5.166 0 0 0 1.692-1.45l-1.186-.835c-.352.483-.77.857-1.275 1.098a3.9 3.9 0 0 1-1.693.374 4.37 4.37 0 0 1-1.736-.352 3.624 3.624 0 0 1-1.319-.945c-.373-.395-.637-.857-.835-1.406a5.175 5.175 0 0 1-.285-1.759c0-.615.11-1.186.307-1.714.198-.527.462-1.01.836-1.406a4.102 4.102 0 0 1 1.318-.968c.506-.241 1.099-.351 1.736-.351.572 0 1.1.132 1.605.374.483.241.879.549 1.143.922l1.209-.945a3.449 3.449 0 0 0-.748-.747 4.608 4.608 0 0 0-.967-.55 4.554 4.554 0 0 0-1.099-.329A6.923 6.923 0 0 0 39 6.417c-.857 0-1.626.132-2.351.418a5.653 5.653 0 0 0-1.868 1.187c-.528.505-.923 1.12-1.231 1.824a6.423 6.423 0 0 0-.44 2.374c0 .857.154 1.648.44 2.351a5.396 5.396 0 0 0 3.055 3.055c.703.286 1.494.44 2.33.44.966 0 1.801-.176 2.505-.55Zm3.14-7.142c.022.241.044.527.044.835 0 .307 0 .57-.022.769v5.802h1.473v-3.89c0-.308.043-.616.132-.901.065-.286.197-.528.373-.748.176-.22.396-.395.66-.527.263-.132.57-.198.922-.198.242 0 .484.044.682.088l.066-1.362a2.154 2.154 0 0 0-.572-.067c-.483 0-.945.132-1.34.396a2.38 2.38 0 0 0-.923 1.055h-.044c0-.068-.005-.145-.01-.23a6.198 6.198 0 0 1-.012-.363c0-.262-.022-.458-.044-.654v-.005H44.58Zm12.353 3.647v.242a.83.83 0 0 1-.022.242h-5.89c0 .308.087.593.22.879.131.264.307.506.526.703.22.198.462.352.748.484.286.11.593.176.923.176.506 0 .923-.11 1.297-.33.373-.22.659-.484.857-.791l1.033.835a3.745 3.745 0 0 1-1.407 1.165 4.3 4.3 0 0 1-1.78.373 4.027 4.027 0 0 1-1.56-.285c-.484-.198-.902-.44-1.231-.791-.352-.33-.616-.748-.813-1.231a4.174 4.174 0 0 1-.308-1.604c0-.572.088-1.1.285-1.583.198-.484.462-.901.814-1.253a3.642 3.642 0 0 1 1.23-.813c.462-.198.967-.286 1.517-.286.55 0 1.033.088 1.473.264.44.176.813.44 1.12.77.308.329.55.747.704 1.208.176.505.264 1.033.264 1.627Zm-1.495-.593c0-.286-.066-.571-.154-.813a1.661 1.661 0 0 0-.395-.66c-.176-.197-.396-.33-.638-.44-.264-.109-.55-.153-.9-.153-.309 0-.616.044-.88.154-.286.11-.505.264-.725.44a2.928 2.928 0 0 0-.506.659 2.132 2.132 0 0 0-.22.813h4.418Zm15.167-5.714a.88.88 0 0 1-.286.68.982.982 0 0 1-.681.265.946.946 0 0 1-.682-.264.914.914 0 0 1-.285-.66c0-.263.088-.505.285-.68a.946.946 0 0 1 .682-.264c.264 0 .505.087.681.263.198.154.286.374.286.66Zm-.242 10.066H68.89v-7.407h1.473v7.407Zm4.212-6.198h1.956v-1.209h-1.978V8.242h-1.45v2.131h-1.43v1.21h1.43v4.021c0 .77.175 1.34.549 1.736.373.374.9.572 1.604.572.22 0 .44 0 .66-.044.22-.044.417-.088.593-.154l-.044-1.209c-.11.066-.264.11-.418.132-.153.022-.307.044-.439.044-.352 0-.616-.088-.791-.286-.154-.197-.242-.527-.242-.967v-3.846Zm8.69.682c-.154-.242-.396-.44-.704-.594a2.19 2.19 0 0 0-.989-.242c-.395 0-.725.066-1.032.22-.308.154-.55.352-.748.594a2.714 2.714 0 0 0-.483.857c-.11.33-.154.66-.154 1.01 0 .352.044.704.154 1.012.11.33.264.615.483.857.198.242.462.44.77.593.307.154.637.22 1.033.22.373 0 .725-.066 1.032-.22.308-.153.55-.351.748-.593l.989.901c-.308.374-.704.66-1.165.857a4.015 4.015 0 0 1-1.604.308c-.572 0-1.1-.088-1.583-.286-.483-.198-.9-.44-1.253-.791a3.491 3.491 0 0 1-.835-1.23 4.177 4.177 0 0 1-.307-1.605c0-.594.087-1.121.307-1.605.198-.483.484-.9.835-1.23.352-.352.77-.616 1.253-.792a4.102 4.102 0 0 1 1.56-.285c.528 0 1.034.11 1.561.307.505.198.923.506 1.23.901l-1.098.836Zm9.716 3.384a4.144 4.144 0 0 0 .308-1.582c0-.572-.088-1.1-.308-1.56a3.7 3.7 0 0 0-.835-1.231c-.352-.352-.792-.616-1.275-.814-.484-.198-1.011-.286-1.582-.286-.572 0-1.1.088-1.583.286a3.62 3.62 0 0 0-1.275.814 3.7 3.7 0 0 0-.835 1.23 3.95 3.95 0 0 0-.308 1.56c0 .572.11 1.1.308 1.583.198.484.484.901.835 1.253a4.07 4.07 0 0 0 1.275.813c.484.198 1.011.286 1.582.286.572 0 1.1-.088 1.583-.286.483-.198.923-.461 1.275-.813.351-.352.637-.77.835-1.253Zm-1.363-2.593c.088.33.154.66.154 1.01 0 .352-.066.704-.154 1.012-.11.33-.264.615-.483.857-.198.242-.462.44-.77.593-.307.154-.659.22-1.054.22-.396 0-.748-.066-1.055-.22a2.58 2.58 0 0 1-.77-.593 2.35 2.35 0 0 1-.483-.857c-.11-.33-.154-.66-.154-1.011 0-.352.044-.682.154-1.011.11-.33.263-.616.483-.857.198-.264.462-.44.77-.594.307-.154.659-.22 1.055-.22.395 0 .747.066 1.054.22.308.154.55.352.77.594.22.241.373.527.483.857Zm5.427-5.341a.881.881 0 0 1-.285.68.982.982 0 0 1-.682.265.945.945 0 0 1-.68-.264.913.913 0 0 1-.287-.66.88.88 0 0 1 .286-.68.945.945 0 0 1 .681-.264c.264 0 .506.087.682.263a.843.843 0 0 1 .285.66Zm-.242 10.066h-1.472v-7.407h1.472v7.407Zm3.886-7.4V10.35h-1.407c.022.242.044.528.044.835.022.308.022.572.022.77v5.802h1.473v-3.934c0-.748.175-1.34.549-1.78.374-.44.835-.66 1.429-.66.329 0 .615.066.835.198.198.132.373.308.505.506.132.22.22.461.264.725.044.264.066.55.066.857v4.11h1.473v-4.593c0-.418-.044-.792-.154-1.165a2.79 2.79 0 0 0-.506-.945 2.134 2.134 0 0 0-.857-.66c-.33-.153-.747-.242-1.231-.242-.285 0-.549.044-.791.11a2.388 2.388 0 0 0-.681.308 2.788 2.788 0 0 0-.55.462 2.238 2.238 0 0 0-.374.549h-.043c0-.068-.005-.145-.01-.23a6.343 6.343 0 0 1-.012-.363c0-.24-.022-.436-.044-.631Zm-86.591.434h9.912v2.373h-9.912a2.358 2.358 0 0 1-2.066 1.21A2.401 2.401 0 0 1 9.636 12a2.401 2.401 0 0 1 2.396-2.396c.879 0 1.648.483 2.066 1.209Z" clip-rule="evenodd"/>
  </g>
  <defs>
    <clipPath id="creditcoin-logo-dark_svg__a">
      <path fill="#fff" d="M0 0h106v24H0z"/>
    </clipPath>
  </defs>
</svg>
