<svg xmlns="http://www.w3.org/2000/svg" fill="none" viewBox="0 0 106 24">
  <g fill="#8B5CF6" fill-rule="evenodd" clip-path="url(#degen_svg__a)" clip-rule="evenodd">
    <path d="M14.17 0c5.183 0 6.588.121 8.695.363.971.112 1.75.836 1.677 1.816l-.776 10.582c-.243.07-.508.16-.805.26-1.557.522-3.997 1.342-8.79 1.342-4.794 0-7.235-.82-8.792-1.343-.297-.1-.562-.189-.805-.26L3.798 2.18c-.072-.98.704-1.721 1.677-1.816C7.557.161 9.724 0 14.17 0ZM4.946 17.831a5.276 5.276 0 0 1-.555-.564.66.66 0 0 1-.15-.385l-.115-2.085c-.754-.414-1.532-.881-1.532-.881-1.225-.664-2.591.29-2.594 1.689-.004 2.264 1.763 4.59 4.147 6.056C6.835 23.314 10.848 24 14.171 24c3.323 0 7.336-.686 10.024-2.339 2.384-1.466 4.151-3.792 4.147-6.056-.002-1.4-1.37-2.353-2.594-1.69 0 0-.78.47-1.534.884l-.113 2.065a.717.717 0 0 1-.164.417c-.65.78-3.43 3.399-9.768 3.399-5.123 0-7.943-1.733-9.167-2.8a8.425 8.425 0 0 1-.056-.049ZM34.868 19.506V5.042a.966.966 0 0 1 .966-.967h6.475a1.168 1.168 0 0 1 .825.342l2.606 2.606a1.533 1.533 0 0 1 .449 1.083v8.356a1.242 1.242 0 0 1-.38.893l-2.706 2.61a1.473 1.473 0 0 1-1.022.412H35.74a.872.872 0 0 1-.872-.871Zm3.396-2.991V7.938a.58.58 0 0 1 .58-.58h1.71a2.126 2.126 0 0 1 2.125 2.126v5.485a2.126 2.126 0 0 1-2.126 2.125h-1.71a.58.58 0 0 1-.579-.58Zm14.717-2.124v2.024a.68.68 0 0 0 .68.68h6.792c.25 0 .453.202.453.452v2.057a.773.773 0 0 1-.773.773h-9.37a1.065 1.065 0 0 1-1.065-1.064V5.14a1.065 1.065 0 0 1 1.065-1.065h9.29a.966.966 0 0 1 .966.967v1.445a.872.872 0 0 1-.872.871h-6.586a.58.58 0 0 0-.58.58v1.998a.593.593 0 0 0 .593.592h4.762a.872.872 0 0 1 .872.872v1.638a.773.773 0 0 1-.773.773H53.56a.58.58 0 0 0-.58.58Zm29.66 2.024v-2.024a.58.58 0 0 1 .58-.58h4.874a.773.773 0 0 0 .773-.773V11.4a.872.872 0 0 0-.872-.872h-4.762a.592.592 0 0 1-.593-.592V7.938a.58.58 0 0 1 .58-.58h6.586a.872.872 0 0 0 .872-.871V5.042a.966.966 0 0 0-.966-.967h-9.29A1.065 1.065 0 0 0 79.36 5.14v14.173a1.065 1.065 0 0 0 1.064 1.064h9.37a.773.773 0 0 0 .773-.773v-2.057a.453.453 0 0 0-.453-.453h-6.792a.68.68 0 0 1-.68-.679ZM70.25 10.528h4.535a1.064 1.064 0 0 1 1.065 1.065v3.663a5.122 5.122 0 0 1-5.122 5.121h-1.19a5.122 5.122 0 0 1-5.122-5.121V9.197a5.122 5.122 0 0 1 5.122-5.122h1.286c1.266 0 2.486.478 3.415 1.339l1.361 1.26a.78.78 0 0 1 .002 1.142l-1.17 1.092a.972.972 0 0 1-1.358-.031l-.599-.613a3.006 3.006 0 0 0-2.15-.906h-1.047a1.353 1.353 0 0 0-1.353 1.353v6.724a1.546 1.546 0 0 0 1.547 1.546h1.516a1.353 1.353 0 0 0 1.353-1.353v-1.324a.436.436 0 0 0-.436-.436H70.2a.918.918 0 0 1-.918-.919v-1.454a.966.966 0 0 1 .966-.967Zm27.336 2.029v6.949a.872.872 0 0 1-.872.871h-1.845a.679.679 0 0 1-.68-.679V5.042a.966.966 0 0 1 .967-.967h.469c.727 0 1.401.376 1.784.994l4.323 6.975a.146.146 0 0 0 .271-.075l.107-7.026a.88.88 0 0 1 .88-.868h1.554a.966.966 0 0 1 .966.967v14.37a.963.963 0 0 1-.966.965h-.511a2.201 2.201 0 0 1-1.882-1.06l-4.162-6.873a.217.217 0 0 0-.403.113Z"/>
  </g>
  <defs>
    <clipPath id="degen_svg__a">
      <path fill="#fff" d="M0 0h105.509v24H0z"/>
    </clipPath>
  </defs>
</svg>
