<svg xmlns="http://www.w3.org/2000/svg" fill="none" viewBox="0 0 118 24">
  <g clip-path="url(#etc_svg__a)">
    <g clip-path="url(#etc_svg__b)">
      <path fill="#4AD7A7" d="m.261 10.745 7.069-2.98 6.851 3.056L7.32 0 .261 10.745Zm.022 3.306L7.34 18.14l7.2-4.09-7.135 9.93-7.123-9.93Z"/>
      <path fill="#4AD7A7" d="M7.363 9.222 0 12.322l7.363 4.089 7.155-4.002-7.155-3.187Z"/>
      <path fill="#333" fill-rule="evenodd" d="M68.074 16.672a.447.447 0 0 1-.202-.05 2.873 2.873 0 0 1-.257-.152 3.096 3.096 0 0 0-.521-.274 1.567 1.567 0 0 0-.577-.096c-.508 0-.901.172-1.181.516-.28.343-.42.821-.42 1.434 0 .612.138 1.085.414 1.417.276.333.668.499 1.176.499.224 0 .422-.034.594-.101.183-.073.36-.163.526-.269.082-.052.164-.097.246-.134a.543.543 0 0 1 .224-.056c.105 0 .19.042.258.128.067.086.1.193.1.32a.51.51 0 0 1-.083.285.998.998 0 0 1-.286.264 2.699 2.699 0 0 1-.784.347c-.295.082-.6.123-.907.123-.53 0-.995-.115-1.394-.347a2.37 2.37 0 0 1-.93-.986c-.22-.426-.33-.919-.33-1.48 0-.566.113-1.067.341-1.5.216-.421.548-.771.958-1.009.41-.239.88-.358 1.411-.358.284 0 .57.041.857.123.27.075.528.188.767.336.239.164.358.355.358.572a.503.503 0 0 1-.1.319.313.313 0 0 1-.258.129Zm-.403-7.021a.583.583 0 0 1-.403-.14.505.505 0 0 1-.157-.398V6.21c0-.455-.082-.786-.247-.991-.164-.206-.421-.308-.772-.308-.41 0-.736.14-.974.42-.24.28-.359.662-.359 1.148v2.633a.507.507 0 0 1-.157.398.6.6 0 0 1-.414.14.584.584 0 0 1-.404-.14.507.507 0 0 1-.156-.398V6.21c0-.455-.082-.786-.247-.991-.164-.206-.421-.308-.772-.308-.411 0-.738.14-.98.42-.243.28-.364.662-.364 1.148v2.633a.507.507 0 0 1-.157.398.584.584 0 0 1-.403.14.604.604 0 0 1-.409-.14.497.497 0 0 1-.162-.398v-4.56c0-.164.056-.295.168-.392a.594.594 0 0 1 .403-.146c.157 0 .285.047.386.14a.5.5 0 0 1 .151.387v.414c.164-.314.392-.552.684-.717.29-.164.626-.246 1.007-.246.419 0 .764.086 1.036.257.273.172.477.437.611.796.163-.32.416-.587.728-.768a2.11 2.11 0 0 1 1.098-.285c1.224 0 1.836.735 1.836 2.207v2.913a.507.507 0 0 1-.156.398.6.6 0 0 1-.415.14Zm-7.706 4.287c-.127.12-.298.18-.515.18-.216 0-.388-.06-.515-.18a.617.617 0 0 1-.19-.47.6.6 0 0 1 .19-.466c.127-.116.299-.173.515-.173.21 0 .38.057.51.173a.59.59 0 0 1 .196.465.617.617 0 0 1-.19.471Zm-1.982-4.287a.527.527 0 0 1-.38-.14.497.497 0 0 1-.146-.376V8.71c-.162.303-.41.552-.711.717-.303.164-.64.246-1.014.246-1.33 0-1.994-.732-1.994-2.196V4.564c0-.172.05-.306.152-.403.1-.097.24-.146.42-.146.171 0 .308.049.408.146.101.097.152.231.152.403v2.902c0 .44.09.766.268.975.18.209.456.313.83.313.44 0 .792-.141 1.058-.425.264-.284.397-.661.397-1.132V4.564c0-.164.052-.297.157-.398a.571.571 0 0 1 .414-.15c.172 0 .308.048.41.145.1.097.15.231.15.403v4.56a.496.496 0 0 1-.156.381.587.587 0 0 1-.415.146Zm-3.326 6.001c.246.164.37.355.37.572 0 .12-.036.22-.107.302a.322.322 0 0 1-.252.123.49.49 0 0 1-.202-.045 2.58 2.58 0 0 1-.268-.145 3.765 3.765 0 0 0-.566-.28 1.836 1.836 0 0 0-.655-.101c-.314 0-.566.067-.756.202a.637.637 0 0 0-.286.548c0 .21.088.372.263.488.176.116.506.226.992.33.5.105.892.224 1.175.359.284.134.487.3.611.499.123.198.185.45.185.756 0 .485-.204.876-.61 1.17-.408.296-.951.443-1.63.443-.762 0-1.385-.157-1.87-.47a.85.85 0 0 1-.286-.258.556.556 0 0 1-.085-.303c0-.12.034-.22.102-.302a.316.316 0 0 1 .257-.124c.097 0 .25.06.46.18.223.12.441.216.655.291.212.075.48.112.8.112.358 0 .639-.063.84-.19a.601.601 0 0 0 .302-.538.523.523 0 0 0-.117-.359c-.079-.09-.215-.17-.409-.24a6.998 6.998 0 0 0-.862-.23c-.657-.142-1.13-.334-1.417-.577-.287-.243-.431-.573-.431-.992 0-.32.093-.61.28-.868.186-.258.444-.457.772-.6a2.8 2.8 0 0 1 1.12-.212c.296 0 .59.039.874.117.268.072.522.187.75.342Zm-2.543-8.6h-3.46c.074 1.157.63 1.736 1.668 1.736.276 0 .516-.037.717-.112.22-.083.432-.18.639-.291.06-.035.121-.067.184-.095a.607.607 0 0 1 .252-.073c.105 0 .19.04.258.123.067.082.1.187.1.314 0 .216-.134.4-.402.548-.27.153-.558.27-.857.348-.29.08-.59.12-.89.123-.867 0-1.55-.252-2.05-.756-.5-.504-.75-1.193-.75-2.067 0-.56.11-1.057.33-1.49.22-.434.53-.77.93-1.009.399-.239.853-.358 1.36-.358.732 0 1.31.235 1.736.705.426.471.639 1.106.639 1.905 0 .299-.135.448-.404.448Zm-.957-1.821c-.235-.273-.566-.409-.991-.409-.434 0-.78.138-1.042.414-.261.277-.418.665-.47 1.166h2.89c-.023-.508-.152-.898-.387-1.171Zm-6.099 15.642c-.761 0-1.385-.157-1.87-.47a.855.855 0 0 1-.286-.258.558.558 0 0 1-.084-.303c0-.12.034-.22.101-.302a.317.317 0 0 1 .258-.124c.097 0 .25.06.459.18.224.12.442.216.655.291.213.075.48.112.801.112.358 0 .638-.063.84-.19a.602.602 0 0 0 .302-.538c0-.15-.039-.269-.117-.359-.079-.09-.215-.17-.409-.24a6.988 6.988 0 0 0-.862-.23c-.658-.142-1.13-.334-1.417-.577-.288-.243-.431-.573-.431-.992 0-.32.093-.61.28-.868.186-.258.444-.457.772-.6a2.797 2.797 0 0 1 1.12-.212c.295 0 .59.039.874.117.267.072.521.187.75.342.247.164.37.355.37.572 0 .12-.036.22-.106.302a.323.323 0 0 1-.252.123.49.49 0 0 1-.202-.045 2.58 2.58 0 0 1-.269-.145 3.765 3.765 0 0 0-.565-.28 1.836 1.836 0 0 0-.656-.101c-.313 0-.565.067-.756.202a.637.637 0 0 0-.285.548c0 .21.087.372.263.488.175.116.506.226.991.33.5.105.892.224 1.176.359.284.134.487.3.61.499.124.198.185.45.185.756 0 .485-.203.876-.61 1.17-.407.296-.95.443-1.63.443ZM46.705 4.99l-.336.034c-.47.044-.82.209-1.047.492-.228.284-.342.628-.342 1.031v2.566c0 .179-.052.314-.157.403a.599.599 0 0 1-.403.135.619.619 0 0 1-.409-.135c-.108-.09-.162-.224-.162-.403v-4.56c0-.172.054-.304.162-.398a.604.604 0 0 1 .409-.14c.15 0 .274.047.375.14.101.094.151.223.151.387v.538c.15-.33.366-.58.65-.751.284-.172.605-.273.963-.303l.157-.01c.358-.023.538.13.538.458 0 .165-.042.288-.124.37-.082.082-.224.13-.425.146Zm-4.503 2.061h-3.46c.074 1.158.63 1.737 1.668 1.737.277 0 .516-.037.717-.112.22-.083.432-.18.639-.291.06-.035.121-.067.184-.095a.607.607 0 0 1 .252-.073c.105 0 .19.04.258.123.067.082.1.187.1.314 0 .216-.134.4-.402.548-.27.153-.558.27-.857.348-.29.08-.59.12-.89.123-.867 0-1.55-.252-2.05-.756-.5-.504-.75-1.193-.75-2.067 0-.56.11-1.057.33-1.49.22-.434.53-.77.93-1.009.399-.239.853-.358 1.36-.358.732 0 1.31.235 1.736.705.426.471.639 1.106.639 1.905 0 .299-.135.448-.404.448Zm-.957-1.82c-.235-.273-.566-.409-.991-.409-.434 0-.78.138-1.042.414-.261.277-.418.665-.47 1.166h2.89c-.023-.508-.152-.898-.387-1.171Zm-2.632 10.51c.354.367.532.923.532 1.67v2.902c0 .172-.049.304-.146.398a.559.559 0 0 1-.403.14.53.53 0 0 1-.392-.146.53.53 0 0 1-.146-.392v-.415a1.58 1.58 0 0 1-.632.723c-.28.168-.607.252-.98.252-.359 0-.688-.073-.986-.218a1.691 1.691 0 0 1-.7-.611 1.581 1.581 0 0 1-.252-.874c0-.396.102-.708.308-.935.205-.228.545-.39 1.02-.488.473-.097 1.125-.145 1.954-.145h.257v-.325c0-.419-.086-.721-.257-.908-.172-.187-.448-.28-.83-.28-.26 0-.507.034-.738.101a5.555 5.555 0 0 0-.762.291c-.202.112-.344.168-.426.168a.344.344 0 0 1-.274-.123.461.461 0 0 1-.106-.314c0-.112.031-.21.095-.297.063-.085.166-.17.308-.252a3.84 3.84 0 0 1 .918-.341 4.297 4.297 0 0 1 1.02-.13c.723 0 1.263.184 1.618.55Zm-.767 2.499c-.583 0-1.03.026-1.344.079-.314.052-.538.14-.672.263-.135.123-.202.3-.202.532 0 .269.097.49.291.661.194.172.437.258.728.258.41 0 .747-.14 1.008-.42.261-.28.392-.64.392-1.081v-.292h-.201Zm-2.038-8.59a.565.565 0 0 1-.41-.145.52.52 0 0 1-.15-.392V6.21c0-.448-.092-.777-.275-.986-.183-.209-.469-.313-.857-.313-.455 0-.821.141-1.097.425-.277.284-.415.665-.415 1.143v2.633a.52.52 0 0 1-.15.392.566.566 0 0 1-.41.146.585.585 0 0 1-.414-.146.509.509 0 0 1-.157-.392V2.178a.5.5 0 0 1 .163-.392.604.604 0 0 1 .42-.146c.164 0 .296.047.397.14.101.094.151.218.151.375v2.801c.178-.305.438-.553.75-.717a2.286 2.286 0 0 1 1.076-.246c1.3 0 1.949.735 1.949 2.207v2.913a.51.51 0 0 1-.157.392.587.587 0 0 1-.414.146Zm-6.592-1.164c.146.164.368.257.667.28l.313.022c.164.015.282.058.353.129.071.071.107.17.107.297 0 .15-.058.263-.174.342-.116.078-.286.11-.51.095l-.302-.023c-.605-.044-1.057-.23-1.355-.554-.299-.325-.448-.805-.448-1.44V5.001h-.672c-.329 0-.493-.145-.493-.437a.41.41 0 0 1 .129-.32c.085-.078.207-.117.364-.117h.672V2.973c0-.171.05-.306.151-.403a.565.565 0 0 1 .409-.146c.171 0 .31.049.414.146a.525.525 0 0 1 .157.403v1.154h1.109c.157 0 .278.04.364.118a.412.412 0 0 1 .129.319c0 .142-.044.25-.13.325a.54.54 0 0 1-.363.112h-1.109v2.711c0 .352.073.61.218.774ZM25.93 7.05h-3.46c.074 1.158.63 1.737 1.668 1.737.276 0 .515-.037.717-.112.22-.083.432-.18.638-.291.06-.035.122-.067.185-.095a.607.607 0 0 1 .252-.073c.105 0 .19.04.258.123.067.082.1.187.1.314 0 .216-.134.4-.403.548-.269.153-.557.27-.856.348-.29.08-.59.12-.89.123-.867 0-1.55-.252-2.05-.756-.5-.504-.75-1.193-.75-2.067 0-.56.11-1.057.33-1.49.22-.434.53-.77.93-1.009a2.6 2.6 0 0 1 1.36-.358c.732 0 1.31.235 1.736.705.426.471.638 1.106.638 1.905 0 .299-.134.448-.403.448Zm-.957-1.82c-.236-.273-.566-.409-.992-.409-.433 0-.78.138-1.041.414-.262.277-.419.665-.47 1.166h2.889c-.022-.508-.151-.898-.386-1.171Zm-2.336 10.32c.41-.239.881-.358 1.412-.358.283 0 .569.041.856.123.27.075.53.188.768.336.238.164.358.355.358.572a.503.503 0 0 1-.1.319.313.313 0 0 1-.258.129.447.447 0 0 1-.202-.05 2.873 2.873 0 0 1-.258-.152 3.096 3.096 0 0 0-.52-.274 1.567 1.567 0 0 0-.577-.096c-.508 0-.902.172-1.182.516-.28.343-.42.821-.42 1.434 0 .612.138 1.085.415 1.417.276.333.668.499 1.176.499.224 0 .421-.034.593-.101.184-.073.36-.163.527-.269.082-.052.164-.097.246-.134a.543.543 0 0 1 .224-.056c.104 0 .19.042.258.128.067.086.1.193.1.32a.51.51 0 0 1-.084.285.998.998 0 0 1-.285.264 2.699 2.699 0 0 1-.784.347c-.296.082-.6.123-.907.123-.53 0-.996-.115-1.395-.347a2.37 2.37 0 0 1-.93-.986c-.22-.426-.33-.919-.33-1.48 0-.566.114-1.067.342-1.5.216-.421.548-.771.957-1.009Zm7.46-2.711a.58.58 0 0 1 .402.14c.105.093.157.23.157.409v6.924c0 .18-.052.314-.157.403a.597.597 0 0 1-.403.135.62.62 0 0 1-.409-.135c-.108-.09-.162-.224-.162-.403v-6.924c0-.18.054-.316.162-.409a.603.603 0 0 1 .41-.14Zm29.354 2.375c.164 0 .299.047.403.14.105.094.157.23.157.409v4.549c0 .18-.052.314-.157.403a.597.597 0 0 1-.403.135.62.62 0 0 1-.409-.135c-.108-.09-.162-.224-.162-.403v-4.549c0-.18.054-.315.162-.409a.605.605 0 0 1 .409-.14Z" clip-rule="evenodd"/>
    </g>
  </g>
  <defs>
    <clipPath id="etc_svg__a">
      <path fill="#fff" d="M0 0h118v24H0z"/>
    </clipPath>
    <clipPath id="etc_svg__b">
      <path fill="#fff" d="M0 0h68.8v24H0z"/>
    </clipPath>
  </defs>
</svg>
