<svg xmlns="http://www.w3.org/2000/svg" fill="none" viewBox="0 0 85 24">
  <g clip-path="url(#etherlink_svg__a)">
    <path fill="#38FF9C" d="M12.185 9.396a1.003 1.003 0 0 1-.71-1.713l2.596-2.595a1.004 1.004 0 0 1 1.419 1.42l-2.595 2.594a1 1 0 0 1-.71.294Z"/>
    <path fill="#38FF9C" d="M10.304 20.607C4.622 20.607 0 15.985 0 10.304 0 4.623 4.622 0 10.304 0c5.681 0 10.304 4.622 10.304 10.304 0 5.681-4.623 10.303-10.304 10.303Zm0-18.6c-4.575 0-8.297 3.722-8.297 8.297 0 4.575 3.722 8.297 8.297 8.297 4.575 0 8.297-3.722 8.297-8.297 0-4.575-3.723-8.297-8.297-8.297Z"/>
    <path fill="#38FF9C" d="M5.827 15.734a1.003 1.003 0 0 1-.71-1.713l2.596-2.595a1.003 1.003 0 1 1 1.419 1.42L6.537 15.44a1.001 1.001 0 0 1-.71.294ZM10.08 6.691c-1.795.129-3.245 1.572-3.367 3.367a.402.402 0 0 1-.118.258l-1.457 1.46a.152.152 0 0 1-.255-.069 5.659 5.659 0 0 1-.192-1.419 5.633 5.633 0 0 1 7.09-5.434.128.128 0 0 1 .056.213L10.33 6.575a.398.398 0 0 1-.25.116ZM13.998 10.252l1.507-1.507a.128.128 0 0 1 .214.057 5.633 5.633 0 0 1-5.434 7.09c-.482-.001-.967-.074-1.42-.192a.152.152 0 0 1-.068-.255l1.46-1.458a.407.407 0 0 1 .258-.118c1.795-.122 3.238-1.572 3.366-3.366a.399.399 0 0 1 .117-.251Z"/>
    <path fill="#000" d="M24.73 15.598V5.422h6.858v1.774h-4.706V9.62h4.353v1.773h-4.353v2.43h4.726v1.774H24.73ZM36.642 7.966v1.59h-4.596v-1.59h4.596Zm-3.553-1.829h2.117v7.116c0 .195.03.347.089.454.06.108.143.184.251.227.108.042.233.064.376.064.099 0 .198-.01.298-.027l.228-.042.333 1.575a6.66 6.66 0 0 1-.447.117 3.746 3.746 0 0 1-.7.082c-.51.02-.957-.049-1.34-.204a1.87 1.87 0 0 1-.892-.726c-.212-.328-.316-.742-.313-1.242V6.137ZM39.883 11.186v4.412h-2.117V5.422h2.058v3.89h.089c.172-.45.45-.803.835-1.06.384-.257.866-.386 1.446-.386.53 0 .993.115 1.389.346.396.23.704.56.924.989.22.429.329.941.326 1.537v4.86h-2.117v-4.482c.003-.47-.115-.836-.355-1.098-.24-.261-.576-.393-1.007-.393-.288 0-.542.062-.762.184-.22.123-.393.3-.517.535a1.81 1.81 0 0 0-.192.842ZM49.826 15.747c-.785 0-1.46-.16-2.025-.48-.564-.319-1-.773-1.304-1.36-.305-.589-.458-1.285-.458-2.09 0-.805.153-1.474.458-2.068a3.376 3.376 0 0 1 1.29-1.386c.554-.331 1.206-.497 1.955-.497.503 0 .973.08 1.408.24.436.161.817.403 1.143.724.326.321.58.725.763 1.21.182.486.273 1.053.273 1.702v.581h-6.444v-1.311h4.452c0-.305-.066-.575-.199-.81a1.447 1.447 0 0 0-.548-.554 1.604 1.604 0 0 0-.813-.201c-.308 0-.605.074-.852.221-.247.148-.44.345-.58.591-.139.247-.21.521-.213.823v1.247c0 .377.07.704.211.979s.34.487.6.636c.257.149.564.223.919.223.235 0 .45-.033.646-.1a1.286 1.286 0 0 0 .82-.785l1.957.13c-.1.47-.302.88-.609 1.23-.306.349-.7.62-1.182.814-.482.194-1.038.291-1.668.291ZM54.586 15.598V7.966h2.052v1.332h.08c.139-.474.373-.833.7-1.076a1.85 1.85 0 0 1 1.134-.365 3.13 3.13 0 0 1 .666.075V9.81a2.78 2.78 0 0 0-.413-.08 3.683 3.683 0 0 0-.481-.034c-.312 0-.59.067-.832.201-.244.134-.436.32-.577.56a1.591 1.591 0 0 0-.211.824V15.6h-2.117ZM62.303 5.422v10.176h-2.116V5.422h2.116ZM63.877 15.598V7.966h2.117v7.632h-2.117ZM69.682 15.598h-2.117V7.966h2.017v1.346h.09c.169-.443.452-.796.85-1.056.397-.26.879-.39 1.445-.39.53 0 .993.116 1.387.348.394.232.7.562.92.99.218.43.327.94.327 1.534v4.86h-2.117v-4.483c.004-.467-.116-.832-.358-1.095s-.575-.395-.998-.395c-.285 0-.536.061-.753.184a1.26 1.26 0 0 0-.507.534 1.852 1.852 0 0 0-.186.842v4.413ZM76.125 15.598V5.422h2.117v10.176h-2.117Zm1.918-2.196.005-2.54h.308l2.445-2.896h2.43l-3.285 3.836h-.501l-1.402 1.6Zm2.853 2.196-2.246-3.324 1.411-1.495 3.315 4.82h-2.48ZM64.936 7.01a1.075 1.075 0 1 0 0-2.15 1.075 1.075 0 0 0 0 2.15Z"/>
    <path fill="#38FF9C" d="M58.254 22.666v-4.742h3.195v.827h-2.193v1.13h2.029v.827h-2.029v1.132h2.202v.826h-3.204ZM62.921 19.11l.653 1.243.67-1.243h1.011l-1.03 1.778 1.058 1.778h-1.007l-.702-1.23-.69 1.23h-1.018l1.055-1.778-1.018-1.778h1.018ZM65.71 24v-4.89h.973v.597h.044c.043-.095.106-.193.188-.291a.99.99 0 0 1 .324-.25c.134-.068.3-.102.5-.102.26 0 .498.068.718.203.219.135.394.338.525.61.132.27.197.608.197 1.016 0 .396-.064.731-.192 1.005-.127.271-.3.477-.519.618a1.331 1.331 0 0 1-.731.208 1.14 1.14 0 0 1-.489-.095 1.011 1.011 0 0 1-.326-.238 1.21 1.21 0 0 1-.195-.294h-.03V24h-.986Zm.966-3.112c0 .212.03.396.088.553a.82.82 0 0 0 .255.369.64.64 0 0 0 .405.13c.16 0 .296-.045.408-.133a.823.823 0 0 0 .252-.37 1.58 1.58 0 0 0 .088-.549c0-.205-.029-.386-.086-.542a.808.808 0 0 0-.252-.366.64.64 0 0 0-.41-.131.651.651 0 0 0-.407.127.798.798 0 0 0-.253.361c-.058.156-.088.34-.088.551ZM70.693 17.924v4.742h-.987v-4.742h.987ZM72.96 22.736c-.36 0-.671-.077-.934-.23a1.568 1.568 0 0 1-.604-.643 2.074 2.074 0 0 1-.213-.96c0-.368.07-.69.213-.964a1.55 1.55 0 0 1 .604-.644c.263-.154.574-.231.933-.231.36 0 .67.077.931.231.262.153.465.368.607.644.142.275.213.596.213.963 0 .364-.071.685-.213.96-.142.276-.345.49-.607.645a1.81 1.81 0 0 1-.93.229Zm.004-.764c.163 0 .3-.047.41-.14a.861.861 0 0 0 .247-.384 1.66 1.66 0 0 0 .086-.553 1.66 1.66 0 0 0-.086-.553.862.862 0 0 0-.247-.385.606.606 0 0 0-.41-.14.628.628 0 0 0-.417.14.868.868 0 0 0-.252.385 1.701 1.701 0 0 0-.084.553c0 .207.028.391.084.553.057.163.14.29.252.385a.635.635 0 0 0 .417.139ZM75.22 22.666V19.11h.957v.62h.037a.918.918 0 0 1 .326-.5.858.858 0 0 1 .528-.171 1.488 1.488 0 0 1 .31.035v.875a1.727 1.727 0 0 0-.417-.053.79.79 0 0 0-.388.095.7.7 0 0 0-.366.643v2.012h-.986ZM79.213 22.736c-.366 0-.68-.074-.944-.223a1.522 1.522 0 0 1-.607-.634 2.096 2.096 0 0 1-.213-.975c0-.366.07-.686.213-.963.142-.276.342-.491.6-.646a1.75 1.75 0 0 1 .912-.231c.234 0 .453.038.655.113.204.074.381.186.533.336.152.15.271.338.356.565.085.225.127.49.127.792v.27h-3.002v-.61h2.074a.756.756 0 0 0-.093-.378.663.663 0 0 0-.257-.257.733.733 0 0 0-.377-.095.76.76 0 0 0-.398.104.732.732 0 0 0-.269.276.778.778 0 0 0-.1.382v.58a1 1 0 0 0 .098.457c.066.128.16.227.28.296.12.07.263.105.428.105.11 0 .21-.016.301-.047a.605.605 0 0 0 .382-.366l.913.06c-.047.22-.142.411-.285.575a1.43 1.43 0 0 1-.551.38c-.224.09-.483.134-.776.134ZM81.359 22.666V19.11h.956v.62h.037a.917.917 0 0 1 .327-.5.858.858 0 0 1 .528-.171 1.485 1.485 0 0 1 .31.035v.875a1.726 1.726 0 0 0-.417-.053.79.79 0 0 0-.389.095.7.7 0 0 0-.366.643v2.012h-.986Z"/>
  </g>
  <defs>
    <clipPath id="etherlink_svg__a">
      <path fill="#fff" d="M0 0h85v24H0z"/>
    </clipPath>
  </defs>
</svg>
