<svg xmlns="http://www.w3.org/2000/svg" fill="none" viewBox="0 0 83 24">
  <g clip-path="url(#filecoin-logo-dark_svg__a)">
    <path fill="#0090FF" fill-rule="evenodd" d="M11.91 24C5.336 24.025-.03 18.605 0 11.943.03 5.358 5.37-.039 11.988 0c6.523.04 11.881 5.42 11.83 12.101-.05 6.556-5.354 11.92-11.908 11.899Z" clip-rule="evenodd"/>
    <path fill="#fff" fill-rule="evenodd" d="m13.389 11.03 3.1.441.249-.897-3.207-.478c.371-1.323.692-2.587 1.092-3.826.132-.408.427-.79.728-1.107.394-.415.94-.324 1.274.133.14.19.271.393.44.556.213.209.529.31.744.107.141-.133.137-.447.15-.682.005-.095-.106-.207-.182-.294-.374-.426-.878-.577-1.411-.6-1.188-.05-2.041.561-2.71 1.484-.664.915-.955 1.99-1.272 3.053-.092.31-.171.625-.264.965L8.71 9.39l-.118.911 3.33.517-.432 1.837-3.183-.448-.118.901 3.086.475c0 .116.012.184-.002.245-.326 1.399-.628 2.804-.994 4.191-.174.662-.455 1.301-1 1.766-.45.383-.944.319-1.282-.156-.153-.214-.28-.468-.482-.618-.147-.11-.474-.176-.583-.088-.16.13-.276.42-.262.632.012.188.191.409.356.537.556.431 1.21.494 1.873.363 1.11-.22 1.893-.919 2.379-1.906.38-.776.666-1.605.936-2.43.245-.747.41-1.52.618-2.308l3.25.475.258-.903-3.328-.493.377-1.859Z" clip-rule="evenodd"/>
    <path fill="#000" d="M32.27 17.21v-4.694h5.204v-1.54H32.27V8.13h5.525V6.575h-7.377V17.21h1.852Zm8.46-8.875v-1.76h-1.734v1.76h1.735Zm0 8.875V9.318h-1.734v7.892h1.735Zm3.686 0V6.575h-1.734V17.21h1.734Zm5.472.19c2.011 0 3.207-1.29 3.557-2.552h-1.706c-.306.748-1.006 1.1-1.924 1.1-.991 0-2.012-.719-2.128-2.186h5.845c.16-2.64-1.356-4.62-3.76-4.62-2.217 0-3.85 1.687-3.85 4.063 0 2.274 1.444 4.195 3.966 4.195Zm1.88-4.914h-4.081c.16-1.481 1.268-1.98 2.084-1.98 1.02 0 1.953.748 1.997 1.98Zm6.703 4.914c1.677 0 3.295-1.041 3.645-2.89h-1.691c-.234 1.057-1.064 1.438-1.925 1.438-1.02 0-2.011-.807-2.011-2.684 0-1.863.962-2.67 2.055-2.67.948 0 1.662.587 1.822 1.423h1.691c-.306-1.746-1.793-2.875-3.513-2.875-2.347 0-3.848 1.79-3.848 4.136 0 2.347 1.501 4.122 3.775 4.122Zm8.523 0c1.91 0 3.863-1.261 3.863-4.122 0-2.845-1.954-4.136-3.863-4.136-1.91 0-3.863 1.29-3.863 4.136 0 2.86 1.953 4.122 3.863 4.122Zm0-1.422c-1.108 0-2.07-.866-2.07-2.7 0-1.819.962-2.713 2.07-2.713 1.108 0 2.07.894 2.07 2.713 0 1.834-.962 2.7-2.07 2.7Zm7.144-7.643v-1.76h-1.734v1.76h1.734Zm0 8.875V9.318h-1.734v7.892h1.734Zm3.686 0v-4.196c0-1.422.481-2.45 1.822-2.45 1.341 0 1.487 1.057 1.487 2.113v4.533h1.735v-4.958c0-1.878-.773-3.11-2.668-3.11-1.108 0-1.924.454-2.376 1.276v-1.1h-1.735v7.892h1.735Z"/>
  </g>
  <defs>
    <clipPath id="filecoin-logo-dark_svg__a">
      <path fill="#fff" d="M0 0h83v24H0z"/>
    </clipPath>
  </defs>
</svg>
