<svg xmlns="http://www.w3.org/2000/svg" fill="none" viewBox="0 0 1112 300">
  <g clip-path="url(#fluence-dark_svg__a)">
    <path fill="#fff" fill-rule="evenodd" d="M112.359 0H89.546v50.196C39.203 55.6 0 98.221 0 149.998c0 51.778 39.203 94.4 89.546 99.803V300h22.813v-50.329c49.792-5.921 88.401-48.288 88.401-99.673 0-51.384-38.609-93.751-88.401-99.672V0ZM22.814 149.998c0-39.162 29.022-71.545 66.732-76.815v153.631c-37.71-5.27-66.732-37.654-66.732-76.816Zm155.133 0c0 38.765-28.437 70.888-65.588 76.648V73.351c37.151 5.76 65.588 37.883 65.588 76.647Zm126.08-39.906c0-7.018 1.052-13.217 3.158-18.597 2.105-5.38 5.146-9.892 9.123-13.535 3.977-3.642 8.772-6.416 14.386-8.32 5.615-1.906 11.931-2.858 18.949-2.858 4.612 0 9.006.35 13.183 1.053 4.178.702 8.539 1.52 13.084 2.456l-2.106 19.049c-2.606-.736-5.647-1.387-9.123-1.956-3.475-.568-7.385-.852-11.73-.852-8.622 0-14.921 2.039-18.898 6.116-3.977 4.077-5.965 9.892-5.965 17.444v6.717h40.303v17.846h-40.303v90.631h-24.061v-90.631h-29.175v-17.846h29.175v-6.717Zm288.735 100.356c-3.676 5.347-8.137 9.508-13.384 12.482s-11.111 4.461-17.595 4.461c-5.614 0-10.744-.869-15.389-2.606-4.645-1.738-8.622-4.495-11.93-8.271-3.309-3.777-5.882-8.589-7.72-14.437-1.838-5.848-2.757-12.883-2.757-21.104v-64.164h23.961v64.365c0 5.213.384 9.524 1.153 12.932.769 3.409 1.955 6.116 3.559 8.121 1.604 2.005 3.609 3.426 6.015 4.261 2.407.835 5.281 1.253 8.622 1.253 6.417 0 11.597-1.253 15.54-3.759 3.943-2.507 6.918-5.899 8.923-10.176v-76.997h24.061v108.477h-21.655l-1.404-14.838Zm104.166 16.843c-8.021 0-15.339-1.337-21.956-4.01-6.617-2.674-12.281-6.35-16.993-11.028-4.713-4.679-8.372-10.21-10.978-16.593-2.607-6.383-3.91-13.283-3.91-20.702v-4.111c0-8.622 1.386-16.375 4.16-23.259s6.483-12.766 11.129-17.645c4.645-4.879 10.058-8.622 16.241-11.229 6.182-2.606 12.682-3.91 19.5-3.91 7.886 0 14.837 1.32 20.853 3.96 6.015 2.641 11.045 6.35 15.088 11.129 4.044 4.779 7.102 10.443 9.174 16.993 2.072 6.55 3.108 13.735 3.108 21.555v10.126h-75.192c.401 4.211 1.437 8.121 3.108 11.73s3.86 6.734 6.567 9.374c2.706 2.64 5.881 4.712 9.524 6.215 3.642 1.504 7.636 2.256 11.98 2.256 6.083 0 11.68-1.203 16.793-3.609 5.113-2.406 9.274-5.715 12.482-9.925l13.033 12.231c-1.738 2.607-3.977 5.13-6.717 7.569-2.74 2.44-5.948 4.612-9.625 6.517-3.676 1.905-7.803 3.442-12.381 4.612-4.578 1.169-9.574 1.754-14.988 1.754Zm-2.908-93.137c-3.342 0-6.449.601-9.323 1.804-2.874 1.203-5.448 2.958-7.72 5.264-2.273 2.306-4.194 5.113-5.765 8.421-1.57 3.309-2.69 7.068-3.358 11.279h50.829v-1.805a34.597 34.597 0 0 0-1.855-9.273c-1.036-2.975-2.556-5.631-4.561-7.971-2.005-2.339-4.528-4.21-7.569-5.614-3.042-1.404-6.601-2.105-10.678-2.105Zm97.248-17.345 1.504 15.039c3.943-5.414 8.705-9.608 14.286-12.582 5.581-2.975 11.78-4.462 18.598-4.462 5.547 0 10.61.802 15.188 2.407 4.579 1.604 8.522 4.11 11.831 7.519 3.308 3.408 5.881 7.82 7.719 13.233 1.838 5.414 2.757 11.931 2.757 19.55v67.773H839.19v-67.372c0-4.478-.518-8.221-1.554-11.228-1.036-3.008-2.506-5.414-4.411-7.219-1.905-1.804-4.227-3.091-6.968-3.86-2.74-.768-5.848-1.153-9.323-1.153-5.281 0-9.876 1.17-13.786 3.509-3.91 2.34-7.068 5.514-9.474 9.525v77.798h-24.061V116.809h21.655Zm148.98 91.433c2.941 0 5.798-.467 8.572-1.403 2.773-.936 5.23-2.239 7.368-3.91 2.139-1.671 3.827-3.643 5.063-5.915 1.237-2.273 1.822-4.746 1.755-7.419h22.658c.066 5.213-1.12 10.109-3.56 14.687-2.439 4.579-5.747 8.572-9.925 11.981-4.177 3.409-9.006 6.116-14.487 8.121-5.48 2.005-11.228 3.007-17.244 3.007-8.354 0-15.673-1.437-21.956-4.311-6.282-2.874-11.529-6.8-15.74-11.78-4.21-4.979-7.369-10.76-9.474-17.344-2.105-6.583-3.158-13.584-3.158-21.003v-3.61c0-7.419 1.053-14.436 3.158-21.053 2.105-6.617 5.264-12.399 9.474-17.344 4.211-4.946 9.458-8.873 15.74-11.781 6.283-2.907 13.568-4.361 21.856-4.361 6.55 0 12.616 1.003 18.196 3.008 5.581 2.005 10.394 4.812 14.437 8.422 4.044 3.609 7.185 7.92 9.424 12.932 2.239 5.013 3.325 10.494 3.259 16.442h-22.658c.067-2.94-.451-5.714-1.554-8.321a19.796 19.796 0 0 0-4.762-6.817c-2.072-1.938-4.512-3.476-7.319-4.612-2.807-1.136-5.882-1.704-9.223-1.704-5.013 0-9.191 1.019-12.532 3.057-3.342 2.039-6.016 4.712-8.021 8.021-2.005 3.308-3.425 7.068-4.261 11.279a65.804 65.804 0 0 0-1.253 12.832v3.61c0 4.411.418 8.722 1.253 12.933.836 4.21 2.256 7.97 4.261 11.278 2.005 3.309 4.679 5.982 8.021 8.021 3.341 2.038 7.552 3.057 12.632 3.057Zm126.322 19.049c-8.02 0-15.34-1.337-21.96-4.01-6.61-2.674-12.28-6.35-16.99-11.028-4.71-4.679-8.37-10.21-10.98-16.593-2.6-6.383-3.91-13.283-3.91-20.702v-4.111c0-8.622 1.39-16.375 4.16-23.259 2.78-6.884 6.49-12.766 11.13-17.645 4.65-4.879 10.06-8.622 16.24-11.229 6.19-2.606 12.69-3.91 19.5-3.91 7.89 0 14.84 1.32 20.86 3.96 6.01 2.641 11.04 6.35 15.08 11.129 4.05 4.779 7.11 10.443 9.18 16.993 2.07 6.55 3.11 13.735 3.11 21.555v10.126h-75.2c.4 4.211 1.44 8.121 3.11 11.73s3.86 6.734 6.57 9.374c2.71 2.64 5.88 4.712 9.52 6.215 3.65 1.504 7.64 2.256 11.98 2.256 6.09 0 11.68-1.203 16.8-3.609 5.11-2.406 9.27-5.715 12.48-9.925l13.03 12.231c-1.74 2.607-3.98 5.13-6.72 7.569-2.74 2.44-5.94 4.612-9.62 6.517-3.68 1.905-7.8 3.442-12.38 4.612-4.58 1.169-9.58 1.754-14.99 1.754Zm-3.52-93.26c-3.34 0-6.45.602-9.32 1.805-2.88 1.203-5.45 2.957-7.72 5.263-2.28 2.306-4.2 5.113-5.77 8.422-1.57 3.308-2.69 7.068-3.36 11.278h50.83v-1.804c-.2-3.208-.82-6.3-1.85-9.274-1.04-2.974-2.56-5.631-4.56-7.97-2.01-2.339-4.53-4.211-7.57-5.614-3.04-1.404-6.6-2.106-10.68-2.106ZM404.382 71.293h58.65v134.142h33.084v19.851h-91.734v-19.851h34.488V91.245h-34.488V71.292Z" clip-rule="evenodd"/>
  </g>
  <defs>
    <clipPath id="fluence-dark_svg__a">
      <path fill="#fff" d="M0 0h1111.99v300H0z"/>
    </clipPath>
  </defs>
</svg>
