<svg xmlns="http://www.w3.org/2000/svg" fill="none" viewBox="0 0 86 24">
  <g clip-path="url(#fuse_svg__a)">
    <mask id="fuse_svg__b" width="86" height="25" x="0" y="-1" maskUnits="userSpaceOnUse" style="mask-type:luminance">
      <path fill="#fff" d="M85.57-1H0v24.201h85.57V-1Z"/>
    </mask>
    <g fill="#010101" mask="url(#fuse_svg__b)">
      <path d="M6.488 1.353 10.323-.86a.355.355 0 0 1 .354 0l10.107 5.835c.11.063.177.18.178.306l.014 4.013a.354.354 0 0 1-.178.308l-3.83 2.211a.354.354 0 0 1-.531-.305l-.013-3.602a.354.354 0 0 0-.177-.306L6.488 1.967a.354.354 0 0 1 0-.614ZM4.011 19.532.177 17.32A.352.352 0 0 1 0 17.012V5.342c0-.127.067-.243.176-.307l3.47-2.02a.352.352 0 0 1 .355 0l3.83 2.212a.355.355 0 0 1 0 .613L4.72 7.652a.353.353 0 0 0-.176.306v11.269a.354.354 0 0 1-.532.305ZM20.976 12.584v4.427a.352.352 0 0 1-.178.307l-10.107 5.835a.353.353 0 0 1-.353 0l-3.483-1.995a.355.355 0 0 1-.178-.308v-4.422c0-.272.294-.442.53-.307l3.125 1.79c.11.063.243.062.353 0l9.758-5.635a.354.354 0 0 1 .531.307h.002ZM53.75 5.179h-3.914a.307.307 0 0 0-.306.307v7.447c0 .952-.155 1.749-.465 2.39-.31.621-.735 1.087-1.276 1.398-.542.291-1.162.438-1.858.438-1.007 0-1.79-.301-2.351-.903-.542-.622-.813-1.585-.813-2.886V5.487a.307.307 0 0 0-.307-.307h-2.843a.387.387 0 0 0-.07-.007h-5.664v-.315c0-.758.174-1.32.523-1.69.368-.389.881-.583 1.538-.583.35 0 .678.048.988.146.19.06.379.14.541.226a.304.304 0 0 0 .427-.17l.979-2.709a.31.31 0 0 0-.136-.372 4.665 4.665 0 0 0-1.347-.502A8.54 8.54 0 0 0 35.509-1c-1.934 0-3.425.534-4.47 1.603-1.045 1.05-1.568 2.459-1.568 4.227v.343h-2.046c-.2 0-.364.138-.364.308v2.882c0 .17.163.307.364.307h2.046v11.882c0 .17.137.308.306.308h3.914a.307.307 0 0 0 .307-.308V8.67h4.24v5.37c0 1.612.28 2.944.842 3.993.562 1.03 1.345 1.798 2.351 2.303 1.026.505 2.188.758 3.483.758 1.2 0 2.303-.272 3.31-.817a5.364 5.364 0 0 0 1.538-1.257v1.532c0 .17.137.308.306.308h3.683c.17 0 .306-.138.306-.308V5.487a.307.307 0 0 0-.306-.307v-.001ZM66.932 12.64a6.722 6.722 0 0 0-1.83-.759 14.998 14.998 0 0 0-2.031-.379 32.695 32.695 0 0 1-1.83-.32c-.56-.117-1.016-.272-1.364-.466-.33-.194-.493-.485-.493-.875 0-.427.232-.777.697-1.049.464-.272 1.2-.407 2.206-.407.716 0 1.452.087 2.206.262a7.149 7.149 0 0 1 2.01.743c.156.084.349.022.425-.139l1.25-2.678a.307.307 0 0 0-.129-.399c-.69-.377-1.527-.67-2.51-.877a15.689 15.689 0 0 0-3.25-.35c-1.51 0-2.806.224-3.89.67-1.084.43-1.916 1.021-2.496 1.78-.561.758-.843 1.631-.843 2.623 0 .893.165 1.622.494 2.186a3.94 3.94 0 0 0 1.364 1.34c.562.332 1.18.584 1.858.759.677.155 1.345.281 2.002.38.678.097 1.297.193 1.858.29.56.098 1.006.244 1.336.438.348.175.523.447.523.816 0 .447-.223.797-.668 1.049-.426.252-1.162.379-2.207.379-.948 0-1.915-.136-2.902-.407a10.81 10.81 0 0 1-2.238-.936.306.306 0 0 0-.43.137l-1.254 2.713a.31.31 0 0 0 .12.394c.689.42 1.578.778 2.669 1.073a15.8 15.8 0 0 0 3.86.466v-.002c1.567 0 2.893-.213 3.977-.64 1.102-.428 1.945-1.01 2.525-1.749.58-.757.87-1.622.87-2.594 0-.893-.174-1.613-.522-2.157-.349-.563-.803-1-1.364-1.311v-.004ZM84.498 8.736a7.143 7.143 0 0 0-2.932-2.798c-1.22-.66-2.535-.991-4.122-.991-1.587 0-3.01.35-4.266 1.049a7.687 7.687 0 0 0-2.99 2.856c-.716 1.204-1.074 2.614-1.074 4.168 0 1.554.367 2.944 1.102 4.168.735 1.204 1.77 2.156 3.106 2.856 1.354.7 2.92 1.049 4.702 1.049v.002c1.413 0 2.662-.214 3.744-.64.989-.408 1.823-.97 2.506-1.684a.31.31 0 0 0 .002-.421l-2.01-2.19a.308.308 0 0 0-.43-.02c-.463.404-.97.715-1.52.932-.62.252-1.345.38-2.177.38-.928 0-1.74-.166-2.438-.497a3.934 3.934 0 0 1-1.596-1.485 4.23 4.23 0 0 1-.435-1.167h11.535c.158 0 .29-.12.305-.278l.03-.334c.02-.233.03-.437.03-.613 0-1.69-.358-3.137-1.074-4.343l.002.001Zm-9.086.176c.6-.35 1.288-.525 2.061-.525.774 0 1.452.175 2.032.525.581.33 1.036.797 1.365 1.398.218.4.362.847.435 1.34h-7.687c.075-.485.218-.923.43-1.311a3.471 3.471 0 0 1 1.364-1.428Z"/>
    </g>
  </g>
  <defs>
    <clipPath id="fuse_svg__a">
      <path fill="#fff" d="M0-1h86v25H0z"/>
    </clipPath>
  </defs>
</svg>
