<svg xmlns="http://www.w3.org/2000/svg" fill="none" viewBox="0 0 109 24">
  <path fill="#000" stroke="#000" stroke-width=".2" d="M59.052 10.33V4.46H60v.768c.188-.286.46-.504.813-.655.361-.158.76-.237 1.196-.237 1.588 0 2.382.885 2.382 2.653v3.34h-.948V7.103c0-.647-.143-1.121-.43-1.422-.277-.301-.706-.452-1.286-.452-.361 0-.7.11-1.016.327a2.028 2.028 0 0 0-.71.858v3.917h-.949ZM56.467 10.33V4.46h.948v5.87h-.948Zm-.124-7.777c0-.158.056-.29.17-.395a.645.645 0 0 1 .44-.158c.157 0 .293.053.406.158.12.105.18.237.18.395a.55.55 0 0 1-.18.418.554.554 0 0 1-.407.169.62.62 0 0 1-.44-.17.567.567 0 0 1-.17-.417ZM48.92 7.384c0-.896.285-1.63.857-2.201.58-.572 1.328-.858 2.246-.858.926 0 1.678.286 2.258.858.579.572.869 1.305.869 2.2 0 .889-.294 1.618-.88 2.19-.58.572-1.329.858-2.247.858-.91 0-1.655-.286-2.235-.858-.579-.572-.869-1.301-.869-2.19Zm1.004 0c0 .624.196 1.14.587 1.546.391.406.895.61 1.512.61.625 0 1.133-.2 1.524-.599.399-.399.598-.918.598-1.557 0-.64-.203-1.16-.61-1.558-.398-.406-.902-.61-1.512-.61s-1.114.2-1.512.599c-.392.399-.587.922-.587 1.569ZM47.702 8.637l.678.485a2.282 2.282 0 0 1-1.005.97 3.117 3.117 0 0 1-1.41.34c-.941 0-1.701-.276-2.28-.825-.573-.557-.859-1.298-.859-2.223 0-.88.286-1.61.858-2.19.572-.58 1.313-.869 2.224-.869.526 0 1.004.11 1.433.327.437.219.752.508.948.87l-.733.496c-.392-.534-.933-.801-1.626-.801-.61 0-1.113.203-1.512.61-.391.405-.587.925-.587 1.557 0 .647.203 1.17.61 1.569.413.39.951.586 1.613.586.7 0 1.25-.3 1.648-.902ZM41.234 8.648l.61.564c-.542.813-1.325 1.22-2.348 1.22-.94 0-1.697-.276-2.269-.825-.572-.557-.858-1.298-.858-2.223 0-.896.26-1.63.78-2.201.526-.572 1.263-.858 2.211-.858.783 0 1.43.245 1.942.734.511.489.767 1.132.767 1.93 0 .256-.019.493-.056.71h-4.628c.03.58.241 1.032.632 1.355.391.324.896.485 1.513.485.346 0 .67-.082.97-.248.309-.165.553-.38.734-.643Zm-1.941-3.454c-.535 0-.971.15-1.31.452-.33.3-.534.7-.61 1.196h3.692c-.03-.52-.203-.922-.52-1.208-.308-.293-.726-.44-1.252-.44ZM34.144 10.33V2.09h.948v8.24h-.948ZM31.469 10.33V4.46h.948v5.87h-.948Zm-.125-7.777c0-.158.057-.29.17-.395a.645.645 0 0 1 .44-.158c.158 0 .293.053.406.158.12.105.18.237.18.395a.55.55 0 0 1-.18.418.554.554 0 0 1-.406.169.62.62 0 0 1-.44-.17.567.567 0 0 1-.17-.417ZM24.572 10.33V2.429h5.677v.96H25.61v2.708h4.323v.96H25.61v3.273h-1.038ZM106.318 20.217l.609.564c-.542.813-1.324 1.22-2.347 1.22-.941 0-1.697-.276-2.269-.825-.572-.557-.858-1.298-.858-2.223 0-.896.26-1.63.779-2.201.527-.572 1.264-.858 2.212-.858.783 0 1.43.245 1.941.734.512.489.768 1.132.768 1.93 0 .256-.019.492-.057.71h-4.627c.03.58.241 1.031.632 1.355.391.324.895.485 1.512.485.347 0 .67-.082.971-.248a2.04 2.04 0 0 0 .734-.643Zm-1.942-3.454c-.534 0-.97.15-1.309.451-.331.302-.534.7-.609 1.197h3.69c-.03-.52-.203-.922-.519-1.208-.308-.293-.726-.44-1.253-.44ZM94.993 21.898V16.03h.948v.768c.188-.286.46-.504.813-.655.361-.158.76-.237 1.196-.237 1.588 0 2.382.884 2.382 2.653v3.34h-.948V18.67c0-.647-.143-1.12-.43-1.422-.278-.3-.706-.451-1.286-.451-.361 0-.7.109-1.016.327a2.028 2.028 0 0 0-.71.858v3.916h-.949ZM92.408 21.898V16.03h.948v5.87h-.948Zm-.124-7.776c0-.158.056-.29.169-.395a.645.645 0 0 1 .44-.158c.158 0 .294.052.406.158.12.105.181.237.181.395a.55.55 0 0 1-.18.418.554.554 0 0 1-.407.169.62.62 0 0 1-.44-.17.567.567 0 0 1-.17-.417ZM85.507 21.898V13.66h.948v3.138c.452-.595 1.088-.892 1.908-.892 1.648 0 2.472.888 2.472 2.664v3.33h-.948v-3.24c0-.632-.14-1.098-.418-1.4-.278-.308-.707-.462-1.287-.462-.39 0-.737.113-1.038.338a2.16 2.16 0 0 0-.689.88v3.883h-.948ZM83.908 20.206l.677.485a2.282 2.282 0 0 1-1.005.97 3.117 3.117 0 0 1-1.41.34c-.941 0-1.701-.276-2.28-.825-.572-.557-.858-1.298-.858-2.223 0-.88.286-1.61.858-2.19.571-.58 1.313-.869 2.223-.869.527 0 1.005.11 1.433.327.437.218.753.508.948.87l-.733.496c-.391-.534-.933-.801-1.625-.801-.61 0-1.114.203-1.513.61-.391.405-.587.925-.587 1.557 0 .647.203 1.17.61 1.569.414.39.952.586 1.614.586.7 0 1.249-.3 1.648-.902ZM73.64 17.44l-.485-.71c.271-.257.621-.46 1.05-.61.429-.15.861-.226 1.298-.226.782 0 1.377.207 1.783.62.414.415.62 1.002.62 1.762v3.622h-.947v-.869c-.188.271-.46.497-.813.678-.353.18-.767.27-1.241.27-.64 0-1.155-.161-1.547-.485-.39-.33-.587-.767-.587-1.31 0-.616.249-1.071.745-1.365.497-.3 1.185-.451 2.066-.451.55 0 1.008.056 1.377.17 0-.573-.117-1.005-.35-1.299-.233-.3-.64-.451-1.219-.451-.587 0-1.17.218-1.75.654Zm1.49 3.68c.444 0 .828-.12 1.152-.361.33-.241.556-.505.677-.79v-.599c-.324-.113-.741-.169-1.253-.169-1.287 0-1.93.316-1.93.948 0 .301.124.538.373.711.248.173.575.26.981.26ZM63.749 21.898v-7.9h.948l3.002 3.973 2.9-3.973h.926v7.9h-1.027V15.77l-2.697 3.634h-.249l-2.776-3.634v6.128h-1.027ZM57.524 21.898V13.66h.948v8.24h-.948ZM51.715 17.44l-.485-.71c.27-.257.62-.46 1.05-.61.428-.15.86-.226 1.297-.226.783 0 1.377.207 1.784.62.414.415.62 1.002.62 1.762v3.622h-.948v-.869c-.188.271-.459.497-.812.678-.354.18-.768.27-1.242.27-.64 0-1.155-.161-1.546-.485-.391-.33-.587-.767-.587-1.31 0-.616.248-1.071.745-1.365.496-.3 1.185-.451 2.065-.451.55 0 1.009.056 1.377.17 0-.573-.116-1.005-.35-1.299-.233-.3-.64-.451-1.218-.451-.588 0-1.17.218-1.75.654Zm1.49 3.68c.444 0 .828-.12 1.151-.361.331-.241.557-.505.677-.79v-.599c-.323-.113-.74-.169-1.252-.169-1.287 0-1.93.316-1.93.948 0 .301.124.538.372.711.248.173.575.26.982.26ZM49.757 15.995v5.903h-.949v-.835c-.451.625-1.087.937-1.907.937-.813 0-1.418-.21-1.817-.632-.399-.421-.598-1.08-.598-1.975v-3.398h.948v3.262c0 1.234.515 1.851 1.546 1.851.406 0 .767-.109 1.084-.327a2.26 2.26 0 0 0 .744-.948v-3.837h.949ZM39.063 16.932v-.903h1.22v-1.5h.947v1.5h2.02v.903h-2.02v2.585c0 .572.08.974.237 1.208.158.233.418.35.78.35.353 0 .706-.14 1.06-.418l.429.7c-.376.413-.93.62-1.66.62-.579 0-1.023-.188-1.331-.564-.309-.376-.463-.925-.463-1.648v-2.833h-1.219ZM35.332 21.898V16.03h.949v.452a.885.885 0 0 1 .485-.43c.226-.097.466-.146.722-.146.52 0 .918.177 1.197.53l-.599.655c-.143-.195-.376-.293-.7-.293-.255 0-.489.094-.7.282a1.385 1.385 0 0 0-.405.734v4.085h-.949ZM32.747 21.898V16.03h.948v5.87h-.948Zm-.124-7.776c0-.158.056-.29.17-.395a.645.645 0 0 1 .44-.158c.158 0 .293.052.406.158.12.105.18.237.18.395a.55.55 0 0 1-.18.418.554.554 0 0 1-.407.169.62.62 0 0 1-.44-.17.568.568 0 0 1-.169-.417ZM31.84 13.998l-3.612 7.9h-.745l-3.792-7.9h1.106l3.081 6.456 2.89-6.456h1.072Z"/>
  <path fill="#72EA9A" d="m15.814 18.552-3.088 1.816V24l3.088-1.816V18.55ZM3.646 11.65.558 13.466V17.1l3.088-1.817V11.65Z"/>
  <path fill="#1A3A96" d="M12.726 20.368.558 13.466V17.1L12.726 24v-3.632Z"/>
  <path fill="url(#fvm-logo-dark_svg__a)" d="M15.814 18.552 3.646 11.65.558 13.466l12.168 6.902 3.088-1.816Z"/>
  <path fill="url(#fvm-logo-dark_svg__b)" d="m0 13.023 3.163 1.86v3.722L0 16.745v-3.722Z"/>
  <path fill="#72EA9A" d="m12.465 5.953 3.163 1.861v3.72l-3.163-1.86v-3.72Z"/>
  <path fill="#1A3A96" d="m3.163 14.884 12.465-7.07v3.72l-12.465 7.07v-3.72Z"/>
  <path fill="url(#fvm-logo-dark_svg__c)" d="m0 13.023 12.465-7.07 3.163 1.861-12.465 7.07L0 13.024Z"/>
  <path fill="#72EA9A" d="m0 7.07 3.163 1.86v3.721L0 10.791V7.07ZM12.465 0l3.163 1.86v3.721l-3.163-1.86V0Z"/>
  <path fill="#1A3A96" d="m3.163 8.93 12.465-7.07v3.721l-12.465 7.07v-3.72Z"/>
  <path fill="url(#fvm-logo-dark_svg__d)" d="M0 7.07 12.465 0l3.163 1.86L3.163 8.93 0 7.07Z"/>
  <defs>
    <linearGradient id="fvm-logo-dark_svg__a" x1=".831" x2="17.539" y1="13.012" y2="17.643" gradientUnits="userSpaceOnUse">
      <stop offset=".5" stop-color="#5A92ED"/>
      <stop offset="1" stop-color="#71E49F"/>
    </linearGradient>
    <linearGradient id="fvm-logo-dark_svg__b" x1=".651" x2="1.953" y1="13.023" y2="18.326" gradientUnits="userSpaceOnUse">
      <stop stop-color="#72E79D"/>
      <stop offset="1" stop-color="#5C97E8"/>
    </linearGradient>
    <linearGradient id="fvm-logo-dark_svg__c" x1="20.186" x2="1.953" y1="6.233" y2="11.535" gradientUnits="userSpaceOnUse">
      <stop stop-color="#70E1A1"/>
      <stop offset="1" stop-color="#5C99E9"/>
    </linearGradient>
    <linearGradient id="fvm-logo-dark_svg__d" x1="15.349" x2="-1.767" y1="1.395" y2="6.14" gradientUnits="userSpaceOnUse">
      <stop stop-color="#5C99E9"/>
      <stop offset="1" stop-color="#72EA9A"/>
    </linearGradient>
  </defs>
</svg>
