<svg xmlns="http://www.w3.org/2000/svg" xmlns:xlink="http://www.w3.org/1999/xlink" xml:space="preserve" style="enable-background:new 0 0 116.2 38.4" viewBox="0 0 116.2 38.4">
  <style>
    .gelato-light_svg__st0{clip-path:url(#gelato-light_svg__SVGID_00000103965221485081305970000000413165549642533512_)}.gelato-light_svg__st2{fill:url(#gelato-light_svg__SVGID_00000081616832076256162460000016803482573447050169_)}.gelato-light_svg__st3{fill:url(#gelato-light_svg__SVGID_00000132075304045381682990000007906298870403790271_)}.gelato-light_svg__st4{fill:url(#gelato-light_svg__SVGID_00000004506708145190550670000006140500933822077583_)}.gelato-light_svg__st5{fill:url(#gelato-light_svg__SVGID_00000114057725816967326450000014517096132597608869_)}.gelato-light_svg__st6{fill:url(#gelato-light_svg__SVGID_00000023975660813101487050000004709825570855533724_)}
  </style>
  <g id="gelato-light_svg__Layer_2">
    <defs>
      <path id="gelato-light_svg__SVGID_1_" d="M19.9 3c8.7 0 15.8 7.1 15.8 15.8 0 8.7-7.1 15.8-15.8 15.8-8.7 0-15.8-7.1-15.8-15.8C4.1 10.1 11.2 3 19.9 3z"/>
    </defs>
    <clipPath id="gelato-light_svg__SVGID_00000048488026511827968360000016181490186797356979_">
      <use xlink:href="#gelato-light_svg__SVGID_1_" style="overflow:visible"/>
    </clipPath>
    <g style="clip-path:url(#gelato-light_svg__SVGID_00000048488026511827968360000016181490186797356979_)">
      <path d="M19.9 3c8.7 0 15.8 7.1 15.8 15.8 0 8.7-7.1 15.8-15.8 15.8-8.7 0-15.8-7.1-15.8-15.8C4.1 10.1 11.2 3 19.9 3z" style="fill:#fb43ff"/>
      <linearGradient id="gelato-light_svg__SVGID_00000042011589247751486870000017248190041806825605_" x1="12.585" x2="26.588" y1="32.241" y2="6.81" gradientTransform="matrix(1 0 0 -1 0 37.776)" gradientUnits="userSpaceOnUse">
        <stop offset="0" style="stop-color:#ff9fb2"/>
        <stop offset="1" style="stop-color:#a3c9ff"/>
      </linearGradient>
      <path d="M19.9 3c8.7 0 15.8 7.1 15.8 15.8 0 8.7-7.1 15.8-15.8 15.8-8.7 0-15.8-7.1-15.8-15.8C4.1 10.1 11.2 3 19.9 3z" style="fill:url(#gelato-light_svg__SVGID_00000042011589247751486870000017248190041806825605_)"/>
      <linearGradient id="gelato-light_svg__SVGID_00000091696515027825773620000007859308844056767361_" x1="15.448" x2="26.135" y1="35.685" y2="-4.498" gradientTransform="matrix(1 0 0 -1 0 37.776)" gradientUnits="userSpaceOnUse">
        <stop offset="0" style="stop-color:#ffd1a8"/>
        <stop offset=".999" style="stop-color:#ff7284"/>
      </linearGradient>
      <path d="M19.9 3c8.7 0 15.8 7.1 15.8 15.8 0 8.7-7.1 15.8-15.8 15.8-8.7 0-15.8-7.1-15.8-15.8C4.1 10.1 11.2 3 19.9 3z" style="fill:url(#gelato-light_svg__SVGID_00000091696515027825773620000007859308844056767361_)"/>
      <radialGradient id="gelato-light_svg__SVGID_00000150082591356782208240000018280516232502471317_" cx="-510.952" cy="599.322" r=".235" gradientTransform="matrix(-36.3777 21.0255 25.1263 43.4728 -33622.645 -15299.62)" gradientUnits="userSpaceOnUse">
        <stop offset=".117" style="stop-color:#846c6b"/>
        <stop offset=".734" style="stop-color:#1c0008"/>
        <stop offset="1" style="stop-color:#5f4a48"/>
      </radialGradient>
      <path d="M25.6 15.6c0 .3-.3.5-.5.4-.7-.1-1.3-.1-1.9 0-1.3.1-2.3.5-3.3.9-.1 0-.1 0-.2.1-1 .4-2 .7-3.1.7-.4 0-.9 0-1.5-.1-.5-.1-.8-.4-.9-.9-.1-.4-.1-.7-.1-1.1 0-3.1 2.5-5.7 5.7-5.7 3.3 0 5.8 2.5 5.8 5.7z" style="fill:url(#gelato-light_svg__SVGID_00000150082591356782208240000018280516232502471317_)"/>
      <linearGradient id="gelato-light_svg__SVGID_00000088848823150205959880000008521145052720768697_" x1="20.24" x2="20.24" y1="20.555" y2="8.318" gradientTransform="matrix(1 0 0 -1 0 37.776)" gradientUnits="userSpaceOnUse">
        <stop offset="0" style="stop-color:#866767"/>
        <stop offset=".469" style="stop-color:#180208"/>
        <stop offset="1" style="stop-color:#2e1015"/>
      </linearGradient>
      <path d="M14.7 18.4c-.4-.1-.8.4-.6.7l5.6 10.2c.1.2.3.2.4 0l6.2-11.2c.2-.4 0-.9-.4-1-1-.2-1.8-.2-2.5-.1-1.1.1-2.1.5-3.1.8-.1 0-.1 0-.2.1-1 .4-2.1.8-3.4.8-.6-.1-1.2-.1-2-.3z" style="fill:url(#gelato-light_svg__SVGID_00000088848823150205959880000008521145052720768697_)"/>
      <linearGradient id="gelato-light_svg__SVGID_00000021805642781276420220000000269474807838359939_" x1="23.165" x2="23.165" y1="20.853" y2="7.503" gradientTransform="matrix(1 0 0 -1 0 37.776)" gradientUnits="userSpaceOnUse">
        <stop offset="0" style="stop-color:#a77874"/>
        <stop offset="1" style="stop-color:#090404"/>
      </linearGradient>
      <path d="M19.9 18.1c0-.1.1-.2.2-.3.1 0 .1 0 .2-.1 1-.4 1.9-.7 3.1-.8.7-.1 1.6-.1 2.5.1.4.1.7.6.4 1l-6.2 11.2c0 .1-.1.1-.2.1V18.1z" style="fill:url(#gelato-light_svg__SVGID_00000021805642781276420220000000269474807838359939_)"/>
    </g>
  </g>
  <path id="gelato-light_svg__Layer_1" d="M50.9 11.1c-.9-.3-1.7-.4-2.5-.4-1.5 0-2.9.4-4.2 1-1.3.7-2.2 1.6-2.9 2.9s-1 2.7-1 4.3.4 3 1.1 4.3c.7 1.3 1.7 2.2 2.9 2.9 1.2.7 2.5 1.1 4.1 1.1 1.4 0 2.7-.3 3.8-.9 1.1-.6 2-1.5 2.7-2.7s1-2.6 1-4.3v-1.1c0-.1-.1-.3-.3-.3H49c-.1 0-.3.1-.3.3v2.3c0 .1.1.3.3.3h3c.1 0 .2.1.2.2-.1.3-.2.7-.3.9-.3.7-.7 1.1-1.3 1.5-.6.3-1.3.5-2.3.5-.8 0-1.5-.3-2.2-.6-.7-.4-1.2-1-1.6-1.8-.4-.8-.6-1.6-.6-2.7 0-1 .2-1.9.6-2.7.4-.8.9-1.4 1.6-1.8.7-.4 1.5-.6 2.3-.6.8 0 1.5.2 2.2.5.5.5 1 1 1.5 1.6.1.1.3.2.4.1l2.4-1.6c.1-.1.2-.2.1-.4-.4-.7-1-1.2-1.6-1.7-.9-.5-1.6-.9-2.5-1.1zm20.3.5 2.8-.7c.2 0 .3.1.3.3v15.6c0 .1-.1.3-.3.3h-2.8c-.1 0-.3-.1-.3-.3v-15c.1-.1.2-.2.3-.2zm33.4 6.6c.4-.3.9-.4 1.4-.4.6 0 1 .2 1.4.4.4.2.7.6 1 1.1s.4 1.1.4 1.8-.1 1.3-.4 1.8c-.2.5-.5.9-1 1.1-.4.3-.9.4-1.4.4s-1-.1-1.4-.4-.7-.6-1-1.1-.4-1.1-.4-1.8.1-1.3.4-1.8.6-.9 1-1.1zm4.6-2.6c-.9-.5-2-.8-3.2-.8-1.1 0-2.2.3-3.2.8s-1.6 1.3-2.2 2.2c-.6 1-.8 2-.8 3.2 0 1.2.3 2.3.8 3.2.5 1 1.3 1.7 2.2 2.2 1 .5 2 .8 3.2.8s2.2-.3 3.2-.8 1.7-1.3 2.2-2.2.8-2 .8-3.2c0-1.2-.3-2.3-.8-3.2-.5-1-1.3-1.7-2.2-2.2zm-24 10.2c0-.1.1 0 0 0l.1.9c0 .1.1.3.3.3h2.8c.1 0 .3-.1.3-.3V15.5c0-.1-.1-.3-.3-.3h-2.8c-.1 0-.3.1-.3.3v1c0 .1-.1.1-.2.1l-.6-.6c-.7-.7-1.7-1-2.8-1-1 0-1.9.3-2.7.8-.8.5-1.4 1.3-1.8 2.2-.4 1-.6 2-.6 3.2 0 1.1.2 2.2.6 3.2s1 1.6 1.8 2.2 1.7.8 2.7.8c1.2 0 2.1-.4 2.9-.9.3-.3.5-.5.6-.7zM84 23.9c-.4.3-.9.4-1.4.4s-1-.1-1.4-.4-.7-.6-1-1.1c-.2-.5-.3-1.1-.3-1.7s.1-1.1.3-1.6c.3-.4.6-.8 1-1.1.4-.3.9-.4 1.4-.4s1 .1 1.4.4c.4.3.7.6 1 1.1.2.4.3 1 .3 1.6s-.1 1.2-.3 1.7c-.3.5-.6.8-1 1.1zm12-6.1s-.1 0 0 0l-.1 4.6c0 1.1.4 1.6 1.3 1.6h1c.1 0 .3.1.3.3v2.4c0 .1-.1.3-.3.3h-1.4c-1.3 0-2.4-.4-3.1-1.1-.8-.8-1.1-1.8-1.1-3.2V18s0-.1-.1-.1h-2c-.2 0-.3-.2-.3-.4l.7-2.1c0-.1.1-.2.3-.2h1.3s.1 0 .1-.1v-3.2c0-.1.1-.2.2-.3l2.9-.8c.1 0 .2.1.2.2v4s0 .1.1.1h2.3c.2 0 .3.2.3.4l-.7 2.1c0 .1-.1.2-.3.2H96zm-32.7-3c1.1 0 2.1.3 2.9.8s1.5 1.3 2 2.2c.5 1 .7 2 .7 3.2v.6c0 .1-.1.3-.3.3h-7.5c-.1 0-.2.1-.2.2.1.3.1.6.2.8.3.5.6.9 1 1.1.4.2.9.4 1.5.4s1.1-.1 1.5-.3c.4-.2.7-.4 1-.8.1-.1.3-.1.4 0l1.9 1.6c.1.1.1.3 0 .4-.5.7-1.2 1.2-2 1.5-.9.4-1.8.6-2.9.6-1.2 0-2.3-.3-3.2-.8-1-.5-1.7-1.3-2.2-2.2-.5-1-.8-2-.8-3.2 0-1.2.3-2.3.8-3.2.5-1 1.2-1.6 2.1-2.2 1-.7 2-1 3.1-1zm-2.1 4.8c-.1 0-.2-.1-.2-.2.1-.5.3-.8.5-1.1.4-.6 1-.9 1.8-.9s1.4.3 1.8.9c.2.3.3.7.5 1.1 0 .1-.1.2-.2.2h-4.2z" style="fill-rule:evenodd;clip-rule:evenodd"/>
</svg>
