<svg xmlns="http://www.w3.org/2000/svg" fill="none" viewBox="0 0 118 24">
  <g clip-path="url(#immutable_svg__a)">
    <g clip-path="url(#immutable_svg__b)">
      <path fill="#000" fill-rule="evenodd" d="M0 12C0 5.373 5.418 0 12.102 0c6.683 0 12.101 5.373 12.101 12s-5.418 12-12.101 12C5.418 24 0 18.627 0 12Zm12.593-7.12a1.058 1.058 0 0 0-1.016-.03 9.883 9.883 0 0 0-.637.349 22.08 22.08 0 0 1-.324.185 13.387 13.387 0 0 1 .198.118l.98.562c.98.562 1.96 1.124 2.944 1.678.255.145.355.33.354.615-.006 1.095-.005 2.188-.004 3.282v1.421l.358-.204c.343-.195.67-.381.993-.573.044-.026.08-.104.08-.158.004-1.45.006-2.9 0-4.35a1.063 1.063 0 0 0-.548-.96 333.217 333.217 0 0 0-3.378-1.934Zm-1.307 14.783.051.026v-.396c-.002-.36-.003-.709.006-1.056.002-.139-.048-.208-.165-.275l-1.8-1.028c-.785-.45-1.57-.899-2.358-1.345-.221-.125-.324-.288-.322-.543.008-.923.007-1.847 0-2.77-.002-.25.098-.408.314-.53.971-.551 1.94-1.107 2.908-1.662l1.031-.59.215-.127-.36-.205c-.318-.18-.626-.356-.93-.537-.11-.065-.187-.055-.292.005a449.635 449.635 0 0 1-3.644 2.085c-.469.264-.685.648-.683 1.177.005 1.173.009 2.345-.001 3.517-.006.551.216.944.703 1.219 1.224.691 2.443 1.39 3.662 2.089l1.536.879c.04.023.08.043.13.067Zm-.059-2.682.11.062-.001-.448c-.001-.345-.002-.677.003-1.008.002-.135-.035-.21-.158-.279-.32-.18-.64-.362-.96-.545-.3-.172-.6-.345-.903-.514a.543.543 0 0 1-.307-.533c.007-.303.005-.605.004-.908l-.001-.389v-.797l-.054.025a.719.719 0 0 0-.06.03l-.399.228c-.27.155-.54.31-.811.46-.096.054-.11.12-.11.216v.194c.002.646.004 1.291-.003 1.937-.001.138.043.21.162.277.827.47 1.653.942 2.478 1.415a1351.033 1351.033 0 0 0 1.01.577ZM9.4 7.72c.234-.135.433-.136.667 0 .684.399 1.372.792 2.06 1.185l.79.451.005.003c.416.239.831.477 1.282.734v-.35c0-.415.001-.813-.006-1.21 0-.052-.066-.12-.12-.15-1.242-.717-2.487-1.43-3.734-2.141-.4-.23-.808-.235-1.209-.007-.86.49-1.719.982-2.578 1.474l-.708.406c-.23.132-.404.318-.496.565-.113.298-.104.602-.096.917.005.162.01.327-.003.495l.061-.032.15-.082.911-.52C7.385 8.88 8.394 8.303 9.4 7.72Zm8.808 8.865c.348-.199.584-.482.617-.88.02-.246.015-.494.01-.751-.002-.118-.005-.237-.005-.36l-.043.02c-.031.015-.053.025-.074.037l-.613.35c-1.738.995-3.477 1.99-5.217 2.983-.092.053-.117.113-.116.213.003.279.002.558.002.836v.478c0 .035.003.069.006.11l.004.06.065-.033c.04-.02.073-.037.107-.056l1.247-.713.01-.005 1.215-.696c.928-.532 1.856-1.063 2.785-1.593Zm-.015-2.644c.391-.224.638-.543.642-.997.009-1.29.005-2.581.002-3.87a.996.996 0 0 0-.425-.844c-.214-.15-.442-.281-.681-.42a23.594 23.594 0 0 1-.328-.19v1.438c-.001 1.1-.002 2.199.005 3.298.002.286-.106.457-.352.596-.83.469-1.658.943-2.486 1.417-.552.316-1.104.632-1.656.946-.107.061-.15.126-.147.25.005.287.005.575.004.864v.431c0 .033.002.066.005.105l.005.07.385-.22.468-.267.819-.468a1996.07 1996.07 0 0 1 3.74-2.14Zm64.03-4.118c-.948 0-1.736.534-2.04 1.049V7.149h-1.84v9.834h1.84v-.912c.304.514 1.092 1.049 2.04 1.049 1.985.034 3.168-1.728 3.146-3.648.022-1.92-1.161-3.683-3.146-3.648Zm-.312 5.822h-.11c-.844.02-1.632-.885-1.619-2.174-.013-1.29.775-2.194 1.619-2.174h.11c.927 0 1.619.843 1.619 2.16 0 1.317-.698 2.188-1.619 2.188ZM32.533 7.149h-1.909v9.834h1.909V7.15Zm10.001 2.675c-.947 0-1.82.391-2.338 1.206-.387-.795-1.162-1.206-2.164-1.206-.85 0-1.639.37-2.117 1.131v-.994h-1.84v7.022h1.84v-3.902c0-.98.67-1.714 1.521-1.714h.11c.754 0 1.107.473 1.107 1.406v4.21h1.84v-3.902c0-.98.664-1.714 1.514-1.714h.11c.754 0 1.094.473 1.094 1.406v4.21h1.84V12.56c0-.83-.201-1.495-.602-1.995-.407-.494-1.043-.741-1.915-.741Zm9.898 1.206c.519-.815 1.39-1.206 2.338-1.206.87 0 1.507.247 1.915.741.402.5.602 1.165.602 1.995v4.423h-1.84v-4.21c0-.933-.339-1.406-1.092-1.406h-.11c-.85 0-1.515.734-1.515 1.714v3.902h-1.84v-4.21c0-.933-.353-1.406-1.106-1.406h-.11c-.851 0-1.522.734-1.522 1.714v3.902h-1.84V9.961h1.84v.994c.477-.761 1.265-1.131 2.116-1.131 1.002 0 1.777.411 2.164 1.206Zm16.275 3.635v-3.23h1.583V9.961h-1.583V7.684h-1.84v2.277H62.94v3.902c0 .981-.658 1.783-1.46 1.783h-.11c-.671 0-1.051-.493-1.051-1.4V9.96h-1.84v4.493c0 .816.201 1.46.602 1.94.394.486.995.727 1.79.727.88 0 1.633-.446 2.069-1.166v1.03h1.84v-5.549h2.088v3.724c0 1.187.643 1.824 1.84 1.824h1.797V15.44h-1.016c-.65 0-.781-.13-.781-.775Zm5.387-4.841c1.785 0 2.975.905 2.975 2.524v3.094c0 .7.02 1.215.068 1.544h-1.729a5.438 5.438 0 0 1-.083-.858c-.442.61-1.19.994-2.096.994-1.272.014-2.343-.83-2.323-2.064 0-.714.242-1.263.726-1.647.485-.384 1.107-.604 1.868-.665l1.784-.158v-.17c0-.633-.457-1.12-1.134-1.12h-.118c-.664 0-1.1.412-1.141.837h-1.846c.152-1.33 1.307-2.311 3.05-2.311Zm-.386 5.823c.836 0 1.576-.645 1.576-1.53v-.199l-1.535.158c-.27.02-.512.103-.72.247a.696.696 0 0 0-.31.61c0 .433.373.714.878.714h.11Zm12.58-8.498h1.84v9.834h-1.84V7.15Zm6.15 2.675c-2.076-.028-3.39 1.55-3.368 3.648-.035 2.242 1.59 3.676 3.368 3.648 1.735 0 2.856-.96 3.201-2.359h-1.825c-.132.515-.581.885-1.246.885h-.117c-.768 0-1.528-.659-1.598-1.598h4.787c.02-.302.028-.521.028-.659.02-2.05-1.162-3.585-3.23-3.565Zm-1.584 2.818c.042-.83.685-1.344 1.46-1.344h.11c.775 0 1.418.514 1.46 1.344h-3.03Z" clip-rule="evenodd"/>
    </g>
  </g>
  <defs>
    <clipPath id="immutable_svg__a">
      <path fill="#fff" d="M0 0h118v24H0z"/>
    </clipPath>
    <clipPath id="immutable_svg__b">
      <path fill="#fff" d="M0 0h119v24H0z"/>
    </clipPath>
  </defs>
</svg>
