<svg xmlns="http://www.w3.org/2000/svg" fill="none" viewBox="0 0 124 24">
  <g fill="#fff" fill-rule="evenodd" clip-path="url(#iota-evm-logo-dark_svg__a)" clip-rule="evenodd">
    <path d="M101.648 12V4.15h4.737v.844h-3.787v2.652h3.542v.843h-3.542v2.668h3.848V12h-4.798Zm7.096-7.85 2.33 6.608h.092l2.33-6.607h.997L111.611 12h-.981l-2.883-7.85h.997Zm8.43 0h-1.135V12h.889V6.036h.077L119.458 12h.858l2.454-5.964h.076V12h.889V4.15h-1.134l-2.667 6.516h-.092l-2.668-6.515ZM20.156 1.439a1.44 1.44 0 0 1-1.442 1.439 1.44 1.44 0 0 1-1.443-1.439A1.44 1.44 0 0 1 18.713 0a1.44 1.44 0 0 1 1.443 1.439Zm1.623 20.326a1.44 1.44 0 0 1-1.442 1.439 1.44 1.44 0 0 1-1.443-1.44 1.44 1.44 0 0 1 1.443-1.438 1.44 1.44 0 0 1 1.442 1.439Zm-2.653-15.29c.669 0 1.21-.54 1.21-1.207a1.21 1.21 0 0 0-1.21-1.208c-.669 0-1.21.54-1.21 1.208a1.21 1.21 0 0 0 1.21 1.207Zm4.431-.745a1.21 1.21 0 0 1-1.21 1.208 1.21 1.21 0 0 1-1.211-1.208 1.21 1.21 0 0 1 1.21-1.208c.67 0 1.211.541 1.211 1.208Zm-4.843 3.803a1.03 1.03 0 1 0 0-2.056 1.03 1.03 0 1 0 0 2.056Zm4.25-.59a1.03 1.03 0 0 1-1.03 1.027c-.569 0-1.03-.46-1.03-1.028a1.03 1.03 0 0 1 1.03-1.027c.57 0 1.03.46 1.03 1.027Zm1.546 2.03a1.03 1.03 0 1 0 0-2.056c-.569 0-1.03.46-1.03 1.027a1.03 1.03 0 0 0 1.03 1.028Zm-2.628.565a.9.9 0 0 1-.901.899.9.9 0 1 1 .901-.9ZM17.761 12a.9.9 0 1 0-.902-.9.9.9 0 0 0 .902.9Zm6.723.54a.9.9 0 1 1-1.8-.003.9.9 0 0 1 1.8.002Zm-4.791 1.772a.772.772 0 1 0 .002-1.543.772.772 0 0 0-.002 1.543Zm3.375.206a.772.772 0 1 1-1.544-.002.772.772 0 0 1 1.544.002Zm-6.57-.668a.772.772 0 1 0 .002-1.544.772.772 0 0 0-.002 1.544Zm2.422 1.08a.643.643 0 1 1-1.287-.002.643.643 0 0 1 1.287.001Zm.463 2.415a.566.566 0 1 0 .002-1.132.566.566 0 0 0-.002 1.132Zm-.901-.103a.463.463 0 1 1-.926-.001.463.463 0 0 1 .926.001Zm-1.675-.874a.566.566 0 1 0 .002-1.132.566.566 0 0 0-.002 1.132ZM15.7 14.493a.643.643 0 1 1-1.287-.002.643.643 0 0 1 1.287.002Zm-.67-4.19a.643.643 0 1 0 .001-1.286.643.643 0 0 0-.001 1.287Zm.85-2.826a.566.566 0 1 1-1.132-.001.566.566 0 0 1 1.132.001Zm.051-1.284a.463.463 0 1 0 .001-.927.463.463 0 0 0 0 .927Zm-.515-1.44a.566.566 0 1 1-1.132 0 .566.566 0 0 1 1.132 0Zm5.436 11.795a.643.643 0 1 0 .002-1.287.643.643 0 0 0-.002 1.287ZM14.025 3.931a.643.643 0 1 1-1.286-.001.643.643 0 0 1 1.286.001Zm-.206 3.367a.643.643 0 1 0 .002-1.287.643.643 0 0 0-.002 1.287Zm.052 1.824a.772.772 0 1 1-1.544-.002.772.772 0 0 1 1.544.002Zm-3.118.77a.9.9 0 1 0 .002-1.8.9.9 0 0 0-.002 1.8Zm-1.7-.41a1.03 1.03 0 0 1-1.03 1.028 1.03 1.03 0 1 1 0-2.056c.569 0 1.03.46 1.03 1.028Zm-4.019 2.493c.669 0 1.211-.541 1.211-1.208a1.21 1.21 0 0 0-1.21-1.208c-.67 0-1.212.54-1.212 1.208a1.21 1.21 0 0 0 1.211 1.208Zm-1.649 1.027a1.44 1.44 0 0 1-1.442 1.439A1.44 1.44 0 0 1 .5 13.002a1.44 1.44 0 0 1 1.443-1.439 1.44 1.44 0 0 1 1.442 1.44Zm.438-4.034c.67 0 1.211-.54 1.211-1.208a1.21 1.21 0 0 0-1.21-1.208c-.67 0-1.211.541-1.211 1.208a1.21 1.21 0 0 0 1.21 1.208Zm4.019-2.493a1.03 1.03 0 0 1-1.03 1.028 1.03 1.03 0 1 1 0-2.056c.569 0 1.03.46 1.03 1.028ZM6.374 4.78a1.03 1.03 0 1 0 0-2.056c-.57 0-1.03.46-1.03 1.028a1.03 1.03 0 0 0 1.03 1.028Zm3.632-1.516a.9.9 0 0 1-.902.9.9.9 0 1 1 .902-.9Zm1.443.9a.772.772 0 1 0 .002-1.544.772.772 0 0 0-.002 1.544Zm1.21 1.952a.772.772 0 1 1-1.543-.002.772.772 0 0 1 1.543.002Zm-3.117.797a.9.9 0 1 0-.901-.9.9.9 0 0 0 .901.9Zm-2.086 6.373a.463.463 0 1 1-.927-.001.463.463 0 0 1 .927 0Zm1.39.231a.566.566 0 1 0 .002-1.132.566.566 0 0 0-.001 1.132Zm2.68-1.413a.643.643 0 1 1-1.286-.002.643.643 0 0 1 1.286.002Zm-.155 2.698a.772.772 0 1 0 .002-1.544.772.772 0 0 0-.002 1.544Zm-1.828-.155a.643.643 0 1 1-1.287-.001.643.643 0 0 1 1.287.002Zm-2.834.617a.566.566 0 1 0 .001-1.132.566.566 0 0 0-.001 1.132Zm.67 1.13a.643.643 0 1 1-1.287 0 .643.643 0 0 1 1.286 0Zm1.983.977a.772.772 0 1 0 .002-1.543.772.772 0 0 0-.002 1.543Zm3.968-1.233a.9.9 0 0 1-.902.9.9.9 0 1 1 .902-.9Zm.901 3.135c.57 0 1.03-.46 1.03-1.028a1.03 1.03 0 0 0-1.03-1.028c-.57 0-1.03.46-1.03 1.028a1.03 1.03 0 0 0 1.03 1.028Zm-2.885-.591a.9.9 0 1 1-1.801-.002.9.9 0 0 1 1.8.002Zm-3.04 2.646a.9.9 0 1 0-.902-.899.9.9 0 0 0 .902.9Zm2.808 1.234a1.03 1.03 0 0 1-1.03 1.028c-.57 0-1.031-.46-1.031-1.028a1.03 1.03 0 0 1 1.03-1.028c.57 0 1.03.46 1.03 1.028ZM14.824 24c.668 0 1.21-.54 1.21-1.208a1.21 1.21 0 0 0-1.21-1.207c-.669 0-1.211.54-1.211 1.207A1.21 1.21 0 0 0 14.823 24Zm-1.572-3.186a1.03 1.03 0 0 1-1.03 1.027 1.03 1.03 0 0 1-1.03-1.027 1.03 1.03 0 0 1 1.03-1.028c.569 0 1.03.46 1.03 1.027Zm3.555.616c.67 0 1.211-.54 1.211-1.207a1.21 1.21 0 0 0-1.21-1.208c-.67 0-1.211.54-1.211 1.208a1.21 1.21 0 0 0 1.21 1.207Zm-8.81-3.083a.772.772 0 1 1-1.544-.002.772.772 0 0 1 1.544.002ZM51.22 4c-4.282 0-7.924 3.68-7.924 8.026 0 4.373 3.667 8.051 7.924 8.026 4.283 0 7.898-3.653 7.898-8.026C59.118 7.653 55.528 4 51.22 4Zm0 1.647c3.335 0 6.129 2.933 6.129 6.38 0 3.473-2.794 6.403-6.129 6.403-3.333 0-6.153-2.93-6.153-6.404 0-3.446 2.82-6.379 6.153-6.379ZM35.833 4.284h1.77v15.51h-1.77V4.283Zm32.362 1.672h-5.204V4.284h12.155v1.672H69.94v13.837h-1.768l.024-13.837Zm10.36 13.837 5.872-13.349 5.823 13.35h1.923L85.736 5.158a1.43 1.43 0 0 0-1.333-.875c-.564 0-1.104.334-1.335.875l-6.436 14.634h1.923Z"/>
  </g>
  <defs>
    <clipPath id="iota-evm-logo-dark_svg__a">
      <path fill="#fff" d="M0 0h124v24H0z"/>
    </clipPath>
  </defs>
</svg>
