<svg xmlns="http://www.w3.org/2000/svg" fill="none" viewBox="0 0 62 24">
  <g clip-path="url(#kinto-dark_svg__a)">
    <path fill="url(#kinto-dark_svg__b)" d="M18.85 18.85c6.868-1.745 6.865-11.96 0-13.701-1.74-6.868-11.961-6.863-13.7.001-6.868 1.741-6.866 11.963 0 13.7 1.742 6.869 11.962 6.864 13.7 0ZM21.52 7.455c3.385 3.22 1.922 9.277-2.506 10.641a7.08 7.08 0 0 0 .086-1.042c4.404-1.7 4.404-8.405 0-10.106a7.129 7.129 0 0 0-.089-1.042c.918.304 1.78.822 2.508 1.55h.001ZM17.069 12a7.049 7.049 0 0 0 1.646-2.665c1.904 1.191 1.905 4.138 0 5.329A7.04 7.04 0 0 0 17.07 12Zm-.4 3.844c1.246 4.54-4.823 7.982-8.069 4.53-2.06-1.982-1.76-5.46.43-7.227.283-.276.87-.874 1.147-1.147l2.299-2.3c.785-.769 1.61-1.76 2.657-2.142a3.117 3.117 0 0 1-.812 1.637l-.077.074c-1.1 1.1-2.298 2.3-3.398 3.398l-1.577 1.577c-1.495 1.447-1.496 4.014 0 5.458 3.596 3.482 8.913-1.695 5.533-5.38l-.028-.03.669-.669a4.75 4.75 0 0 1 1.225 2.218v.003Zm-11.74.483c-3.565-1.605-3.563-7.044-.001-8.65.03.33.083.66.16.987-2.535 1.39-2.534 5.288 0 6.678-.077.325-.13.655-.159.986v-.001Zm-.157-2.074c-1.425-1.392-1.166-3.846.51-4.916.331.97.882 1.888 1.648 2.664a7.044 7.044 0 0 0-1.647 2.666 3.213 3.213 0 0 1-.51-.415v.001Zm4.933-5.027c-.463-.456-.738-1.061-.842-1.664a4.74 4.74 0 0 1 1.51.995l-.668.669Zm-.882-2.4c.02-.317.087-.632.2-.932.913.296 1.77.801 2.497 1.515l-.668.668a5.45 5.45 0 0 0-2.029-1.253v.001ZM12 6.931a7.049 7.049 0 0 0-2.665-1.646c1.191-1.904 4.138-1.905 5.329 0-.97.33-1.89.884-2.664 1.647v-.001Zm2.73-2.635C11.131.814 5.82 5.992 9.195 9.677l.03.031-.67.67c-4.296-4.564 2.33-11.113 6.843-6.75 1.862 1.802 1.863 4.994 0 6.797l-3.397 3.397c-.965.903-1.879 2.134-3.136 2.618a3.13 3.13 0 0 1 .811-1.634h.002a4199.49 4199.49 0 0 0 3.475-3.474l1.576-1.576c1.497-1.445 1.495-4.016 0-5.459Zm-.434 10.48c.022.022.04.041.064.061.42.461.68 1.02.777 1.604a4.776 4.776 0 0 1-1.51-.994l.67-.67Zm.88 2.401a3.122 3.122 0 0 1-.2.932 6.384 6.384 0 0 1-2.496-1.516l.667-.668c.595.58 1.29.998 2.028 1.252h.001Zm-3.206-.077.031-.03a7.05 7.05 0 0 0 2.664 1.647c-1.192 1.904-4.139 1.906-5.331 0a7.054 7.054 0 0 0 2.635-1.617Zm7.733-7.83a3.81 3.81 0 0 0-.793-.609c.077-.326.13-.654.16-.987 3.563 1.608 3.563 7.043 0 8.65a7.03 7.03 0 0 0-.16-.986c2.167-1.217 2.58-4.332.792-6.067h.001ZM7.454 2.483c6.507-6.046 15.242 3.571 8.66 9.519L14.3 13.816c-1.638 1.497-3.086 3.622-5.271 4.292a3.07 3.07 0 0 1-.2-.931 5.476 5.476 0 0 0 1.996-1.225l5.1-5.099c2.08-2.075 2.058-5.658-.047-7.703-5.215-4.95-12.685 2.438-7.801 7.706l-.668.668c-2.45-2.436-2.429-6.628.047-9.042ZM2.48 16.547C-.905 13.328.557 7.267 4.988 5.906A7.478 7.478 0 0 0 4.9 6.948c-4.405 1.7-4.404 8.41.002 10.107.002.349.032.698.087 1.042a6.385 6.385 0 0 1-2.51-1.55h.002Zm4.975 4.974c-2.687-2.603-2.407-7.14.43-9.52l1.816-1.817c1.64-1.495 3.083-3.624 5.271-4.292.115.3.182.614.2.932a5.45 5.45 0 0 0-2.076 1.3l-3.398 3.399c-1.053 1.089-2.428 2.168-2.877 3.653-1.956 5.356 5.063 9.783 9.053 5.675 2.106-2.047 2.13-5.629.047-7.704l.668-.668c5.75 6.167-3.024 14.855-9.138 9.042h.004Z"/>
    <path fill="url(#kinto-dark_svg__c)" fill-rule="evenodd" d="M35.894 7.615h1.251v8.773h-1.25V7.615Zm-4.387 3.898a.403.403 0 0 1 .051-.531l3.607-3.367h-1.782l-2.614 2.522-1.517 1.464h-.126V7.615h-1.251v8.773h1.25v-2.783c0-.223.093-.437.257-.59l.694-.647a.4.4 0 0 1 .567.015c.013.015.026.03.038.047l2.79 3.958h1.555l-3.52-4.875Zm12.629 3.509a.075.075 0 0 1-.146.028l-2.987-7.435h-2.135v8.773h1.25V8.981a.075.075 0 0 1 .146-.028l2.987 7.435h2.136V7.615h-1.251v7.407Zm2.29-7.407V8.73h2.453a.402.402 0 0 1 .403.404v7.254h1.25V9.134a.402.402 0 0 1 .404-.404h2.452V7.615h-6.961Zm7.059 2.326a4.487 4.487 0 1 0 7.974 4.122 4.487 4.487 0 0 0-7.974-4.122Zm3.987 5.338a3.277 3.277 0 1 0 0-6.555 3.277 3.277 0 0 0 0 6.555Z" clip-rule="evenodd"/>
  </g>
  <defs>
    <linearGradient id="kinto-dark_svg__b" x1="1.509" x2="24" y1="24" y2="24" gradientUnits="userSpaceOnUse">
      <stop stop-color="#CCC"/>
      <stop offset=".172" stop-color="#BDBDBD"/>
      <stop offset="1" stop-color="#AFAFAF"/>
    </linearGradient>
    <linearGradient id="kinto-dark_svg__c" x1="30.018" x2="61.959" y1="16.489" y2="16.489" gradientUnits="userSpaceOnUse">
      <stop stop-color="#CCC"/>
      <stop offset=".172" stop-color="#BDBDBD"/>
      <stop offset="1" stop-color="#AFAFAF"/>
    </linearGradient>
    <clipPath id="kinto-dark_svg__a">
      <path fill="#fff" d="M0 0h61.959v24H0z"/>
    </clipPath>
  </defs>
</svg>
