<svg xmlns="http://www.w3.org/2000/svg" fill="none" viewBox="0 0 64 24">
  <g fill="#0D0D0D" clip-path="url(#kinto-light_svg__a)">
    <path d="M18.72 18.85c6.82-1.745 6.818-11.96 0-13.701-1.728-6.868-11.878-6.863-13.605.001-6.82 1.741-6.82 11.963 0 13.7 1.73 6.869 11.88 6.864 13.606 0Zm2.65-11.395c3.362 3.22 1.91 9.277-2.488 10.641.054-.345.083-.693.086-1.042 4.374-1.7 4.374-8.405 0-10.106a7.156 7.156 0 0 0-.089-1.042 6.315 6.315 0 0 1 2.49 1.55h.002ZM16.953 12a7.059 7.059 0 0 0 1.635-2.665c1.89 1.191 1.891 4.138 0 5.329A7.047 7.047 0 0 0 16.952 12Zm-.398 3.844c1.238 4.54-4.79 7.982-8.013 4.53-2.046-1.982-1.748-5.46.427-7.227.28-.276.863-.874 1.138-1.147l2.284-2.3c.78-.769 1.599-1.76 2.64-2.142a3.125 3.125 0 0 1-.808 1.637l-.076.074c-1.093 1.1-2.282 2.3-3.375 3.398-.455.46-1.11 1.117-1.565 1.577-1.485 1.447-1.486 4.014 0 5.458 3.57 3.482 8.85-1.695 5.494-5.38l-.028-.03.665-.669a4.76 4.76 0 0 1 1.216 2.218l.001.003Zm-11.659.483c-3.54-1.605-3.539-7.044-.001-8.65.03.33.083.66.16.987-2.519 1.39-2.518 5.288 0 6.678a7.007 7.007 0 0 0-.159.986v-.001Zm-.156-2.074c-1.415-1.392-1.158-3.846.506-4.916.33.97.877 1.888 1.637 2.664a7.052 7.052 0 0 0-1.635 2.666 3.195 3.195 0 0 1-.508-.415v.001Zm4.899-5.027c-.46-.456-.733-1.061-.836-1.664a4.705 4.705 0 0 1 1.5.995l-.664.669Zm-.875-2.4c.02-.317.086-.632.198-.932a6.306 6.306 0 0 1 2.48 1.515l-.663.668a5.407 5.407 0 0 0-2.015-1.253v.001Zm3.153.106A6.994 6.994 0 0 0 9.27 5.286c1.183-1.904 4.11-1.905 5.292 0a6.976 6.976 0 0 0-2.646 1.647v-.001Zm2.712-2.635C11.054.814 5.78 5.992 9.132 9.677l.03.031-.665.67C4.229 5.814 10.81-.735 15.292 3.628c1.849 1.802 1.85 4.994 0 6.797l-3.373 3.397c-.959.903-1.866 2.134-3.115 2.618.101-.593.368-1.172.806-1.634h.001c1.118-1.125 2.333-2.347 3.451-3.474l1.566-1.576c1.486-1.445 1.485-4.016 0-5.459Zm-.431 10.48c.021.022.04.041.063.061.418.461.675 1.02.772 1.604a4.74 4.74 0 0 1-1.5-.994l.665-.67Zm.874 2.401a3.139 3.139 0 0 1-.199.932 6.332 6.332 0 0 1-2.48-1.516l.664-.668c.59.58 1.28.998 2.014 1.252Zm-3.184-.077.03-.03a6.995 6.995 0 0 0 2.646 1.647c-1.184 1.904-4.11 1.906-5.294 0a6.997 6.997 0 0 0 2.616-1.617h.002Zm7.68-7.83a3.79 3.79 0 0 0-.788-.609c.076-.326.13-.654.16-.987 3.537 1.608 3.537 7.043 0 8.65a7.057 7.057 0 0 0-.16-.986c2.152-1.217 2.562-4.332.786-6.067h.002ZM7.403 2.483c6.462-6.046 15.137 3.571 8.6 9.519l-1.802 1.815c-1.627 1.497-3.065 3.622-5.236 4.292a3.088 3.088 0 0 1-.198-.931c.72-.253 1.4-.661 1.982-1.225l5.066-5.099c2.066-2.075 2.043-5.658-.047-7.703C10.588-1.8 3.17 5.588 8.02 10.856l-.663.668c-2.434-2.436-2.412-6.628.047-9.042h-.001Zm-4.94 14.065C-.9 13.328.553 7.267 4.954 5.906a7.53 7.53 0 0 0-.088 1.042c-4.376 1.7-4.374 8.41 0 10.107.004.349.033.698.088 1.042a6.335 6.335 0 0 1-2.493-1.55h.002Zm4.941 4.974c-2.669-2.603-2.39-7.14.427-9.52l1.803-1.817c1.628-1.495 3.062-3.624 5.236-4.292.114.3.18.614.198.932a5.408 5.408 0 0 0-2.062 1.3c-1.093 1.1-2.282 2.3-3.375 3.399-1.046 1.089-2.41 2.168-2.857 3.653-1.942 5.356 5.028 9.783 8.99 5.675 2.092-2.047 2.115-5.629.048-7.704l.663-.668c5.71 6.167-3.003 14.855-9.075 9.042h.004Z"/>
    <path fill-rule="evenodd" d="M37.776 7.712h1.245v8.576h-1.245V7.712Zm-4.368 3.81a.388.388 0 0 1 .052-.519l3.59-3.29h-1.773l-2.603 2.464-1.51 1.431h-.126V7.712h-1.245v8.576h1.245v-2.72c0-.219.093-.428.255-.577l.691-.633a.406.406 0 0 1 .602.061l2.779 3.869h1.546l-3.503-4.766Zm12.573 3.43a.074.074 0 0 1-.1.07.074.074 0 0 1-.045-.042l-2.974-7.268h-2.126v8.576h1.245v-7.24a.074.074 0 0 1 .1-.07c.02.007.037.022.045.042l2.974 7.268h2.126V7.712H45.98v7.24Zm2.28-7.24v1.09h2.441c.099 0 .189.035.259.093a.39.39 0 0 1 .143.302v7.09h1.245v-7.09a.39.39 0 0 1 .143-.302.405.405 0 0 1 .258-.092h2.441v-1.09h-6.93Zm7.027 2.273A4.304 4.304 0 0 0 54.79 12c0 2.422 2 4.386 4.467 4.386 2.467 0 4.467-1.964 4.467-4.386s-2-4.386-4.467-4.386a4.5 4.5 0 0 0-3.058 1.189 4.41 4.41 0 0 0-.911 1.182Zm3.969 5.218c1.802 0 3.263-1.434 3.263-3.203 0-1.77-1.461-3.203-3.263-3.203-1.802 0-3.263 1.434-3.263 3.203 0 1.77 1.461 3.203 3.263 3.203Z" clip-rule="evenodd"/>
  </g>
  <defs>
    <clipPath id="kinto-light_svg__a">
      <path fill="#fff" d="M0 0h63.724v24H0z"/>
    </clipPath>
  </defs>
</svg>
