<svg xmlns="http://www.w3.org/2000/svg" fill="none" viewBox="0 0 118 24">
  <g clip-path="url(#lightlink_svg__a)">
    <path fill="url(#lightlink_svg__b)" d="M12.661 14.371c-.435.482-.434 1.272.003 1.755l3.171 3.51c.437.484 1.15.485 1.585.003.435-.481.434-1.271-.002-1.754l-3.171-3.511a1.05 1.05 0 0 0-1.586-.003Z"/>
    <path fill="url(#lightlink_svg__c)" d="M23.452 12.96c.437-.483.438-1.273.003-1.754a1.049 1.049 0 0 0-1.585.003l-4.449 4.924-.794.879c-.985 1.09-2.333.92-2.77.437l1.979 2.19a1.05 1.05 0 0 0 1.585-.002l6.031-6.677Z"/>
    <path fill="url(#lightlink_svg__d)" d="M29.815 11.231a1.05 1.05 0 0 0-1.585.003l-3.171 3.51a1.341 1.341 0 0 0-.003 1.756c.435.481 1.149.48 1.585-.003l3.172-3.511a1.341 1.341 0 0 0 .002-1.755Z"/>
    <path fill="url(#lightlink_svg__e)" d="M17.44 12.629c.436-.482.435-1.272-.002-1.755l-3.17-3.51a1.05 1.05 0 0 0-1.586-.004c-.435.482-.434 1.272.002 1.755l3.172 3.51a1.05 1.05 0 0 0 1.585.004Z"/>
    <path fill="url(#lightlink_svg__f)" d="M6.648 14.04c-.437.483-.438 1.273-.003 1.754a1.05 1.05 0 0 0 1.585-.002l4.449-4.925.794-.879c.985-1.09 2.333-.92 2.77-.437 0 0-1.978-2.19-1.98-2.19a1.05 1.05 0 0 0-1.584.002L6.648 14.04Z"/>
    <path fill="url(#lightlink_svg__g)" d="M.326 15.78c.434.482 1.148.48 1.585-.003l3.171-3.51c.437-.484.438-1.274.003-1.755a1.05 1.05 0 0 0-1.586.003l-3.17 3.51a1.341 1.341 0 0 0-.003 1.755Z"/>
    <path fill="#6A81FF" d="M115.6 16.6h2.4V19h-2.4z"/>
    <path fill="#000" d="M37 19.009V8.69h2.494v8.293h4.292v2.025H37ZM47.926 8.691V19.01h-2.494V8.69h2.494ZM56.617 12.062a1.811 1.811 0 0 0-.252-.56 1.612 1.612 0 0 0-.408-.418 1.75 1.75 0 0 0-.554-.257 2.449 2.449 0 0 0-.685-.09c-.5 0-.934.12-1.3.362-.363.242-.643.595-.841 1.058-.199.46-.298 1.02-.298 1.678 0 .661.096 1.226.287 1.693.192.466.469.822.832 1.068.362.245.802.367 1.32.367.456 0 .843-.073 1.158-.221.32-.151.561-.365.726-.64.165-.275.247-.6.247-.972l.463.055h-2.509v-1.819h4.449v1.366c0 .923-.197 1.714-.59 2.373a3.92 3.92 0 0 1-1.612 1.516c-.681.353-1.466.529-2.352.529-.984 0-1.85-.213-2.595-.64a4.434 4.434 0 0 1-1.743-1.824c-.417-.792-.625-1.733-.625-2.82 0-.847.126-1.598.378-2.253a4.782 4.782 0 0 1 1.053-1.673 4.55 4.55 0 0 1 1.572-1.037 5.225 5.225 0 0 1 1.93-.353c.597 0 1.153.086 1.667.257.517.171.974.413 1.37.725.4.313.724.684.973 1.114.248.43.403.902.463 1.415h-2.524ZM61.077 19.009V8.69h2.493v4.141h4.066V8.691h2.489V19.01h-2.489v-4.146H63.57v4.146h-2.493ZM71.706 10.716V8.691h8.721v2.025h-3.129v8.293H74.84v-8.293h-3.134ZM82 19.009V8.69h2.493v8.293h4.293v2.025H82ZM92.925 8.691V19.01h-2.493V8.69h2.493ZM103.627 8.691V19.01h-2.116l-4.106-5.955h-.066v5.955h-2.493V8.69h2.146l4.06 5.945h.086V8.69h2.489ZM105.55 19.009V8.69h2.493v4.363h.136l3.411-4.363h2.937l-3.657 4.605 3.723 5.713h-2.983l-2.569-4.056-.998 1.26v2.796h-2.493Z"/>
  </g>
  <defs>
    <linearGradient id="lightlink_svg__b" x1="9.672" x2="18.746" y1="11.132" y2="19.231" gradientUnits="userSpaceOnUse">
      <stop offset=".12" stop-color="#6978FF"/>
      <stop offset=".19" stop-color="#5F87FF"/>
      <stop offset=".35" stop-color="#4DA4FF"/>
      <stop offset=".51" stop-color="#40B9FF"/>
      <stop offset=".66" stop-color="#38C6FF"/>
      <stop offset=".81" stop-color="#36CBFF"/>
      <stop offset="1" stop-color="#67FFFC"/>
    </linearGradient>
    <linearGradient id="lightlink_svg__c" x1="7.904" x2="34.91" y1="27.44" y2="2.362" gradientUnits="userSpaceOnUse">
      <stop offset=".39" stop-color="#6978FF"/>
      <stop offset=".44" stop-color="#6184FF"/>
      <stop offset=".65" stop-color="#49AAFF"/>
      <stop offset=".81" stop-color="#3BC2FF"/>
      <stop offset=".91" stop-color="#36CBFF"/>
      <stop offset="1" stop-color="#67FFFC"/>
    </linearGradient>
    <linearGradient id="lightlink_svg__d" x1="29.237" x2="8.413" y1="12.014" y2="29.478" gradientUnits="userSpaceOnUse">
      <stop offset=".05" stop-color="#6978FF"/>
      <stop offset=".12" stop-color="#5F87FF"/>
      <stop offset=".3" stop-color="#4DA4FF"/>
      <stop offset=".48" stop-color="#40B9FF"/>
      <stop offset=".65" stop-color="#38C6FF"/>
      <stop offset=".81" stop-color="#36CBFF"/>
      <stop offset="1" stop-color="#67FFFC"/>
    </linearGradient>
    <linearGradient id="lightlink_svg__e" x1="13.823" x2="17.127" y1="8.168" y2="12.146" gradientUnits="userSpaceOnUse">
      <stop offset=".12" stop-color="#6978FF"/>
      <stop offset=".19" stop-color="#5F87FF"/>
      <stop offset=".35" stop-color="#4DA4FF"/>
      <stop offset=".51" stop-color="#40B9FF"/>
      <stop offset=".66" stop-color="#38C6FF"/>
      <stop offset=".81" stop-color="#36CBFF"/>
      <stop offset="1" stop-color="#67FFFC"/>
    </linearGradient>
    <linearGradient id="lightlink_svg__f" x1="2.857" x2="15.841" y1="22.976" y2="9.177" gradientUnits="userSpaceOnUse">
      <stop offset=".31" stop-color="#6978FF"/>
      <stop offset=".36" stop-color="#5F87FF"/>
      <stop offset=".48" stop-color="#4DA4FF"/>
      <stop offset=".59" stop-color="#40B9FF"/>
      <stop offset=".7" stop-color="#38C6FF"/>
      <stop offset=".81" stop-color="#36CBFF"/>
      <stop offset="1" stop-color="#67FFFC"/>
    </linearGradient>
    <linearGradient id="lightlink_svg__g" x1="14.107" x2=".227" y1="-1.324" y2="13.049" gradientUnits="userSpaceOnUse">
      <stop stop-color="#6978FF"/>
      <stop offset=".09" stop-color="#5F87FF"/>
      <stop offset=".28" stop-color="#4DA4FF"/>
      <stop offset=".46" stop-color="#40B9FF"/>
      <stop offset=".64" stop-color="#38C6FF"/>
      <stop offset=".81" stop-color="#36CBFF"/>
      <stop offset="1" stop-color="#67FFFC"/>
    </linearGradient>
    <clipPath id="lightlink_svg__a">
      <path fill="#fff" d="M0 0h118v24H0z"/>
    </clipPath>
  </defs>
</svg>
