<svg xmlns="http://www.w3.org/2000/svg" fill="none" viewBox="0 0 59 24">
  <g clip-path="url(#lisk-logo_svg__a)">
    <path fill="#1D1D1B" fill-rule="evenodd" d="M9.853.051c0-.068-.068-.068-.137 0l-1.984 3.49v.068l2.053 3.627 5.405 9.58v.136l-2.873 3.285-3.011 3.558c-.069.068 0 .137.068.137h4.516s.069 0 .069-.069l5.61-6.5v-.137L9.854.05Zm-2.258 23.88 3.01-3.558c.07-.068 0-.136-.068-.136H7.253s-.068 0-.068-.069l-2.806-3.284v-.137l4.722-8.348v-.068L7.184 4.84c0-.068-.137-.068-.137 0L0 17.294v.137l5.61 6.5s0 .069.07.069l1.915-.068Zm20.254-4.858c0 .069.068.069.068.069h4.858c.069 0 .069.068.069.068v3.421c0 .069 0 .069-.069.069h-8.279c-.068 0-.068-.069-.068-.069V11.615l3.284-3.832c.069-.068.137-.068.137.069v11.221Zm9.716 3.695c.069 0 .069-.068.069-.068V12.23c0-.068-.069-.136-.137-.068l-3.285 3.832V22.7c0 .068 0 .068.069.068h3.284Zm17.86-5.337 3.489 5.2c0 .069 0 .137-.069.137H55.22s-.069 0-.069-.068l-2.737-4.31c-.068-.07-.136-.07-.136.068v4.174c0 .068 0 .068-.069.068h-3.284c-.069 0-.069-.069-.069-.069V11.615l3.285-3.832c.068-.068.137-.068.137.069v8.28c0 .068.068.136.136.068l2.464-4.174s0-.069.068-.069h3.764c.068 0 .068.069.068.137l-3.353 5.2c-.068.069-.068.069 0 .137ZM38.727 20.58c.753 1.573 2.258 2.395 4.448 2.395 2.121 0 4.38-.958 4.38-3.558 0-2.6-2.053-3.08-3.627-3.422h-.069c-.752-.205-1.437-.41-1.437-.82 0-.343.343-.617.822-.617.547 0 .957.274 1.3.822 0 .068.068.068.068.068l2.6-1.232c.069 0 .069-.068 0-.137-.684-1.505-2.053-2.258-4.037-2.258-2.805 0-4.037 1.78-4.037 3.49 0 2.395 2.053 2.942 3.558 3.353.89.205 1.505.41 1.505.89 0 .273-.136.684-1.026.684-.753 0-1.368-.342-1.642-1.027 0-.068-.069-.068-.137-.068l-2.669 1.437Z" clip-rule="evenodd"/>
  </g>
  <defs>
    <clipPath id="lisk-logo_svg__a">
      <path fill="#fff" d="M0 0h59v24H0z"/>
    </clipPath>
  </defs>
</svg>
