<svg xmlns="http://www.w3.org/2000/svg" fill="none" viewBox="0 0 124 28">
  <g clip-path="url(#lycan-logo-light_svg__a)">
    <path fill="#152024" d="m47.475 27.514 1.637-3.639h-6.706V.12h-3.713v27.394h8.782Zm15.649 0V16.237L67.275.12h-3.792l-2.315 9.318L58.892.12H55.1c1.398 5.159 2.794 11.078 4.192 16.236l.04 11.158h3.792ZM84.88 16.876l-2.076 1.32-1.716 1.08v4.159c0 .6-.36 1-.998 1-.52 0-.998-.24-1.038-.84V4.239c0-.52.439-.84 1.038-.84.479 0 .958.24.998.84v6.598c.639-.36 1.916-1.04 3.792-2.12V3.8C84.88 1.88 83.084 0 81.048 0h-1.797c-2.075 0-3.992 1.6-3.992 3.8v20.075c0 2.12 1.837 3.84 3.992 3.84h1.757c2.075 0 3.872-1.6 3.872-3.84v-6.999Zm20.598 10.638A4927.45 4927.45 0 0 1 101.127.12h-3.513l-4.351 27.394h3.792c.28-2.24.559-4.039.878-6.159h2.874l.918 6.16 3.753-.001ZM99.33 10.278l.998 7.518h-1.956l.958-7.518ZM124 27.514V.12h-3.792v13.597L117.493.12h-3.632v27.394h3.713V14.077l2.714 13.438H124Z"/>
    <mask id="lycan-logo-light_svg__b" width="30" height="28" x="0" y="0" maskUnits="userSpaceOnUse" style="mask-type:luminance">
      <path fill="#fff" d="M29.739 0H0v28h29.739V0Z"/>
    </mask>
    <g fill="#152024" mask="url(#lycan-logo-light_svg__b)">
      <path d="M14.24 17.186v10.639c0 .185-.025.203-.203.145-.396-.127-.79-.256-1.185-.384-.486-.16-.971-.32-1.458-.475a.225.225 0 0 1-.174-.17c-.174-.623-.352-1.245-.532-1.868l-.567-1.965c-.157-.548-.31-1.097-.469-1.645-.242-.84-.487-1.68-.729-2.522-.176-.613-.347-1.227-.522-1.84-.24-.837-.485-1.672-.725-2.508-.179-.623-.35-1.248-.53-1.87-.255-.887-.515-1.774-.771-2.66-.295-1.022-.59-2.044-.882-3.067a.686.686 0 0 1-.02-.186V.21a.817.817 0 0 1 .029-.15.624.624 0 0 1 .152.058 4730.29 4730.29 0 0 1 5.311 3.863c1.024.745 2.05 1.489 3.076 2.231a.43.43 0 0 1 .204.393c-.006 3.526-.008 7.053-.005 10.58M24.25 0c.005.093.01.15.01.206 0 2.195.006 4.39-.008 6.584a3.125 3.125 0 0 1-.175.788c-.168.604-.348 1.206-.522 1.809a982.31 982.31 0 0 0-.533 1.85c-.204.715-.406 1.431-.612 2.146-.213.742-.431 1.483-.644 2.225-.242.845-.478 1.692-.72 2.537-.283.984-.57 1.966-.852 2.95-.298 1.04-.595 2.08-.89 3.12-.257.896-.516 1.792-.77 2.688a.275.275 0 0 1-.202.201c-.873.282-1.745.564-2.617.849-.18.058-.205.044-.208-.14-.002-.059-.001-.117-.001-.175 0-7.005-.002-14.011-.005-21.017a.478.478 0 0 1 .224-.44c2.198-1.589 4.392-3.182 6.583-4.78L24.114.089c.034-.024.07-.046.136-.088M20.582 24.244l4.581-16.038.074-.042c.014.045.035.089.06.13a6238.21 6238.21 0 0 0 4.379 5.51.254.254 0 0 1 .047.264c-.16.532-.304 1.068-.456 1.602-.158.558-.32 1.114-.477 1.671-.098.344-.195.688-.285 1.034a.613.613 0 0 1-.248.37c-.982.706-1.956 1.42-2.933 2.131-1.193.868-2.385 1.735-3.578 2.601l-.985.716c-.041.03-.086.053-.13.08l-.049-.027M9.126 24.295c-.06-.038-.113-.067-.161-.102a10843.324 10843.324 0 0 1-7.546-5.494.437.437 0 0 1-.148-.218c-.26-.9-.51-1.805-.765-2.707a192.35 192.35 0 0 0-.493-1.713.238.238 0 0 1 .05-.239 2838.65 2838.65 0 0 0 4.314-5.43c.047-.059.097-.116.146-.174.113.093 4.607 15.883 4.603 16.077"/>
    </g>
  </g>
  <defs>
    <clipPath id="lycan-logo-light_svg__a">
      <path fill="#fff" d="M0 0h124v28H0z"/>
    </clipPath>
  </defs>
</svg>
