<svg xmlns="http://www.w3.org/2000/svg" fill="none" viewBox="0 0 101 30">
  <mask id="neon_svg__a" width="30" height="30" x="0" y="0" maskUnits="userSpaceOnUse" style="mask-type:luminance">
    <path fill="#fff" d="M30 0H0v30h30V0Z"/>
  </mask>
  <g mask="url(#neon_svg__a)">
    <path fill="#FF86FF" d="M12.835 14.102 1.798 3.072v11.03h11.037Z"/>
    <path fill="#FF86FF" d="m1.542.267 14.096 14.095a.902.902 0 0 1-.668 1.536H.901A.894.894 0 0 1 0 14.997V.895A.901.901 0 0 1 1.542.267Z"/>
    <path fill="#E200F1" d="m17.175 15.898 11.03 11.03v-11.03h-11.03Z"/>
    <path fill="#E200F1" d="M28.458 29.726 14.363 15.631a.901.901 0 0 1 0-1.269.914.914 0 0 1 .667-.26h14.102a.895.895 0 0 1 .895.895v14.102a.894.894 0 0 1-.895.901.914.914 0 0 1-.668-.274"/>
    <path fill="#FF59FF" d="M15.637 15.63 1.542 29.727A.909.909 0 0 1 .874 30a.894.894 0 0 1-.901-.901V14.997a.895.895 0 0 1 .901-.895h14.129a.894.894 0 0 1 .667 1.529"/>
    <path fill="#FF59FF" d="m1.798 26.928 11.037-11.03H1.798v11.03Z"/>
    <path fill="#F41AFA" d="M.267 28.464 14.362 14.37a.88.88 0 0 1 .668-.267.895.895 0 0 1 .894.895v14.102a.896.896 0 0 1-.894.901H.9a.868.868 0 0 1-.633-.267.888.888 0 0 1 0-1.269Z"/>
    <path fill="#F41AFA" d="m14.104 17.173-11.03 11.03h11.03v-11.03Z"/>
    <path fill="#BC00DE" d="M14.362 14.362 28.457.267A.908.908 0 0 1 29.125 0a.895.895 0 0 1 .895.895v14.102a.894.894 0 0 1-.895.901H15.003a.901.901 0 0 1-.667-1.536"/>
    <path fill="#BC00DE" d="m28.205 3.072-11.03 11.03h11.03V3.072Z"/>
    <path fill="#90C" d="M29.739 1.536 15.643 15.63a.933.933 0 0 1-.667.267.894.894 0 0 1-.902-.901V.895A.894.894 0 0 1 14.976 0h14.102a.901.901 0 0 1 .667.26.908.908 0 0 1 0 1.276"/>
    <path fill="#90C" d="m15.9 12.827 11.037-11.03H15.899v11.03Z"/>
  </g>
  <path fill="#000" d="M47.206 7.5c1.124 0 2.126.237 3.008.712.898.474 1.598 1.177 2.1 2.109.5.931.751 2.056.751 3.374v8.568h-2.93v-8.12c0-1.3-.319-2.293-.958-2.979-.64-.703-1.513-1.054-2.619-1.054-1.106 0-1.987.351-2.644 1.054-.64.686-.959 1.679-.959 2.98v8.119H40V7.737h2.955v1.661a4.92 4.92 0 0 1 1.84-1.397c.761-.334 1.565-.501 2.411-.501Zm22.221 7.144c0 .545-.035 1.037-.104 1.476H58.41c.086 1.16.51 2.092 1.27 2.795.76.703 1.694 1.054 2.8 1.054 1.59 0 2.713-.676 3.37-2.03h3.188c-.432 1.336-1.218 2.434-2.359 3.296-1.123.843-2.523 1.265-4.2 1.265-1.365 0-2.591-.308-3.68-.923a6.842 6.842 0 0 1-2.54-2.636c-.606-1.142-.908-2.46-.908-3.954 0-1.494.294-2.803.881-3.928.605-1.143 1.443-2.021 2.515-2.636 1.089-.615 2.333-.923 3.733-.923 1.348 0 2.549.299 3.603.896a6.261 6.261 0 0 1 2.463 2.531c.587 1.072.881 2.311.881 3.717Zm-3.085-.949c-.017-1.107-.406-1.995-1.166-2.662-.76-.668-1.703-1.002-2.826-1.002-1.02 0-1.892.334-2.618 1.002-.726.65-1.158 1.537-1.296 2.662h7.906Zm11.69 8.805c-1.348 0-2.566-.308-3.655-.923a6.785 6.785 0 0 1-2.566-2.636c-.623-1.142-.934-2.46-.934-3.954 0-1.476.32-2.786.96-3.928.64-1.143 1.512-2.021 2.618-2.636 1.106-.615 2.341-.923 3.707-.923 1.365 0 2.6.308 3.707.923 1.106.615 1.978 1.493 2.618 2.636.64 1.142.959 2.452.959 3.928s-.328 2.785-.985 3.928a6.942 6.942 0 0 1-2.696 2.662c-1.123.615-2.368.923-3.733.923Zm0-2.61c.76 0 1.47-.184 2.126-.553.674-.37 1.218-.923 1.633-1.661.415-.738.622-1.635.622-2.69 0-1.054-.199-1.941-.596-2.662-.398-.738-.925-1.291-1.581-1.66a4.268 4.268 0 0 0-2.126-.554 4.27 4.27 0 0 0-2.126.553c-.64.37-1.149.923-1.53 1.661-.38.72-.57 1.608-.57 2.663 0 1.564.39 2.777 1.167 3.638.795.843 1.789 1.265 2.981 1.265ZM95.075 7.5c1.124 0 2.126.237 3.007.712.9.474 1.599 1.177 2.1 2.109.501.931.752 2.056.752 3.374v8.568h-2.93v-8.12c0-1.3-.319-2.293-.959-2.979-.639-.703-1.512-1.054-2.618-1.054-1.106 0-1.987.351-2.644 1.054-.64.686-.959 1.679-.959 2.98v8.119h-2.955V7.737h2.955v1.661a4.922 4.922 0 0 1 1.84-1.397c.761-.334 1.565-.501 2.411-.501Z"/>
</svg>
