<svg xmlns="http://www.w3.org/2000/svg" fill="none" viewBox="0 0 118 24">
  <g clip-path="url(#novastro-dark_svg__a)">
    <path fill="url(#novastro-dark_svg__b)" d="M35.472 1.802c-.395-.69-1.238-1.51-3.025-1.51-1.64 0-4.133.7-7.407 2.082A11.737 11.737 0 0 0 17.926 0C11.352 0 6.005 5.383 6.005 12c0 .457.026.925.078 1.39-.63.485-1.219.957-1.751 1.407-1.16.978-2.603 2.271-3.484 3.604-.942 1.42-1.1 2.699-.47 3.797.395.69 1.242 1.51 3.024 1.51 1.641 0 4.133-.7 7.408-2.081A11.746 11.746 0 0 0 17.926 24c6.573 0 11.92-5.383 11.92-12 0-.458-.026-.924-.078-1.387.598-.46 1.16-.91 1.676-1.344l.078-.066.076-.064h.003c1.145-.973 2.543-2.238 3.404-3.54.941-1.422 1.098-2.699.47-3.797h-.003Zm-26.894 12.7c1.952-1.433 4.25-2.95 6.648-4.39l4.162 7.259.85-.487c.076-.042.152-.087.227-.131l.14-.082c.277-.161.554-.324.827-.485l.216-.127a93.117 93.117 0 0 0 5.816-3.754c-.16 5.15-4.398 9.305-9.54 9.305a9.466 9.466 0 0 1-6.595-2.67l-.099-.096-.127.057c-.671.3-1.325.579-1.943.828-1.888.759-3.507 1.27-4.686 1.479-.589.104-1.067.135-1.422.09-.319-.04-.527-.14-.614-.292-.09-.155-.07-.384.055-.684.138-.332.404-.735.79-1.196.77-.92 2.02-2.076 3.616-3.342.505-.403 1.07-.833 1.68-1.281v-.002Zm18.695-5c-1.935 1.42-4.227 2.934-6.64 4.381l-4.162-7.257-.346.198-.665.382-.213.124a95.075 95.075 0 0 0-6.86 4.369c.16-5.151 4.398-9.308 9.54-9.308 1.712 0 3.39.462 4.855 1.34.621.369 1.208.817 1.743 1.332l.099.096.125-.057a60.565 60.565 0 0 1 1.942-.828c1.888-.759 3.507-1.27 4.686-1.479.589-.104 1.069-.135 1.423-.09.318.04.526.14.613.292.09.155.07.384-.055.684-.138.332-.404.734-.79 1.196-.77.922-2.02 2.078-3.616 3.345a55.82 55.82 0 0 1-1.68 1.28Z"/>
    <path fill="#fff" fill-rule="evenodd" d="M43.827 6.97h-2.41v11.993h2.41V10.5l7.008 8.463h2.392V6.97h-2.392v8.464L43.827 6.97ZM59.605 9.9c-1.608 0-2.776.366-3.505 1.096-.717.73-1.076 1.89-1.076 3.512s.358 2.8 1.076 3.53c.73.72 1.897 1.079 3.505 1.079 1.607 0 2.775-.36 3.504-1.08.729-.73 1.094-1.919 1.094-3.529 0-1.61-.365-2.781-1.094-3.511-.73-.732-1.897-1.098-3.504-1.098Zm-1.794 6.51c-.365-.4-.547-1.034-.547-1.902 0-.88.182-1.512.547-1.901.377-.401.974-.6 1.795-.6.82 0 1.412.2 1.777.6.377.387.565 1.033.565 1.901 0 .868-.19 1.503-.565 1.902-.363.4-.956.6-1.777.6-.82 0-1.42-.201-1.795-.6Zm7.07-6.355h2.392l2.392 6.322 2.392-6.322h2.41l-3.52 8.91H68.4l-3.52-8.91Zm10.861 8.413c.547.433 1.396.65 2.546.65h.001c1.402 0 2.428-.33 3.078-.993v.84h2.256v-5.191c0-1.36-.336-2.343-1.008-2.947-.673-.617-1.75-.926-3.231-.926-1.356 0-2.37.251-3.043.754-.673.491-1.078 1.285-1.214 2.382h2.222c.194-.788.844-1.183 1.949-1.183.683 0 1.184.138 1.504.411.33.263.517.698.563 1.303H78.7c-1.322 0-2.278.216-2.871.65-.593.423-.889 1.154-.889 2.125 0 .972.268 1.68.803 2.125Zm3.11-1.303c-1.105 0-1.658-.309-1.658-.925l-.001.001c0-.674.7-1.011 2.102-1.011h2.068v.205c-.113.595-.369 1.034-.768 1.32-.388.273-.969.41-1.744.41Zm6.351-1.045h.002c.125 1.039.535 1.798 1.23 2.277.695.48 1.704.72 3.094.72 1.389 0 2.404-.234 3.042-.702.65-.48.975-1.2.975-2.16 0-.867-.291-1.501-.873-1.9-.581-.412-1.623-.725-3.127-.943-1.367-.183-2.05-.48-2.05-.891 0-.445.54-.668 1.623-.668.625 0 1.098.085 1.418.257.33.16.557.423.683.788h2.222c-.125-1.051-.53-1.81-1.214-2.278-.673-.481-1.743-.72-3.077-.72-1.334 0-2.308.223-2.923.668-.615.434-.923 1.113-.923 2.039 0 .88.292 1.542.873 1.987.58.435 1.567.732 2.957.892 1.492.205 2.239.526 2.239.96 0 .48-.547.72-1.777.72-1.231 0-1.955-.35-2.171-1.046h-2.221v-.002l-.002.002Zm12.814-6.065h2.425v2.107h-2.427v3.427c0 .445.102.77.308.978.206.193.547.29 1.026.29h1.248v2.108h-1.316c-1.23 0-2.124-.246-2.684-.737-.558-.49-.836-1.279-.836-2.364v-3.7h-1.3v-2.108h1.3V8.121h2.256v1.934Zm4.087-.002h2.256v.806c.569-.64 1.448-.96 2.632-.96h.855v2.107h-1.538c-.695 0-1.196.194-1.504.583-.296.389-.445 1.028-.445 1.92v4.454h-2.256v-8.91Zm11.132-.154c-1.607 0-2.775.367-3.504 1.098-.717.73-1.077 1.89-1.077 3.511 0 1.622.36 2.8 1.077 3.53.729.72 1.897 1.079 3.504 1.079s2.775-.36 3.505-1.08c.728-.73 1.094-1.919 1.094-3.529 0-1.61-.366-2.781-1.094-3.511-.73-.732-1.898-1.098-3.505-1.098Zm-1.795 6.51c-.365-.398-.547-1.033-.547-1.9 0-.88.182-1.513.547-1.902.377-.401.974-.6 1.795-.6s1.412.2 1.777.6c.378.387.565 1.033.565 1.901 0 .868-.189 1.503-.565 1.902-.363.4-.956.6-1.777.6s-1.419-.201-1.795-.6Z" clip-rule="evenodd"/>
  </g>
  <defs>
    <linearGradient id="novastro-dark_svg__b" x1="17.926" x2="17.926" y1="0" y2="24" gradientUnits="userSpaceOnUse">
      <stop stop-color="#21F2D9"/>
      <stop offset="1" stop-color="#35DAEF"/>
    </linearGradient>
    <clipPath id="novastro-dark_svg__a">
      <path fill="#fff" d="M0 0h117.835v24H0z"/>
    </clipPath>
  </defs>
</svg>
