<svg xmlns="http://www.w3.org/2000/svg" fill="none" viewBox="0 0 93 24">
  <g fill-rule="evenodd" clip-path="url(#omni_svg__a)" clip-rule="evenodd">
    <path fill="#0564FF" d="M12 5.569 15.217 0l5.569 3.215-3.216 5.569-5.568-3.215Zm5.57 3.216h6.431v6.43h-6.43v-6.43Zm-11.143 6.43L3.214 20.78l5.57 3.215 3.214-5.569-5.568-3.215V8.785H0v6.43h6.427Zm11.144.001-5.569 3.215L15.217 24l5.569-3.215-3.215-5.569ZM3.216 3.218 8.785.003 12 5.572 6.431 8.787l-3.215-5.57Z"/>
    <path fill="#000" d="M31.939 19.424c1.782 1.984 4.197 2.961 7.243 2.961 2.99 0 5.404-.977 7.244-2.96 1.81-1.955 2.73-4.542 2.73-7.732 0-3.162-.92-5.75-2.73-7.761C44.586 1.977 42.172 1 39.182 1c-3.047 0-5.461.977-7.243 2.932-1.84 2.012-2.76 4.599-2.76 7.76 0 3.22.92 5.778 2.76 7.732Zm12.187-1.954c-1.236 1.437-2.874 2.156-4.944 2.156s-3.736-.719-4.944-2.156c-1.264-1.409-1.868-3.334-1.868-5.777 0-2.415.604-4.34 1.868-5.807 1.236-1.408 2.875-2.127 4.944-2.127 2.041 0 3.68.719 4.944 2.127 1.207 1.438 1.84 3.363 1.84 5.807 0 2.472-.633 4.397-1.84 5.777Zm45.33-12.475h2.932V1.92h-2.932v3.075Zm.029 16.93h2.874V7.094h-2.874v14.831ZM85.727 8.128c-.92-.92-2.214-1.38-3.823-1.38-1.984 0-3.536.863-4.657 2.559V7.094h-2.76v14.831h2.875v-8.364c0-1.38.374-2.443 1.15-3.19.747-.72 1.61-1.093 2.587-1.093 2.07 0 3.133 1.035 3.133 3.104v9.543h2.874V11.98c0-1.667-.46-2.932-1.38-3.852Zm-18.699-1.38c1.61 0 2.846.49 3.766 1.438.89.948 1.35 2.213 1.35 3.794v9.945h-2.902v-9.571c0-2.041-.949-3.076-2.846-3.076-1.035 0-1.868.402-2.5 1.178-.662.777-.978 1.898-.978 3.335v8.134h-2.874v-9.571c0-2.041-.977-3.076-2.874-3.076-1.035 0-1.869.402-2.501 1.178-.661.805-.977 1.898-.977 3.335v8.134h-2.875V7.094h2.76v2.213c1.006-1.696 2.443-2.558 4.282-2.558 2.242 0 3.766.948 4.57 2.788 1.035-1.84 2.587-2.788 4.6-2.788Z"/>
  </g>
  <defs>
    <clipPath id="omni_svg__a">
      <path fill="#fff" d="M0 0h93v24H0z"/>
    </clipPath>
  </defs>
</svg>
