<svg xmlns="http://www.w3.org/2000/svg" fill="none" viewBox="0 0 118 24">
  <g clip-path="url(#polygon-zkevm-dark_svg__a)">
    <path fill="#fff" d="M34.316 22.453V7.327h2.266l.198 1.227h.12c.634-.831 1.745-1.424 3.257-1.424 2.782 0 5.044 2.259 5.044 5.622 0 3.362-2.227 5.622-5.048 5.622-1.508 0-2.544-.633-3.1-1.345h-.118v5.384h-2.623v.04h.004Zm8.262-9.701c0-1.978-1.27-3.21-2.822-3.21s-2.821 1.227-2.821 3.21c0 1.982 1.27 3.208 2.821 3.208 1.552 0 2.822-1.226 2.822-3.208ZM46.51 12.752c0-3.288 2.385-5.622 5.52-5.622 3.178 0 5.52 2.378 5.52 5.622 0 3.287-2.386 5.622-5.52 5.622-3.179 0-5.52-2.374-5.52-5.622Zm8.416 0c0-1.939-1.27-3.21-2.9-3.21-1.588 0-2.902 1.267-2.902 3.21 0 1.942 1.31 3.208 2.901 3.208 1.592 0 2.901-1.266 2.901-3.208ZM59.454 18.176V3.169h2.623v15.007h-2.623ZM71.846 7.327h2.782l-4.726 13.187c-.476 1.306-1.111 1.939-2.822 1.939h-2.539v-2.418h2.143c.396 0 .595-.198.714-.514l.238-.712-4.448-11.486h2.781l2.822 7.525h.436l2.544-7.525h.075v.004ZM75.144 18.734h2.662c.12.712.834 1.662 2.504 1.662 1.587 0 2.623-.99 2.623-2.497v-1.503h-.119c-.595.633-1.666 1.186-3.02 1.186-2.781 0-4.963-2.136-4.963-5.226s2.142-5.226 4.964-5.226c1.428 0 2.504.593 3.178 1.384h.12l.198-1.187h2.266V17.9c0 2.892-1.945 4.791-5.242 4.791-3.703 0-5.092-2.413-5.171-3.956Zm7.745-6.378c0-1.701-1.19-2.892-2.742-2.892-1.508 0-2.702 1.186-2.702 2.892s1.19 2.892 2.702 2.892 2.742-1.19 2.742-2.892ZM87.338 12.752c0-3.288 2.385-5.622 5.52-5.622 3.178 0 5.519 2.378 5.519 5.622 0 3.287-2.385 5.622-5.52 5.622-3.178 0-5.52-2.374-5.52-5.622Zm8.42 0c0-1.939-1.31-3.21-2.9-3.21-1.588 0-2.902 1.267-2.902 3.21 0 1.942 1.31 3.208 2.901 3.208 1.587 0 2.901-1.266 2.901-3.208ZM100.206 18.176V7.327h2.266l.199 1.029h.119c.436-.475 1.507-1.226 3.138-1.226 2.505 0 4.29 1.78 4.29 4.554v6.531h-2.623V12.04c0-1.385-.992-2.418-2.345-2.418a2.403 2.403 0 0 0-2.425 2.418v6.175h-2.619v-.04Z"/>
    <path fill="url(#polygon-zkevm-dark_svg__b)" d="m20.178 16.91 6.432-3.723c.357-.198.555-.554.555-.95V4.791c0-.395-.198-.751-.555-.95L20.178.12a1.114 1.114 0 0 0-1.111 0L12.63 3.842a1.065 1.065 0 0 0-.555.95v13.265l-4.528 2.616-4.527-2.616V12.87l4.527-2.615 2.98 1.701V8.47L8.104 7.086c-.159-.08-.357-.159-.556-.159-.198 0-.396.04-.555.159L.555 10.813a1.065 1.065 0 0 0-.555.95v7.446c0 .395.198.751.555.95l6.433 3.722c.357.198.753.198 1.11 0l6.433-3.723c.357-.198.555-.554.555-.95V5.944l.08-.04 4.452-2.576 4.528 2.616v5.187l-4.528 2.61-2.98-1.7v3.485l2.424 1.385c.358.198.754.198 1.116 0Z"/>
  </g>
  <defs>
    <linearGradient id="polygon-zkevm-dark_svg__b" x1="-.045" x2="25.812" y1="19.94" y2="4.786" gradientUnits="userSpaceOnUse">
      <stop stop-color="#A726C1"/>
      <stop offset=".878" stop-color="#803BDF"/>
      <stop offset="1" stop-color="#7B3FE4"/>
    </linearGradient>
    <clipPath id="polygon-zkevm-dark_svg__a">
      <path fill="#fff" d="M0 0h110.214v24H0z"/>
    </clipPath>
  </defs>
</svg>
