<svg xmlns="http://www.w3.org/2000/svg" fill="none" viewBox="0 0 98 24">
  <g clip-path="url(#redstone-dark_svg__a)">
    <mask id="redstone-dark_svg__b" width="24" height="24" x="0" y="0" maskUnits="userSpaceOnUse" style="mask-type:luminance">
      <path fill="#fff" d="M24 0H0v24h24V0Z"/>
    </mask>
    <g fill="#F34242" mask="url(#redstone-dark_svg__b)">
      <path d="M9 9H6V6h3v3Z" opacity=".75"/>
      <path d="M9 12H6V9h3v3ZM9 15H6v-3h3v3Z"/>
      <path d="M9 18H6v-3h3v3ZM18 9h-3V6h3v3Z" opacity=".75"/>
      <path d="M18 12h-3V9h3v3ZM18 15h-3v-3h3v3Z"/>
      <path d="M18 18h-3v-3h3v3Z" opacity=".75"/>
      <path d="M12 18H9v-3h3v3ZM15 18h-3v-3h3v3ZM12 9H9V6h3v3ZM15 9h-3V6h3v3Z"/>
      <path fill-opacity=".25" d="M12 0H9v3h3V0Z"/>
      <path fill-opacity=".75" d="M15 21h-3v-3h3v3ZM21 12h-3v3h3v-3ZM6 15H3v-3h3v3ZM15 3h-3v3h3V3Z"/>
      <path fill-opacity=".25" d="M15 0h-3v3h3V0ZM12 24H9v-3h3v3ZM15 24h-3v-3h3v3ZM24 9h-3v3h3V9ZM24 12h-3v3h3v-3ZM3 15H0v-3h3v3ZM3 12H0V9h3v3Z"/>
      <path fill-opacity=".75" d="M12 3H9v3h3V3ZM12 21H9v-3h3v3ZM21 9h-3v3h3V9ZM6 12H3V9h3v3Z"/>
    </g>
    <path fill="#fff" d="M39.34 17.388h-1.535l-1.773-3.909h-1.438v3.909h-1.396V7.616h3.63a2.502 2.502 0 0 1 2.512 2.513v.838a2.492 2.492 0 0 1-1.828 2.415l1.828 4.006Zm-4.746-5.305h2.234c.628 0 1.116-.488 1.116-1.117v-.837c0-.628-.488-1.117-1.116-1.117h-2.234v3.071Zm13.117-4.467v1.396h-4.747v2.555h4.188v1.396h-4.188v3.029h4.747v1.396h-6.142V7.616h6.142Zm5.857 0a2.511 2.511 0 0 1 2.512 2.513v4.732c0 1.382-1.13 2.527-2.512 2.527h-3.63V7.616h3.63Zm-2.234 8.362h2.234a1.12 1.12 0 0 0 1.117-1.117V10.13c0-.614-.49-1.117-1.117-1.117h-2.234v6.966Zm6.974-1.745h1.396v.558c0 .656.545 1.2 1.2 1.2h.936c.712 0 1.215-.446 1.215-1.06 0-1.926-4.607-2.345-4.607-4.997 0-1.368 1.075-2.318 2.596-2.318h.657a2.603 2.603 0 0 1 2.61 2.597v.419h-1.396v-.42c0-.67-.544-1.2-1.214-1.2h-.657c-.753 0-1.2.35-1.2.922 0 1.48 4.607 2.052 4.607 4.997 0 1.396-1.131 2.457-2.61 2.457h-.936a2.591 2.591 0 0 1-2.596-2.597v-.558Zm8.37-6.617h6.143v1.396h-2.373v8.376h-1.396V9.012h-2.373V7.616Zm12 8.362a1.12 1.12 0 0 0 1.117-1.117V10.13c0-.628-.489-1.117-1.117-1.117h-1.117c-.628 0-1.116.503-1.116 1.117v4.732a1.12 1.12 0 0 0 1.116 1.117h1.117Zm-3.63-1.117V10.13a2.511 2.511 0 0 1 2.513-2.513h1.117a2.502 2.502 0 0 1 2.513 2.513v4.732a2.523 2.523 0 0 1-2.513 2.527h-1.117c-1.382 0-2.512-1.145-2.512-2.527Zm13.117-7.245h1.396v9.772h-2.024L84.814 9.96v7.427H83.42V7.616h2.024l2.722 7.427V7.616Zm9.766 0v1.396h-4.746v2.555h4.187v1.396h-4.187v3.029h4.746v1.396h-6.142V7.616h6.142Z"/>
  </g>
  <defs>
    <clipPath id="redstone-dark_svg__a">
      <path fill="#fff" d="M0 0h98v24H0z"/>
    </clipPath>
  </defs>
</svg>
