<svg xmlns="http://www.w3.org/2000/svg" fill="none" viewBox="0 0 96 24">
  <g clip-path="url(#reya-cronos-logo-dark_svg__a)">
    <g fill="#fff" clip-path="url(#reya-cronos-logo-dark_svg__b)">
      <path d="m4.644 14.873-1.83-3.51V4.19L.65.65h8.702c5.177 0 8.203 2.608 8.203 7.08 0 3.044-1.435 5.218-4.117 6.305l4.335 9.317h-4.366L9.54 14.873H4.644ZM2.814 4.189v7.174h6.539c2.526 0 4.023-1.335 4.023-3.633 0-2.267-1.497-3.54-4.023-3.54H2.813ZM78.998 23.247H74.87L83.066.649h4.066l8.196 22.598h-4.19l-1.833-5.224-1.148-3.34-7.327 3.34-1.832 5.224Zm5.589-15.859-2.578 7.296-1.179 3.339 7.327-3.34-2.608-7.295c-.186-.587-.404-1.267-.466-1.731-.093.433-.279 1.113-.496 1.731ZM59.19 14.344 51.522.649h4.439l4.47 8.223c.342.618.56 1.113.808 1.67.28-.557.403-.928.807-1.67l4.44-8.223H70.8l-7.638 13.695v8.903H59.19v-8.903ZM43.208 23.247l-11.996-.379-2.098-3.269v-5.997h2.098l-2.098-3.494V4.297h2.098L29.114.649h14.094v3.648H29.114v5.811h13.039v3.494h-13.04v5.997h14.095v3.648Z"/>
    </g>
  </g>
  <defs>
    <clipPath id="reya-cronos-logo-dark_svg__a">
      <path fill="#fff" d="M0 0h96v24H0z"/>
    </clipPath>
    <clipPath id="reya-cronos-logo-dark_svg__b">
      <path fill="#fff" d="M0 0h96v24H0z"/>
    </clipPath>
  </defs>
</svg>
