<svg xmlns="http://www.w3.org/2000/svg" fill="none" viewBox="0 0 118 24">
  <g fill-rule="evenodd" clip-rule="evenodd">
    <path fill="#00E0CA" d="M2.626 4.527a8.522 8.522 0 0 1 12.277.17L12.729 6.87a5.527 5.527 0 0 0-7.95-.098c-2.224 2.224-2.276 5.875-.12 8.165l-2.198 2.197c-3.345-3.528-3.27-9.172.165-12.607Zm9.948 14.946a8.522 8.522 0 0 1-12.277-.17l2.174-2.173a5.527 5.527 0 0 0 7.95.098c2.225-2.224 2.277-5.875.12-8.165l2.198-2.197c3.345 3.528 3.27 9.172-.165 12.607Z"/>
    <path fill="#00121F" d="M33.935 18.37h2.136v-6.195c0-.728.2-1.283.603-1.664.395-.387.9-.581 1.513-.581.613 0 1.114.194 1.502.581.395.381.593.936.593 1.664v6.196h2.136v-6.917c-.034-1.19-.412-2.092-1.135-2.707-.729-.608-1.533-.912-2.412-.912-1.137 0-2.058.41-2.76 1.233h-.04V3.754h-2.136v14.617Zm-9.113-3.177-1.492 1.433c1.383 1.243 2.94 1.865 4.67 1.865 1.275-.013 2.321-.3 3.139-.862.824-.548 1.243-1.327 1.257-2.336 0-.862-.228-1.574-.685-2.135-.49-.575-1.288-.902-2.392-.983l-1.758-.13c-.517-.053-.879-.177-1.083-.37-.225-.175-.33-.379-.317-.612 0-.368.14-.669.42-.903.265-.234.732-.35 1.4-.35.585 0 1.103.083 1.553.25.457.187.89.425 1.298.712l1.319-1.514a6.265 6.265 0 0 0-1.758-1.053 6.685 6.685 0 0 0-1.094-.28 8.678 8.678 0 0 0-1.319-.09c-1.13 0-2.064.267-2.8.802-.756.534-1.141 1.336-1.155 2.405.014.89.307 1.581.879 2.076.559.508 1.284.802 2.177.882l1.88.16c.396.014.713.097.951.25.232.148.348.409.348.783 0 .42-.195.748-.583.982-.388.234-.89.351-1.502.351-1.37 0-2.487-.444-3.353-1.333Zm21.925 3.178h-2.136V7.965h2.136V18.37Zm0-12.521h-2.136V3.754h2.136V5.85Zm2.326 12.52h2.136v-6.195c0-.728.205-1.283.613-1.664.389-.387.89-.581 1.503-.581.613 0 1.117.194 1.513.581.388.381.582.936.582 1.664v6.196h2.136v-6.196c0-.728.201-1.283.603-1.664.396-.387.9-.581 1.513-.581.614 0 1.114.194 1.503.581.388.381.582.936.582 1.664v6.196h2.137v-6.917c-.028-1.19-.402-2.092-1.125-2.707-.729-.608-1.533-.912-2.412-.912-1.397-.014-2.51.44-3.342 1.363a5.288 5.288 0 0 0-1.217-.992c-.45-.234-1.042-.358-1.778-.371-1.145 0-2.068.41-2.77 1.233h-.04V7.965h-2.137V18.37Zm19.354 0h-2.136V7.966h2.136v1.103h.041c.702-.822 1.625-1.233 2.77-1.233.736.013 1.329.137 1.778.37.443.261.849.592 1.216.993.832-.922 1.946-1.377 3.343-1.363.879 0 1.683.304 2.412.912.722.615 1.097 1.517 1.124 2.707v6.917h-2.136v-6.196c0-.728-.194-1.283-.582-1.664-.389-.387-.89-.581-1.503-.581-.613 0-1.117.194-1.513.581-.402.381-.603.936-.603 1.664v6.196h-2.136v-6.196c0-.728-.194-1.283-.582-1.664-.396-.387-.9-.581-1.513-.581-.614 0-1.114.194-1.503.581-.408.381-.613.936-.613 1.664v6.196Zm23.187-4.41v-1.725c-.014-1.37-.447-2.446-1.298-3.228-.838-.768-1.864-1.16-3.077-1.172-.504 0-1.015.09-1.533.27-.525.18-.998.475-1.42.882-.416.401-.757.95-1.023 1.645-.265.681-.398 1.537-.398 2.566 0 1.07.153 1.938.46 2.606.279.695.644 1.237 1.093 1.624.232.188.48.345.746.472.253.147.512.264.778.35.53.16 1.076.241 1.635.241 1.465.013 2.739-.548 3.822-1.684l-1.543-1.293c-.682.675-1.455 1.012-2.32 1.012-.743 0-1.343-.22-1.8-.662-.49-.434-.735-1.069-.735-1.904h6.613ZM85 12.235c.04-.808.262-1.42.664-1.834.409-.394.934-.592 1.574-.592s1.165.198 1.575.592c.415.414.637 1.026.664 1.835H85Zm10.36 6.136h-2.137V7.965h2.136v1.103h.041c.702-.822 1.622-1.233 2.76-1.233.852.013 1.594.28 2.228.802l-1.553 1.814c-.45-.348-.917-.521-1.4-.521-.546 0-1.013.174-1.401.521-.436.34-.661.892-.675 1.654v6.266Z"/>
  </g>
</svg>
