<svg xmlns="http://www.w3.org/2000/svg" fill="none" viewBox="0 0 114 20">
  <mask id="stability_svg__a" width="114" height="20" x="0" y="0" maskUnits="userSpaceOnUse" style="mask-type:luminance">
    <path fill="#fff" d="M113.953 0H0v20h113.953V0Z"/>
  </mask>
  <g mask="url(#stability_svg__a)">
    <path fill="#000" d="M26.302 14.764c1.134 0 1.918-.17 2.353-.513.434-.342.65-.842.65-1.502 0-.543-.165-.97-.497-1.282-.332-.312-.842-.515-1.53-.61l-2.786-.389c-2.075-.282-3.113-1.337-3.113-3.163 0-1.037.398-1.877 1.195-2.52.796-.641 1.966-.963 3.51-.963 1.545 0 2.815.345 3.629 1.035.814.69 1.264 1.6 1.348 2.73h-1.81c-.096-.742-.403-1.32-.922-1.732-.519-.412-1.273-.619-2.262-.619-.99 0-1.645.18-2.109.54-.464.358-.697.85-.697 1.475 0 .448.133.816.398 1.105.265.289.67.474 1.213.556l2.95.424c1.098.154 1.933.487 2.506 1 .573.512.86 1.24.86 2.182 0 2.44-1.628 3.659-4.886 3.659-1.834 0-3.173-.398-4.018-1.194-.844-.795-1.267-1.805-1.267-3.03h1.81c.06 1.873 1.219 2.81 3.474 2.81h.001ZM36.003 5.608h-4.18V4.141H42.03v1.467h-4.163v10.288h-1.864V5.607ZM50.88 15.895l-1.067-2.793h-5.828l-1.068 2.793h-1.881l4.47-11.755h2.804l4.47 11.755h-1.9Zm-1.628-4.26L46.899 5.43l-2.353 6.205h4.706ZM54.226 4.141h6.135c1.194 0 2.075.265 2.642.796.567.53.85 1.226.85 2.086 0 .801-.23 1.44-.688 1.917a2.912 2.912 0 0 1-1.682.876c.748.106 1.357.403 1.828.892.47.49.706 1.158.706 2.007 0 .978-.323 1.752-.968 2.324-.646.572-1.584.857-2.815.857h-6.008V4.141Zm5.465 5.002c.76 0 1.318-.147 1.674-.441.356-.294.533-.748.533-1.361s-.145-1.04-.434-1.317c-.29-.277-.802-.416-1.538-.416h-3.837v3.535h3.602Zm.326 5.285c.7 0 1.215-.179 1.547-.539.332-.36.498-.822.498-1.388 0-1.343-.79-2.015-2.37-2.015h-3.603v3.942h3.928ZM65.826 14.428h2.462v-8.82h-2.462V4.141h6.788v1.467h-2.462v8.82h2.462v1.467h-6.788v-1.467ZM74.876 4.141h1.864v10.287h6.1v1.467h-7.964V4.142ZM84.106 14.428h2.462v-8.82h-2.462V4.141h6.787v1.467h-2.461v8.82h2.461v1.467h-6.787v-1.467ZM96.339 5.608h-4.18V4.141h10.207v1.467h-4.163v10.288h-1.864V5.607ZM105.05 4.141l2.443 4.543.941 1.732c.326-.53.652-1.107.977-1.732l2.461-4.543h2.081l-4.578 7.866v3.889h-1.864v-3.889l-4.579-7.866h2.118Z"/>
    <path fill="#0A0A0A" d="m0 15.553 7.949-4.463 7.948 4.474L7.95 20 0 15.553Z"/>
    <path fill="#3E7CB1" d="M0 4.462 7.949 8.9v8.836L0 13.383v-8.92Z"/>
    <path fill="#30C5FF" d="M15.898 4.474 7.948 8.91v8.837l7.95-4.352V4.474Z"/>
    <path fill="#41EEF9" d="M0 4.462 7.949 0l7.948 4.474L7.95 8.91 0 4.462Z"/>
  </g>
</svg>
