<svg xmlns="http://www.w3.org/2000/svg" fill="none" viewBox="0 0 114 24">
  <mask id="stability-dark_svg__a" width="114" height="20" x="0" y="2" maskUnits="userSpaceOnUse" style="mask-type:luminance">
    <path fill="#fff" d="M113.953 2H0v20h113.953V2Z"/>
  </mask>
  <g mask="url(#stability-dark_svg__a)">
    <path fill="#fff" d="M26.302 16.764c1.134 0 1.918-.17 2.353-.513.434-.342.65-.842.65-1.502 0-.543-.165-.97-.497-1.282-.332-.312-.842-.515-1.53-.61l-2.786-.389c-2.075-.282-3.113-1.337-3.113-3.163 0-1.037.398-1.877 1.195-2.52.796-.641 1.966-.963 3.51-.963 1.545 0 2.815.345 3.629 1.035.814.69 1.264 1.6 1.348 2.73h-1.81c-.096-.742-.403-1.32-.922-1.732-.519-.412-1.273-.619-2.262-.619-.99 0-1.645.18-2.109.54-.464.358-.697.85-.697 1.475 0 .448.133.816.398 1.104.265.29.67.475 1.213.557l2.95.424c1.098.154 1.933.487 2.506 1 .573.512.86 1.24.86 2.182 0 2.44-1.628 3.659-4.886 3.659-1.834 0-3.173-.398-4.018-1.194-.844-.795-1.267-1.805-1.267-3.03h1.81c.06 1.873 1.219 2.81 3.474 2.81h.001ZM36.003 7.608h-4.18V6.141h10.206v1.467h-4.162v10.287h-1.864V7.608ZM50.88 17.895l-1.068-2.793h-5.827l-1.068 2.793h-1.882l4.47-11.755h2.805l4.47 11.755h-1.9Zm-1.629-4.26L46.9 7.43l-2.353 6.205h4.706ZM54.226 6.141h6.135c1.194 0 2.075.265 2.642.796.566.53.85 1.226.85 2.086 0 .801-.23 1.44-.688 1.917-.458.477-1.02.77-1.682.876.748.106 1.357.403 1.828.892.47.49.705 1.158.705 2.007 0 .978-.322 1.752-.967 2.324-.646.572-1.584.857-2.815.857h-6.008V6.141Zm5.465 5.002c.76 0 1.318-.147 1.674-.441.356-.294.533-.748.533-1.361s-.145-1.04-.434-1.317c-.29-.277-.802-.416-1.539-.416H56.09v3.535h3.602Zm.325 5.285c.7 0 1.216-.179 1.548-.539.332-.36.498-.822.498-1.388 0-1.343-.79-2.015-2.371-2.015h-3.602v3.942h3.928ZM65.826 16.428h2.462v-8.82h-2.462V6.141h6.787v1.467h-2.461v8.82h2.461v1.467h-6.787v-1.467ZM74.876 6.141h1.864v10.287h6.1v1.467h-7.964V6.141ZM84.106 16.428h2.462v-8.82h-2.462V6.141h6.787v1.467h-2.461v8.82h2.461v1.467h-6.787v-1.467ZM96.339 7.608h-4.18V6.141h10.206v1.467h-4.162v10.287h-1.864V7.608ZM105.05 6.141l2.443 4.543.941 1.732c.326-.53.652-1.107.977-1.732l2.461-4.543h2.081l-4.578 7.866v3.888h-1.864v-3.888l-4.579-7.866h2.118Z"/>
    <path fill="#fff" fill-rule="evenodd" d="m7.949 12.975 8.153 4.59-8.153 4.55-8.154-4.562 8.154-4.578ZM.204 17.552l7.745 4.333 7.744-4.321-7.744-4.36-7.745 4.348Z" clip-rule="evenodd"/>
    <path fill="#3E7CB1" d="M0 6.462 7.949 10.9v8.836L0 15.383v-8.92Z"/>
    <path fill="#30C5FF" d="M15.897 6.474 7.95 10.91v8.837l7.948-4.352V6.474Z"/>
    <path fill="#41EEF9" d="M0 6.462 7.949 2l7.948 4.474L7.95 10.91 0 6.462Z"/>
  </g>
</svg>
