<svg xmlns="http://www.w3.org/2000/svg" fill="none" viewBox="0 0 105 24">
  <g fill="#fff" clip-path="url(#story-dark_svg__a)">
    <path d="M92.38 23.528h4.827v-9.679L104.472.682h-5.56L92.38 12.879v10.649Z"/>
    <path d="M93.744 10.728 88.288.682h-5.481l5.481 10.046h5.456ZM75.095 16.42l3.698 7.108h5.246l-4.616-8.394c2.124-1.469 3.384-3.83 3.384-6.53 0-4.407-2.755-7.896-8.682-7.896h-9.496v22.846h5.01v-7.082l5.456-.052ZM69.64 4.905h4.512c2.44 0 3.882 1.285 3.882 3.62 0 2.36-1.285 3.488-3.725 3.488H69.64V4.905ZM26.465 23.528h5.063V5.193h7.292V.682H19.174v4.511h7.291v18.335ZM9.154 7.921v3.489c-2.57 0-4.433-1.102-4.433-3.41s1.627-3.672 4.564-3.672c2.413 0 3.882.997 4.223 2.308h4.46C17.651 2.964 14.19 0 9.18 0 3.908 0 .157 3.279.157 8.105c0 4.826 3.909 7.659 9.023 7.659v-3.279c2.702 0 4.564 1.207 4.564 3.567 0 2.361-1.915 3.673-4.537 3.673-2.387 0-4.04-1.05-4.538-2.492H0C.656 21.036 4.144 24 9.18 24s9.102-3.016 9.102-8.053c-.026-4.72-3.567-8.026-9.128-8.026ZM50.597 19.384c-4.04 0-6.977-3.358-6.977-7.37 0-4.381 2.596-7.266 6.977-7.266 4.04 0 7.187 3.095 7.187 7.265h4.537C62.321 5.508 57.26.026 50.597.026 43.437 0 38.82 4.984 38.82 11.986c0 6.506 5.114 11.988 11.777 11.988v-4.59Z"/>
    <path d="M50.466 21.246c5.088 0 8.918-4.013 8.918-9.364h-4.145c0 2.885-2.098 4.984-4.747 4.984v4.38h-.026Z"/>
  </g>
  <defs>
    <clipPath id="story-dark_svg__a">
      <path fill="#fff" d="M0 0h104.472v24H0z"/>
    </clipPath>
  </defs>
</svg>
