<svg xmlns="http://www.w3.org/2000/svg" fill="none" viewBox="0 0 124 24">
  <g clip-path="url(#tangible-logo_svg__a)">
    <g fill="#04111D" clip-path="url(#tangible-logo_svg__b)">
      <path d="M5.437 4.475H1.111C.5 4.475 0 3.975 0 3.362c0-.612.5-1.08 1.111-1.08h11.012c.612 0 1.08.474 1.08 1.08 0 .607-.474 1.113-1.08 1.113H7.797V20.75c0 .637-.524 1.194-1.192 1.194-.637 0-1.168-.557-1.168-1.194V4.475ZM46.32 2.056c-.668 0-1.192.557-1.192 1.194v14.363L34.522 2.5a1.228 1.228 0 0 0-.943-.444c-.693 0-1.224.557-1.224 1.25V20.75c0 .638.525 1.194 1.168 1.194a1.2 1.2 0 0 0 1.192-1.194V6.388l10.407 14.88c.3.445.724.676 1.136.676.693 0 1.223-.556 1.223-1.25V3.25c0-.637-.524-1.194-1.161-1.194ZM51.695 12c0-5.581 4.357-10 9.876-10 3.109 0 5.8 1.419 7.516 3.5.224.25.33.556.33.831A1.18 1.18 0 0 1 68.226 7.5c-.306 0-.668-.194-.942-.475-1.33-1.669-3.328-2.775-5.718-2.775-4.164 0-7.436 3.419-7.436 7.75 0 4.306 3.272 7.725 7.436 7.725 3.633 0 6.517-2.613 7.185-6.081H63.2c-.612 0-1.08-.475-1.08-1.082 0-.612.474-1.112 1.08-1.112h7.104c.612 0 1.08.5 1.08 1.169C71.228 17.363 67.176 22 61.577 22c-5.525 0-9.882-4.419-9.882-10ZM75.779 3.25c0-.669.524-1.194 1.167-1.194.668 0 1.192.525 1.192 1.194v17.5a1.2 1.2 0 0 1-1.192 1.194c-.637 0-1.167-.556-1.167-1.194V3.25ZM91.485 11.806c2.054-.75 2.972-2.556 2.972-4.306 0-2.887-2.272-5.225-5.437-5.225h-4.576c-.637 0-1.168.525-1.168 1.169v17.081c0 .669.524 1.194 1.168 1.194h4.744c3.221 0 5.55-2.388 5.55-5.332-.007-1.943-1.118-3.83-3.253-4.58Zm-2.803-7.331c2.023 0 3.328 1.388 3.328 3.169a3.114 3.114 0 0 1-3.134 3.137H85.63V4.475h3.052Zm.169 15.05H85.63v-6.55h3.415c1.804 0 3.246 1.475 3.246 3.275 0 1.831-1.361 3.275-3.44 3.275ZM99.257 3.25c0-.669.525-1.194 1.167-1.194.669 0 1.193.525 1.193 1.194v16.275h6.686c.612 0 1.08.475 1.08 1.081 0 .613-.475 1.113-1.08 1.113h-7.879a1.18 1.18 0 0 1-1.167-1.194V3.25ZM29.047 19.288 21.867 3.28c-.605-1.344-1.585-1.344-2.19 0l-7.173 16.007c-.606 1.343.106 2.443 1.58 2.443h13.383c1.467 0 2.18-1.1 1.58-2.444Zm-14.127.243 5.855-13.143 5.856 13.143H14.92ZM114.146 4.519h9.22c.618 0 1.124-.5 1.124-1.125 0-.619-.499-1.125-1.124-1.125h-9.22a1.124 1.124 0 1 0 0 2.25ZM114.146 21.731h9.22c.618 0 1.124-.5 1.124-1.125 0-.619-.499-1.125-1.124-1.125h-9.22a1.124 1.124 0 1 0 0 2.25ZM115.663 13.05h6.186a1.124 1.124 0 1 0 0-2.25h-6.186a1.124 1.124 0 1 0 0 2.25Z"/>
    </g>
  </g>
  <defs>
    <clipPath id="tangible-logo_svg__a">
      <path fill="#fff" d="M0 0h124v24H0z"/>
    </clipPath>
    <clipPath id="tangible-logo_svg__b">
      <path fill="#fff" d="M0 2h124.49v20H0z"/>
    </clipPath>
  </defs>
</svg>
