<svg xmlns="http://www.w3.org/2000/svg" viewBox="0 0 2048 512">
  <g fill="#FFF" fill-rule="nonzero">
    <path d="M1921.143 456h-65.904V122.286H1728V56h320v66.286h-126.857zM1612.028 284.602v-68.054c0-12.895-2.46-25.08-7.378-36.556-4.919-11.475-11.641-21.475-20.167-29.999-8.526-8.524-18.527-15.245-30.004-20.163-11.477-4.918-23.665-7.377-36.563-7.377-12.898 0-25.085 2.459-36.562 7.377-11.477 4.918-21.479 11.639-30.004 20.163-8.526 8.524-15.249 18.524-20.167 30-4.919 11.474-7.378 23.66-7.378 36.555l-.033 68.054h188.256ZM1678 456h-65.68l.005-104.36h-188.67V456H1358V216.112c0-22.13 4.185-42.91 12.554-62.344 8.37-19.432 19.762-36.401 34.177-50.906 14.414-14.505 31.34-25.941 50.776-34.31C1474.943 60.184 1495.727 56 1517.86 56c22.133 0 42.917 4.184 62.353 12.552 19.437 8.369 36.408 19.805 50.916 34.31 14.507 14.505 25.946 31.474 34.316 50.906 8.37 19.433 12.554 40.214 12.554 62.344V456ZM1054.667 456H988V56h66.667v167.239h186.857V56H1308l-.037 400h-66.44V288.762h-186.856zM811.143 456H745.24V122.286H618V56h320v66.286H811.143zM242.347 392.533c0 7.312 5.748 13.282 12.972 13.637l.681.017c7.54 0 13.653-6.113 13.653-13.654V225.28H150.187c-26.392 0-47.787-21.395-47.787-47.787s21.395-47.786 47.787-47.786h211.626c26.392 0 47.787 21.394 47.787 47.786 0 26.392-21.395 47.787-47.787 47.787h-40.96v-34.133h40.96c7.54 0 13.654-6.113 13.654-13.654 0-7.54-6.113-13.653-13.654-13.653H150.187c-7.54 0-13.654 6.113-13.654 13.653s6.113 13.654 13.654 13.654h153.6v201.386c0 26.392-21.395 47.787-47.787 47.787s-47.787-21.395-47.787-47.787V262.827l-187.636.003C24.191 389.745 128.21 491.52 256 491.52c130.074 0 235.52-105.446 235.52-235.52S386.074 20.48 256 20.48c-119.663 0-218.483 89.242-233.535 204.803l-20.64-.003C17 98.379 125.011 0 256 0c141.385 0 256 114.615 256 256S397.385 512 256 512 0 397.385 0 256c0-4.58.12-9.131.358-13.652l241.989-.001v150.186Z"/>
  </g>
</svg>
