<svg xmlns="http://www.w3.org/2000/svg" fill="none" viewBox="0 0 99 24">
  <g clip-path="url(#unichain-logo_svg__a)">
    <path fill="#F50DB4" fill-rule="evenodd" d="M12.228 0c0 6.5 5.268 11.772 11.772 11.772v.456H12.228V24h-.456c0-6.5-5.268-11.772-11.772-11.772v-.456h11.772V0h.456ZM31.46 13.752c0 3.283 1.92 5.068 5.069 5.068s5.069-1.785 5.069-5.068V5.38H39.6v8.255c0 2.132-.826 3.514-3.072 3.514-2.074 0-3.072-1.382-3.072-3.513V5.38h-1.997v8.37Zm11.885-4.647v9.485h1.9v-5.299c0-1.536.922-2.822 2.516-2.822 1.593 0 1.977 1.094 1.977 2.803v5.318h1.901v-6.144c0-2.304-1.248-3.571-3.36-3.571-1.44 0-2.496.749-3.033 1.574h-.02V9.105h-1.881Zm10.05 0v9.485h1.901V9.105h-1.9Zm0-3.724v2.246h1.901V5.381h-1.9Zm3.156 8.447c0 2.977 1.882 4.992 4.666 4.992 2.515 0 3.84-1.44 4.416-3.225l-1.901-.46c-.307 1.343-1.133 2.169-2.458 2.169-1.593 0-2.726-1.21-2.726-3.475 0-2.228 1.171-3.437 2.688-3.437 1.42 0 2.15.979 2.4 2.17l1.92-.461c-.5-1.786-1.862-3.226-4.32-3.226-2.803 0-4.685 2.035-4.685 4.954Zm10.102-8.447v13.21h1.901v-5.3c0-1.536.922-2.822 2.515-2.822 1.594 0 1.978 1.094 1.978 2.803v5.318h1.9v-6.144c0-2.304-1.247-3.571-3.36-3.571-1.44 0-2.418.634-3.014 1.555h-.019V5.38h-1.9Zm9.571 10.636c0 1.767 1.536 2.803 3.245 2.803 1.478 0 2.457-.614 2.9-1.343h.018v1.113h1.824v-6.547c0-1.997-1.286-3.168-3.705-3.168-2.343 0-3.975 1.229-4.11 3.264l1.96.173c.076-1.268.882-2.035 2.13-2.035 1.153 0 1.805.556 1.805 1.344 0 .787-.48.998-1.497 1.21l-1.306.268c-2.054.403-3.264 1.19-3.264 2.918ZM82.367 15c0 1.574-1.056 2.457-2.4 2.457-1.075 0-1.805-.595-1.805-1.478 0-.518.25-.902.691-1.171.577-.365 1.517-.634 3.514-.96V15Zm3.618-5.895v9.485h1.9V9.105h-1.9Zm0-3.724v2.246h1.9V5.381h-1.9Zm3.75 3.724v9.485h1.902v-5.299c0-1.536.921-2.822 2.515-2.822 1.593 0 1.977 1.094 1.977 2.803v5.318h1.901v-6.144c0-2.304-1.248-3.571-3.36-3.571-1.44 0-2.496.749-3.033 1.574h-.02V9.105h-1.881Z" clip-rule="evenodd"/>
  </g>
  <defs>
    <clipPath id="unichain-logo_svg__a">
      <path fill="#fff" d="M0 0h98.03v24H0z"/>
    </clipPath>
  </defs>
</svg>
