<svg xmlns="http://www.w3.org/2000/svg" viewBox="0 0 96 21">
  <path d="M2.668 0h2.566l.2.2.691 1.241.492.848.742 1.293.493.848v.097H5.086l.691 1.246.692 1.196 3.703 6.468.691 1.192.742 1.297.344.594v.101l.149-.148.593-1.047.692-1.196.789-1.39.742-1.293.691-1.195.739-1.293.547-.946.691-1.195.64-1.145.493-.847.2-.348-2.767-.05.247-.497.69-1.195L18.567.25l.2-.25h2.566l.2.2 2.222 3.882.297.496-.102.297-3.703 6.473-.691 1.191-2.961 5.176-.692 1.195-.742 1.293-.445.746-.047.051H9.332l-.395-.648-.789-1.391-1.48-2.59-.691-1.195-3.704-6.469-.691-1.191-1.484-2.59L0 4.777l.05-.347.493-.848.691-1.195.594-1.043L2.52.148ZM88.594 7.414h2.074l.492.649.543.796 1.383 1.989.64.894.25.352v-4.63l.047-.05h1.926l.051.05v7.763h-2.172l-.543-.797-.793-1.145-.691-.992-.79-1.145-.394-.55-.05-.047v4.676h-1.973l-.051-.297V7.465Zm0 0" style="stroke:none;fill-rule:nonzero;fill:#4113dc;fill-opacity:1"/>
  <path d="M57.531 7.414h2.125l.64.895 2.075 2.988.543.797.05-4.68h1.974v7.813h-2.122l-.644-.895-.64-.945-.692-.996-.79-1.145-.495-.695-.047 4.676H57.53ZM51.754 7.316h1.137l.836.149.793.297.542.351.446.395.344.5.296.597.196.747.05.347v1.242l-.148.797-.246.598-.344.598-.347.398-.692.496-.492.25-.742.2-.348.05h-1.48l-.79-.152-.593-.246-.492-.301-.496-.445-.293-.348-.297-.5-.25-.695-.098-.547-.047-.848.098-.945.246-.848.297-.547.344-.445.496-.45.789-.398.64-.199Zm.344 1.641-.543.102-.492.296-.348.399-.246.547-.098.547v.945l.149.7.296.593.442.351.496.2.691.047.59-.098.496-.25.344-.348.25-.547.098-.398.05-.45v-.445l-.148-.945-.25-.5-.344-.398-.496-.246-.543-.102ZM34.023 7.414h6.028l.047.05v1.544l-.047.05h-3.953v1.391l.742-.047h2.668l.047.047v1.594h-3.457v1.594l.644-.051h3.356l.05.05v1.59h-6.125Zm0 0" style="stroke:none;fill-rule:nonzero;fill:#fefefd;fill-opacity:1"/>
  <path d="M82.172 7.414h3.012l.199.5 1.48 4.426.84 2.539.098.348h-2.074l-.493-1.493-.097-.347h-2.965l-.445 1.441-.145.399h-2.027l.101-.446 1.035-3.086 1.332-4.03Zm1.484 1.246-.199.496-.742 2.39-.047.15h1.926l-.102-.45-.691-2.238-.098-.348Zm0 0" style="stroke:none;fill-rule:nonzero;fill:#4113dc;fill-opacity:1"/>
  <path d="M40.395 7.414h2.32l.496.649.492.695.594.797h.098l.69-.946.497-.695.344-.45.05-.05H48.2l-.101.2-.59.847-1.285 1.789-.594.848.098.25 2.57 3.582.148.199v.098h-2.32l-.496-.696-.594-.847-.64-.895-.149-.148-.098.246-.64.898-.594.844-.445.598h-2.27l.196-.348.69-.945 1.927-2.688-.047-.2-1.285-1.788-.692-.95-.543-.745ZM25.086 7.414h2.172l.594 1.793 1.332 4.18.05.148.594-1.793 1.383-4.226.047-.102h2.027l-.101.5-1.036 3.133-.691 2.039-.691 2.09-.051.05h-3.059l-.199-.445-2.422-7.316Zm0 0" style="stroke:none;fill-rule:nonzero;fill:#fefefd;fill-opacity:1"/>
  <path d="M69.035 7.316h1.09l.84.098.543.102.047.046v1.645l-.446-.05-.64-.098-.989-.051-.886.097-.395.2-.101.148v.5l.246.2.594.199 1.234.296.644.25.543.399.344.398.246.598.051.246v.547l-.148.648-.247.45-.394.445-.496.3-.442.2-.941.2h-1.629l-.988-.153-.543-.149v-1.691l1.383.25.394.05h1.04l.593-.152.195-.148.098-.496-.148-.25-.395-.2-1.727-.449-.496-.199-.492-.347-.394-.446-.2-.449-.097-.547.05-.695.247-.649.394-.496.445-.3.543-.25.594-.149ZM76.64 7.316h1.188l1.281.149.051.098v1.593l-.84-.05-.937-.047-.89.097-.641.25-.493.446-.25.5-.097.398v1.242l.246.7.398.445.492.25.594.148.395.05h.59l1.09-.148.292-.05.051.05v1.641l-.394.149-.641.101h-1.73l-.887-.152-.84-.297-.793-.496-.344-.352-.347-.547-.246-.597-.149-.547-.047-.547V10.75l.149-.746.246-.649.343-.546.446-.5.492-.348.644-.297.84-.25Zm0 0" style="stroke:none;fill-rule:nonzero;fill:#4113dc;fill-opacity:1"/>
  <path d="M8.445 0h7.11v.148l-.79 1.395-.742 1.293-.691 1.195-.789 1.395-.492.844-.2-.2-.64-1.144-.691-1.196-1.485-2.585-.59-.997Zm0 0" style="stroke:none;fill-rule:nonzero;fill:#fefefd;fill-opacity:1"/>
</svg>
