<svg xmlns="http://www.w3.org/2000/svg" fill="none" viewBox="0 0 41 24">
  <g clip-path="url(#via-dark_svg__a)">
    <path fill="#fff" fill-rule="evenodd" d="M20.607 5.926a2.973 2.973 0 0 0 2.983-2.963A2.973 2.973 0 0 0 20.607 0a2.973 2.973 0 0 0-2.982 2.963 2.973 2.973 0 0 0 2.982 2.963ZM30.657 24c1.848 0 3.453-.816 4.683-2.023v1.549h5.248V8.652H35.34v1.492c-1.264-1.198-2.896-1.966-4.683-1.966-3.653 0-6.7 2.723-7.396 6.339V8.652h-10.14l-3.608 7.496-3.549-7.496H0l7.664 14.874h3.579l6.77-12.889v12.889h5.248V17.66c.696 3.616 3.743 6.34 7.396 6.34Zm1.402-4.504c-1.878 0-3.4-1.512-3.4-3.377 0-1.866 1.522-3.378 3.4-3.378s3.4 1.512 3.4 3.378c0 1.865-1.522 3.377-3.4 3.377Z" clip-rule="evenodd"/>
  </g>
  <defs>
    <clipPath id="via-dark_svg__a">
      <path fill="#fff" d="M0 0h41v24H0z"/>
    </clipPath>
  </defs>
</svg>
