<svg xmlns="http://www.w3.org/2000/svg" fill="none" viewBox="0 0 118 24">
  <path fill="#fff" d="M87.984 20.798H83.2c-5.736 0-10.4-4.663-10.4-10.398C72.8 4.665 77.464 0 83.201 0c5.738 0 10.4 4.663 10.4 10.398V20.59h-4.16V10.398a6.237 6.237 0 0 0-6.24-6.239 6.237 6.237 0 0 0-6.24 6.24 6.237 6.237 0 0 0 6.24 6.238h4.785v4.16l-.002.001ZM64.48 20.59h-4.159V10.398C60.321 4.663 64.985 0 70.721 0v4.16a6.237 6.237 0 0 0-6.24 6.238V20.59ZM45.76 20.798c-5.735 0-10.399-4.663-10.399-10.398 0-5.735 4.664-10.4 10.4-10.4C51.495 0 56.16 4.663 56.16 10.398v2.08H44.2v-4.16h7.438c-.864-2.424-3.169-4.159-5.873-4.159a6.237 6.237 0 0 0-6.24 6.24 6.237 6.237 0 0 0 11.424 3.464l3.448 2.32a10.374 10.374 0 0 1-8.638 4.614l.001.001ZM110 4.16H99.84v16.43H110V4.16ZM20.8 18.719l8.32-8.32-8.32-8.32v6.24l-8.32 6.24h8.32v4.16ZM8.32 2.08 0 10.398l8.32 8.32V12.48l8.32-6.24H8.32V2.08Z"/>
</svg>
