<svg xmlns="http://www.w3.org/2000/svg" fill="none" viewBox="0 0 118 24">
  <g fill="#000" clip-path="url(#zksync_svg__a)">
    <path d="M88.73 20.798h-4.825c-5.785 0-10.488-4.663-10.488-10.398 0-5.735 4.703-10.4 10.49-10.4 5.785 0 10.487 4.663 10.487 10.398V20.59h-4.195V10.398c0-3.447-2.816-6.239-6.293-6.239-3.477 0-6.292 2.792-6.292 6.24 0 3.447 2.815 6.238 6.292 6.238h4.825v4.16l-.001.001ZM65.027 20.59h-4.195V10.398C60.832 4.663 65.535 0 71.32 0v4.16c-3.477 0-6.293 2.79-6.293 6.238V20.59ZM46.148 20.798c-5.784 0-10.487-4.663-10.487-10.398C35.66 4.665 40.364 0 46.148 0c5.785 0 10.488 4.663 10.488 10.398v2.08H44.574v-4.16h7.502a6.294 6.294 0 0 0-5.923-4.159c-3.477 0-6.293 2.792-6.293 6.24 0 3.447 2.816 6.238 6.293 6.238a6.307 6.307 0 0 0 5.228-2.774l3.477 2.32a10.486 10.486 0 0 1-8.711 4.614l.001.001ZM110.932 4.16h-10.246v16.43h10.246V4.16ZM20.977 18.719l8.39-8.32-8.39-8.32v6.24l-8.39 6.24h8.39v4.16ZM8.39 2.08 0 10.398l8.39 8.32V12.48l8.392-6.24H8.39V2.08Z"/>
  </g>
  <defs>
    <clipPath id="zksync_svg__a">
      <path fill="#fff" d="M0 0h118v24H0z"/>
    </clipPath>
  </defs>
</svg>
