<svg xmlns="http://www.w3.org/2000/svg" fill="none" viewBox="0 0 87 24">
  <g clip-path="url(#zora_svg__a)">
    <path fill="#000" d="M0 18.138 8.313 5.6H.936V2.326H12.52v3.036L3.863 18.396h8.998v3.274H.005v-3.536l-.003.004H0Zm12.612-6.018c0-2.303.341-4.202 1.018-5.693.68-1.49 1.567-2.603 2.667-3.331C17.393 2.364 18.72 2 20.286 2c2.264 0 4.108.868 5.535 2.6 1.424 1.732 2.138 4.2 2.138 7.402s-.755 5.765-2.264 7.585C24.37 21.197 22.57 22 20.296 22s-4.097-.796-5.423-2.386c-1.51-1.82-2.264-4.318-2.26-7.494Zm3.292-.132c0 2.225.423 3.893 1.267 5.006.844 1.112 1.888 1.67 3.138 1.67s2.299-.551 3.124-1.654c.827-1.102 1.24-2.797 1.24-5.088 0-2.29-.402-3.9-1.208-4.975-.803-1.072-1.858-1.61-3.16-1.61-1.3 0-2.36.541-3.176 1.624-.819 1.078-1.225 2.756-1.225 5.026ZM29.3 2.33h6.724c1.717 0 2.947.173 3.684.52.738.347 1.343.95 1.817 1.807.475.858.71 1.886.71 3.08 0 1.515-.361 2.73-1.085 3.655-.721.926-1.749 1.505-3.084 1.743a7.878 7.878 0 0 1 1.697 1.616c.448.586 1.059 1.634 1.83 3.149l1.923 3.774h-3.81l-2.313-4.21c-.83-1.522-1.397-2.475-1.697-2.86-.3-.384-.615-.646-.95-.792-.334-.146-.866-.218-1.604-.218h-.66v8.076h-3.182V2.33Zm3.186 8.177h2.37c1.448 0 2.37-.064 2.763-.19.396-.13.714-.385.96-.773s.369-.901.369-1.545c0-.643-.123-1.109-.37-1.483a1.88 1.88 0 0 0-1-.773c-.301-.095-1.162-.146-2.592-.146h-2.5v4.91ZM54.968 21.67l-1.387-4.38h-6.334l-1.309 4.38h-3.394l6.161-19.34h3.385l6.341 19.34h-3.463Zm-2.414-7.654-2.186-7.177-2.144 7.177h4.33Z"/>
    <g clip-path="url(#zora_svg__b)">
      <path fill="url(#zora_svg__c)" d="M74.367 23.87c-6.592 0-11.936-5.344-11.936-11.935C62.431 5.343 67.775 0 74.368 0 80.957 0 86.3 5.343 86.3 11.935c0 6.591-5.343 11.935-11.934 11.935Z"/>
    </g>
  </g>
  <defs>
    <clipPath id="zora_svg__a">
      <path fill="#fff" d="M0 0h86.431v24H0z"/>
    </clipPath>
    <clipPath id="zora_svg__b">
      <path fill="#fff" d="M62.431 0h24v24h-24z"/>
    </clipPath>
    <radialGradient id="zora_svg__c" cx="0" cy="0" r="1" gradientTransform="rotate(180 39.893 3.209) scale(20.1607)" gradientUnits="userSpaceOnUse">
      <stop offset=".007" stop-color="#F2CEFE"/>
      <stop offset=".191" stop-color="#AFBAF1"/>
      <stop offset=".498" stop-color="#4281D3"/>
      <stop offset=".667" stop-color="#2E427D"/>
      <stop offset=".823" stop-color="#230101"/>
      <stop offset="1" stop-color="#8F6B40"/>
    </radialGradient>
  </defs>
</svg>
