<svg xmlns="http://www.w3.org/2000/svg" fill="none" viewBox="0 0 30 30">
  <path fill="#213147" d="M3.01 9.123v11.768c0 .747.398 1.444 1.052 1.813l10.183 5.881c.647.377 1.45.377 2.097 0l10.19-5.88a2.106 2.106 0 0 0 1.052-1.814V9.123c0-.747-.398-1.443-1.052-1.82l-10.19-5.88a2.087 2.087 0 0 0-2.097 0l-10.19 5.88a2.117 2.117 0 0 0-1.045 1.82Z"/>
  <path fill="#12AAFF" d="m17.523 17.286-1.458 3.982a.47.47 0 0 0 0 .341l2.496 6.855 2.894-1.67-3.47-9.515c-.078-.213-.384-.213-.462.007ZM20.43 10.58c-.077-.22-.383-.22-.468 0l-1.458 3.983a.472.472 0 0 0 0 .341L22.6 26.132l2.894-1.671-5.063-13.88Z"/>
  <path fill="#9DCCED" d="M15.297 1.856c.071 0 .142.021.206.057l11.022 6.364a.404.404 0 0 1 .206.355V21.36c0 .15-.078.285-.206.356l-11.022 6.371a.428.428 0 0 1-.206.057.428.428 0 0 1-.206-.057L4.069 21.723a.404.404 0 0 1-.206-.355V8.632c0-.149.078-.284.206-.355l11.022-6.364a.428.428 0 0 1 .206-.057Zm0-1.856c-.391 0-.79.107-1.138.306L3.138 6.67A2.279 2.279 0 0 0 2 8.632V21.36c0 .811.434 1.565 1.138 1.97l11.021 6.364c.349.206.74.306 1.138.306.398 0 .79-.107 1.138-.306l11.021-6.364a2.267 2.267 0 0 0 1.138-1.97V8.632c0-.81-.434-1.564-1.138-1.97L16.435.307A2.333 2.333 0 0 0 15.297 0Z"/>
  <path fill="#213147" d="m8.009 26.145 1.016-2.772 2.033 1.692-1.898 1.741-1.151-.66Z"/>
  <path fill="#fff" d="M14.366 7.73H11.57a.498.498 0 0 0-.47.326L5.115 24.482l2.895 1.671 6.598-18.09a.252.252 0 0 0-.241-.334ZM19.258 7.73h-2.795a.498.498 0 0 0-.47.326L9.162 26.807l2.894 1.671 7.437-20.414c.064-.164-.064-.335-.234-.335Z"/>
</svg>
