<svg xmlns="http://www.w3.org/2000/svg" fill="none" viewBox="0 0 30 30">
  <path fill="#F70" d="M15.296 1.86c.073 0 .14.02.208.056l11.024 6.362a.41.41 0 0 1 .209.356v12.724a.41.41 0 0 1-.21.356l-11.023 6.368a.43.43 0 0 1-.418 0L4.07 21.722a.41.41 0 0 1-.21-.357V8.635a.41.41 0 0 1 .21-.356l11.017-6.363a.422.422 0 0 1 .209-.055m0-1.86c-.393 0-.787.104-1.137.307L3.136 6.67A2.274 2.274 0 0 0 2 8.635v12.724c0 .81.436 1.56 1.136 1.971l11.023 6.363c.35.202.743.307 1.136.307.393 0 .786-.104 1.137-.307l11.023-6.363a2.265 2.265 0 0 0 1.136-1.971V8.635c0-.811-.436-1.56-1.136-1.972L16.432.301A2.266 2.266 0 0 0 15.296 0Z"/>
  <path fill="#F70" d="M12.483 8.48h-1.438a.251.251 0 0 0-.24.173L6.17 21.346c-.03.086.031.172.123.172h1.437c.11 0 .203-.068.24-.172l4.63-12.7c.037-.08-.024-.165-.117-.165ZM14.35 13.406c-.043-.11-.203-.11-.24 0l-.75 2.051a.292.292 0 0 0 0 .178l2.089 5.718a.257.257 0 0 0 .24.172h1.437a.127.127 0 0 0 .122-.172l-2.898-7.946v-.001ZM15 8.48h-1.436a.251.251 0 0 0-.24.173l-4.63 12.693c-.03.086.03.172.123.172h1.437c.11 0 .202-.068.24-.172l4.63-12.7c.03-.08-.031-.165-.123-.165ZM15.609 9.948c-.043-.11-.203-.11-.24 0L14.62 12a.293.293 0 0 0 0 .179l3.347 9.169a.257.257 0 0 0 .24.172h1.437a.127.127 0 0 0 .123-.172L15.609 9.949ZM24.298 8.48h-1.437a.251.251 0 0 0-.24.173L19.27 17.82a.292.292 0 0 0 0 .179l.75 2.05c.042.111.202.111.239 0l4.157-11.397a.126.126 0 0 0-.117-.172ZM18.759 16.593c.043.11.202.11.24 0l2.898-7.94a.127.127 0 0 0-.123-.172h-1.437a.251.251 0 0 0-.24.172L18.01 14.37a.292.292 0 0 0 0 .179l.75 2.044Z"/>
</svg>
