<svg xmlns="http://www.w3.org/2000/svg" fill="none" viewBox="0 0 30 30">
  <g fill="#1B4ADD" clip-path="url(#arbitrum-one-icon-light_svg__a)">
    <path d="M15.356 1.862c.073 0 .141.019.209.055l11.002 6.399c.129.073.209.209.202.356L26.727 21.4a.41.41 0 0 1-.21.356L15.48 28.081a.43.43 0 0 1-.418 0L4.058 21.684a.392.392 0 0 1-.202-.357l.042-12.729a.41.41 0 0 1 .21-.356l11.044-6.33a.468.468 0 0 1 .203-.05ZM15.362 0c-.393 0-.786.099-1.137.301L3.186 6.625a2.271 2.271 0 0 0-1.143 1.968L2 21.322c0 .811.43 1.56 1.13 1.973l11.002 6.398a2.275 2.275 0 0 0 2.275.006l11.038-6.324a2.27 2.27 0 0 0 1.144-1.966l.043-12.73c0-.81-.43-1.56-1.131-1.972L16.499.307A2.275 2.275 0 0 0 15.362 0Z"/>
    <path d="M17.593 6.939h-1.61a.284.284 0 0 0-.271.19l-5.187 14.216c-.037.092.037.19.135.19h1.61a.284.284 0 0 0 .27-.19L17.729 7.13c.037-.092-.037-.19-.135-.19Zm-2.821 0h-1.61a.284.284 0 0 0-.27.19L7.71 21.34c-.037.093.037.191.135.191h1.61a.284.284 0 0 0 .27-.19l5.182-14.21c.037-.093-.03-.191-.135-.191Zm2.09 5.507c-.043-.13-.228-.13-.27 0l-.836 2.298a.276.276 0 0 0 0 .197l2.335 6.399c.043.11.148.19.27.19h1.61c.1 0 .173-.098.136-.19l-3.245-8.894Zm6.06 8.894L18.27 8.58c-.043-.13-.228-.13-.271 0l-.836 2.298a.276.276 0 0 0 0 .197l3.743 10.265c.043.11.148.19.27.19h1.611a.138.138 0 0 0 .135-.19Z"/>
  </g>
  <defs>
    <clipPath id="arbitrum-one-icon-light_svg__a">
      <path fill="#fff" d="M2 0h26.632v30H2z"/>
    </clipPath>
  </defs>
</svg>
