<svg xmlns="http://www.w3.org/2000/svg" fill="none" viewBox="0 0 30 30">
  <path fill="#129C6B" fill-rule="evenodd" d="M29.86 12.993a.884.884 0 0 1 .138.395.7.7 0 0 1-.07.357l-5.857 12.98v.062a.776.776 0 0 1-.178.186c-.07.042-.146.075-.224.101h-.116L9.39 28.43h-.077a.771.771 0 0 1-.325-.077.774.774 0 0 1-.224-.202L.085 16.945v-.093A.73.73 0 0 1 0 16.573h.07a.777.777 0 0 1 0-.263.109.109 0 0 0 0-.047.062.062 0 0 0 0-.039L5.819 3.306a.775.775 0 0 1 .193-.256l.116-.046a.817.817 0 0 1 .301-.101L20.58 1.5h.108a.624.624 0 0 1 .37.109.696.696 0 0 1 .232.163.094.094 0 0 1 0 .038l8.57 11.183Zm-7.527-7.27 1.754 6.929h3.57l-5.324-6.928Zm-9.838 16.562 10.216 2.968V13.52L20.17 3.445 9.806 9.25 2.08 16.418l10.416 5.867ZM9.66 7.568l7.403-4.161-9.28.922 1.877 3.24Zm-1.26.907-1.8-3.1-3.593 8.083L8.338 8.52l.062-.046ZM3.726 19.123l5.548 7.176 1.847-3.015-7.395-4.161Zm15.671 6.773-6.87-2-1.707 2.86 8.577-.86Zm4.86-11.694v8.455l3.78-8.455h-3.78Zm-6.189-4.565c.427 0 .773.347.773.775a.774.774 0 0 1-.773.775h-4.528l2.805 3.379a.776.776 0 0 1 0 .992l-2.805 3.379h4.528a.774.774 0 0 1 0 1.55h-6.182a.777.777 0 0 1-.595-1.271l3.454-4.154-3.454-4.154a.777.777 0 0 1 .595-1.27h6.182Z" clip-rule="evenodd"/>
</svg>
