<svg xmlns="http://www.w3.org/2000/svg" fill="none" viewBox="0 0 30 30">
  <g clip-path="url(#blackfort_svg__a)">
    <path fill="url(#blackfort_svg__b)" d="M.485 13.517h1.97c.275 0 .498.223.498.499v1.968a.496.496 0 0 1-.499.486H.485A.493.493 0 0 1 0 15.984v-1.968c0-.276.223-.5.485-.5Zm4.12 2.848h1.707c.236 0 .42.183.42.42v1.718c0 .237-.184.42-.42.42H4.606a.426.426 0 0 1-.433-.42v-1.718c0-.237.197-.42.433-.42ZM9.03 17.61h1.457c.196 0 .367.17.367.367v1.457c0 .197-.17.355-.367.355H9.029a.353.353 0 0 1-.354-.355V17.98c0-.197.157-.368.354-.368ZM5.774 3.701c.472.46.932.919 1.391 1.378a.484.484 0 0 1 0 .696c-.46.472-.919.931-1.391 1.39a.484.484 0 0 1-.696 0l-1.39-1.39a.508.508 0 0 1 0-.696c.471-.46.93-.919 1.39-1.378a.483.483 0 0 1 .696 0Zm.906 4.907c.407.407.814.801 1.207 1.208a.42.42 0 0 1 0 .603c-.393.407-.8.814-1.207 1.208a.42.42 0 0 1-.604 0c-.407-.394-.8-.8-1.207-1.208a.42.42 0 0 1 0-.603l1.207-1.208a.42.42 0 0 1 .604 0Zm2.244 4.016 1.037 1.037a.357.357 0 0 1 0 .512c-.342.342-.683.683-1.037 1.024-.131.144-.368.144-.512 0l-1.024-1.024a.357.357 0 0 1 0-.512c.342-.341.683-.682 1.024-1.037.144-.13.38-.13.512 0ZM16.47.485v1.97a.496.496 0 0 1-.486.498h-1.968a.499.499 0 0 1-.5-.499V.485c0-.262.224-.485.5-.485h1.968c.263 0 .486.223.486.485Zm-2.835 4.12v1.707c0 .236-.196.42-.432.42h-1.706a.425.425 0 0 1-.433-.42V4.606c0-.236.196-.433.433-.433h1.706c.235 0 .432.197.432.433Zm-1.26 4.424v1.457a.364.364 0 0 1-.354.367h-1.457a.376.376 0 0 1-.367-.367V9.029c0-.197.17-.354.367-.354h1.457c.196 0 .354.157.354.354ZM26.3 5.774c-.46.472-.931.932-1.39 1.391a.484.484 0 0 1-.697 0c-.459-.46-.931-.919-1.39-1.391a.508.508 0 0 1 0-.696c.459-.46.931-.919 1.39-1.378a.484.484 0 0 1 .696 0c.46.46.932.919 1.391 1.378a.484.484 0 0 1 0 .696Zm-4.908.906c-.407.407-.814.814-1.22 1.207a.42.42 0 0 1-.604 0L18.359 6.68a.42.42 0 0 1 0-.604c.407-.407.814-.8 1.208-1.207a.42.42 0 0 1 .603 0c.407.407.814.8 1.221 1.207a.444.444 0 0 1 0 .604Zm-4.029 2.244c-.341.354-.683.695-1.023 1.037a.373.373 0 0 1-.525 0 74.124 74.124 0 0 1-1.024-1.037c-.144-.131-.144-.368 0-.512l1.024-1.024a.373.373 0 0 1 .525 0l1.023 1.024c.145.144.145.38 0 .512Zm12.139 7.546h-1.955a.496.496 0 0 1-.5-.486v-1.968c0-.276.224-.5.5-.5H29.5c.276 0 .499.224.499.5v1.968a.496.496 0 0 1-.499.486Zm-4.108-2.835h-1.706a.436.436 0 0 1-.432-.433v-1.706c0-.236.196-.433.433-.433h1.705c.237 0 .433.197.433.433v1.706a.436.436 0 0 1-.433.433Zm-4.435-1.26h-1.457a.353.353 0 0 1-.354-.354v-1.457c0-.197.158-.367.354-.367h1.457c.197 0 .368.17.368.367v1.457c0 .196-.171.354-.368.354ZM24.212 26.3l-1.39-1.392a.508.508 0 0 1 0-.695l1.39-1.391a.508.508 0 0 1 .696 0l1.391 1.39a.484.484 0 0 1 0 .696L24.91 26.3a.483.483 0 0 1-.697 0Zm-.905-4.908c-.394-.407-.8-.814-1.207-1.22a.444.444 0 0 1 0-.604c.406-.394.813-.8 1.207-1.208.17-.17.447-.17.617 0 .394.407.801.814 1.208 1.208a.444.444 0 0 1 0 .603c-.407.407-.814.814-1.208 1.221a.463.463 0 0 1-.617 0Zm-2.244-4.029-1.024-1.023a.357.357 0 0 1 0-.512c.342-.355.683-.696 1.024-1.037a.357.357 0 0 1 .512 0c.341.341.695.682 1.037 1.037.13.13.13.367 0 .512-.342.341-.696.682-1.037 1.023a.357.357 0 0 1-.512 0Zm-7.546 12.139v-1.955c0-.276.224-.5.5-.5h1.968c.262 0 .485.224.485.5V29.5a.496.496 0 0 1-.485.499h-1.969a.498.498 0 0 1-.499-.499Zm2.848-4.108v-1.706c0-.236.183-.432.42-.432h1.718c.237 0 .42.196.42.433v1.706a.426.426 0 0 1-.42.432h-1.718a.426.426 0 0 1-.42-.433Zm1.246-4.435V19.5c0-.197.17-.355.367-.355h1.457c.197 0 .355.158.355.355v1.457a.364.364 0 0 1-.355.367H17.98a.375.375 0 0 1-.368-.367ZM3.688 24.212c.472-.459.932-.931 1.39-1.39a.508.508 0 0 1 .697 0c.472.459.931.931 1.39 1.39a.484.484 0 0 1 0 .696c-.459.46-.918.932-1.39 1.391a.484.484 0 0 1-.696 0c-.46-.46-.919-.931-1.391-1.39a.508.508 0 0 1 0-.697Zm4.921-.905c.407-.394.8-.801 1.208-1.208a.444.444 0 0 1 .603 0l1.208 1.208c.17.17.17.446 0 .617L10.42 25.13a.444.444 0 0 1-.603 0c-.407-.407-.801-.813-1.208-1.207a.436.436 0 0 1 0-.617Zm4.015-2.244c.355-.342.696-.683 1.037-1.024a.357.357 0 0 1 .512 0l1.024 1.024a.357.357 0 0 1 0 .512c-.342.341-.683.695-1.024 1.037a.382.382 0 0 1-.512 0c-.341-.342-.682-.696-1.037-1.037-.13-.131-.13-.368 0-.512Z"/>
  </g>
  <defs>
    <linearGradient id="blackfort_svg__b" x1="0" x2="30" y1="15" y2="15" gradientUnits="userSpaceOnUse">
      <stop stop-color="#0194FE"/>
      <stop offset="1" stop-color="#2ADFF3"/>
    </linearGradient>
    <clipPath id="blackfort_svg__a">
      <path fill="#fff" d="M0 0h30v30H0z"/>
    </clipPath>
  </defs>
</svg>
