<svg xmlns="http://www.w3.org/2000/svg" fill="none" viewBox="0 0 392 420">
  <path fill="#fff" d="m386.03 296.547-45.351-35.367c-7.615-5.938-18.697-3.477-23.179 5.086-11.131 21.237-28.574 38.734-48.559 50.672l-47.531-47.662a13.619 13.619 0 0 0-9.643-4.006 13.619 13.619 0 0 0-9.643 4.006l-50.567 50.707C112.237 299.097 85.384 257.641 85.384 210c0-68.582 55.645-124.38 124.039-124.38 41.362 0 80.991 18.06 107.186 61.468 4.694 7.78 15.023 9.848 22.336 4.474l44.008-32.343c6.531-4.797 8.265-13.848 3.961-20.727C348.739 37.387 281.984 0 209.423 0 93.944 0 0 94.203 0 210s93.944 210 209.423 210c39.477 0 77.941-11.086 111.243-32.047a210.436 210.436 0 0 0 69.175-71.262c3.961-6.722 2.344-15.354-3.804-20.144h-.007ZM179.445 330.69l32.315-32.404L242.389 329c-10.911 3.505-22.069 5.381-32.966 5.381a123.572 123.572 0 0 1-29.978-3.684v-.007Zm29.032-152.888c-.048 1.024-.055 14.632 33.954 37.875 25.372 17.346 13.488 51.902 8.293 63.262a101.193 101.193 0 0 0-13.79-26.741 101.23 101.23 0 0 0-25.181-24.46c-7.114 4.371-18.786 12.88-28.148 27.505a87.423 87.423 0 0 0-10.569 23.696l-.02-.034c-10.349-27.903-6.683-41.841-1.337-49.414 4.195-5.945 11.816-14.158 11.816-14.158 6.655-6.639 13.68-13.099 20.438-26.233 4.153-8.075 4.517-10.886 4.544-11.305v.007Z"/>
  <path fill="#FF6D01" d="M183.393 215.477s-7.639 8.207-11.853 14.147c-5.363 7.568-9.035 21.495 1.34 49.376-59.144-51.711 1.761-104.486.544-100.469-4.525 14.937 9.962 36.946 9.962 36.946h.007Zm14.425-16.255a84.08 84.08 0 0 0 6.051-9.992c4.552-8.81 4.565-11.358 4.565-11.358s-1.437 13.748 34.055 37.914c25.454 17.333 13.532 51.862 8.32 63.214 0 0 30.04-19.132 25.777-51.45-5.123-38.876-26.183-35.367-41.832-64.161-14.597-26.858 10.334-48.374 10.334-48.374s-33.374-1.792-48.652 33.252c-16.102 36.925 1.375 50.962 1.375 50.962l.007-.007Z"/>
</svg>
