<svg xmlns="http://www.w3.org/2000/svg" fill="none" viewBox="0 0 30 30">
  <g clip-path="url(#degen-dark_svg__a)">
    <path fill="#8B5CF6" fill-rule="evenodd" d="M24.203 2.385C21.973 2.128 20.485 2 14.999 2c-4.706 0-7 .17-9.204.385-1.03.1-1.851.884-1.775 1.921l.821 11.201c.258.075.538.169.853.275 1.648.553 4.232 1.42 9.305 1.42 5.074 0 7.657-.867 9.305-1.42.315-.106.595-.2.852-.275l.822-11.201c.076-1.037-.748-1.803-1.776-1.921ZM5.235 20.875l.06.052c1.295 1.128 4.28 2.962 9.703 2.962 6.71 0 9.65-2.77 10.34-3.597a.76.76 0 0 0 .173-.442l.12-2.186c.798-.439 1.623-.934 1.623-.934 1.296-.703 2.743.307 2.746 1.788.004 2.396-1.866 4.858-4.39 6.41-2.845 1.75-7.093 2.476-10.61 2.476-3.517 0-7.765-.726-10.61-2.476-2.524-1.552-4.394-4.013-4.39-6.41.003-1.481 1.45-2.491 2.746-1.788 0 0 .823.494 1.621.933l.121 2.207c.008.15.065.291.16.407.118.144.312.353.587.598Z" clip-rule="evenodd"/>
  </g>
  <defs>
    <clipPath id="degen-dark_svg__a">
      <path fill="#fff" d="M0 0h30v30H0z"/>
    </clipPath>
  </defs>
</svg>
