<svg xmlns="http://www.w3.org/2000/svg" fill="none" viewBox="0 0 30 30">
  <g fill="#38FF9C" clip-path="url(#etherlink_svg__a)">
    <path d="M17.739 13.679a1.46 1.46 0 0 1-1.033-2.494l3.778-3.778a1.461 1.461 0 0 1 2.065 2.066l-3.777 3.778c-.285.285-.66.428-1.033.428Z"/>
    <path d="M15 30C6.729 30 0 23.27 0 15S6.729 0 15 0s15 6.729 15 15-6.729 15-15 15Zm0-27.078C8.34 2.922 2.922 8.34 2.922 15c0 6.66 5.418 12.078 12.078 12.078 6.66 0 12.078-5.418 12.078-12.078C27.078 8.34 21.66 2.922 15 2.922Z"/>
    <path d="M8.483 22.905a1.46 1.46 0 0 1-1.033-2.494l3.778-3.777a1.46 1.46 0 1 1 2.066 2.066l-3.778 3.777c-.285.285-.66.428-1.033.428ZM14.673 9.741c-2.611.187-4.723 2.288-4.9 4.9a.585.585 0 0 1-.172.376l-2.122 2.125a.222.222 0 0 1-.371-.099 8.238 8.238 0 0 1-.279-2.066 8.197 8.197 0 0 1 10.32-7.911c.138.038.183.21.083.31l-2.193 2.195a.579.579 0 0 1-.366.17ZM20.378 14.924l2.194-2.193c.1-.1.274-.055.31.082.184.68.281 1.393.281 2.13 0 4.516-3.674 8.19-8.191 8.19a8.246 8.246 0 0 1-2.066-.278.222.222 0 0 1-.099-.371l2.125-2.122c.1-.1.234-.162.375-.172 2.614-.177 4.714-2.289 4.901-4.9a.579.579 0 0 1 .169-.366Z"/>
  </g>
  <defs>
    <clipPath id="etherlink_svg__a">
      <path fill="#fff" d="M0 0h30v30H0z"/>
    </clipPath>
  </defs>
</svg>
