<svg xmlns="http://www.w3.org/2000/svg" fill="none" viewBox="0 0 30 30">
  <path fill="#627EEA" d="M15 30c8.284 0 15-6.716 15-15 0-8.284-6.716-15-15-15C6.716 0 0 6.716 0 15c0 8.284 6.716 15 15 15Z"/>
  <path fill="#fff" fill-opacity=".602" d="M15.028 3.833v8.316l7.029 3.141-7.029-11.457Z"/>
  <path fill="#fff" d="M15.028 3.833 8 15.29l7.028-3.14V3.832Z"/>
  <path fill="#fff" fill-opacity=".602" d="M15.028 20.679v5.65l7.033-9.73-7.033 4.08Z"/>
  <path fill="#fff" d="M15.028 26.33v-5.651L8 16.599l7.028 9.73Z"/>
  <path fill="#fff" fill-opacity=".2" d="m15.028 19.37 7.029-4.08-7.029-3.14v7.22Z"/>
  <path fill="#fff" fill-opacity=".602" d="m8 15.29 7.028 4.08v-7.22L8 15.29Z"/>
</svg>
