<svg xmlns="http://www.w3.org/2000/svg" fill="none" viewBox="0 0 30 30">
  <g fill-rule="evenodd" clip-path="url(#filecoin-icon-dark_svg__a)" clip-rule="evenodd">
    <path fill="#0090FF" d="M15 29.998c-8.25 0-15-6.75-15-15.074.075-8.25 6.75-15 15.075-14.925 8.25.075 14.924 6.75 14.924 15.15-.075 8.175-6.75 14.85-15 14.85Z"/>
    <path fill="#fff" d="m16.425 13.199-.45 2.4 4.275.6-.3 1.125-4.2-.6c-.3.975-.45 2.025-.825 2.925-.375 1.05-.75 2.1-1.2 3.075-.6 1.275-1.65 2.175-3.075 2.4-.825.15-1.725.075-2.4-.45-.225-.15-.45-.45-.45-.675 0-.3.15-.675.375-.825.15-.075.525 0 .75.075.225.225.45.525.6.825.45.6 1.05.675 1.65.225.675-.6 1.05-1.425 1.275-2.25.45-1.8.9-3.525 1.275-5.325v-.3l-3.975-.6.15-1.125 4.125.6.525-2.325-4.275-.675.15-1.2 4.425.6c.15-.45.225-.825.375-1.2.375-1.35.75-2.7 1.65-3.9.9-1.2 1.95-1.95 3.524-1.875.675 0 1.35.225 1.8.75.075.075.225.225.225.375 0 .3 0 .675-.224.9-.3.225-.675.15-.976-.15-.224-.225-.375-.45-.6-.675-.45-.6-1.124-.675-1.65-.15-.374.375-.75.9-.974 1.425-.525 1.575-.9 3.225-1.425 4.875l4.125.6-.3 1.125-3.975-.6Z"/>
  </g>
  <defs>
    <clipPath id="filecoin-icon-dark_svg__a">
      <path fill="#fff" d="M0 0h30v30H0z"/>
    </clipPath>
  </defs>
</svg>
