<svg xmlns="http://www.w3.org/2000/svg" fill="none" viewBox="0 0 256 256">
  <path fill="#000" fill-rule="evenodd" d="M118.403 0h19.468v42.952c42.493 5.048 75.445 41.203 75.445 85.055 0 43.852-32.952 80.007-75.445 85.055V256h-19.468v-42.829C75.448 208.556 42 172.188 42 128.007c0-44.18 33.448-80.549 76.403-85.164V0Zm0 62.459c-32.175 4.501-56.935 32.133-56.935 65.548s24.76 61.047 56.935 65.548V62.459Zm19.468 130.955c31.706-4.911 55.977-32.325 55.977-65.407 0-33.083-24.271-60.496-55.977-65.407v130.814Z" clip-rule="evenodd"/>
</svg>
