<svg xmlns="http://www.w3.org/2000/svg" fill="none" viewBox="0 0 30 30">
  <path fill="#010101" fill-rule="evenodd" d="m10.997 4.44 4.136-2.389a.383.383 0 0 1 .382 0l10.9 6.293c.117.068.19.194.191.33l.015 4.328a.381.381 0 0 1-.192.332l-4.13 2.385a.382.382 0 0 1-.573-.33l-.013-3.884a.382.382 0 0 0-.192-.33L10.997 5.101a.382.382 0 0 1 0-.662ZM8.326 24.043l-4.135-2.387a.38.38 0 0 1-.191-.33V8.74c0-.136.072-.261.19-.33l3.742-2.178a.38.38 0 0 1 .383 0l4.13 2.385a.382.382 0 0 1 0 .661L9.09 11.232a.381.381 0 0 0-.19.33v12.153a.381.381 0 0 1-.573.33Zm18.295-2.719v-4.774l-.001-.001a.382.382 0 0 0-.573-.33l-10.524 6.076a.383.383 0 0 1-.38 0l-3.37-1.931a.383.383 0 0 0-.573.332v4.768c0 .138.074.264.193.332l3.756 2.152a.38.38 0 0 0 .38 0l10.9-6.293a.38.38 0 0 0 .192-.33Z" clip-rule="evenodd"/>
</svg>
