<svg xmlns="http://www.w3.org/2000/svg" fill="none" viewBox="0 0 30 30">
  <g clip-path="url(#fvm-icon-dark_svg__a)">
    <mask id="fvm-icon-dark_svg__b" width="20" height="30" x="5" y="0" maskUnits="userSpaceOnUse" style="mask-type:luminance">
      <path fill="#fff" d="M24.934 0H5.167v30h19.767V0Z"/>
    </mask>
    <g mask="url(#fvm-icon-dark_svg__b)">
      <path fill="#72EA9A" d="m24.934 23.19-3.86 2.27V30l3.86-2.27v-4.54ZM9.724 14.563l-3.86 2.27v4.54l3.86-2.27v-4.54Z"/>
      <path fill="#1A3A96" d="m21.075 25.46-15.21-8.627v4.54L21.074 30v-4.54Z"/>
      <path fill="url(#fvm-icon-dark_svg__c)" d="m24.934 23.19-15.21-8.627-3.86 2.27 15.21 8.627 3.86-2.27Z"/>
      <path fill="url(#fvm-icon-dark_svg__d)" d="m5.167 16.28 3.953 2.325v4.65L5.167 20.93v-4.65Z"/>
      <path fill="#72EA9A" d="M20.748 7.442 24.7 9.767v4.652l-3.953-2.326V7.442Z"/>
      <path fill="#1A3A96" d="m9.12 18.605 15.582-8.838v4.652L9.12 23.256v-4.651Z"/>
      <path fill="url(#fvm-icon-dark_svg__e)" d="m5.167 16.279 15.581-8.837 3.953 2.325-15.58 8.838-3.954-2.326Z"/>
      <path fill="#72EA9A" d="m5.167 8.837 3.953 2.326v4.651l-3.953-2.326v-4.65ZM20.748 0 24.7 2.326v4.65l-3.953-2.325V0Z"/>
      <path fill="#1A3A96" d="m9.12 11.163 15.582-8.837v4.65L9.12 15.815v-4.651Z"/>
      <path fill="url(#fvm-icon-dark_svg__f)" d="M5.167 8.837 20.748 0l3.953 2.326-15.58 8.837-3.954-2.326Z"/>
    </g>
  </g>
  <defs>
    <linearGradient id="fvm-icon-dark_svg__c" x1="6.205" x2="27.091" y1="16.265" y2="22.054" gradientUnits="userSpaceOnUse">
      <stop offset=".5" stop-color="#5A92ED"/>
      <stop offset="1" stop-color="#71E49F"/>
    </linearGradient>
    <linearGradient id="fvm-icon-dark_svg__d" x1="5.981" x2="7.608" y1="16.279" y2="22.907" gradientUnits="userSpaceOnUse">
      <stop stop-color="#72E79D"/>
      <stop offset="1" stop-color="#5C97E8"/>
    </linearGradient>
    <linearGradient id="fvm-icon-dark_svg__e" x1="30.399" x2="7.608" y1="7.791" y2="14.419" gradientUnits="userSpaceOnUse">
      <stop stop-color="#70E1A1"/>
      <stop offset="1" stop-color="#5C99E9"/>
    </linearGradient>
    <linearGradient id="fvm-icon-dark_svg__f" x1="24.353" x2="2.957" y1="1.744" y2="7.674" gradientUnits="userSpaceOnUse">
      <stop stop-color="#5C99E9"/>
      <stop offset="1" stop-color="#72EA9A"/>
    </linearGradient>
    <clipPath id="fvm-icon-dark_svg__a">
      <path fill="#fff" d="M0 0h30v30H0z"/>
    </clipPath>
  </defs>
</svg>
