<svg xmlns="http://www.w3.org/2000/svg" fill="none" viewBox="0 0 30 30">
  <path fill="#2E4A3C" d="M4.938 13.18c0-.907.299-1.733.815-2.387l5.468 5.465a3.875 3.875 0 0 1-2.389.815c-2.16-.001-3.905-1.746-3.894-3.893Zm16.263 3.88c2.148.012 3.894-1.734 3.894-3.892 0-.895-.299-1.722-.816-2.388l-5.467 5.465a3.827 3.827 0 0 0 2.389.815Zm4.227-7.405a5.474 5.474 0 0 1 1.286 3.535 5.514 5.514 0 0 1-9.05 4.225l-2.653 2.652-2.653-2.652a5.514 5.514 0 0 1-9.05-4.224c0-1.344.482-2.573 1.286-3.536l-1.24-1.24L2.17 7.234A14.915 14.915 0 0 0 0 15.006C0 23.295 6.718 30 15 30c8.28 0 14.999-6.717 14.999-14.994.023-2.859-.77-5.51-2.148-7.773l-2.423 2.422Zm-10.429 8.117L3.1 5.877c.333-.425.689-.838 1.057-1.227A14.974 14.974 0 0 1 15.011 0c4.272 0 8.13 1.791 10.853 4.65.379.378.736.803 1.034 1.216L15 17.772ZM5.788 5.775l9.221 9.22 9.222-9.22c-2.445-2.469-5.708-3.823-9.222-3.823-3.514 0-6.763 1.354-9.221 3.823Z"/>
</svg>
