<svg xmlns="http://www.w3.org/2000/svg" fill="none" viewBox="0 0 30 30">
  <path fill="#000" d="M15 2C7.82 2 2 7.82 2 15s5.82 13 13 13 13-5.82 13-13S22.18 2 15 2Zm-.563 5.253a1.126 1.126 0 0 1 1.091.034 343.94 343.94 0 0 1 3.63 2.096c.387.228.585.593.587 1.041.007 1.571.005 3.141 0 4.713 0 .058-.038.143-.085.17-.467.278-.94.547-1.45.842v-.247c0-1.616-.006-3.232.003-4.847.002-.31-.106-.51-.38-.667-1.41-.8-2.812-1.617-4.216-2.428-.06-.035-.12-.072-.211-.128.362-.205.688-.411 1.031-.58Zm-.258 16.076c-.078-.04-.137-.068-.194-.1-1.86-1.073-3.717-2.152-5.582-3.217-.523-.299-.762-.723-.757-1.32.01-1.27.007-2.54 0-3.81-.002-.574.23-.989.734-1.275 1.31-.745 2.612-1.501 3.915-2.258.112-.065.195-.076.312-.006.45.27.907.529 1.386.804l-.23.137c-1.41.814-2.819 1.63-4.232 2.44-.232.132-.34.304-.337.572.007 1.001.008 2.001 0 3.002-.003.277.106.452.345.588 1.491.852 2.977 1.716 4.467 2.57.127.073.18.148.177.3-.011.512-.004 1.024-.004 1.573Zm0-2.866-.316-.18c-1.182-.683-2.363-1.367-3.548-2.044-.128-.073-.175-.152-.173-.3.008-.77.005-1.539.002-2.309 0-.104.015-.176.118-.233.437-.243.868-.497 1.3-.746.032-.018.065-.032.123-.06v.864c0 .468.007.936-.003 1.404a.59.59 0 0 0 .33.578c.67.378 1.33.771 2 1.147.133.075.173.156.17.302-.008.512-.003 1.024-.003 1.577Zm-1.366-10.098c-.25-.148-.465-.146-.716 0-1.406.821-2.817 1.632-4.227 2.446-.059.035-.121.066-.226.124.037-.536-.077-1.041.105-1.53.1-.268.286-.47.533-.612 1.176-.68 2.352-1.362 3.53-2.037.43-.247.87-.24 1.3.007 1.337.77 2.675 1.543 4.01 2.318.057.034.129.107.13.162.01.55.005 1.1.005 1.692l-1.382-.798c-1.022-.59-2.045-1.174-3.062-1.772Zm9.408 8.65c-.034.432-.288.74-.663.954-1.433.824-2.864 1.652-4.297 2.48l-1.35.777c-.053.032-.11.059-.183.098-.005-.075-.011-.13-.011-.184-.001-.475.003-.95-.003-1.424 0-.106.026-.173.124-.23 2.09-1.201 4.176-2.408 6.264-3.612.031-.019.066-.033.125-.061.001.42.025.813-.006 1.201Zm.01-2.992c-.003.492-.268.838-.69 1.08-1.633.938-3.264 1.882-4.896 2.824l-.917.527c-.005-.08-.011-.134-.011-.189-.001-.468.005-.936-.004-1.405-.002-.133.042-.204.157-.27 1.485-.852 2.963-1.713 4.45-2.56.264-.15.38-.335.379-.646-.012-1.615-.006-3.232-.006-4.848v-.282c.388.234.75.426 1.083.661.302.215.455.54.457.914.005 1.398.009 2.796-.001 4.194Z"/>
</svg>
