<svg xmlns="http://www.w3.org/2000/svg" fill="none" viewBox="0 0 180 180">
  <g clip-path="url(#iota-evm-ico_svg__a)">
    <circle cx="90" cy="90" r="90" fill="#101112"/>
    <path fill="#fff" fill-rule="evenodd" d="M129.895 32.712c0 4.443-3.611 8.045-8.066 8.045-4.454 0-8.065-3.602-8.065-8.045 0-4.444 3.611-8.045 8.065-8.045 4.455 0 8.066 3.601 8.066 8.045Zm9.075 113.638c0 4.443-3.612 8.045-8.066 8.045-4.455 0-8.066-3.602-8.066-8.045 0-4.444 3.611-8.045 8.066-8.045 4.454 0 8.066 3.601 8.066 8.045Zm-14.835-85.48c3.739 0 6.77-3.023 6.77-6.752 0-3.73-3.031-6.752-6.77-6.752-3.738 0-6.769 3.023-6.769 6.752 0 3.729 3.031 6.752 6.769 6.752Zm24.775-4.167c0 3.73-3.031 6.752-6.77 6.752-3.738 0-6.769-3.023-6.769-6.752 0-3.729 3.031-6.752 6.769-6.752 3.739 0 6.77 3.023 6.77 6.752Zm-27.08 21.262c3.182 0 5.762-2.572 5.762-5.746 0-3.174-2.58-5.746-5.762-5.746-3.182 0-5.761 2.572-5.761 5.746 0 3.174 2.579 5.746 5.761 5.746Zm23.767-3.303c0 3.174-2.58 5.747-5.762 5.747-3.182 0-5.761-2.573-5.761-5.747s2.579-5.746 5.761-5.746 5.762 2.573 5.762 5.746Zm8.642 11.348c3.181 0 5.761-2.572 5.761-5.746 0-3.174-2.58-5.746-5.761-5.746-3.182 0-5.762 2.572-5.762 5.746 0 3.174 2.58 5.746 5.762 5.746Zm-14.694 3.161a5.034 5.034 0 0 1-5.041 5.028 5.034 5.034 0 0 1-5.041-5.028 5.035 5.035 0 0 1 5.041-5.028 5.034 5.034 0 0 1 5.041 5.028Zm-23.043 2.585a5.035 5.035 0 0 0 5.041-5.028 5.035 5.035 0 0 0-5.041-5.028 5.035 5.035 0 0 0-5.041 5.028 5.035 5.035 0 0 0 5.041 5.028Zm37.591 3.017a5.035 5.035 0 0 1-5.041 5.029 5.035 5.035 0 0 1-5.041-5.029 5.035 5.035 0 0 1 5.041-5.028 5.035 5.035 0 0 1 5.041 5.028Zm-26.789 9.912a4.315 4.315 0 0 0 4.321-4.31c0-2.38-1.935-4.31-4.321-4.31a4.316 4.316 0 0 0-4.321 4.31 4.315 4.315 0 0 0 4.321 4.31Zm18.869 1.15c0 2.38-1.935 4.31-4.321 4.31a4.316 4.316 0 0 1-4.321-4.31c0-2.38 1.935-4.31 4.321-4.31a4.316 4.316 0 0 1 4.321 4.31Zm-36.73-3.736a4.316 4.316 0 0 0 4.321-4.31c0-2.38-1.935-4.31-4.321-4.31a4.316 4.316 0 0 0-4.322 4.31c0 2.38 1.935 4.31 4.322 4.31Zm13.54 6.036a3.596 3.596 0 0 1-3.601 3.591 3.596 3.596 0 0 1-3.601-3.591 3.596 3.596 0 0 1 3.601-3.592 3.596 3.596 0 0 1 3.601 3.592Zm2.591 13.503a3.165 3.165 0 0 0 3.169-3.161 3.165 3.165 0 0 0-3.169-3.16 3.165 3.165 0 0 0-3.169 3.16 3.165 3.165 0 0 0 3.169 3.161Zm-5.041-.573a2.589 2.589 0 0 1-2.592 2.586 2.59 2.59 0 0 1-2.593-2.586 2.59 2.59 0 0 1 2.593-2.586 2.589 2.589 0 0 1 2.592 2.586Zm-9.362-4.886a3.165 3.165 0 0 0 3.169-3.16 3.165 3.165 0 0 0-3.169-3.161 3.165 3.165 0 0 0-3.169 3.161 3.165 3.165 0 0 0 3.169 3.16Zm-6.192-10.487a3.596 3.596 0 0 1-3.601 3.592 3.596 3.596 0 0 1-3.6-3.592 3.595 3.595 0 0 1 3.6-3.591 3.595 3.595 0 0 1 3.601 3.591Zm-3.746-23.418a3.596 3.596 0 0 0 3.601-3.592 3.596 3.596 0 0 0-3.601-3.591 3.596 3.596 0 0 0-3.6 3.591 3.596 3.596 0 0 0 3.6 3.592Zm4.753-15.802a3.164 3.164 0 0 1-3.169 3.16 3.164 3.164 0 0 1-3.168-3.16 3.164 3.164 0 0 1 3.168-3.16 3.164 3.164 0 0 1 3.169 3.16Zm.289-7.183a2.59 2.59 0 0 0 2.592-2.586 2.59 2.59 0 0 0-2.592-2.586 2.59 2.59 0 0 0-2.593 2.586 2.59 2.59 0 0 0 2.593 2.586Zm-2.881-8.045a3.165 3.165 0 0 1-3.169 3.161 3.165 3.165 0 0 1-3.168-3.16 3.165 3.165 0 0 1 3.168-3.161 3.165 3.165 0 0 1 3.169 3.16Zm30.391 65.94a3.597 3.597 0 0 0 3.601-3.592 3.597 3.597 0 0 0-3.601-3.591 3.596 3.596 0 0 0-3.601 3.591 3.596 3.596 0 0 0 3.601 3.592ZM95.616 46.647a3.596 3.596 0 0 1-3.6 3.591 3.596 3.596 0 0 1-3.602-3.591 3.596 3.596 0 0 1 3.601-3.592c1.989 0 3.601 1.608 3.601 3.592Zm-1.151 18.82c1.988 0 3.6-1.609 3.6-3.592a3.596 3.596 0 0 0-3.6-3.592 3.596 3.596 0 0 0-3.601 3.592 3.596 3.596 0 0 0 3.6 3.592Zm.29 10.2c0 2.38-1.935 4.309-4.322 4.309a4.315 4.315 0 0 1-4.32-4.31c0-2.38 1.934-4.31 4.32-4.31a4.315 4.315 0 0 1 4.321 4.31Zm-17.43 4.308a5.035 5.035 0 0 0 5.04-5.028 5.035 5.035 0 0 0-5.04-5.029 5.035 5.035 0 0 0-5.042 5.029 5.035 5.035 0 0 0 5.041 5.028Zm-9.505-2.296c0 3.173-2.58 5.746-5.762 5.746-3.182 0-5.761-2.573-5.761-5.746 0-3.174 2.58-5.747 5.761-5.747 3.182 0 5.762 2.573 5.762 5.747ZM45.35 91.614c3.739 0 6.77-3.023 6.77-6.752 0-3.729-3.031-6.752-6.77-6.752-3.739 0-6.77 3.023-6.77 6.752 0 3.73 3.031 6.752 6.77 6.752ZM36.13 97.36c0 4.443-3.61 8.045-8.066 8.045-4.454 0-8.065-3.602-8.065-8.045s3.611-8.045 8.066-8.045c4.454 0 8.065 3.602 8.065 8.045Zm2.45-22.555c3.739 0 6.77-3.023 6.77-6.752 0-3.73-3.031-6.752-6.77-6.752-3.739 0-6.77 3.023-6.77 6.752 0 3.73 3.031 6.752 6.77 6.752ZM61.047 60.87c0 3.173-2.58 5.746-5.761 5.746-3.182 0-5.761-2.573-5.761-5.746 0-3.174 2.58-5.747 5.76-5.747 3.183 0 5.762 2.573 5.762 5.747Zm-8.208-9.482c3.182 0 5.76-2.573 5.76-5.746 0-3.174-2.578-5.747-5.76-5.747s-5.762 2.573-5.762 5.747c0 3.173 2.58 5.746 5.762 5.746Zm20.308-8.476a5.035 5.035 0 0 1-5.04 5.028 5.035 5.035 0 0 1-5.042-5.028 5.035 5.035 0 0 1 5.041-5.028 5.035 5.035 0 0 1 5.041 5.028Zm8.065 5.029c2.387 0 4.321-1.93 4.321-4.31s-1.934-4.31-4.32-4.31a4.316 4.316 0 0 0-4.322 4.31c0 2.38 1.935 4.31 4.321 4.31Zm6.77 10.916c0 2.38-1.934 4.31-4.321 4.31a4.315 4.315 0 0 1-4.32-4.31c0-2.38 1.934-4.31 4.32-4.31a4.316 4.316 0 0 1 4.321 4.31ZM70.555 63.31a5.034 5.034 0 0 0 5.04-5.028 5.035 5.035 0 0 0-5.04-5.028 5.035 5.035 0 0 0-5.041 5.028 5.034 5.034 0 0 0 5.04 5.028ZM58.888 98.94a2.589 2.589 0 0 1-2.593 2.586 2.589 2.589 0 0 1-2.592-2.586 2.59 2.59 0 0 1 2.592-2.586 2.59 2.59 0 0 1 2.593 2.586Zm7.779 1.293a3.164 3.164 0 0 0 3.168-3.16 3.164 3.164 0 0 0-3.168-3.16 3.165 3.165 0 0 0-3.17 3.16 3.164 3.164 0 0 0 3.17 3.16Zm14.978-7.9a3.596 3.596 0 0 1-3.6 3.592 3.596 3.596 0 0 1-3.602-3.591 3.596 3.596 0 0 1 3.601-3.592c1.989 0 3.6 1.608 3.6 3.592Zm-.865 15.083c2.386 0 4.321-1.93 4.321-4.31s-1.935-4.31-4.32-4.31a4.315 4.315 0 0 0-4.322 4.31c0 2.38 1.935 4.31 4.321 4.31Zm-10.225-.862a3.596 3.596 0 0 1-3.6 3.591 3.596 3.596 0 0 1-3.601-3.591 3.596 3.596 0 0 1 3.6-3.592c1.99 0 3.601 1.608 3.601 3.592ZM54.711 110a3.165 3.165 0 0 0 3.169-3.16 3.165 3.165 0 0 0-3.17-3.161 3.165 3.165 0 0 0-3.168 3.161 3.165 3.165 0 0 0 3.169 3.16Zm3.743 6.322a3.596 3.596 0 0 1-3.6 3.592 3.596 3.596 0 0 1-3.601-3.592 3.596 3.596 0 0 1 3.6-3.591c1.99 0 3.601 1.608 3.601 3.591Zm11.093 5.46c2.386 0 4.32-1.93 4.32-4.31s-1.934-4.31-4.32-4.31a4.316 4.316 0 0 0-4.321 4.31c0 2.38 1.934 4.31 4.32 4.31Zm22.182-6.895c0 2.776-2.257 5.027-5.042 5.027a5.034 5.034 0 0 1-5.04-5.027 5.035 5.035 0 0 1 5.04-5.029 5.035 5.035 0 0 1 5.042 5.029Zm5.04 17.525c3.181 0 5.761-2.573 5.761-5.747s-2.58-5.746-5.761-5.746c-3.183 0-5.762 2.572-5.762 5.746 0 3.174 2.58 5.747 5.761 5.747Zm-16.132-3.303a5.035 5.035 0 0 1-5.041 5.028 5.035 5.035 0 0 1-5.041-5.028 5.035 5.035 0 0 1 5.04-5.028 5.035 5.035 0 0 1 5.042 5.028ZM63.64 143.905a5.035 5.035 0 0 0 5.041-5.028 5.035 5.035 0 0 0-5.04-5.028 5.035 5.035 0 0 0-5.042 5.028 5.035 5.035 0 0 0 5.041 5.028Zm15.7 6.897c0 3.174-2.58 5.747-5.762 5.747-3.181 0-5.76-2.573-5.76-5.747s2.579-5.746 5.76-5.746c3.182 0 5.762 2.572 5.762 5.746Zm20.742 8.045c3.739 0 6.77-3.023 6.77-6.752 0-3.729-3.031-6.752-6.77-6.752-3.739 0-6.77 3.023-6.77 6.752 0 3.729 3.031 6.752 6.77 6.752Zm-8.787-17.815c0 3.173-2.58 5.746-5.762 5.746-3.181 0-5.76-2.573-5.76-5.746 0-3.174 2.579-5.747 5.76-5.747 3.182 0 5.762 2.573 5.762 5.747Zm19.877 3.45c3.739 0 6.77-3.023 6.77-6.753 0-3.729-3.031-6.751-6.77-6.751-3.738 0-6.769 3.022-6.769 6.751 0 3.73 3.031 6.753 6.769 6.753Zm-49.26-17.24a4.315 4.315 0 0 1-4.321 4.309 4.315 4.315 0 0 1-4.32-4.309 4.315 4.315 0 0 1 4.32-4.31 4.315 4.315 0 0 1 4.321 4.31Z" clip-rule="evenodd"/>
  </g>
  <defs>
    <clipPath id="iota-evm-ico_svg__a">
      <rect width="180" height="180" fill="#fff" rx="90"/>
    </clipPath>
  </defs>
</svg>
