<svg xmlns="http://www.w3.org/2000/svg" fill="none" viewBox="0 0 30 30">
  <g clip-path="url(#kinto-light_svg__a)">
    <path fill="#0D0D0D" d="M23.401 23.563c8.525-2.181 8.521-14.95-.002-17.127-2.16-8.585-14.847-8.578-17.005.002-8.526 2.176-8.525 14.954 0 17.125 2.161 8.585 14.85 8.58 17.007 0Zm3.313-14.244c4.202 4.025 2.386 11.596-3.111 13.301.067-.43.104-.867.107-1.303 5.467-2.124 5.467-10.506 0-12.632a8.955 8.955 0 0 0-.11-1.303 7.894 7.894 0 0 1 3.112 1.939l.002-.002Zm-5.524 5.68a8.822 8.822 0 0 0 2.043-3.33c2.363 1.489 2.365 5.172 0 6.661A8.81 8.81 0 0 0 21.19 15Zm-.497 4.806c1.547 5.674-5.988 9.978-10.017 5.662-2.557-2.477-2.184-6.825.534-9.033.35-.345 1.08-1.093 1.423-1.434.891-.896 1.965-1.979 2.854-2.875.975-.961 1.999-2.2 3.3-2.678a3.905 3.905 0 0 1-1.009 2.046l-.096.093c-1.366 1.376-2.852 2.875-4.218 4.248l-1.957 1.97c-1.856 1.81-1.858 5.019 0 6.823 4.464 4.353 11.063-2.118 6.868-6.724l-.035-.038.83-.836a5.948 5.948 0 0 1 1.521 2.773l.002.003Zm-14.574.603c-4.425-2.005-4.424-8.805-.002-10.812.039.414.104.826.2 1.233-3.148 1.74-3.147 6.61 0 8.35a8.756 8.756 0 0 0-.198 1.231v-.002Zm-.195-2.592c-1.769-1.74-1.448-4.807.633-6.145A8.793 8.793 0 0 0 8.602 15a8.815 8.815 0 0 0-2.044 3.332 3.99 3.99 0 0 1-.634-.518v.001Zm6.123-6.284c-.574-.57-.916-1.326-1.045-2.08a5.884 5.884 0 0 1 1.876 1.244l-.83.836Zm-1.094-3c.026-.396.108-.79.249-1.165a7.883 7.883 0 0 1 3.1 1.894l-.83.835a6.759 6.759 0 0 0-2.519-1.566v.001Zm3.942.133a8.742 8.742 0 0 0-3.307-2.058c1.478-2.38 5.136-2.38 6.615 0a8.72 8.72 0 0 0-3.308 2.06v-.002Zm3.39-3.293c-4.467-4.355-11.06 2.119-6.87 6.725l.037.039-.83.836c-5.335-5.704 2.89-13.891 8.493-8.437 2.311 2.253 2.313 6.242 0 8.496l-4.217 4.246c-1.198 1.129-2.332 2.668-3.893 3.273a3.923 3.923 0 0 1 1.007-2.043h.002a5212.17 5212.17 0 0 0 4.314-4.342l1.957-1.97c1.857-1.807 1.856-5.02 0-6.823Zm-.539 13.1c.027.027.05.05.079.076.522.576.844 1.276.965 2.004a5.927 5.927 0 0 1-1.874-1.242l.83-.836v-.002Zm1.093 3c-.024.398-.106.79-.249 1.165a7.915 7.915 0 0 1-3.1-1.894l.83-.835a6.739 6.739 0 0 0 2.517 1.565h.002Zm-3.98-.096.038-.037a8.74 8.74 0 0 0 3.307 2.058c-1.48 2.381-5.138 2.383-6.618 0a8.747 8.747 0 0 0 3.27-2.02h.002Zm9.6-9.786a4.733 4.733 0 0 0-.986-.762c.096-.407.163-.818.2-1.234 4.422 2.01 4.422 8.804 0 10.813a8.813 8.813 0 0 0-.2-1.234c2.69-1.52 3.204-5.414.984-7.583h.001ZM9.252 3.102c8.079-7.557 18.922 4.465 10.752 11.9L17.75 17.27c-2.034 1.871-3.83 4.527-6.544 5.365a3.857 3.857 0 0 1-.249-1.164 6.79 6.79 0 0 0 2.479-1.53c2.084-2.1 4.247-4.276 6.331-6.374 2.583-2.594 2.554-7.073-.059-9.63-6.473-6.187-15.746 3.048-9.684 9.633l-.829.835c-3.042-3.045-3.015-8.285.06-11.303h-.003ZM3.078 20.684C-1.124 16.66.692 9.084 6.193 7.382a9.41 9.41 0 0 0-.111 1.303C.613 10.81.615 19.198 6.084 21.32c.003.436.04.872.109 1.303a7.918 7.918 0 0 1-3.116-1.938h.001Zm6.177 6.218c-3.336-3.255-2.989-8.925.534-11.9.664-.67 1.589-1.6 2.253-2.272 2.036-1.869 3.828-4.53 6.545-5.364.143.375.225.767.248 1.164a6.76 6.76 0 0 0-2.577 1.625l-4.219 4.248c-1.307 1.362-3.014 2.71-3.57 4.567-2.429 6.695 6.283 12.229 11.237 7.094 2.614-2.558 2.643-7.036.059-9.63l.829-.835c7.138 7.709-3.754 18.568-11.344 11.303h.005Z"/>
  </g>
  <defs>
    <clipPath id="kinto-light_svg__a">
      <path fill="#fff" d="M0 0h30v30H0z"/>
    </clipPath>
  </defs>
</svg>
