<svg xmlns="http://www.w3.org/2000/svg" fill="none" viewBox="0 0 30 30">
  <g clip-path="url(#kinto-dark_svg__a)">
    <path fill="url(#kinto-dark_svg__b)" d="M23.564 23.563c8.583-2.181 8.58-14.95-.002-17.127-2.175-8.585-14.95-8.578-17.124.002-8.585 2.176-8.583 14.954 0 17.125 2.177 8.585 14.953 8.58 17.126 0Zm3.335-14.244c4.231 4.025 2.403 11.596-3.133 13.301.068-.43.105-.867.109-1.303 5.505-2.124 5.505-10.506 0-12.632a8.915 8.915 0 0 0-.112-1.303 7.958 7.958 0 0 1 3.134 1.939l.002-.002Zm-5.562 5.68a8.812 8.812 0 0 0 2.058-3.33c2.379 1.489 2.38 5.172 0 6.661A8.8 8.8 0 0 0 21.337 15Zm-.5 4.806c1.557 5.674-6.03 9.978-10.086 5.662-2.576-2.477-2.2-6.825.537-9.033.353-.345 1.086-1.093 1.433-1.434l2.874-2.875c.982-.961 2.012-2.2 3.322-2.678a3.895 3.895 0 0 1-1.016 2.046l-.096.093c-1.375 1.376-2.872 2.875-4.248 4.248-.573.575-1.397 1.396-1.97 1.97-1.869 1.81-1.87 5.019 0 6.823 4.495 4.353 11.14-2.118 6.916-6.724l-.035-.038.836-.836a5.937 5.937 0 0 1 1.53 2.773l.003.003Zm-14.676.603c-4.455-2.005-4.454-8.805-.001-10.812.038.414.104.826.2 1.233-3.17 1.74-3.168 6.61 0 8.35a8.7 8.7 0 0 0-.199 1.231v-.002Zm-.196-2.592c-1.78-1.74-1.458-4.807.637-6.145A8.783 8.783 0 0 0 8.662 15a8.805 8.805 0 0 0-2.058 3.332 4.012 4.012 0 0 1-.639-.518v.001Zm6.166-6.284c-.578-.57-.922-1.326-1.053-2.08a5.928 5.928 0 0 1 1.89 1.244l-.837.836Zm-1.102-3c.026-.396.108-.79.25-1.165A7.948 7.948 0 0 1 14.4 9.261l-.834.835a6.811 6.811 0 0 0-2.537-1.566v.001Zm3.97.133a8.812 8.812 0 0 0-3.33-2.058c1.488-2.38 5.171-2.38 6.66 0a8.79 8.79 0 0 0-3.33 2.06v-.002Zm3.413-3.293c-4.498-4.355-11.137 2.119-6.918 6.725l.037.039-.836.836C5.323 7.268 13.606-.919 19.248 4.535c2.327 2.253 2.329 6.242 0 8.496l-4.246 4.246c-1.207 1.129-2.349 2.668-3.92 3.273a3.912 3.912 0 0 1 1.014-2.043h.001c1.408-1.405 2.937-2.933 4.345-4.342l1.97-1.97c1.87-1.807 1.869-5.02 0-6.823Zm-.543 13.1c.027.027.051.05.08.076.525.576.85 1.276.971 2.004a5.973 5.973 0 0 1-1.887-1.242l.836-.836v-.002Zm1.1 3c-.023.398-.106.79-.25 1.165a7.979 7.979 0 0 1-3.12-1.894l.834-.835a6.794 6.794 0 0 0 2.535 1.565h.001Zm-4.008-.096.04-.037a8.81 8.81 0 0 0 3.33 2.058c-1.49 2.381-5.174 2.383-6.665 0a8.818 8.818 0 0 0 3.294-2.02h.001Zm9.667-9.786a4.764 4.764 0 0 0-.992-.762c.097-.407.164-.818.201-1.234 4.453 2.01 4.453 8.804 0 10.813a8.773 8.773 0 0 0-.2-1.234c2.708-1.52 3.225-5.414.99-7.583h.001ZM9.318 3.102c8.134-7.557 19.053 4.465 10.826 11.9l-2.27 2.268c-2.047 1.871-3.857 4.527-6.59 5.365a3.836 3.836 0 0 1-.25-1.164 6.846 6.846 0 0 0 2.496-1.53l6.375-6.374c2.6-2.594 2.572-7.073-.059-9.63C13.327-2.25 3.99 6.985 10.095 13.57l-.835.835C6.197 11.36 6.224 6.12 9.32 3.102h-.002ZM3.1 20.684C-1.131 16.66.697 9.084 6.236 7.382c-.068.431-.105.867-.112 1.303C.617 10.81.62 19.198 6.126 21.32c.003.436.04.872.11 1.303a7.982 7.982 0 0 1-3.138-1.938H3.1Zm6.22 6.218c-3.36-3.255-3.01-8.925.537-11.9.669-.67 1.6-1.6 2.269-2.272 2.05-1.869 3.854-4.53 6.59-5.364.143.375.226.767.25 1.164a6.812 6.812 0 0 0-2.595 1.625l-4.248 4.248c-1.317 1.362-3.035 2.71-3.596 4.567-2.445 6.695 6.328 12.229 11.316 7.094 2.633-2.558 2.661-7.036.06-9.63l.834-.835c7.188 7.709-3.78 18.568-11.423 11.303h.005Z"/>
  </g>
  <defs>
    <linearGradient id="kinto-dark_svg__b" x1="1.886" x2="30" y1="30" y2="30" gradientUnits="userSpaceOnUse">
      <stop stop-color="#CCC"/>
      <stop offset=".172" stop-color="#BDBDBD"/>
      <stop offset="1" stop-color="#AFAFAF"/>
    </linearGradient>
    <clipPath id="kinto-dark_svg__a">
      <path fill="#fff" d="M0 0h30v30H0z"/>
    </clipPath>
  </defs>
</svg>
