<svg xmlns="http://www.w3.org/2000/svg" fill="none" viewBox="0 0 30 30">
  <g clip-path="url(#kusama_svg__a)">
    <path fill="#CE206F" d="M14.998 0c8.283 0 14.999 6.716 14.999 14.998 0 8.283-6.716 14.999-14.998 14.999C6.716 29.997 0 23.281 0 14.999 0 6.716 6.716 0 14.998 0Z"/>
    <path fill="#fff" d="M24.652 8.423c-.42-.372-.888-.654-1.446-.747-.7-.093-1.401.372-1.866.7-.465.326-1.4 1.166-1.773 1.493-.372.327-1.308.513-2.847 1.446-1.538.933-7.517 4.763-7.517 4.763h1.539l-6.953 3.594h.699l-.978.747c.56.141 1.119.048 1.635-.234v.234s8.26-3.267 9.848-2.427l-.981.28c.093 0 1.635.092 1.635.092.092.654.467 1.26 1.025 1.587.933.606.981.98.981.98s-.468.187-.468.469a4.333 4.333 0 0 1 2.661 0s-.048-.28-.699-.468c-.654-.28-1.215-.699-1.635-1.308-.372-.513-.513-1.167-.279-1.773.234-.606 1.026-.933 2.661-1.773 1.914-.98 2.379-1.727 2.613-2.333.234-.606.699-1.728.888-2.286.186-.513.513-.933.933-1.308a11.789 11.789 0 0 1 1.587-.699c.09.045-.936-.795-1.263-1.029Z"/>
  </g>
  <defs>
    <clipPath id="kusama_svg__a">
      <path fill="#fff" d="M0 0h30v30H0z"/>
    </clipPath>
  </defs>
</svg>
