<svg xmlns="http://www.w3.org/2000/svg" fill="none" viewBox="0 0 31 30">
  <path fill="#FF86FF" d="M12.862 14.102 1.825 3.072v11.03h11.037Z"/>
  <path fill="#FF86FF" d="m1.57.268 14.095 14.095a.902.902 0 0 1-.668 1.536H.93a.894.894 0 0 1-.902-.902V.895A.901.901 0 0 1 1.57.268Z"/>
  <path fill="#E200F1" d="m17.202 15.898 11.03 11.03v-11.03h-11.03Z"/>
  <path fill="#E200F1" d="M28.485 29.727 14.39 15.632a.901.901 0 0 1 0-1.27.914.914 0 0 1 .667-.26H29.16a.895.895 0 0 1 .895.895V29.1a.894.894 0 0 1-.895.902.914.914 0 0 1-.667-.274"/>
  <path fill="#FF59FF" d="M15.664 15.631 1.57 29.727A.909.909 0 0 1 .901 30 .894.894 0 0 1 0 29.1V14.997a.895.895 0 0 1 .901-.895H15.03a.894.894 0 0 1 .668 1.53"/>
  <path fill="#FF59FF" d="m1.825 26.929 11.037-11.03H1.825v11.03Z"/>
  <path fill="#F41AFA" d="M.294 28.465 14.389 14.37a.88.88 0 0 1 .668-.268.895.895 0 0 1 .895.895V29.1a.896.896 0 0 1-.895.902H.928a.868.868 0 0 1-.634-.268.888.888 0 0 1 0-1.268Z"/>
  <path fill="#F41AFA" d="m14.131 17.174-11.03 11.03h11.03v-11.03Z"/>
  <path fill="#BC00DE" d="M14.39 14.363 28.485.268A.908.908 0 0 1 29.153 0a.895.895 0 0 1 .894.894v14.102a.894.894 0 0 1-.894.902H15.03a.901.901 0 0 1-.668-1.536"/>
  <path fill="#BC00DE" d="m28.233 3.072-11.03 11.03h11.03V3.072Z"/>
  <path fill="#90C" d="M29.766 1.536 15.67 15.632a.933.933 0 0 1-.668.267.894.894 0 0 1-.902-.902V.895a.894.894 0 0 1 .902-.894h14.102a.901.901 0 0 1 .668.26.908.908 0 0 1 0 1.275"/>
  <path fill="#90C" d="m15.927 12.827 11.037-11.03H15.927v11.03Z"/>
</svg>
