<svg xmlns="http://www.w3.org/2000/svg" fill="none" viewBox="0 0 30 30">
  <g fill="#E6007A" clip-path="url(#polkadot_svg__a)">
    <path d="M15.103 6.292c2.988 0 5.41-1.408 5.41-3.146C20.513 1.41 18.09 0 15.103 0c-2.987 0-5.41 1.409-5.41 3.146 0 1.738 2.423 3.146 5.41 3.146ZM15.103 29.998c2.988 0 5.41-1.409 5.41-3.146 0-1.738-2.422-3.146-5.41-3.146-2.987 0-5.41 1.408-5.41 3.146 0 1.737 2.423 3.146 5.41 3.146ZM7.565 10.647c1.494-2.587 1.484-5.39-.022-6.258-1.506-.87-3.937.523-5.431 3.11-1.494 2.587-1.484 5.39.022 6.259 1.505.87 3.937-.523 5.43-3.11ZM28.092 22.499c1.494-2.588 1.485-5.39-.02-6.258-1.504-.869-3.935.524-5.429 3.111-1.494 2.588-1.485 5.39.02 6.258 1.505.869 3.936-.524 5.43-3.111ZM7.544 25.61c1.506-.87 1.516-3.672.022-6.26-1.494-2.587-3.926-3.98-5.431-3.11-1.506.87-1.516 3.672-.022 6.259s3.925 3.98 5.431 3.11ZM28.074 13.758c1.505-.868 1.514-3.67.02-6.257-1.494-2.587-3.925-3.98-5.43-3.112-1.504.869-1.513 3.67-.02 6.258 1.495 2.587 3.925 3.98 5.43 3.111Z"/>
  </g>
  <defs>
    <clipPath id="polkadot_svg__a">
      <path fill="#fff" d="M1 0h28.209v30H1z"/>
    </clipPath>
  </defs>
</svg>
