<svg xmlns="http://www.w3.org/2000/svg" fill="none" viewBox="0 0 30 30">
  <path fill="url(#polygon-short_svg__a)" d="m21.178 19.94 6.432-3.724c.357-.197.555-.553.555-.949V7.821c0-.396-.198-.752-.555-.95l-6.432-3.723a1.114 1.114 0 0 0-1.111 0L13.63 6.871a1.065 1.065 0 0 0-.555.95v13.266l-4.528 2.615-4.527-2.615V15.9l4.527-2.615 2.98 1.7V11.5l-2.424-1.385c-.159-.079-.357-.158-.556-.158-.198 0-.396.04-.555.158l-6.437 3.728a1.065 1.065 0 0 0-.555.95v7.445c0 .396.198.752.555.95l6.433 3.723c.357.198.753.198 1.11 0l6.433-3.723c.357-.198.555-.554.555-.95V8.973l.08-.04 4.452-2.576 4.528 2.616v5.186l-4.528 2.611-2.98-1.7v3.485l2.424 1.385c.358.197.754.197 1.116 0Z"/>
  <defs>
    <linearGradient id="polygon-short_svg__a" x1=".955" x2="26.812" y1="22.97" y2="7.816" gradientUnits="userSpaceOnUse">
      <stop stop-color="#A726C1"/>
      <stop offset=".878" stop-color="#803BDF"/>
      <stop offset="1" stop-color="#7B3FE4"/>
    </linearGradient>
  </defs>
</svg>
