<svg xmlns="http://www.w3.org/2000/svg" fill="none" viewBox="0 0 30 30">
  <path fill="#FF9100" d="M15.033 8.246a4.121 4.121 0 0 0 4.12-4.123A4.121 4.121 0 0 0 15.032 0a4.121 4.121 0 0 0-4.12 4.123 4.121 4.121 0 0 0 4.12 4.123Z"/>
  <path fill="#FF9100" d="M26.488 16.867a4.118 4.118 0 0 0-5.627 1.514 4.107 4.107 0 0 0-.55 2.152c.04 1.817-1.592 2.762-3.144 1.824a3.94 3.94 0 0 0-.188-.108c-1.57-.877-1.57-2.745.002-3.622A4.123 4.123 0 0 0 19.14 15l-.003-.094.002.003c-.04-1.82 1.596-2.764 3.15-1.819a4.116 4.116 0 0 0 4.202.046A4.125 4.125 0 0 0 28 7.504a4.119 4.119 0 0 0-7.687 2.155c.04 1.816-1.59 2.76-3.141 1.823a4.095 4.095 0 0 0-2.148-.604c-.788 0-1.523.22-2.148.604-1.547.933-3.174-.01-3.133-1.821a4.118 4.118 0 0 0-7.69-2.15 4.125 4.125 0 0 0 1.517 5.63 4.116 4.116 0 0 0 4.194-.05c1.55-.942 3.183.002 3.141 1.816l.002-.002-.002.096a4.12 4.12 0 0 0 2.16 3.627c1.571.877 1.57 2.747-.002 3.623-.064.034-.126.07-.187.108-1.547.932-3.173-.012-3.132-1.823a4.119 4.119 0 0 0-6.184-3.664 4.122 4.122 0 1 0 4.126 7.136l.075-.047-.002.004c1.552-.943 3.185.002 3.142 1.817l.002-.002-.002.101A4.121 4.121 0 0 0 15.023 30a4.121 4.121 0 0 0 4.116-4.127l-.002-.09.001.002c-.041-1.82 1.596-2.766 3.151-1.82l-.002-.004.084.051a4.118 4.118 0 0 0 5.627-1.513 4.124 4.124 0 0 0-1.512-5.63l.002-.002Z"/>
</svg>
