<svg xmlns="http://www.w3.org/2000/svg" fill="none" viewBox="0 0 30 30">
  <g clip-path="url(#shibuya_svg__a)">
    <g clip-path="url(#shibuya_svg__b)">
      <path fill="#222239" d="M29.961 13.983C29.4 5.717 22.245-.527 13.981.035a14.961 14.961 0 0 0-10.254 5.07l-.007-.004c-.018.023-.034.046-.05.069A14.96 14.96 0 0 0 .036 16.018c.026.393.072.778.129 1.16 0 .018.005.034.007.052a14.77 14.77 0 0 0 .285 1.43c1.733 6.907 8.204 11.8 15.561 11.3 8.264-.563 14.51-7.717 13.947-15.982l-.003.005Zm-3.265.223c.07 1.017.005 2.012-.177 2.973 0-.005-.005-.01-.005-.016-1.089-2.657-3.24-4.577-5.13-5.637.383-4.503-1.144-6.402-2.874-6.71a2.503 2.503 0 0 0-2.878 3.119 2.503 2.503 0 0 0 2.454 1.845c.009.16.013.322.013.483a13.434 13.434 0 0 0-4.456-.352c-.513.034-1.023.098-1.528.193.17-1.52.742-3.23 1.849-4.477a5.135 5.135 0 0 1 4.397-1.723 4.753 4.753 0 0 1 1.04.234c4.02 1.638 6.98 5.455 7.293 10.068h.002Zm-10.455 2.29s0 .002-.003.005c-.379.544-.809 1.053-1.283 1.517a11.158 11.158 0 0 1-1.808-2.544c-.023-.049-.048-.092-.072-.142v-.005a10.755 10.755 0 0 1-.672-1.87 11.147 11.147 0 0 1 3.109-.296l.159.008h.005c.626.051 1.278.167 1.953.352a11.179 11.179 0 0 1-1.386 2.972l-.002.003Zm-5.124-12.56-.008.01c-1.758 2.269-2.344 5.09-2.318 7.256-4.091 1.92-4.97 4.192-4.374 5.845.015.046.034.09.052.134a2.506 2.506 0 0 0 4.622-1.933 2.606 2.606 0 0 0-.161-.316c.128-.085.267-.169.416-.256a13.434 13.434 0 0 0 1.92 4.04c.285.424.593.831.929 1.224-1.402.614-3.168.973-4.803.64a5.141 5.141 0 0 1-3.69-2.947 4.765 4.765 0 0 1-.309-.973 11.88 11.88 0 0 1-.095-.865c-.365-5.373 2.968-10.155 7.819-11.86Zm4.677 22.76c-3.19.219-6.174-.87-8.428-2.805 2.845.388 5.581-.516 7.445-1.622 3.71 2.585 6.117 2.21 7.252.867a2.504 2.504 0 0 0-1.264-4.054 2.506 2.506 0 0 0-2.633.904 2.549 2.549 0 0 0-.193.301 9.293 9.293 0 0 1-.426-.231 13.4 13.4 0 0 0 2.534-3.687c.226-.46.425-.934.595-1.419 1.233.909 2.429 2.256 2.958 3.84a5.138 5.138 0 0 1-.706 4.67 4.768 4.768 0 0 1-.688.752l-.01.01a11.65 11.65 0 0 1-6.433 2.472l-.003.003Z"/>
      <path fill="#222239" d="M18.51 4.814a2.435 2.435 0 0 0-.853-.01c1.436.78 2.48 2.954 1.931 7.246a12.838 12.838 0 0 1-1.213 4.015 13.365 13.365 0 0 1-2.073 3.177c.398.3.814.573 1.245.82a13.4 13.4 0 0 0 2.534-3.687 12.747 12.747 0 0 0 1.214-4.015c.655-5.108-.952-7.218-2.785-7.544v-.002Z" opacity=".9" style="mix-blend-mode:overlay"/>
      <path fill="#222239" d="M19.588 12.047c.55-4.29-.495-6.466-1.93-7.246-.057.007-.11.02-.168.033 1.405.809 2.416 2.98 1.875 7.213a12.838 12.838 0 0 1-1.214 4.015 13.305 13.305 0 0 1-1.985 3.075c.046.036.09.07.136.103a13.421 13.421 0 0 0 2.072-3.178 12.744 12.744 0 0 0 1.214-4.015Z" opacity=".8" style="mix-blend-mode:overlay"/>
      <path fill="#222239" d="M14.133 21.779c-.136-.103-.264-.21-.395-.319-2.118.884-5.052 1.438-7.968.76a11.696 11.696 0 0 0 1.594 1.671c2.844.388 5.58-.516 7.445-1.622-.23-.16-.455-.324-.678-.493l.002.003Z" opacity=".5" style="mix-blend-mode:overlay"/>
      <path fill="#222239" d="M13.74 21.46c-.064-.054-.13-.107-.192-.161-2.133.852-5.083 1.363-7.991.636.072.095.144.193.215.285 2.914.678 5.85.124 7.968-.76Z" opacity=".6" style="mix-blend-mode:overlay"/>
      <path fill="#222239" d="M4.42 17.05c.015.046.033.09.051.134.095.226.218.428.367.61-.04-1.632 1.32-3.627 5.309-5.295 1.3-.54 2.679-.863 4.084-.955a13.303 13.303 0 0 1 3.789.205c.064-.539.09-1.042.085-1.486a13.379 13.379 0 0 0-4.46-.352 12.825 12.825 0 0 0-4.084.955c-4.75 1.987-5.775 4.434-5.14 6.187v-.003H4.42Z" opacity=".9" style="mix-blend-mode:overlay"/>
      <path fill="#222239" d="M10.147 12.501c-3.99 1.67-5.35 3.664-5.309 5.296.036.044.075.085.113.126-.003-1.62 1.373-3.58 5.309-5.23 1.3-.54 2.679-.862 4.084-.954a13.359 13.359 0 0 1 3.655.18c.008-.056.015-.113.02-.17a13.398 13.398 0 0 0-3.788-.205 12.825 12.825 0 0 0-4.084.955v.002Z" opacity=".8" style="mix-blend-mode:overlay"/>
      <path fill="#222239" d="M21.3 12.358c-.02.17-.048.333-.077.5 1.823 1.392 3.771 3.658 4.644 6.52.289-.716.506-1.459.65-2.217-1.086-2.657-3.237-4.575-5.127-5.635-.023.27-.051.544-.087.832H21.3Z" opacity=".4" style="mix-blend-mode:overlay"/>
      <path fill="#222239" d="M21.223 12.858c-.015.082-.028.167-.044.25 1.805 1.421 3.723 3.72 4.547 6.602a9.3 9.3 0 0 0 .138-.331c-.872-2.863-2.818-5.127-4.644-6.52h.003Z" opacity=".5" style="mix-blend-mode:overlay"/>
      <path fill="#222239" d="M22.063 23.134c.185-.218.333-.466.436-.734-1.394.852-3.8.67-7.241-1.951a12.76 12.76 0 0 1-2.87-3.06 13.318 13.318 0 0 1-1.718-3.383c-.498.213-.947.444-1.332.67a13.436 13.436 0 0 0 1.925 4.038c.77 1.15 1.73 2.19 2.87 3.06 4.097 3.121 6.728 2.785 7.927 1.36h.003Z" opacity=".9" style="mix-blend-mode:overlay"/>
      <path fill="#222239" d="M15.26 20.45c3.44 2.62 5.848 2.802 7.24 1.95.021-.054.04-.108.055-.16-1.401.815-3.789.601-7.182-1.983a12.763 12.763 0 0 1-2.87-3.06 13.323 13.323 0 0 1-1.671-3.255c-.054.023-.105.043-.157.066a13.319 13.319 0 0 0 1.717 3.384c.77 1.15 1.73 2.19 2.87 3.06l-.002-.003Z" opacity=".8" style="mix-blend-mode:overlay"/>
      <path fill="#222239" d="M9.559 10.861c.156-.064.313-.123.472-.182.293-2.275 1.28-5.095 3.325-7.28-.765.11-1.518.29-2.247.544-1.759 2.27-2.344 5.09-2.318 7.257.244-.115.498-.228.765-.338h.003Z" opacity=".3" style="mix-blend-mode:overlay"/>
      <path fill="#222239" d="M10.03 10.679c.08-.028.157-.06.237-.087.328-2.275 1.36-5.083 3.442-7.24l-.354.045c-2.044 2.187-3.032 5.005-3.324 7.28v.002Z" opacity=".4" style="mix-blend-mode:overlay"/>
      <path fill="#222239" d="M13.982.036a14.959 14.959 0 0 0-10.255 5.07l-.057.064c.49.488 2.097 1.448 2.747 1.848a11.715 11.715 0 0 1 4.703-3.083c.126-.164.26-.325.398-.482C13.212 1.541 15.525.532 18.21.532c.298 0 .906.049.919.049a14.896 14.896 0 0 0-5.147-.545ZM15.794 26.7c-3.19.218-6.173-.87-8.427-2.806a9.047 9.047 0 0 1-.632-.105C4.232 23.278 2.2 21.779.86 19.456a8.825 8.825 0 0 1-.403-.791c1.733 6.908 8.205 11.8 15.559 11.3.034-.758-.19-2.515-.224-3.265h.003ZM29.962 13.983c-.462-.047-2.711.13-3.265.223a11.667 11.667 0 0 1-.178 2.973c.077.19.152.385.218.582.81 2.424.527 4.932-.813 7.257-.148.256-.31.505-.483.745 0 0 .008-.005.01-.01a14.958 14.958 0 0 0 4.51-11.768v-.002Z" opacity=".4" style="mix-blend-mode:multiply"/>
      <path fill="#222239" d="M18.364 3.902a4.767 4.767 0 0 1 1.04.233 11.793 11.793 0 0 1 3.506 2.218c.493-.562 1.44-1.18 1.44-1.18s-1.45-1.484-3.67-1.946c-1.553-.324-5.057-.634-7.268 3.126l.02-.02a6.26 6.26 0 0 1 .535-.709 5.134 5.134 0 0 1 4.397-1.722ZM22.928 23.463a4.768 4.768 0 0 1-.688.752l-.034.03a11.8 11.8 0 0 1-3.665 1.923c-.003 0-.005 0-.008.003.241.708.303 1.838.303 1.838s2.01-.514 3.52-2.206c1.055-1.183 3.077-4.063.926-7.857l.008.028c.133.265.254.537.346.817a5.137 5.137 0 0 1-.706 4.67l-.002.002ZM3.707 17.638a4.764 4.764 0 0 1-.309-.973c-.002-.015-.007-.03-.01-.046a11.827 11.827 0 0 1 .167-4.135v-.008c-.734-.144-1.743-.657-1.743-.657s-.56 2 .152 4.15c.498 1.507 1.979 4.698 6.34 4.732l-.028-.008a6.35 6.35 0 0 1-.88-.108 5.145 5.145 0 0 1-3.692-2.947h.003Z" opacity=".5" style="mix-blend-mode:multiply"/>
      <path fill="#222239" d="M17.733 9.76c.12.015.238.02.354.018 0 0-.08-1.558-.27-2.36-.192-.798-.475-1.329-.783-1.629-.223-.216-.924-.483-1.468 1.165a2.504 2.504 0 0 0 2.167 2.803v.003Z" opacity=".6" style="mix-blend-mode:multiply"/>
      <path fill="#222239" d="M9.095 15.253a2.614 2.614 0 0 0-.162-.315s-1.312.847-1.907 1.411c-.596.565-.914 1.076-1.02 1.494-.074.3.044 1.04 1.744.688a2.507 2.507 0 0 0 1.345-3.278Z" opacity=".5" style="mix-blend-mode:multiply"/>
      <path fill="#222239" d="M18.17 19.984a2.52 2.52 0 0 0-.193.3s1.389.712 2.177.945c.788.234 1.388.255 1.802.136.297-.084.878-.56-.276-1.853a2.506 2.506 0 0 0-3.51.475v-.003Z" opacity=".6" style="mix-blend-mode:multiply"/>
      <path fill="#222239" d="M17.63 13.523c-.315 1.048-.757 2-1.299 2.84l-.087.133s0 .002-.003.005c-.379.545-.809 1.053-1.283 1.517.344.365.713.719 1.122 1.055.464.365.955.694 1.468.986a13.398 13.398 0 0 0 2.534-3.686c.226-.461.425-.936.595-1.42a8.033 8.033 0 0 0-1.555-.909 11.422 11.422 0 0 0-1.494-.52h.003-.001ZM7.367 23.894c2.844.388 5.58-.516 7.445-1.622-.23-.16-.456-.325-.678-.493a12.79 12.79 0 0 1-1.94-1.835c-1.402.613-3.168.972-4.804.638A5.143 5.143 0 0 1 3.7 17.636a4.767 4.767 0 0 1-.308-.973 11.686 11.686 0 0 0 3.974 7.23l.002.001Z" opacity=".3" style="mix-blend-mode:multiply"/>
      <path fill="#222239" d="M14.957 18.018a11.16 11.16 0 0 1-1.806-2.544c-.023-.049-.05-.092-.072-.141v-.005a10.745 10.745 0 0 1-.673-1.872c-.488.116-.978.26-1.47.445-.548.219-1.078.478-1.587.775a13.446 13.446 0 0 0 1.92 4.04c.285.424.593.832.93 1.225a7.932 7.932 0 0 0 1.565-.894 11.68 11.68 0 0 0 1.196-1.032l-.003.003ZM11.11 3.946c-1.758 2.269-2.344 5.09-2.318 7.256.254-.119.51-.232.768-.34.822-.344 1.68-.6 2.556-.763.17-1.52.742-3.23 1.849-4.477A5.134 5.134 0 0 1 18.362 3.9a4.767 4.767 0 0 1 1.04.233 11.63 11.63 0 0 0-5.202-.834c-1.078.075-2.11.293-3.085.637-.003.002-.005.007-.008.01h.003ZM26.517 17.158c-1.088-2.657-3.24-4.577-5.13-5.637-.022.27-.05.547-.09.837a12.701 12.701 0 0 1-.618 2.595c1.233.909 2.429 2.256 2.958 3.84a5.138 5.138 0 0 1-.706 4.67 4.764 4.764 0 0 1-.688.752l-.01.01a11.764 11.764 0 0 0 4.294-7.049c0-.005-.005-.01-.005-.015l-.005-.003Z" opacity=".3" style="mix-blend-mode:multiply"/>
      <path fill="#222239" d="M12.108 11.906c.063.523.162 1.04.295 1.55a11.149 11.149 0 0 1 3.109-.295l.159.008h.005c.626.051 1.278.167 1.954.352.143-.48.265-.979.352-1.497a11.75 11.75 0 0 0 .12-1.766 13.43 13.43 0 0 0-4.456-.352 12.86 12.86 0 0 0-1.527.193 7.85 7.85 0 0 0-.008 1.805l-.003.002Z" opacity=".3" style="mix-blend-mode:multiply"/>
    </g>
  </g>
  <defs>
    <clipPath id="shibuya_svg__a">
      <path fill="#fff" d="M0 0h30v30H0z"/>
    </clipPath>
    <clipPath id="shibuya_svg__b">
      <path fill="#fff" d="M0 0h30v30H0z"/>
    </clipPath>
  </defs>
</svg>
