<svg xmlns="http://www.w3.org/2000/svg" fill="none" viewBox="0 0 30 30">
  <path fill="#5928B1" d="M21.66 6.497c-2.488.709-6.158 2.19-9.52 5.23-3.38 3.18-1.085 6.015-1.062 6.044 0 0-1.238-2.284 1.757-5.098.038-.033 3.861-3.335 9.421-4.919.71-.202 1.426-.37 2.13-.5l.05-.009.895-1.45-.22.015c-.014.001-1.411.106-3.451.687Z"/>
  <path fill="#764BC4" d="M25.487 2.431a14.53 14.53 0 0 0-1.15-.867l-.035-.023-.041.005c-.015.002-1.559.192-3.685.797-3.803 1.084-8.918 3.305-11.688 7.735-1.315 2.012-.257 4.42-.257 4.42l-.031-.613c-.004-.065-.186-6.556 13.12-10.347a53.657 53.657 0 0 1 3.718-.91l.228-.047-.18-.15Z"/>
  <path fill="#764BC4" d="M26.29 3.278c-.016.002-1.767.189-4.205.883-2.58.735-6.339 2.161-9.584 4.777-1.913 1.486-3.124 3.28-3.322 4.92-.097.801.84 2.5.84 2.5l-.196-.603c-.01-.028-.848-2.777 3.401-5.968 2.381-1.788 4.862-3.011 7.808-3.85 1.519-.433 2.974-.717 4.582-1.018l.057-.01.024-.053c.122-.26.701-1.401.707-1.413l.094-.186-.205.021Z"/>
  <path fill="#BBA5E1" d="M7.695 11.627c.16-2.577 2.111-4.957 5.803-7.078 1.946-1.214 4.12-2.169 6.464-2.836A23.559 23.559 0 0 1 23.63.977L22.28 0c-.012.001-1.258.155-3.038.662C7.831 3.912 6.416 9.514 6.542 11.765c.221 3.926 4.844 6.717 4.844 6.717s-3.93-3.017-3.691-6.855Z"/>
  <path fill="#5928B1" d="M7.836 23.503c2.488-.709 6.159-2.19 9.52-5.23 3.38-3.18 1.086-6.015 1.062-6.043 0 0 1.238 2.283-1.757 5.097-.038.033-3.86 3.335-9.421 4.919-.709.202-1.426.37-2.13.5l-.05.009-.894 1.45.22-.015c.013-.001 1.41-.106 3.45-.687Z"/>
  <path fill="#764BC4" d="M4.01 27.569c.572.482 1.144.863 1.15.867l.035.023.04-.005c.016-.002 1.56-.192 3.685-.798 3.803-1.083 8.918-3.305 11.688-7.734 1.316-2.012.257-4.42.257-4.42l.032.613c.003.065.185 6.556-13.12 10.346a53.706 53.706 0 0 1-3.718.91l-.228.047.179.15Z"/>
  <path fill="#764BC4" d="M3.205 26.721c.018-.002 1.768-.188 4.206-.882 2.581-.736 6.34-2.162 9.584-4.777 1.913-1.487 3.124-3.28 3.323-4.92.097-.801-.841-2.5-.841-2.5l.197.603c.009.027.847 2.777-3.402 5.967-2.38 1.788-4.862 3.012-7.808 3.851-1.518.433-2.973.717-4.582 1.018l-.056.01-.025.053c-.122.26-.701 1.401-.707 1.413L3 26.741l.205-.02Z"/>
  <path fill="#BBA5E1" d="M21.802 18.373c-.16 2.577-2.112 4.957-5.804 7.078-1.945 1.214-4.12 2.169-6.464 2.837-1.987.566-3.667.735-3.667.735l1.35.977c.013-.002 1.259-.154 3.038-.662 11.411-3.25 12.826-8.852 12.7-11.103-.221-3.926-4.844-6.717-4.844-6.717s3.93 3.017 3.69 6.855Z"/>
</svg>
