<svg xmlns="http://www.w3.org/2000/svg" fill="none" viewBox="0 0 30 30">
  <g fill="#00E0CA" clip-path="url(#shimmer-short_svg__a)" opacity=".9">
    <path d="M23.768 6.236c-3.987-4.234-10.54-4.325-14.637-.204-4.096 4.122-4.185 10.895-.197 15.13l2.622-2.638c-2.572-2.747-2.51-7.13.142-9.797a6.56 6.56 0 0 1 9.479.117l2.591-2.608ZM6.354 23.764c3.988 4.234 10.541 4.325 14.637.204 4.097-4.122 4.185-10.895.198-15.13l-2.622 2.638c2.572 2.747 2.51 7.129-.142 9.797a6.56 6.56 0 0 1-9.48-.117l-2.59 2.608Z"/>
  </g>
  <defs>
    <clipPath id="shimmer-short_svg__a">
      <path fill="#fff" d="M0 0h30v30H0z"/>
    </clipPath>
  </defs>
</svg>
