<svg xmlns="http://www.w3.org/2000/svg" fill="none" viewBox="0 0 30 30">
  <path fill="#000" d="M26.673 19.939C26.673 26.237 21.62 30 15.387 30 9.154 30 4.815 26.278 4 21.534h5.745c.631 1.8 2.689 3.108 5.642 3.108 3.28 0 5.643-1.656 5.643-4.601 0-2.945-2.302-4.458-5.663-4.458v4.151c-6.335 0-11.184-3.599-11.184-9.611C4.183 4.11 8.848 0 15.408 0c6.213 0 10.49 3.701 10.918 8.262h-5.54c-.449-1.636-2.262-2.884-5.256-2.884-3.646 0-5.663 1.698-5.663 4.581 0 2.883 2.322 4.274 5.5 4.274V9.877c6.885 0 11.306 4.131 11.306 10.062Z"/>
</svg>
