<svg xmlns="http://www.w3.org/2000/svg" fill="none" viewBox="0 0 30 30">
  <g clip-path="url(#tangible-short_svg__a)">
    <path fill="#04111D" d="M15 30c8.284 0 15-6.716 15-15 0-8.284-6.716-15-15-15C6.716 0 0 6.716 0 15c0 8.284 6.716 15 15 15Z"/>
    <path fill="#fff" fill-rule="evenodd" d="M17.721 14.562a8.625 8.625 0 0 1-2.014 3.878c-.258.285-.254.729.056.958.139.103.28.2.423.295.014.008.033.008.043-.004l.004-.005a9.888 9.888 0 0 0 2.644-4.601 9.945 9.945 0 0 0 .302-2.425c0-3.162-1.542-6.163-4.123-8.029l-.014-.01a.07.07 0 0 0-.093-.001l-.013.011a9.936 9.936 0 0 0-4.123 8.029c0 .337.355.549.676.434.11-.04.221-.077.333-.113a.337.337 0 0 0 .234-.321 8.697 8.697 0 0 1 2.842-6.405c.056-.05.14-.05.196 0a8.695 8.695 0 0 1 2.831 6.765 8.671 8.671 0 0 1-.204 1.543Zm-9.44.752A9.887 9.887 0 0 0 5 21.645c-.005.04.016.08.053.098l.01.005c1.288.562 2.654.847 4.063.847 1.74 0 3.413-.432 4.901-1.255.36-.2.374-.693.063-.961a.66.66 0 0 0-.742-.08 8.867 8.867 0 0 1-4.222 1.067 8.833 8.833 0 0 1-2.543-.371l-.128-.038-.012-.003a.08.08 0 0 1-.056-.094l.03-.129a8.699 8.699 0 0 1 4.49-5.743 8.935 8.935 0 0 1 4.09-.99c.6 0 1.195.06 1.776.176.38.077.769-.15.814-.53a.6.6 0 0 0-.477-.656 10.18 10.18 0 0 0-6.339.699 10.01 10.01 0 0 0-2.491 1.626Zm16.658 6.436c-1.29.565-2.657.85-4.066.85a10.074 10.074 0 0 1-7.007-2.81l-.027-.027c-.017-.018-.034-.034-.052-.05l-.024-.025a9.917 9.917 0 0 1-2.467-3.985.594.594 0 0 1 .336-.732c.359-.152.755.068.878.433a8.673 8.673 0 0 0 2.392 3.655 8.837 8.837 0 0 0 5.97 2.312c.895 0 1.78-.131 2.628-.395a.144.144 0 0 0 .098-.17 8.688 8.688 0 0 0-4.013-5.534.632.632 0 0 1-.3-.661c.077-.4.516-.64.87-.432.555.328 1.079.71 1.563 1.14a9.88 9.88 0 0 1 3.28 6.332l.002.007a.086.086 0 0 1-.056.09l-.005.002Z" clip-rule="evenodd"/>
  </g>
  <defs>
    <clipPath id="tangible-short_svg__a">
      <path fill="#fff" d="M0 0h30v30H0z"/>
    </clipPath>
  </defs>
</svg>
