<svg xmlns="http://www.w3.org/2000/svg" viewBox="0 0 488 488">
  <path fill="#FFF" fill-rule="nonzero" d="M230.987 374.133c0 6.97 5.478 12.66 12.364 12.998l.649.016c7.187 0 13.013-5.827 13.013-13.014V214.72H143.147c-25.155 0-45.547-20.392-45.547-45.547 0-25.154 20.392-45.546 45.547-45.546h201.706c25.155 0 45.547 20.392 45.547 45.546 0 25.155-20.392 45.547-45.547 45.547h-39.04v-32.533h39.04c7.187 0 13.014-5.827 13.014-13.014 0-7.187-5.827-13.013-13.014-13.013H143.147c-7.187 0-13.014 5.826-13.014 13.013s5.827 13.014 13.014 13.014h146.4v191.946c0 25.155-20.392 45.547-45.547 45.547-25.155 0-45.547-20.392-45.547-45.547V250.507l-178.84.003C23.057 371.476 122.2 468.48 244 468.48c123.977 0 224.48-100.503 224.48-224.48 0-123.977-100.503-224.48-224.48-224.48-114.054 0-208.242 85.06-222.588 195.203l-19.673-.003C16.204 93.767 119.152 0 244 0c134.757 0 244 109.243 244 244S378.757 488 244 488 0 378.757 0 244c0-4.365.115-8.703.341-13.012l230.646-.001v143.146Z"/>
</svg>
