<svg xmlns="http://www.w3.org/2000/svg" viewBox="0 0 30 30">
  <path d="M4.906 4.043h2.86l.07.074.148.25.07.13.223.382.086.144.133.235.117.191.133.235.129.218.074.149.117.191.16.29.09.132.176.324.117.192.133.234.117.203.133.235.117.191.102.176.086.16.207.351.043.075v.07l-.059.031H7.574l.012.102.148.265.086.145.192.34.207.351.234.407.117.191.086.148.074.145.075.117.144.266.117.187.16.297.106.16.086.16.105.176.172.309.106.176.191.32.086.16.203.352.297.515.145.25.191.32.188.337.117.207.148.246.192.34.218.378.09.149.07.117.09.16.118.207.128.235.09.144.145.25.074.13.105.179.188.336.133.218.133.235.144.25.09.144.086.16.207.352.176.309.176.293.16.293.086.132.09.176.132.203.043.09.16.277.106.176.129.235.133.207h.09l.027-.09.16-.277.219-.383.164-.278.086-.129.058-.117.149-.25.144-.265.192-.32.144-.266.09-.145.074-.117.086-.16.149-.25.144-.266.117-.187.133-.25.09-.133.102-.176.085-.16.192-.324.09-.16.144-.25.075-.133.144-.246.074-.133.203-.352.223-.379.191-.34.145-.246.09-.148.129-.234.16-.278.207-.351.133-.235.144-.25.117-.207.133-.218.086-.16.117-.208.118-.187.117-.207.09-.16.144-.25.09-.16.133-.22.234-.41.203-.35.149-.25.086-.161.148-.25.234-.41.145-.25.352-.614-.016-.058-.043-.016h-2.605l-.31-.015-.015-.059.09-.16.117-.192.133-.234.145-.246.218-.383.075-.133.293-.511.144-.25.074-.13.149-.25.437-.761.149-.25.086-.16.207-.352.218-.383.102-.175.133-.203.031-.016h2.856l.074.074.086.133.203.363.074.106.09.172.144.234.09.164.117.203.133.235.145.25.16.277.207.351.437.762.207.352.188.336.191.324.16.277.18.324.012.06-.043.1-.086.176-.105.16-.192.336-.16.282-.117.203-.145.25-.117.203-.191.324-.09.16-.203.352-.235.41-.203.352-.222.382-.235.41-.203.352-.117.203-.149.25-.128.235-.149.25-.101.175-.149.262-.101.164-.086.16-.075.118-.09.16-.304.527-.223.379-.191.34-.203.351-.176.309-.16.277-.207.352-.192.336-.086.144-.117.207-.086.145-.207.352-.074.132-.203.352-.219.383-.351.613-.165.277-.203.352-.234.414-.207.352-.234.406-.66 1.144-.145.25-.133.235-.203.351-.148.246-.13.223-.09.176-.09.133-.187.335-.441.762-.203.352-.059.043H12.23l-.074-.059-.187-.324-.133-.234-.149-.247-.218-.382-.086-.145-.074-.133-.176-.308-.203-.352-.235-.41-.133-.234-.148-.25-.086-.145-.09-.16-.117-.207-.101-.176-.192-.32-.086-.164-.207-.352-.437-.758-.149-.25-.191-.336-.145-.25-.191-.335-.086-.149-.149-.266-.07-.117-.164-.277-.133-.234-.289-.497-.133-.234-.117-.207-.101-.176-.149-.25-.074-.129-.203-.351-.441-.762-.176-.309-.203-.351-.176-.309-.192-.32-.191-.336-.086-.148-.191-.336-.059-.09-.086-.16-.148-.266-.086-.129-.074-.148-.266-.438-.074-.133-.145-.25-.09-.16-.144-.25-.219-.379-.352-.617-.175-.293-.176-.305-.192-.34-.101-.16-.09-.16-.117-.207-.129-.234-.117-.203-.117-.192-.09-.144-.043-.117.015-.075.086-.175.149-.25.054-.086.09-.164.118-.203.117-.192.09-.176.086-.132.085-.176.118-.192.148-.246.117-.207.149-.25.351-.613.16-.277.192-.325.172-.308.09-.145.144-.261.117-.192.133-.234.09-.117Zm0 0" style="stroke:none;fill-rule:nonzero;fill:#4214e2;fill-opacity:1"/>
  <path d="M11.25 4.043h7.676l.043.043-.102.207-.133.219-.203.351-.176.309-.148.25-.129.234-.148.246-.075.133-.144.25-.133.235-.148.246-.657 1.144-.207.352-.191.336-.219.382-.203.352-.191.336-.207.352-.235.41-.129.218-.058.09-.074.012-.102-.145-.223-.394-.171-.309-.165-.277-.234-.398-.203-.364-.149-.25-.175-.308-.203-.352-.235-.41-.441-.762-.145-.25-.133-.234-.144-.246-.18-.309-.117-.191-.086-.16-.308-.528-.22-.379-.175-.296-.043-.102Zm0 0" style="stroke:none;fill-rule:nonzero;fill:#fefdfd;fill-opacity:1"/>
</svg>
