<svg xmlns="http://www.w3.org/2000/svg" fill="none" viewBox="0 0 512 512">
  <path fill="#222" d="M0 0h512v512H0z"/>
  <path fill="#fff" d="M100.314 292.537c19.942 0 36.109-16.166 36.109-36.108 0-19.942-16.167-36.108-36.109-36.108s-36.108 16.166-36.108 36.108c0 19.942 16.166 36.108 36.108 36.108ZM183.709 287.121c16.951 0 30.692-13.741 30.692-30.692s-13.741-30.692-30.692-30.692-30.692 13.741-30.692 30.692 13.741 30.692 30.692 30.692ZM267.111 281.705c13.959 0 25.275-11.316 25.275-25.276 0-13.959-11.316-25.276-25.275-25.276-13.96 0-25.276 11.317-25.276 25.276 0 13.96 11.316 25.276 25.276 25.276ZM350.505 276.289c10.968 0 19.86-8.892 19.86-19.86s-8.892-19.86-19.86-19.86-19.859 8.892-19.859 19.86 8.891 19.86 19.859 19.86ZM433.9 270.872c7.976 0 14.443-6.466 14.443-14.443 0-7.977-6.467-14.443-14.443-14.443-7.977 0-14.444 6.466-14.444 14.443 0 7.977 6.467 14.443 14.444 14.443ZM142.011 359.345c16.951 0 30.693-13.741 30.693-30.692s-13.742-30.692-30.693-30.692c-16.95 0-30.692 13.741-30.692 30.692s13.742 30.692 30.692 30.692ZM225.413 353.929c13.96 0 25.276-11.316 25.276-25.276 0-13.959-11.316-25.276-25.276-25.276-13.959 0-25.276 11.317-25.276 25.276 0 13.96 11.317 25.276 25.276 25.276ZM308.808 348.513c10.968 0 19.859-8.892 19.859-19.86s-8.891-19.86-19.859-19.86c-10.968 0-19.86 8.892-19.86 19.86s8.892 19.86 19.86 19.86ZM392.202 343.096c7.977 0 14.444-6.466 14.444-14.443 0-7.977-6.467-14.443-14.444-14.443-7.976 0-14.443 6.466-14.443 14.443 0 7.977 6.467 14.443 14.443 14.443ZM183.709 426.146c13.959 0 25.276-11.317 25.276-25.276 0-13.96-11.317-25.276-25.276-25.276-13.96 0-25.276 11.316-25.276 25.276 0 13.959 11.316 25.276 25.276 25.276ZM267.11 420.73c10.969 0 19.86-8.892 19.86-19.86s-8.891-19.86-19.86-19.86c-10.968 0-19.859 8.892-19.859 19.86s8.891 19.86 19.859 19.86ZM350.505 415.313c7.977 0 14.443-6.466 14.443-14.443 0-7.977-6.466-14.443-14.443-14.443-7.977 0-14.443 6.466-14.443 14.443 0 7.977 6.466 14.443 14.443 14.443ZM142.011 214.897c16.951 0 30.693-13.741 30.693-30.692s-13.742-30.692-30.693-30.692c-16.95 0-30.692 13.741-30.692 30.692s13.742 30.692 30.692 30.692ZM225.413 209.481c13.96 0 25.276-11.316 25.276-25.276 0-13.959-11.316-25.276-25.276-25.276-13.959 0-25.276 11.317-25.276 25.276 0 13.96 11.317 25.276 25.276 25.276ZM308.808 204.065c10.968 0 19.859-8.892 19.859-19.86s-8.891-19.86-19.859-19.86c-10.968 0-19.86 8.892-19.86 19.86s8.892 19.86 19.86 19.86ZM392.202 198.648c7.977 0 14.444-6.466 14.444-14.443 0-7.977-6.467-14.443-14.444-14.443-7.976 0-14.443 6.466-14.443 14.443 0 7.977 6.467 14.443 14.443 14.443ZM183.709 137.257c13.959 0 25.276-11.316 25.276-25.276 0-13.96-11.317-25.276-25.276-25.276-13.96 0-25.276 11.317-25.276 25.276 0 13.96 11.316 25.276 25.276 25.276ZM267.11 131.841c10.969 0 19.86-8.892 19.86-19.86s-8.891-19.86-19.86-19.86c-10.968 0-19.859 8.892-19.859 19.86s8.891 19.86 19.859 19.86ZM350.505 126.424c7.977 0 14.443-6.466 14.443-14.443 0-7.977-6.466-14.443-14.443-14.443-7.977 0-14.443 6.466-14.443 14.443 0 7.977 6.466 14.443 14.443 14.443Z"/>
</svg>
