<svg xmlns="http://www.w3.org/2000/svg" viewBox="0 0 512 512">
  <path d="M277.974 456.73c-2.343.83-4.802-.909-4.802-3.394v-19.274c0-11.235.074-65.256.074-65.256 0-9.217-7.518-16.735-16.758-16.735h-27.335c-31.115 0-56.934-24.846-57.236-55.96-.304-31.419 25.166-57.076 56.516-57.076h54.153c12.006 0 22.169-9.39 22.534-21.39.379-12.47-9.641-22.735-22.02-22.761l-26.873.157c-28.233 0-51.201-22.969-51.201-51.2v-32.57c-11.44 5.88-25.503 12.747-39.687 18.768-16.875 7.164-36.92 13.728-49.311 17.567-1.537 25.97-4.44 89.742.551 137.58 2.825 27.074 15.599 55.357 35.968 79.64 20.202 24.083 46.568 42.783 74.282 52.692 6.904 2.242 11.894 8.728 11.894 16.38v19.274c0 2.485-2.459 4.223-4.802 3.394l-18.168-6.431c-33.578-11.892-65.397-34.327-89.595-63.175-24.737-29.49-40.305-64.364-43.836-98.199-6.71-64.32-.153-151.832.13-155.526l.914-11.956 11.53-3.291c.325-.093 32.952-9.451 56.984-19.653 30.512-12.953 61.49-30.663 61.8-30.84L234.077 55.8c2.4-1.376 5.392.357 5.392 3.124v84.916c0 9.226 7.494 16.735 16.714 16.759l26.873-.158c31.35 0 56.82 25.657 56.515 57.076-.302 31.115-26.12 55.96-57.236 55.96h-53.432c-12.012 0-22.179 9.401-22.535 21.408-.37 12.476 9.672 22.744 22.066 22.744h28.055c28.232 0 51.2 22.968 51.2 51.2l-.05 38.652c19.227-10.546 37.1-25.281 51.797-42.904 20.459-24.533 33.285-52.989 36.117-80.125 4.99-47.828 1.767-111.058.087-136.814-12.48-3.856-32.763-10.483-49.653-17.69-30.304-12.928-59.82-29.752-64.396-32.39-5.435-2.893-9.134-8.614-9.134-15.202v-23.69c0-2.776 3.01-4.507 5.41-3.112l20.467 11.9c.303.176 30.906 17.904 61.168 30.815 23.897 10.195 56.851 19.622 57.181 19.716l11.456 3.264.99 11.87c.305 3.666 7.398 90.531.68 154.908-7.215 69.152-63.43 137.396-133.666 162.269l-18.168 6.434Z"/>
</svg>
