<svg xmlns="http://www.w3.org/2000/svg" fill="none" viewBox="0 0 512 512">
  <path fill="url(#ante_logo_svg__a)" d="M0 0h512v512H0z"/>
  <path fill="url(#ante_logo_svg__b)" d="M197.646 217.691 256 251.381l58.353-33.69L256 184l-58.354 33.691ZM289.177 308.846 260 325.691V258.31l58.354-33.691v24.027l-29.177 16.846v7.968l21.177-12.227v15.382l-21.177 12.226v20.005Z"/>
  <path fill="url(#ante_logo_svg__b)" fill-rule="evenodd" d="M193.646 224.619V292l25.173 14.534v-19.998l8 4.619v19.998l25.18 14.538V258.31l-58.353-33.691Zm25.173 46.555 8 4.619v-8l-8-4.619v8Z" clip-rule="evenodd"/>
  <path fill="url(#ante_logo_svg__b)" fill-rule="evenodd" d="M99.317 316.868a3.943 3.943 0 0 1 .913-4.228l28.867-28.651a4.071 4.071 0 0 0 1.113-3.673c-3.163-16.27-3.197-33.378.386-50.482a4.073 4.073 0 0 0-1.068-3.698l-28.511-28.95a3.942 3.942 0 0 1-.863-4.238 166.807 166.807 0 0 1 24.684-42.144 3.94 3.94 0 0 1 4.099-1.324l39.466 10.575a4.075 4.075 0 0 0 3.713-.868 128.694 128.694 0 0 1 41.864-24.17 4.078 4.078 0 0 0 2.609-2.782l10.575-39.466a3.941 3.941 0 0 1 3.195-2.889 166.898 166.898 0 0 1 50.853-.008 3.945 3.945 0 0 1 3.196 2.873l10.77 39.499a4.07 4.07 0 0 0 2.612 2.767 127.224 127.224 0 0 1 42.044 24.279 4.073 4.073 0 0 0 3.738.872l39.246-10.674a3.943 3.943 0 0 1 4.118 1.324 168.96 168.96 0 0 1 25.553 44.26 3.94 3.94 0 0 1-.912 4.227L382.71 227.95a4.076 4.076 0 0 0-1.114 3.674 127.223 127.223 0 0 1 .004 48.55 4.072 4.072 0 0 0 1.09 3.646l28.822 29.077a3.94 3.94 0 0 1 .89 4.203 166.845 166.845 0 0 1-25.433 44.036 3.942 3.942 0 0 1-4.099 1.324l-39.466-10.575a4.076 4.076 0 0 0-3.714.868 128.683 128.683 0 0 1-41.864 24.17 4.073 4.073 0 0 0-2.608 2.782l-10.575 39.466a3.94 3.94 0 0 1-3.196 2.888 166.886 166.886 0 0 1-50.853.008 3.942 3.942 0 0 1-3.195-2.872l-10.77-39.499a4.074 4.074 0 0 0-2.612-2.768 127.253 127.253 0 0 1-42.045-24.278 4.074 4.074 0 0 0-3.737-.873l-39.247 10.675a3.942 3.942 0 0 1-4.117-1.324 168.954 168.954 0 0 1-25.554-44.26Zm129.766 39.584c55.481 14.866 112.508-18.058 127.374-73.539 14.866-55.48-18.059-112.507-73.539-127.373-55.481-14.866-112.508 18.059-127.374 73.539-14.866 55.48 18.059 112.508 73.539 127.373Z" clip-rule="evenodd"/>
  <path fill="url(#ante_logo_svg__b)" fill-rule="evenodd" d="M256 456c110.457 0 200-89.543 200-200S366.457 56 256 56 56 145.543 56 256s89.543 200 200 200Zm0-16c101.62 0 184-82.38 184-184S357.62 72 256 72 72 154.38 72 256s82.38 184 184 184Z" clip-rule="evenodd"/>
  <defs>
    <linearGradient id="ante_logo_svg__a" x1="0" x2="617.74" y1="0" y2="241.305" gradientUnits="userSpaceOnUse">
      <stop stop-color="#E3F2FD"/>
      <stop offset="1" stop-color="#EDE7F6"/>
    </linearGradient>
    <linearGradient id="ante_logo_svg__b" x1="114" x2="303.578" y1="114" y2="451.101" gradientUnits="userSpaceOnUse">
      <stop stop-color="#006FD6"/>
      <stop offset="1" stop-color="#7B61FF"/>
    </linearGradient>
  </defs>
</svg>
