<svg xmlns="http://www.w3.org/2000/svg" fill="none" viewBox="0 0 94 94">
  <path fill="#5C33FF" d="M0 47C0 26.07 0 15.606 5.785 8.667a24.442 24.442 0 0 1 2.672-2.738C15.228 0 25.439 0 45.86 0h2.278c20.422 0 30.633 0 37.404 5.93.96.839 1.852 1.754 2.672 2.737C94 15.607 94 26.07 94 47c0 20.93 0 31.394-5.785 38.333a24.435 24.435 0 0 1-2.672 2.738C78.772 94 68.561 94 48.14 94h-2.278c-20.422 0-30.633 0-37.404-5.93a24.433 24.433 0 0 1-2.672-2.737C0 78.393 0 67.929 0 47Z"/>
  <path fill="#fff" d="M29 23.319V43.95l6.193 3.55L29 51.05v20.632L47 82l18-10.317V51.05L58.806 47.5 65 43.95V23.318L46.999 13 29 23.319Zm16.737-6.696V32.91l-14.209 8.145V24.768l14.209-8.145Zm-14.21 53.611V53.946l14.21 8.144v16.288l-14.21-8.144Zm16.736 8.145V62.09l14.21-8.144v16.289l-14.21 8.144ZM61.21 51.774 47 59.918l-14.209-8.144 4.93-2.825L47 54.267l9.28-5.318 4.929 2.825Zm-20.962-4.273L47 43.63l6.753 3.87L47 51.37l-6.753-3.87ZM47 40.732l-9.28 5.32-4.929-2.826L47 35.082l14.21 8.144-4.93 2.825L47 40.732Zm15.473-15.966v16.287l-14.21-8.144V16.622l14.21 8.144Z"/>
  <path fill="#fff" d="M62.473 24.766v16.287l-14.21-8.144V16.622l14.21 8.144ZM31.527 70.234V53.946l14.21 8.144v16.288l-14.21-8.144ZM40.247 47.5 47 43.63l6.753 3.87L47 51.37l-6.753-3.87Z"/>
</svg>
