<svg xmlns="http://www.w3.org/2000/svg" viewBox="0 0 512 512">
  <path d="M0 0h512v512H0z" style="fill:#001e32"/>
  <path d="M356 256a100.066 100.066 0 0 0-100 98.655h26.722a73.275 73.275 0 0 1 132.844-41.287l20.568-17.15A99.817 99.817 0 0 0 356 256Z" style="fill:#0d7aa6"/>
  <path d="M313.126 213.702c-78.216 0-141.752 62.916-142.874 140.953h38.178a104.71 104.71 0 0 1 200.453-40.384l33.173-19.237a142.88 142.88 0 0 0-128.93-81.332Z" style="fill:#119cd5"/>
  <path d="M402.556 354.655C400.99 274.96 335.979 210.835 256 210.835s-144.99 64.125-146.556 143.82H56c1.571-109.24 90.511-197.31 200-197.31s198.429 88.07 200 197.31Z" style="fill:#59c6f2"/>
  <path d="M385.612 288.985a72.747 72.747 0 0 0-23.013-5.942 139.57 139.57 0 0 0-21.252-25.962 99.717 99.717 0 0 1 3.05-.407q-2.47-.773-4.992-1.422a138.28 138.28 0 0 0-70.059-34.699 141.817 141.817 0 0 1 22.558-5.28 146.916 146.916 0 0 1 93.708 73.712Z" style="fill:#0d7aa6"/>
</svg>
