<svg xmlns="http://www.w3.org/2000/svg" fill="none" viewBox="0 0 512 512">
  <path fill="#011128" d="M0 0h512v512H0z"/>
  <path fill="#0ED5B2" fill-rule="evenodd" d="M145.023 358.701c13.584 26.216 28.986 35.842 40.816 35.842 11.829 0 27.231-9.626 40.815-35.842 13.103-25.287 21.784-61.565 21.784-102.701 0-41.136-8.681-77.414-21.784-102.7-13.584-26.217-28.986-35.843-40.815-35.843-11.83 0-27.232 9.626-40.816 35.843-13.102 25.286-21.783 61.564-21.783 102.7s8.681 77.414 21.783 102.701ZM103.99 256c0 87.24 36.645 157.961 81.849 157.961 45.203 0 81.848-70.721 81.848-157.961 0-87.239-36.644-157.96-81.848-157.96S103.99 168.76 103.99 256Z" clip-rule="evenodd" opacity=".4"/>
  <path fill="#0ED5B2" fill-rule="evenodd" d="M215.187 358.701c13.584 26.216 28.986 35.842 40.816 35.842 11.829 0 27.231-9.626 40.815-35.842 13.103-25.287 21.784-61.565 21.784-102.701 0-41.136-8.681-77.414-21.784-102.7-13.584-26.217-28.985-35.843-40.815-35.843-11.83 0-27.232 9.626-40.816 35.843-13.102 25.286-21.783 61.564-21.783 102.7s8.681 77.414 21.783 102.701ZM174.154 256c0 87.24 36.645 157.961 81.849 157.961S337.852 343.24 337.852 256c0-87.239-36.645-157.96-81.849-157.96S174.154 168.76 174.154 256Z" clip-rule="evenodd" opacity=".7"/>
  <path fill="url(#ChainPort_svg__a)" d="M267.695 332.083c-38.746 0-70.156-34.051-70.156-76.055 0-42.004 31.41-76.055 70.156-76.055 38.747 0 70.157 34.051 70.157 76.055 0 42.004-31.41 76.055-70.157 76.055Z"/>
  <path fill="#0ED5B2" fill-rule="evenodd" d="M285.335 358.701c13.585 26.216 28.986 35.842 40.816 35.842 11.83 0 27.232-9.626 40.816-35.842C380.069 333.414 388.75 297.136 388.75 256c0-41.136-8.681-77.414-21.783-102.7-13.584-26.217-28.986-35.843-40.816-35.843-11.83 0-27.231 9.626-40.816 35.843-13.102 25.286-21.783 61.564-21.783 102.7s8.681 77.414 21.783 102.701ZM244.302 256c0 87.24 36.645 157.961 81.849 157.961S408 343.24 408 256c0-87.239-36.645-157.96-81.849-157.96S244.302 168.76 244.302 256Z" clip-rule="evenodd"/>
  <defs>
    <linearGradient id="ChainPort_svg__a" x1="269.649" x2="197.539" y1="256.028" y2="256.028" gradientUnits="userSpaceOnUse">
      <stop stop-color="#fff"/>
      <stop offset="1" stop-color="#fff" stop-opacity="0"/>
    </linearGradient>
  </defs>
</svg>
