<svg xmlns="http://www.w3.org/2000/svg" data-name="Layer 1" viewBox="0 0 70.074 70.089">
  <defs>
    <linearGradient id="Coin98_svg__a" x1="66.493" x2="4.549" y1="3.581" y2="65.525" gradientUnits="userSpaceOnUse">
      <stop offset="0" stop-color="#f1d961"/>
      <stop offset="1" stop-color="#cda146"/>
    </linearGradient>
  </defs>
  <rect width="70.056" height="70.056" x=".009" y=".009" fill="url(#Coin98_svg__a)" rx="12.791"/>
  <path fill="#252525" d="M23.594 17.5a10.941 10.941 0 1 0 10.95 10.95 10.956 10.956 0 0 0-10.95-10.95Zm0 17.4a6.456 6.456 0 1 1 6.456-6.455 6.477 6.477 0 0 1-6.456 6.455Zm32.254-8.04a9.21 9.21 0 0 1-1.15 4.477 12.567 12.567 0 0 0-3.928-2.165 4.93 4.93 0 0 0 .584-2.312 4.871 4.871 0 0 0-9.742 0 4.726 4.726 0 0 0 .584 2.312 12.583 12.583 0 0 0-3.929 2.165A9.349 9.349 0 0 1 46.486 17.5a9.372 9.372 0 0 1 9.362 9.36Zm-9.362 3.788A10.941 10.941 0 1 0 57.418 41.6a10.963 10.963 0 0 0-10.932-10.952Zm0 17.388a6.447 6.447 0 1 1 6.455-6.436 6.455 6.455 0 0 1-6.455 6.436Zm-13.53-4.868a9.365 9.365 0 0 1-18.73 0h4.494a4.871 4.871 0 1 0 9.742 0Z"/>
</svg>
