<svg xmlns="http://www.w3.org/2000/svg" fill="none" viewBox="0 0 138 138">
  <path fill="#F5B5FF" d="M0 0h138v138H0z"/>
  <path fill="#000" d="m65.886 81.813-21.336 4.94c-.778.195-1.361.975-1.361 1.754v14.688c0 1.235.972 2.015 2.204 1.755l29.767-6.889c1.232-.26 1.751-1.43 1.232-2.535L71.01 84.413c-.843-1.755 0-3.575 1.88-3.965l19.456-4.679c1.362-.325 2.529-1.755 2.529-3.184V59.002c0-1.235-.973-2.08-2.205-1.755L64.59 63.94c-1.752.39-2.53 2.08-1.752 3.704l4.93 10.204c.842 1.755 0 3.51-1.882 3.964Z"/>
  <path fill="#000" d="m51.815 45.093 5.577 11.439c.714 1.495 0 3.054-1.621 3.38L45.46 62.315c-1.297.325-2.335 1.625-2.335 2.924v12.284c0 2.08 1.686 3.38 3.697 2.924l9.597-2.21c1.298-.26 2.335-1.624 2.335-2.924l.065-12.608c0-1.755 1.427-3.51 3.113-3.9l31.453-7.539c.778-.195 1.362-.974 1.362-1.754V34.825c0-1.235-.973-2.08-2.205-1.755l-39.495 9.489c-1.232.26-1.75 1.43-1.232 2.534Z"/>
</svg>
