<svg xmlns="http://www.w3.org/2000/svg" fill="none" viewBox="0 0 512 512">
  <path fill="#fff" d="M0 0h512v512H0z"/>
  <path fill="url(#multisender_svg__a)" d="m414.203 414.049-97.787-218.315L71.253 414.049h342.95Z"/>
  <path fill="url(#multisender_svg__b)" d="M394.565 117.35C437.852 73.938 512 104.611 512 165.937v150.43a97.687 97.687 0 0 1-28.595 69.064 97.61 97.61 0 0 1-69.033 28.607h-.169c-53.856 0-97.554-43.676-97.787-97.65v97.65-218.283l78.149-78.405Z"/>
  <path fill="url(#multisender_svg__c)" d="M316.416 195.755 116.704 396.082a69.806 69.806 0 0 1-45.45 17.956h-2.366c-61.204 0-91.906-73.99-48.671-117.349L198.97 117.35c43.287-43.423 117.435-12.749 117.435 48.566v29.828l.01.011Z"/>
  <defs>
    <linearGradient id="multisender_svg__a" x1="256.008" x2="256.008" y1="97.031" y2="414.049" gradientUnits="userSpaceOnUse">
      <stop stop-color="#0728DA"/>
      <stop offset="1" stop-color="#2AB3FF"/>
    </linearGradient>
    <linearGradient id="multisender_svg__b" x1="512" x2="311.834" y1="171.637" y2="487.884" gradientUnits="userSpaceOnUse">
      <stop offset=".01" stop-color="#0429EC"/>
      <stop offset=".188" stop-color="#0429EC"/>
      <stop offset="1" stop-color="#0A1361"/>
    </linearGradient>
    <linearGradient id="multisender_svg__c" x1="316.416" x2="-.077" y1="97.006" y2="412.886" gradientUnits="userSpaceOnUse">
      <stop stop-color="#B7E5FF"/>
      <stop offset="1" stop-color="#15ABFF"/>
    </linearGradient>
  </defs>
</svg>
