<svg xmlns="http://www.w3.org/2000/svg" fill="none" viewBox="0 0 512 512">
  <path fill="#101233" d="M0 0h512v512H0z"/>
  <g clip-path="url(#MummyFinance_svg__a)">
    <path fill="#101233" d="M256 512c141.385 0 256-114.615 256-256S397.385 0 256 0 0 114.615 0 256s114.615 256 256 256Z"/>
    <path fill="#03F5AE" fill-rule="evenodd" d="M183.706 440.73s23.173-15.934 72.448-15.934c49.274 0 72.458 15.934 72.458 15.934s-6.759 8.56-14.879 11.12c-8.12 2.56-18.934.154-32.461 9.769-13.527 9.616-25.118 8.571-25.118 8.571s-11.592 1.024-25.109-8.571c-13.517-9.595-24.351-7.219-32.471-9.769-8.12-2.55-14.868-11.12-14.868-11.12ZM238.981 94.956c-14.008-.769-33.874.91-45.752-3.308-20.286-7.168-23.552-14.428-40.725-10.824-12.533 2.632-15.513 12.452-16.752 22.436 30.392-5.458 47.8 1.598 47.8 1.598-43.674 4.659-58.47 16.476-59.392 17.213a13.068 13.068 0 0 0-2.836 3.635c-1.414 3.001-.318 4.096-.062 10.015 60.682-18.432 109.158-5.632 109.158-5.632-44.236 1.024-85.596 8.714-125.173 27.935l5.816 20.367c36.393-13.117 56.873-3.779 56.873-3.779a254.658 254.658 0 0 0-62.341 24.044l3.737 9.441c-8.437 6.482-15.36 30.669-15.36 30.669-2.047-13.076 6.144-31.109 6.144-31.109-17.131 1.024-23.552 17.285-23.552 30.812 0 13.527 8.674 28.795 19.19 38.728 10.517 9.933 12.923 20.889 12.923 20.889 7.977-21.801-7.516-23.552-3.297-49.449 4.219-25.897 35.307-39.669 35.307-39.669a131.298 131.298 0 0 0-19.384-2.775c13.384-2.048 22.753-23.491 105.667 30.371 82.913 53.863 134.256-.624 161.792-17.111 8.192 6.687 16.752 16.487 18.821 29.184 4.208 25.856-11.264 27.648-3.308 49.449 0 0 2.407-10.967 12.923-20.889 10.517-9.923 19.241-25.252 19.241-38.769s-6.461-29.757-23.603-30.812c0 0 8.274 18.033 6.144 31.109 0 0-7.168-25.088-15.852-31.007l4.557-11.489-4.229-3.01c-59.034-35.789-147.302-34.499-147.302-34.499 85.504-7.516 145.879 20.05 145.879 20.05l5.027-20.675-15.482-7.567s.675-14.756-1.885-20.173c-1.505-3.195-5.898-6.338-9.216-8.376-32.163-14.121-87.5-17.121-87.5-17.121 49.264-4.557 73.728-1.516 83.589.522-1.71-10.383-6.144-25.703-17.275-28.047-7.291-1.537-12.083-1.117-16.743.44-2.048-2.345-8.386-9.165-15.769-11.49-8.97-2.826-20.931-.174-35.84-10.803-14.91-10.629-27.771-9.461-27.771-9.461s-12.81-1.157-27.761 9.472c-14.95 10.629-26.91 7.977-35.84 10.803-8.929 2.826-16.445 12.288-16.445 12.288s18.012 12.37 55.931 16.384l-.072-.01Z" clip-rule="evenodd"/>
    <path fill="#03F5AE" fill-rule="evenodd" d="M256.154 416.543s-42.087.153-62.383 7.362c-20.295 7.209-23.552 14.428-40.724 10.824-12.544-2.642-15.206-13.722-16.445-23.716 30.392 5.468 46.95-3.799 46.95-3.799-43.674-4.669-58.47-16.486-59.392-17.213a13.08 13.08 0 0 1-2.837-3.636c-1.413-3.01-.942-5.017-.686-10.926 60.693 18.412 109.763 6.513 109.763 6.513-44.237-1.024-85.596-8.714-125.174-27.935l6.032-22.62c37.888 9.503 56.627 6.062 56.627 6.062a254.287 254.287 0 0 1-62.321-24.013l4.772-12.032c61.307 25.007 230.277 25.007 291.584 0l5.714 14.429-4.178 3c-59.034 35.84-147.302 34.55-147.302 34.55 85.504 7.516 145.879-20.05 145.879-20.05l5.027 20.674-15.482 7.516s1.955 19.385-.605 24.802c-1.505 3.184-5.898 6.328-9.216 8.366-32.163 14.131-88.78 12.503-88.78 12.503 49.264 4.557 73.349 5.069 83.169 3.072-1.71 10.383-5.694 22.139-16.855 24.494-17.142 3.604-20.48-3.605-40.735-10.824-20.255-7.219-62.382-7.362-62.382-7.362l-.02-.041Z" clip-rule="evenodd"/>
    <path fill="#fff" fill-rule="evenodd" d="M164.608 251.32s-7.834 18.832 7.516 26.348c15.35 7.516 53.904 3.717 53.904 3.717s-33.424-24.637-61.44-30.065h.02ZM355.666 270.653s3 15.627-9.923 18.934c-12.923 3.308-41.779-5.703-41.779-5.703s29.45-13.548 51.702-13.231Z" clip-rule="evenodd"/>
    <path fill="#03F5AE" d="M410.552 158.966s29.225 1.915 47.022 11.888c15.432 8.633 30.454 28.519 30.454 28.519s-22.047 6.943-28.907 15.012c-6.298 7.434-7.598 10.803-7.598 10.803s-16.303-33.004-45.671-45.128l4.7-21.094ZM362.138 431.77s14.479 12.687 27.392 16.384c11.192 3.154 27.422.901 27.422.901s-7.024-13.476-6.461-20.419c.522-6.39 1.485-8.56 1.485-8.56a143.908 143.908 0 0 1-35.84-9.79l-13.998 21.484ZM105.257 298.721s-22.026 19.313-41.667 24.863c-17.018 4.792-41.707 1.362-41.707 1.362s10.69-20.511 9.861-31.058c-.799-9.708-2.263-13.015-2.263-13.015s34.867 11.817 64.205-.379l11.571 18.227ZM181.248 76.698s-16.323-11.96-22.999-24.382c-5.786-10.752-7.168-27.924-7.168-27.924s15.432 4.096 22.426 1.976c6.43-1.997 8.437-3.471 8.437-3.471s-2.744 25.282 9.851 43.243l-10.547 10.558Z"/>
  </g>
  <defs>
    <clipPath id="MummyFinance_svg__a">
      <path fill="#fff" d="M0 0h512v512H0z"/>
    </clipPath>
  </defs>
</svg>
