<svg xmlns="http://www.w3.org/2000/svg" fill="none" viewBox="0 0 512 512">
  <path fill="#fff" d="M0 0h512v512H0z"/>
  <path fill="#000" fill-rule="evenodd" d="M80 32C35.816 32 0 67.779 0 111.917v103.892h148.264l5.684 15.983H104v247.743h320V231.792h-64.508l4.864-15.983H512V111.917C512 67.779 476.184 32 432 32h-56c44.184 0 80 35.779 80 79.917v75.921h-32v-75.921C424 67.779 388.184 32 344 32H184c-44.184 0-80 35.779-80 79.917v75.921H72v-75.921C72 67.779 107.816 32 152 32H80ZM0 447.568V231.792h72v247.743H32a32.017 32.017 0 0 1-22.627-9.363A31.95 31.95 0 0 1 0 447.568Zm480 31.967h-24V231.792h56v215.776a31.947 31.947 0 0 1-9.373 22.604A32.015 32.015 0 0 1 480 479.535ZM347.108 349.798c.407.381.726.846.936 1.362l-.032-.032c2.012 8.907 3.988 18.801 3.988 29.69 0 .679-1.492 9.518-33.924 14.84-13.632 2.322-33.268 3.96-61.64 3.96h-.904c-8.22 0-15.68-.136-22.48-.411h-.692a78.368 78.368 0 0 1-1.456-.068l-1.352-.068C162.428 396.034 160 381.737 160 380.85c0-10.885 2.012-20.779 3.988-29.69.208-.511.556-.955.936-1.362 5-12.731 12.56-22.828 21.924-30.305 8.708-6.413 15.644-12.762 21.196-18.9 20.672-23.787 21.54-41.565 21.612-54.024v-8.391a13.258 13.258 0 0 0-.176-.428l-.172-.427H200.76c-2.984-6.925-4.96-12.867-4.96-19.792l32.64-21.018c-9.64-6.553-15.92-16.994-17.864-29.21a40.05 40.05 0 0 1-.868-8.191c0-1.674.068-3.277.24-4.879.134-1.395.327-2.784.576-4.164.032-.099.049-.203.052-.307a44.459 44.459 0 0 1 1.04-4.336c.312-1.159.692-2.249 1.112-3.376.052-.216.128-.408.208-.612l.068-.176a50.155 50.155 0 0 1 1.352-3.068c.176-.308.312-.616.452-.919a42.622 42.622 0 0 1 1.56-2.801c.216-.326.424-.656.624-.991a67.29 67.29 0 0 1 1.7-2.49c.246-.38.513-.745.8-1.095a36.428 36.428 0 0 1 1.8-2.217c.328-.382.664-.756 1.008-1.123a47.176 47.176 0 0 1 1.908-1.914l1.248-1.123 1.98-1.638c.24-.188.48-.368.728-.548l.728-.547c.66-.48 1.32-.955 2.012-1.399l.848-.511.852-.512c.656-.407 1.32-.783 2.012-1.159a84.75 84.75 0 0 1 1.94-.919l.384-.183c.524-.254 1.056-.49 1.596-.708.36-.135.728-.263 1.092-.391.36-.128.728-.256 1.092-.392l.42-.156a32.476 32.476 0 0 1 1.52-.527c.612-.208 1.24-.36 1.88-.508l.584-.139c.312-.068.616-.148.92-.224.304-.08.608-.152.92-.22.696-.156 1.428-.248 2.16-.344l.752-.1.68-.107c.28-.048.56-.096.848-.132a41.025 41.025 0 0 1 4.612-.24c1.56 0 3.088.104 4.616.24.26.032.512.076.76.12.252.04.504.084.764.119l.728.096c.728.096 1.46.192 2.188.348.312.068.616.144.92.22.3.08.604.152.92.224.832.199 1.664.407 2.46.647.52.16 1.016.344 1.524.527l.42.156a27.899 27.899 0 0 1 4.16 1.67l.572.26c.468.212.928.42 1.372.663.428.228.84.472 1.248.716.352.209.707.414 1.064.615.48.28.94.544 1.4.851a42.022 42.022 0 0 1 2.74 1.946l.728.548c.696.511 1.32 1.055 1.976 1.638l1.252 1.123a52.99 52.99 0 0 1 1.908 1.914l.5.559c.164.192.332.38.504.564a56.502 56.502 0 0 1 1.8 2.217l.404.548.4.547a63.65 63.65 0 0 1 2.32 3.477c.56.927 1.08 1.846 1.56 2.801.176.307.316.615.456.919.48.991.936 2.018 1.352 3.076.052.136.096.264.136.392l.14.392c.5 1.306.929 2.639 1.284 3.992.348 1.226.624 2.457.868 3.716l.016.072c.032.099.049.203.052.307.24 1.363.452 2.729.556 4.092.14 1.606.24 3.245.24 4.883 0 2.761-.312 5.494-.864 8.191-1.976 12.216-8.22 22.689-17.864 29.21l32.64 21.018c0 6.929-1.976 12.867-4.96 19.792h-28.548l-.092.231c-.087.203-.16.412-.22.624v8.391c.032 12.459.9 30.237 21.576 54.024 5.548 6.138 12.488 12.451 21.192 18.9 9.368 7.441 16.928 17.574 21.924 30.305Z" clip-rule="evenodd"/>
</svg>
