<svg xmlns="http://www.w3.org/2000/svg" fill="none" viewBox="0 0 512 512">
  <mask id="NOW_Wallet_svg__b" width="360" height="413" x="77" y="60" maskUnits="userSpaceOnUse" style="mask-type:alpha">
    <path fill="url(#NOW_Wallet_svg__a)" fill-rule="evenodd" d="M181.321 75.328c28.232-7.68 57.896-14.48 75.496-14.48 17.6 0 47.248 6.824 75.456 14.448l.04.008a1619.221 1619.221 0 0 1 74.816 22.56l.024.008a37.759 37.759 0 0 1 17.304 11.864 38.18 38.18 0 0 1 8.384 19.456c15.288 115.328-20.24 200.776-63.384 257.352a303.467 303.467 0 0 1-65.16 63.584 181.25 181.25 0 0 1-26.864 16.024l-.08.04c-7.224 3.392-14.656 6-20.56 6-5.936 0-13.392-2.6-20.64-6.032-7.752-3.656-16.92-9-26.856-16.024l-.048-.032a303.236 303.236 0 0 1-64.864-63.256 8.337 8.337 0 0 1-.4-.6c-43.08-56.568-78.464-141.928-63.2-257.088l.032-.248a37.834 37.834 0 0 1 25.68-31.016m74.816-22.568c-28.752 7.76-57.768 16.968-74.816 22.56l74.816-22.56Z" clip-rule="evenodd"/>
  </mask>
  <g mask="url(#NOW_Wallet_svg__b)">
    <path fill="url(#NOW_Wallet_svg__c)" d="M464.641 0h-416c-26.51 0-48 21.49-48 48v416c0 26.51 21.49 48 48 48h416c26.509 0 48-21.49 48-48V48c0-26.51-21.491-48-48-48Z"/>
    <path fill="#00C26F" d="M150.762 251.68h10.04v-43.552h.168l27.928 43.584h12.768V194.88H191.61v42.192h-.136L164.05 194.88h-13.272v56.8h-.016Zm66.976-16.024a26.999 26.999 0 0 0 15.616 15.376c3.84 1.44 7.912 2.176 12 2.12a33.058 33.058 0 0 0 12.144-2.296 28.534 28.534 0 0 0 9.52-6.144 27.363 27.363 0 0 0 6.24-9.4 31.395 31.395 0 0 0 2.176-12.12 33.12 33.12 0 0 0-2.24-12.376 27.35 27.35 0 0 0-6.24-9.456 26.207 26.207 0 0 0-9.512-5.976 32.832 32.832 0 0 0-12.136-1.952 33.42 33.42 0 0 0-12 2.128 26.668 26.668 0 0 0-9.408 6.056 27.98 27.98 0 0 0-6.24 9.52 32.647 32.647 0 0 0-2.088 12.4 31.79 31.79 0 0 0 2.224 12.12h-.056Zm9.688-20.704a19.84 19.84 0 0 1 3.952-6.456c1.728-1.84 3.784-3.336 6.128-4.328a19.17 19.17 0 0 1 7.968-1.56c2.742-.022 5.46.508 7.992 1.56a18.125 18.125 0 0 1 6.16 4.328 19.66 19.66 0 0 1 3.944 6.456 22.343 22.343 0 0 1 1.36 7.928 24.631 24.631 0 0 1-1.416 8.44c-.88 2.464-2.2 4.728-3.952 6.656a18 18 0 0 1-6.16 4.416 19.317 19.317 0 0 1-7.984 1.616 19.059 19.059 0 0 1-7.936-1.616 18.156 18.156 0 0 1-6.104-4.416 19.645 19.645 0 0 1-3.952-6.656 24.467 24.467 0 0 1-1.384-8.44 21.942 21.942 0 0 1 1.416-7.952l-.032.024Zm72.152 36.728h9.256l13.104-43.264h.168l13.136 43.264h9.568l16.44-56.8h-10.224l-11.064 40.944h-.176l-12.48-40.944h-9.912l-12.704 40.944h-.168l-10.624-40.944h-11.064l16.744 56.8Z"/>
    <path fill="url(#NOW_Wallet_svg__d)" fill-rule="evenodd" d="M257.458 77.16c-15.056 0-42.616 6.12-71.216 13.912h-.016c-28.36 7.656-57.072 16.76-74 22.32a21.542 21.542 0 0 0-14.592 17.704c-14.76 110.88 19.408 192.24 60.376 245.816.16.208.304.424.44.64a286.941 286.941 0 0 0 60.935 59.28c9.28 6.56 17.625 11.392 24.361 14.568l.024.008c6.912 3.28 11.576 4.48 13.656 4.48 2.056 0 6.664-1.2 13.584-4.44a164.942 164.942 0 0 0 24.408-14.56l.008-.008a287.195 287.195 0 0 0 61.632-60.136c40.904-53.592 74.96-134.88 60.224-245.624a21.887 21.887 0 0 0-4.784-11.024 21.441 21.441 0 0 0-9.824-6.736 1604.245 1604.245 0 0 0-74.032-22.32c-28.617-7.736-56.136-13.88-71.184-13.88Zm-75.497-1.832c28.233-7.68 57.897-14.48 75.497-14.48s47.248 6.824 75.456 14.448l.039.008a1620.332 1620.332 0 0 1 74.816 22.56l.025.008a37.756 37.756 0 0 1 17.303 11.864 38.168 38.168 0 0 1 8.384 19.456c15.289 115.328-20.239 200.776-63.383 257.352a303.513 303.513 0 0 1-65.16 63.584 181.267 181.267 0 0 1-26.864 16.024l-.08.04c-7.224 3.392-14.656 6-20.56 6-5.936 0-13.392-2.6-20.64-6.032-7.752-3.656-16.92-9-26.856-16.024l-.048-.032a303.213 303.213 0 0 1-64.864-63.256 8.016 8.016 0 0 1-.4-.6c-43.08-56.568-78.464-141.928-63.2-257.088l.032-.248a37.84 37.84 0 0 1 25.68-31.016m74.816-22.568c-28.752 7.76-57.768 16.968-74.816 22.56l74.816-22.56Z" clip-rule="evenodd"/>
    <path fill="#fff" d="m161.449 285.776 7.04 24.288h.144l8.16-24.288h4.424l8.16 24.288h.136l7.04-24.288h5.096l-9.648 29.904h-4.8l-8.072-24.544h-.136l-8.072 24.544h-4.832l-9.64-29.904h5Zm69.272 14.248c-1.096 0-2.464.056-4.128.2a21.8 21.8 0 0 0-4.688.752c-1.488.4-2.744 1.016-3.84 1.856a4.236 4.236 0 0 0-1.568 3.504c0 .984.2 1.824.576 2.56a6.104 6.104 0 0 0 1.68 1.728c.71.44 1.485.764 2.296.96.856.16 1.744.248 2.6.248 1.576 0 2.92-.248 4.032-.752a8.488 8.488 0 0 0 2.92-2.048 8.221 8.221 0 0 0 1.688-3.064c.4-1.2.576-2.432.576-3.76v-2.16h-2.152l.008-.024Zm2.224-3.448v-.784c0-5.16-2.6-7.744-7.808-7.744-3.576 0-6.664 1.184-9.328 3.504l-2.6-3c2.856-2.88 7.152-4.344 12.904-4.344 1.488 0 2.88.224 4.232.64 1.4.424 2.576 1.096 3.576 2 1 .84 1.8 1.928 2.4 3.248.6 1.32.92 2.888.92 4.72v13.344c0 1.152.024 2.36.136 3.648.144 1.232.264 2.272.4 3.056h-4.168a26.257 26.257 0 0 1-.32-2.352c-.024-.848-.056-1.688-.056-2.504h-.144a11.76 11.76 0 0 1-4.488 4.352 13.963 13.963 0 0 1-6.264 1.288c-1.352 0-2.64-.2-3.92-.56a10.47 10.47 0 0 1-3.408-1.6 9.546 9.546 0 0 1-2.344-2.744 8.217 8.217 0 0 1-.856-3.84c0-2.448.624-4.32 1.888-5.696 1.312-1.408 2.912-2.448 4.8-3.12 1.952-.672 4.008-1.088 6.184-1.28 2.2-.176 4.232-.256 6.064-.256l2.2.024Zm25.696 19.104h-4.32v-48.304h4.32v48.304Zm21.856 0h-4.32v-48.304h4.32v48.304Zm40.272-18.04c0-2.856-.864-5.16-2.6-6.896-1.752-1.8-4.184-2.696-7.304-2.696a9.994 9.994 0 0 0-4.032.84 11.221 11.221 0 0 0-3.456 2.104 11.596 11.596 0 0 0-2.344 3.064 7.876 7.876 0 0 0-.864 3.584h20.6Zm-20.712 3.48a13.354 13.354 0 0 0 1.12 4.24 11.23 11.23 0 0 0 2.4 3.44c1 .928 2.144 1.688 3.456 2.248 1.32.56 2.72.84 4.24.84 2.32 0 4.264-.504 5.92-1.512 1.68-1.064 2.976-2.272 3.84-3.648l3.312 2.696a16.147 16.147 0 0 1-6.064 4.848 16.882 16.882 0 0 1-7.04 1.464c-2.256 0-4.376-.4-6.32-1.152a15.037 15.037 0 0 1-4.952-3.336 15.667 15.667 0 0 1-3.32-4.992 16.559 16.559 0 0 1-1.168-6.256c0-2.272.4-4.352 1.168-6.256a14.696 14.696 0 0 1 8.152-8.24c1.864-.824 3.896-1.216 6.072-1.216 2.32 0 4.376.4 6.176 1.208 1.832.816 3.344 1.912 4.552 3.256 1.256 1.312 2.2 2.888 2.856 4.712.656 1.792.976 3.704.976 5.752v1.904h-25.376Zm55.184-12.288h-8.784v17.648c0 1.088.112 2.016.344 2.744.232.672.512 1.2.912 1.6.4.392.864.672 1.376.84a7.69 7.69 0 0 0 1.832.2 9.56 9.56 0 0 0 4.432-1.152l.2 3.904a13.99 13.99 0 0 1-8.408.784 6.476 6.476 0 0 1-2.4-1.208 6.627 6.627 0 0 1-1.84-2.44 9.365 9.365 0 0 1-.712-4.016v-18.848h-6.432v-3.84h6.432v-8.44h4.296v8.44h8.776l-.024 3.784Z"/>
  </g>
  <defs>
    <linearGradient id="NOW_Wallet_svg__a" x1="256.801" x2="256.801" y1="58.76" y2="474.24" gradientUnits="userSpaceOnUse">
      <stop stop-color="#FB9600"/>
      <stop offset=".25" stop-color="#00C26F"/>
      <stop offset=".505" stop-color="#6696D6"/>
      <stop offset=".776" stop-color="#F28984"/>
      <stop offset="1" stop-color="#5FCEF0"/>
    </linearGradient>
    <linearGradient id="NOW_Wallet_svg__c" x1="256.641" x2="256.641" y1="0" y2="512" gradientUnits="userSpaceOnUse">
      <stop stop-color="#393A50"/>
      <stop offset="1" stop-color="#171826"/>
    </linearGradient>
    <linearGradient id="NOW_Wallet_svg__d" x1="257.442" x2="257.442" y1="58.76" y2="474.24" gradientUnits="userSpaceOnUse">
      <stop stop-color="#FB9600"/>
      <stop offset=".25" stop-color="#00C26F"/>
      <stop offset=".505" stop-color="#6696D6"/>
      <stop offset=".776" stop-color="#F28984"/>
      <stop offset="1" stop-color="#5FCEF0"/>
    </linearGradient>
  </defs>
</svg>
