<svg xmlns="http://www.w3.org/2000/svg" viewBox="0 0 138 32">
  <defs>
    <clipPath id="OnrampMoney_svg__a">
      <path d="M2 .016h31V25H2Zm0 0"/>
    </clipPath>
    <clipPath id="OnrampMoney_svg__b">
      <path d="M1 .016h32V30H1Zm0 0"/>
    </clipPath>
  </defs>
  <g clip-path="url(#OnrampMoney_svg__a)">
    <path d="M27.043.535h5.703l-18.941 19.86h11.047v4.187H2.996Zm0 0" style="stroke:none;fill-rule:nonzero;fill:#151515;fill-opacity:1"/>
  </g>
  <path d="m31.57 23.992-2.527 3.11V8.559L18.113 19.5h-3.68l17.137-18Zm0 0" style="stroke:none;fill-rule:nonzero;fill:#fff;fill-opacity:1"/>
  <path d="M3.082 28.43v-3.492h22.004V14.085l2.852-2.856v17.2Zm0 0" style="stroke:none;fill-rule:nonzero;fill:#fff;fill-opacity:1"/>
  <g clip-path="url(#OnrampMoney_svg__b)">
    <path d="M29.043 8.559v18.543l2.527-3.11V1.5l-17.136 18h3.68ZM19.676 19.5h4.304v-4.309Zm5.41-5.414v10.851H3.082v3.493h24.855v-17.2Zm3.406 15.45H1.977v-5.153L26.797-.465h5.879v24.848ZM30.86.64 11.852 20.609H23.98v3.223H4.09L27.254.641Zm0 0" style="stroke:none;fill-rule:evenodd;fill:#151515;fill-opacity:1"/>
  </g>
  <path d="M48.348 13.086c-.813 0-1.559-.14-2.239-.422a5.386 5.386 0 0 1-1.754-1.184c-.48-.5-.859-1.09-1.14-1.77a5.942 5.942 0 0 1-.403-2.206c0-.79.133-1.524.403-2.203.281-.68.66-1.27 1.14-1.77.493-.5 1.075-.89 1.754-1.172a5.661 5.661 0 0 1 2.239-.433c.808 0 1.554.144 2.234.433.68.282 1.258.672 1.738 1.172.492.5.871 1.09 1.14 1.77.282.68.423 1.414.423 2.203 0 .789-.14 1.527-.422 2.207-.27.68-.648 1.27-1.14 1.77-.481.5-1.06.894-1.739 1.183a5.792 5.792 0 0 1-2.234.422Zm0-1.352c.609 0 1.16-.109 1.648-.328.488-.23.91-.535 1.262-.918.347-.379.617-.824.808-1.332.192-.523.286-1.07.286-1.652a4.6 4.6 0 0 0-.286-1.633 4.007 4.007 0 0 0-.808-1.351 3.851 3.851 0 0 0-1.262-.899 3.82 3.82 0 0 0-1.648-.348c-.614 0-1.16.118-1.653.348-.488.219-.91.52-1.258.899a3.953 3.953 0 0 0-.812 1.351 4.689 4.689 0 0 0-.285 1.633c0 .582.097 1.129.285 1.652.191.508.46.953.813 1.332.347.383.769.688 1.257.918.492.219 1.04.328 1.653.328ZM57.953 2.195h1.887l5.851 8.73h.032v-8.73h1.437v10.617h-1.828l-5.91-8.726h-.031v8.727h-1.438ZM71.89 2.195h3.735c.68 0 1.238.094 1.68.285.441.18.785.415 1.035.704.262.28.441.601.539.96.101.352.152.692.152 1.02 0 .34-.062.672-.18.992a2.815 2.815 0 0 1-.527.852c-.219.25-.496.465-.824.648a2.91 2.91 0 0 1-1.078.313l3.012 4.843h-1.797l-2.703-4.68h-1.606v4.68h-1.437Zm1.438 4.68h1.89c.282 0 .555-.02.829-.063.277-.046.523-.132.734-.253.219-.122.395-.29.524-.508.129-.23.195-.528.195-.887 0-.36-.066-.648-.195-.871a1.323 1.323 0 0 0-.524-.523c-.21-.122-.457-.2-.734-.239a4.506 4.506 0 0 0-.828-.078h-1.89ZM95.516 2.195h2.144l3.375 8.04h.063l3.343-8.04h2.145v10.617h-1.441V4.086h-.028l-3.586 8.727h-.96l-3.583-8.727h-.031v8.727h-1.441ZM111.215 2.195h3.734c.68 0 1.242.094 1.68.285.441.18.785.415 1.035.704.262.28.441.601.54.96.1.352.151.692.151 1.02 0 .332-.05.676-.152 1.035a2.362 2.362 0 0 1-.539.961c-.25.277-.594.516-1.035.703-.438.18-1 .27-1.68.27h-2.293v4.68h-1.441Zm1.441 4.68h1.89c.278 0 .556-.02.825-.063.277-.046.524-.132.734-.253.22-.122.395-.29.524-.508.133-.23.195-.528.195-.887 0-.36-.062-.648-.195-.871a1.323 1.323 0 0 0-.524-.523c-.21-.122-.457-.2-.734-.239a4.464 4.464 0 0 0-.824-.078h-1.89ZM86.39 2.195h1.305l4.543 10.617h-1.68l-1.59-3.882-1.98-4.875h-.027l-3.57 8.758h-1.68Zm0 0" style="stroke:none;fill-rule:nonzero;fill:#151515;fill-opacity:1"/>
  <path d="M42.418 25.918c0-.297.102-.543.3-.742.2-.2.454-.297.766-.297.313 0 .57.098.782.297.207.199.308.445.308.742 0 .289-.101.531-.308.727-.211.19-.47.285-.782.285-.312 0-.566-.094-.765-.29a.976.976 0 0 1-.301-.722Zm12.258.898v-3.695c0-.465-.114-.82-.34-1.058-.223-.239-.52-.356-.883-.356-.46 0-.82.184-1.086.559-.265.37-.394.933-.394 1.687h-.641c0-.66.063-1.223.184-1.683.125-.461.3-.836.527-1.118.23-.285.496-.492.805-.625.308-.132.648-.199 1.02-.199.515 0 .948.117 1.296.352.348.226.613.554.793.972.176.422.266.91.266 1.47v3.694Zm-8.567 0v-6.308h1.336l.172 1.082c.207-.422.48-.735.824-.945a2.2 2.2 0 0 1 1.176-.317c.52 0 .953.117 1.301.352.352.226.613.554.785.972.18.422.27.91.27 1.47v3.694h-1.535v-3.695c0-.465-.114-.82-.34-1.058-.223-.239-.52-.356-.883-.356-.309 0-.582.082-.82.254-.235.168-.418.422-.551.766-.133.335-.203.761-.203 1.265v2.824Zm14.82.18a3.323 3.323 0 0 1-1.566-.371 2.714 2.714 0 0 1-1.105-1.105c-.274-.493-.406-1.11-.406-1.852 0-.754.132-1.379.406-1.871a2.667 2.667 0 0 1 1.105-1.106 3.365 3.365 0 0 1 1.567-.363c.57 0 1.082.121 1.543.363.46.243.832.61 1.105 1.106.27.492.406 1.117.406 1.871 0 .742-.136 1.36-.406 1.852-.273.492-.644.859-1.105 1.105-.461.246-.973.371-1.543.371Zm-.05-1.34c.305 0 .57-.074.805-.218.238-.153.425-.375.558-.672.14-.293.211-.66.211-1.098 0-.668-.133-1.168-.398-1.508-.258-.336-.617-.508-1.07-.508-.31 0-.583.078-.82.23-.24.145-.427.368-.567.669-.133.297-.2.672-.2 1.117 0 .66.13 1.156.395 1.488.27.336.629.5 1.086.5Zm9.262 1.16v-3.695c0-.465-.114-.82-.34-1.058-.223-.239-.52-.356-.883-.356-.309 0-.582.082-.82.254-.235.168-.418.422-.551.766-.133.335-.203.761-.203 1.265h-.504c0-.816.101-1.5.305-2.039.203-.547.492-.953.863-1.223.37-.27.812-.402 1.312-.402.52 0 .953.117 1.301.352.352.226.613.554.785.972.18.422.27.91.27 1.47v3.694Zm-4.329 0v-6.308h1.336l.196 1.25v5.058Zm10.454.18c-.54 0-1.032-.137-1.477-.414a3.064 3.064 0 0 1-1.074-1.164c-.27-.504-.403-1.09-.403-1.762 0-.695.133-1.289.399-1.789a2.888 2.888 0 0 1 1.07-1.144 2.88 2.88 0 0 1 1.485-.395c.5 0 .933.102 1.296.305.372.199.665.472.887.82.223.34.375.73.453 1.164.078.43.082.88.012 1.336h-4.379v-.832h3.297l-.3.195a2.74 2.74 0 0 0-.032-.617 1.81 1.81 0 0 0-.184-.57 1.058 1.058 0 0 0-.39-.418c-.164-.106-.375-.16-.637-.16-.312 0-.574.078-.793.234a1.47 1.47 0 0 0-.492.637c-.113.265-.172.57-.172.91v.61c0 .355.055.667.156.94.11.274.27.49.477.645.21.157.476.235.8.235.297 0 .547-.07.755-.207.203-.14.332-.348.386-.625h1.547a2.306 2.306 0 0 1-.46 1.078c-.24.308-.548.55-.93.73a3.112 3.112 0 0 1-1.297.258Zm3.578-6.488h1.742l1.676 4.969h-.274l1.442-4.97h1.562l-2.418 7.45c-.246.746-.554 1.285-.918 1.621-.36.332-.8.5-1.32.5a3.65 3.65 0 0 1-.875-.105 3.95 3.95 0 0 1-.867-.313V28.31c.238.148.469.257.691.324.223.07.45.105.676.105a.862.862 0 0 0 .531-.168c.156-.11.293-.261.403-.46.113-.196.21-.426.289-.684l.195-.61Zm0 0" style="stroke:none;fill-rule:nonzero;fill:#2c5bff;fill-opacity:1"/>
</svg>
