<svg xmlns="http://www.w3.org/2000/svg" fill="none" viewBox="0 0 512 512">
  <g clip-path="url(#pool_together_svg__a)">
    <path fill="#fff" d="M0 0h512v512H0z"/>
    <g clip-path="url(#pool_together_svg__b)">
      <mask id="pool_together_svg__c" width="512" height="512" x="0" y="0" maskUnits="userSpaceOnUse" style="mask-type:luminance">
        <path fill="#fff" d="M512 0H0v512h512V0Z"/>
      </mask>
      <g mask="url(#pool_together_svg__c)">
        <path fill="url(#pool_together_svg__d)" d="M256 512c141.385 0 256-114.615 256-256S397.385 0 256 0 0 114.615 0 256s114.615 256 256 256Z"/>
        <path fill="#fff" d="M267.526 70.043c58.096 0 105.195 47.884 105.195 106.951v61.497c0 59.069-47.099 106.952-105.195 106.952-9.126 0-17.981-1.182-26.424-3.402l.002 7.26c0 43.21-34.621 78.32-77.592 79.019l-1.305.01V193.037l.121-.003.003-16.04c0-59.067 47.098-106.951 105.195-106.951Zm0 80.214c-14.525 0-26.299 11.97-26.299 26.737v61.497c0 14.768 11.774 26.738 26.299 26.738s26.299-11.97 26.299-26.738v-61.497c0-14.767-11.774-26.737-26.299-26.737Z"/>
      </g>
    </g>
  </g>
  <defs>
    <clipPath id="pool_together_svg__a">
      <path fill="#fff" d="M0 0h512v512H0z"/>
    </clipPath>
    <clipPath id="pool_together_svg__b">
      <path fill="#fff" d="M0 0h512v512H0z"/>
    </clipPath>
    <linearGradient id="pool_together_svg__d" x1="256" x2="256" y1="0" y2="512" gradientUnits="userSpaceOnUse">
      <stop stop-color="#7E46F2"/>
      <stop offset="1" stop-color="#46279A"/>
    </linearGradient>
  </defs>
</svg>
