<svg xmlns="http://www.w3.org/2000/svg" fill="none" viewBox="0 0 512 512">
  <path fill="#fff" d="M0 0h512v512H0z"/>
  <path fill="#000" d="M475.283 255.837h-53.954c-16.093 0-29.147 13.437-29.147 30.032v80.573c0 16.563-13.055 30.016-29.163 30.016H148.428c-16.125 0-29.163 13.421-29.163 30v55.526c0 16.564 13.054 30.016 29.147 30.016h227.025c16.109 0 28.977-13.437 28.977-30.031v-44.536c0-16.564 13.055-28.328 29.164-28.328h41.705c16.094 0 29.148-13.437 29.148-30.031v-93.561c0-16.579-13.054-29.676-29.148-29.676ZM119.249 145.558c0-16.579 13.054-30.016 29.163-30.016h214.467c16.109 0 29.148-13.436 29.148-30.015V30.03C392.027 13.452 378.988 0 362.879 0H135.978c-16.109 0-29.148 13.452-29.148 30.031v42.771c0 16.58-13.07 30.031-29.178 30.031H36.147C20.04 102.833 7 116.255 7 132.834v93.669c0 16.579 13.1 29.35 29.21 29.35h53.938c16.109 0 29.148-13.437 29.148-30.031l-.047-80.264Zm111.071 51.935h51.814c16.9 0 30.59 14.103 30.59 31.471v53.329c0 17.368-13.706 31.471-30.59 31.471h-51.799c-16.899 0-30.589-14.118-30.589-31.471v-53.344c0-17.384 13.705-31.471 30.589-31.471l-.015.015Z"/>
</svg>
