<svg xmlns="http://www.w3.org/2000/svg" fill="none" viewBox="0 0 512 512">
  <g clip-path="url(#sushi_swap_svg__a)">
    <path fill="#fff" d="M0 0h512v512H0z"/>
    <g clip-path="url(#sushi_swap_svg__b)">
      <mask id="sushi_swap_svg__c" width="512" height="512" x="0" y="0" maskUnits="userSpaceOnUse" style="mask-type:luminance">
        <path fill="#fff" d="M512 0H0v512h512V0Z"/>
      </mask>
      <g mask="url(#sushi_swap_svg__c)">
        <path fill="url(#sushi_swap_svg__d)" d="M106.667 49.067 503.467 320l-98.134 145.067L8.533 192l98.134-142.933Z"/>
        <path fill="url(#sushi_swap_svg__e)" d="M503.467 320c-34.134 49.067-149.334 29.867-258.134-46.933C134.4 198.4 74.667 98.133 106.667 49.067 140.8 0 256 19.2 364.8 96c110.933 72.533 170.667 174.933 138.667 224Z"/>
        <path fill="url(#sushi_swap_svg__f)" d="M405.333 462.933C371.2 512 256 492.8 147.2 416 38.4 339.2-23.467 241.067 10.667 189.867 44.8 140.8 160 160 268.8 236.8c108.8 76.8 168.533 177.067 136.533 226.133Z"/>
        <path fill="#0E0F23" d="m503.467 320-98.134 145.067C371.2 514.133 256 492.8 147.2 418.133c-21.333-14.933-40.533-29.866-59.733-46.933 14.933-2.133 34.133-10.667 53.333-32 34.133-36.267 51.2-44.8 66.133-42.667 14.934 0 32 14.934 59.734 51.2 27.733 36.267 66.133 46.934 89.6 27.734 2.133-2.134 4.266-2.134 6.4-4.267 19.2-14.933 25.6-21.333 61.866-89.6 8.534-17.067 38.4-44.8 78.934-32 10.666 27.733 10.666 51.2 0 70.4Z"/>
        <path fill="#fff" fill-rule="evenodd" d="M488.533 311.467c-29.866 42.666-134.4 21.333-234.666-49.067C151.467 192 91.733 102.4 121.6 59.733 151.467 17.067 256 38.4 356.267 108.8c100.266 70.4 160 160 132.266 202.667Zm-93.866-64C379.733 268.8 328.533 258.133 277.333 224c-49.066-34.133-78.933-78.933-64-100.267 14.934-21.333 66.134-10.666 117.334 23.467 49.066 34.133 78.933 78.933 64 100.267Z" clip-rule="evenodd"/>
        <path fill="#fff" d="M98.133 98.133C98.133 96 96 93.867 93.867 96c-2.134 2.133-4.267 2.133-4.267 4.267 2.133 6.4 4.267 10.666 4.267 14.933 0 2.133 2.133 4.267 4.266 2.133 2.134 0 4.267-2.133 2.134-4.266 0-4.267 0-8.534-2.134-14.934ZM108.8 132.267c0-2.134-2.133-4.267-4.267-2.134-2.133 2.134-2.133 2.134-2.133 4.267 23.467 53.333 72.533 110.933 136.533 153.6 2.134 2.133 4.267 0 6.4 0 2.134-2.133 0-4.267 0-6.4C179.2 238.933 132.267 183.467 108.8 132.267ZM366.933 341.333c-2.133 0-4.266 0-4.266 2.134 0 2.133 0 4.266 2.133 4.266 6.4 2.134 14.933 4.267 21.333 6.4 2.134 0 4.267 0 4.267-2.133s0-4.267-2.133-4.267c-6.4-2.133-14.934-4.266-21.334-6.4ZM405.333 349.867c-2.133 0-4.266 2.133-4.266 4.266 0 2.134 2.133 4.267 4.266 4.267 17.067 2.133 36.267 4.267 51.2 2.133 2.134 0 4.267-2.133 4.267-4.266 0-2.134-2.133-4.267-4.267-4.267-17.066 2.133-34.133 0-51.2-2.133Z"/>
      </g>
    </g>
  </g>
  <defs>
    <linearGradient id="sushi_swap_svg__d" x1="184.41" x2="263.1" y1="10.545" y2="280.757" gradientUnits="userSpaceOnUse">
      <stop stop-color="#03B8FF"/>
      <stop offset="1" stop-color="#FA52A0"/>
    </linearGradient>
    <linearGradient id="sushi_swap_svg__e" x1="249.212" x2="327.904" y1="-8.329" y2="261.886" gradientUnits="userSpaceOnUse">
      <stop stop-color="#03B8FF"/>
      <stop offset="1" stop-color="#FA52A0"/>
    </linearGradient>
    <linearGradient id="sushi_swap_svg__f" x1="119.808" x2="198.5" y1="29.357" y2="299.571" gradientUnits="userSpaceOnUse">
      <stop stop-color="#03B8FF"/>
      <stop offset="1" stop-color="#FA52A0"/>
    </linearGradient>
    <clipPath id="sushi_swap_svg__a">
      <path fill="#fff" d="M0 0h512v512H0z"/>
    </clipPath>
    <clipPath id="sushi_swap_svg__b">
      <path fill="#fff" d="M0 0h512v512H0z"/>
    </clipPath>
  </defs>
</svg>
