<svg xmlns="http://www.w3.org/2000/svg" fill="none" viewBox="0 0 512 512">
  <path fill="#fff" d="M0 0h512v512H0z"/>
  <path fill="#FFAA46" d="M512 58c0 141.382-114.618 256-256 256S0 199.382 0 58h128c0 70.691 57.309 128 128 128s128-57.309 128-128h128Z"/>
  <path fill="#EE5A3F" d="M512 449.529c0-141.382-114.618-256-256-256S0 308.147 0 449.529h128c0-70.691 57.309-128 128-128s128 57.309 128 128h128Z"/>
  <path fill="#7F38A9" d="M90 253.759c44.148-37.481 102.132-60.23 165.644-60.23 63.511 0 121.495 22.749 165.643 60.23C377.139 291.263 319.155 314 255.644 314 192.132 314 134.148 291.251 90 253.759Z"/>
</svg>
